ISO-10303-21;
HEADER;
/* Generated by software containing ST-Developer
 * from STEP Tools, Inc. (www.steptools.com) 
 */
/* OPTION: using custom renumber hook */

FILE_DESCRIPTION(
/* description */ ('STEP AP242 Edition 2',
'CAx-IF Rec.Pracs.---Representation and Presentation of Product Manufa
cturing Information (PMI)---4.0---2014-10-13',
'CAx-IF Rec.Pracs.---3D Tessellated Geometry---0.4---2014-09-14','2;1',
'CAx-IF Rec.Pracs.---User Defined Attributes---1.5---2016-08-15'),
/* implementation_level */ '2;1');

FILE_NAME(
/* name */ 'Candy launcher - Lid',
/* time_stamp */ '2026-08-31T07:11:54Z',
/* author */ (''),
/* organization */ (''),
/* preprocessor_version */ 'ST-DEVELOPER v20',
/* originating_system */ 'ONSHAPE BY PTC INC, 1.220',
/* authorisation */ '  ');

FILE_SCHEMA (('AP242_MANAGED_MODEL_BASED_3D_ENGINEERING_MIM_LF { 1 0 10303 442 3 1 4 }'));
ENDSEC;

DATA;
#10=SHAPE_REPRESENTATION_RELATIONSHIP('','',#715,#11);
#11=ADVANCED_BREP_SHAPE_REPRESENTATION('',(#713),#1279);
#12=ORIENTED_CLOSED_SHELL('',*,#699,.F.);
#13=ORIENTED_CLOSED_SHELL('',*,#700,.F.);
#14=ORIENTED_CLOSED_SHELL('',*,#701,.F.);
#15=ORIENTED_CLOSED_SHELL('',*,#702,.F.);
#16=ORIENTED_CLOSED_SHELL('',*,#703,.F.);
#17=ORIENTED_CLOSED_SHELL('',*,#704,.F.);
#18=DEGENERATE_TOROIDAL_SURFACE('',#776,0.000558726127011356,0.0034,.T.);
#19=DEGENERATE_TOROIDAL_SURFACE('',#779,0.000558726127011356,0.0034,.T.);
#20=TOROIDAL_SURFACE('',#774,0.0293929351429769,0.0034);
#21=TOROIDAL_SURFACE('',#778,0.0293929351429769,0.0034);
#22=TOROIDAL_SURFACE('',#782,0.0293929351429769,0.0034);
#23=TOROIDAL_SURFACE('',#783,0.0293929351429769,0.0034);
#24=B_SPLINE_CURVE_WITH_KNOTS('',3,(#1160,#1161,#1162,#1163,#1164),
 .UNSPECIFIED.,.F.,.F.,(4,1,4),(0.,0.00269371231621194,0.00538742463242387),
 .UNSPECIFIED.);
#25=B_SPLINE_CURVE_WITH_KNOTS('',3,(#1168,#1169,#1170,#1171,#1172),
 .UNSPECIFIED.,.F.,.F.,(4,1,4),(8.67361737988404E-18,0.00269367002384328,
0.00538734004768654),.UNSPECIFIED.);
#26=B_SPLINE_CURVE_WITH_KNOTS('',3,(#1173,#1174,#1175,#1176,#1177),
 .UNSPECIFIED.,.F.,.F.,(4,1,4),(0.,0.00269371231621196,0.00538742463242391),
 .UNSPECIFIED.);
#27=B_SPLINE_CURVE_WITH_KNOTS('',3,(#1181,#1182,#1183,#1184,#1185),
 .UNSPECIFIED.,.F.,.F.,(4,1,4),(0.,0.00269367002384326,0.00538734004768652),
 .UNSPECIFIED.);
#28=B_SPLINE_CURVE_WITH_KNOTS('',3,(#1217,#1218,#1219,#1220,#1221),
 .UNSPECIFIED.,.F.,.F.,(4,1,4),(-2.0476672521312E-5,0.0048122149076743,
0.00964490648786991),.UNSPECIFIED.);
#29=B_SPLINE_CURVE_WITH_KNOTS('',3,(#1230,#1231,#1232,#1233,#1234),
 .UNSPECIFIED.,.F.,.F.,(4,1,4),(-2.0476672521312E-5,0.0048122149076743,
0.00964490648786991),.UNSPECIFIED.);
#30=CYLINDRICAL_SURFACE('',#724,0.01);
#31=CYLINDRICAL_SURFACE('',#728,0.01);
#32=CYLINDRICAL_SURFACE('',#732,0.01);
#33=CYLINDRICAL_SURFACE('',#736,0.01);
#34=CYLINDRICAL_SURFACE('',#740,0.01);
#35=CYLINDRICAL_SURFACE('',#744,0.01);
#36=CYLINDRICAL_SURFACE('',#748,0.01);
#37=CYLINDRICAL_SURFACE('',#752,0.01);
#38=CYLINDRICAL_SURFACE('',#757,0.0259929351429769);
#39=CYLINDRICAL_SURFACE('',#760,0.0259929351429769);
#40=CYLINDRICAL_SURFACE('',#763,0.00395872612701135);
#41=CYLINDRICAL_SURFACE('',#784,0.002);
#42=CYLINDRICAL_SURFACE('',#789,0.002);
#43=CYLINDRICAL_SURFACE('',#794,0.002);
#44=CYLINDRICAL_SURFACE('',#799,0.002);
#45=CYLINDRICAL_SURFACE('',#804,0.002);
#46=CYLINDRICAL_SURFACE('',#809,0.002);
#47=LINE('',#1055,#85);
#48=LINE('',#1057,#86);
#49=LINE('',#1064,#87);
#50=LINE('',#1067,#88);
#51=LINE('',#1069,#89);
#52=LINE('',#1071,#90);
#53=LINE('',#1075,#91);
#54=LINE('',#1079,#92);
#55=LINE('',#1081,#93);
#56=LINE('',#1083,#94);
#57=LINE('',#1087,#95);
#58=LINE('',#1091,#96);
#59=LINE('',#1093,#97);
#60=LINE('',#1095,#98);
#61=LINE('',#1099,#99);
#62=LINE('',#1103,#100);
#63=LINE('',#1105,#101);
#64=LINE('',#1107,#102);
#65=LINE('',#1111,#103);
#66=LINE('',#1115,#104);
#67=LINE('',#1117,#105);
#68=LINE('',#1119,#106);
#69=LINE('',#1123,#107);
#70=LINE('',#1127,#108);
#71=LINE('',#1129,#109);
#72=LINE('',#1131,#110);
#73=LINE('',#1135,#111);
#74=LINE('',#1139,#112);
#75=LINE('',#1141,#113);
#76=LINE('',#1143,#114);
#77=LINE('',#1147,#115);
#78=LINE('',#1151,#116);
#79=LINE('',#1153,#117);
#80=LINE('',#1155,#118);
#81=LINE('',#1166,#119);
#82=LINE('',#1179,#120);
#83=LINE('',#1190,#121);
#84=LINE('',#1194,#122);
#85=VECTOR('',#822,1.);
#86=VECTOR('',#825,1.);
#87=VECTOR('',#832,1.);
#88=VECTOR('',#833,1.);
#89=VECTOR('',#834,1.);
#90=VECTOR('',#835,1.);
#91=VECTOR('',#840,1.);
#92=VECTOR('',#845,1.);
#93=VECTOR('',#846,1.);
#94=VECTOR('',#847,1.);
#95=VECTOR('',#852,1.);
#96=VECTOR('',#857,1.);
#97=VECTOR('',#858,1.);
#98=VECTOR('',#859,1.);
#99=VECTOR('',#864,1.);
#100=VECTOR('',#869,1.);
#101=VECTOR('',#870,1.);
#102=VECTOR('',#871,1.);
#103=VECTOR('',#876,1.);
#104=VECTOR('',#881,1.);
#105=VECTOR('',#882,1.);
#106=VECTOR('',#883,1.);
#107=VECTOR('',#888,1.);
#108=VECTOR('',#893,1.);
#109=VECTOR('',#894,1.);
#110=VECTOR('',#895,1.);
#111=VECTOR('',#900,1.);
#112=VECTOR('',#905,1.);
#113=VECTOR('',#906,1.);
#114=VECTOR('',#907,1.);
#115=VECTOR('',#912,1.);
#116=VECTOR('',#917,1.);
#117=VECTOR('',#918,1.);
#118=VECTOR('',#919,1.);
#119=VECTOR('',#928,1.);
#120=VECTOR('',#929,1.);
#121=VECTOR('',#936,1.);
#122=VECTOR('',#941,1.);
#123=ORIENTED_EDGE('',*,*,#307,.T.);
#124=ORIENTED_EDGE('',*,*,#308,.T.);
#125=ORIENTED_EDGE('',*,*,#309,.T.);
#126=ORIENTED_EDGE('',*,*,#310,.F.);
#127=ORIENTED_EDGE('',*,*,#311,.T.);
#128=ORIENTED_EDGE('',*,*,#312,.T.);
#129=ORIENTED_EDGE('',*,*,#313,.F.);
#130=ORIENTED_EDGE('',*,*,#314,.F.);
#131=ORIENTED_EDGE('',*,*,#315,.T.);
#132=ORIENTED_EDGE('',*,*,#316,.T.);
#133=ORIENTED_EDGE('',*,*,#317,.T.);
#134=ORIENTED_EDGE('',*,*,#318,.F.);
#135=ORIENTED_EDGE('',*,*,#319,.F.);
#136=ORIENTED_EDGE('',*,*,#314,.T.);
#137=ORIENTED_EDGE('',*,*,#320,.F.);
#138=ORIENTED_EDGE('',*,*,#321,.F.);
#139=ORIENTED_EDGE('',*,*,#322,.T.);
#140=ORIENTED_EDGE('',*,*,#318,.T.);
#141=ORIENTED_EDGE('',*,*,#323,.T.);
#142=ORIENTED_EDGE('',*,*,#324,.F.);
#143=ORIENTED_EDGE('',*,*,#325,.F.);
#144=ORIENTED_EDGE('',*,*,#321,.T.);
#145=ORIENTED_EDGE('',*,*,#326,.F.);
#146=ORIENTED_EDGE('',*,*,#327,.F.);
#147=ORIENTED_EDGE('',*,*,#328,.T.);
#148=ORIENTED_EDGE('',*,*,#324,.T.);
#149=ORIENTED_EDGE('',*,*,#329,.T.);
#150=ORIENTED_EDGE('',*,*,#330,.F.);
#151=ORIENTED_EDGE('',*,*,#331,.F.);
#152=ORIENTED_EDGE('',*,*,#327,.T.);
#153=ORIENTED_EDGE('',*,*,#332,.F.);
#154=ORIENTED_EDGE('',*,*,#333,.F.);
#155=ORIENTED_EDGE('',*,*,#334,.T.);
#156=ORIENTED_EDGE('',*,*,#330,.T.);
#157=ORIENTED_EDGE('',*,*,#335,.T.);
#158=ORIENTED_EDGE('',*,*,#336,.F.);
#159=ORIENTED_EDGE('',*,*,#337,.F.);
#160=ORIENTED_EDGE('',*,*,#333,.T.);
#161=ORIENTED_EDGE('',*,*,#338,.F.);
#162=ORIENTED_EDGE('',*,*,#339,.F.);
#163=ORIENTED_EDGE('',*,*,#340,.T.);
#164=ORIENTED_EDGE('',*,*,#336,.T.);
#165=ORIENTED_EDGE('',*,*,#341,.T.);
#166=ORIENTED_EDGE('',*,*,#342,.F.);
#167=ORIENTED_EDGE('',*,*,#343,.F.);
#168=ORIENTED_EDGE('',*,*,#339,.T.);
#169=ORIENTED_EDGE('',*,*,#344,.F.);
#170=ORIENTED_EDGE('',*,*,#345,.F.);
#171=ORIENTED_EDGE('',*,*,#346,.T.);
#172=ORIENTED_EDGE('',*,*,#342,.T.);
#173=ORIENTED_EDGE('',*,*,#347,.T.);
#174=ORIENTED_EDGE('',*,*,#348,.F.);
#175=ORIENTED_EDGE('',*,*,#349,.F.);
#176=ORIENTED_EDGE('',*,*,#345,.T.);
#177=ORIENTED_EDGE('',*,*,#350,.F.);
#178=ORIENTED_EDGE('',*,*,#351,.F.);
#179=ORIENTED_EDGE('',*,*,#352,.T.);
#180=ORIENTED_EDGE('',*,*,#348,.T.);
#181=ORIENTED_EDGE('',*,*,#353,.T.);
#182=ORIENTED_EDGE('',*,*,#354,.F.);
#183=ORIENTED_EDGE('',*,*,#355,.F.);
#184=ORIENTED_EDGE('',*,*,#351,.T.);
#185=ORIENTED_EDGE('',*,*,#356,.F.);
#186=ORIENTED_EDGE('',*,*,#357,.F.);
#187=ORIENTED_EDGE('',*,*,#358,.T.);
#188=ORIENTED_EDGE('',*,*,#354,.T.);
#189=ORIENTED_EDGE('',*,*,#359,.T.);
#190=ORIENTED_EDGE('',*,*,#316,.F.);
#191=ORIENTED_EDGE('',*,*,#360,.F.);
#192=ORIENTED_EDGE('',*,*,#357,.T.);
#193=ORIENTED_EDGE('',*,*,#309,.F.);
#194=ORIENTED_EDGE('',*,*,#361,.T.);
#195=ORIENTED_EDGE('',*,*,#362,.F.);
#196=ORIENTED_EDGE('',*,*,#363,.T.);
#197=ORIENTED_EDGE('',*,*,#310,.T.);
#198=ORIENTED_EDGE('',*,*,#364,.T.);
#199=ORIENTED_EDGE('',*,*,#365,.T.);
#200=ORIENTED_EDGE('',*,*,#366,.T.);
#201=ORIENTED_EDGE('',*,*,#315,.F.);
#202=ORIENTED_EDGE('',*,*,#319,.T.);
#203=ORIENTED_EDGE('',*,*,#322,.F.);
#204=ORIENTED_EDGE('',*,*,#325,.T.);
#205=ORIENTED_EDGE('',*,*,#328,.F.);
#206=ORIENTED_EDGE('',*,*,#331,.T.);
#207=ORIENTED_EDGE('',*,*,#334,.F.);
#208=ORIENTED_EDGE('',*,*,#337,.T.);
#209=ORIENTED_EDGE('',*,*,#340,.F.);
#210=ORIENTED_EDGE('',*,*,#343,.T.);
#211=ORIENTED_EDGE('',*,*,#346,.F.);
#212=ORIENTED_EDGE('',*,*,#349,.T.);
#213=ORIENTED_EDGE('',*,*,#352,.F.);
#214=ORIENTED_EDGE('',*,*,#355,.T.);
#215=ORIENTED_EDGE('',*,*,#358,.F.);
#216=ORIENTED_EDGE('',*,*,#360,.T.);
#217=ORIENTED_EDGE('',*,*,#313,.T.);
#218=ORIENTED_EDGE('',*,*,#359,.F.);
#219=ORIENTED_EDGE('',*,*,#356,.T.);
#220=ORIENTED_EDGE('',*,*,#353,.F.);
#221=ORIENTED_EDGE('',*,*,#350,.T.);
#222=ORIENTED_EDGE('',*,*,#347,.F.);
#223=ORIENTED_EDGE('',*,*,#344,.T.);
#224=ORIENTED_EDGE('',*,*,#341,.F.);
#225=ORIENTED_EDGE('',*,*,#338,.T.);
#226=ORIENTED_EDGE('',*,*,#335,.F.);
#227=ORIENTED_EDGE('',*,*,#332,.T.);
#228=ORIENTED_EDGE('',*,*,#329,.F.);
#229=ORIENTED_EDGE('',*,*,#326,.T.);
#230=ORIENTED_EDGE('',*,*,#323,.F.);
#231=ORIENTED_EDGE('',*,*,#320,.T.);
#232=ORIENTED_EDGE('',*,*,#317,.F.);
#233=ORIENTED_EDGE('',*,*,#365,.F.);
#234=ORIENTED_EDGE('',*,*,#367,.T.);
#235=ORIENTED_EDGE('',*,*,#368,.T.);
#236=ORIENTED_EDGE('',*,*,#369,.T.);
#237=ORIENTED_EDGE('',*,*,#370,.F.);
#238=ORIENTED_EDGE('',*,*,#371,.T.);
#239=ORIENTED_EDGE('',*,*,#362,.T.);
#240=ORIENTED_EDGE('',*,*,#372,.T.);
#241=ORIENTED_EDGE('',*,*,#368,.F.);
#242=ORIENTED_EDGE('',*,*,#373,.T.);
#243=ORIENTED_EDGE('',*,*,#370,.T.);
#244=ORIENTED_EDGE('',*,*,#374,.T.);
#245=ORIENTED_EDGE('',*,*,#375,.T.);
#246=ORIENTED_EDGE('',*,*,#376,.T.);
#247=ORIENTED_EDGE('',*,*,#377,.T.);
#248=ORIENTED_EDGE('',*,*,#378,.T.);
#249=ORIENTED_EDGE('',*,*,#379,.T.);
#250=ORIENTED_EDGE('',*,*,#380,.T.);
#251=ORIENTED_EDGE('',*,*,#381,.F.);
#252=ORIENTED_EDGE('',*,*,#375,.F.);
#253=ORIENTED_EDGE('',*,*,#382,.F.);
#254=ORIENTED_EDGE('',*,*,#367,.F.);
#255=ORIENTED_EDGE('',*,*,#364,.F.);
#256=ORIENTED_EDGE('',*,*,#312,.F.);
#257=ORIENTED_EDGE('',*,*,#382,.T.);
#258=ORIENTED_EDGE('',*,*,#377,.F.);
#259=ORIENTED_EDGE('',*,*,#383,.F.);
#260=ORIENTED_EDGE('',*,*,#373,.F.);
#261=ORIENTED_EDGE('',*,*,#381,.T.);
#262=ORIENTED_EDGE('',*,*,#311,.F.);
#263=ORIENTED_EDGE('',*,*,#363,.F.);
#264=ORIENTED_EDGE('',*,*,#371,.F.);
#265=ORIENTED_EDGE('',*,*,#383,.T.);
#266=ORIENTED_EDGE('',*,*,#376,.F.);
#267=ORIENTED_EDGE('',*,*,#384,.F.);
#268=ORIENTED_EDGE('',*,*,#378,.F.);
#269=ORIENTED_EDGE('',*,*,#385,.F.);
#270=ORIENTED_EDGE('',*,*,#374,.F.);
#271=ORIENTED_EDGE('',*,*,#385,.T.);
#272=ORIENTED_EDGE('',*,*,#380,.F.);
#273=ORIENTED_EDGE('',*,*,#386,.F.);
#274=ORIENTED_EDGE('',*,*,#307,.F.);
#275=ORIENTED_EDGE('',*,*,#366,.F.);
#276=ORIENTED_EDGE('',*,*,#369,.F.);
#277=ORIENTED_EDGE('',*,*,#384,.T.);
#278=ORIENTED_EDGE('',*,*,#372,.F.);
#279=ORIENTED_EDGE('',*,*,#361,.F.);
#280=ORIENTED_EDGE('',*,*,#308,.F.);
#281=ORIENTED_EDGE('',*,*,#386,.T.);
#282=ORIENTED_EDGE('',*,*,#379,.F.);
#283=ORIENTED_EDGE('',*,*,#387,.F.);
#284=ORIENTED_EDGE('',*,*,#388,.T.);
#285=ORIENTED_EDGE('',*,*,#387,.T.);
#286=ORIENTED_EDGE('',*,*,#388,.F.);
#287=ORIENTED_EDGE('',*,*,#389,.F.);
#288=ORIENTED_EDGE('',*,*,#390,.T.);
#289=ORIENTED_EDGE('',*,*,#389,.T.);
#290=ORIENTED_EDGE('',*,*,#390,.F.);
#291=ORIENTED_EDGE('',*,*,#391,.F.);
#292=ORIENTED_EDGE('',*,*,#392,.T.);
#293=ORIENTED_EDGE('',*,*,#391,.T.);
#294=ORIENTED_EDGE('',*,*,#392,.F.);
#295=ORIENTED_EDGE('',*,*,#393,.T.);
#296=ORIENTED_EDGE('',*,*,#394,.F.);
#297=ORIENTED_EDGE('',*,*,#393,.F.);
#298=ORIENTED_EDGE('',*,*,#394,.T.);
#299=ORIENTED_EDGE('',*,*,#395,.T.);
#300=ORIENTED_EDGE('',*,*,#396,.F.);
#301=ORIENTED_EDGE('',*,*,#395,.F.);
#302=ORIENTED_EDGE('',*,*,#396,.T.);
#303=ORIENTED_EDGE('',*,*,#397,.T.);
#304=ORIENTED_EDGE('',*,*,#398,.F.);
#305=ORIENTED_EDGE('',*,*,#397,.F.);
#306=ORIENTED_EDGE('',*,*,#398,.T.);
#307=EDGE_CURVE('',#399,#400,#463,.T.);
#308=EDGE_CURVE('',#400,#401,#464,.T.);
#309=EDGE_CURVE('',#401,#399,#47,.T.);
#310=EDGE_CURVE('',#402,#403,#48,.T.);
#311=EDGE_CURVE('',#402,#404,#465,.F.);
#312=EDGE_CURVE('',#404,#403,#466,.F.);
#313=EDGE_CURVE('',#405,#406,#49,.T.);
#314=EDGE_CURVE('',#407,#405,#50,.T.);
#315=EDGE_CURVE('',#407,#408,#51,.T.);
#316=EDGE_CURVE('',#408,#406,#52,.T.);
#317=EDGE_CURVE('',#405,#409,#467,.T.);
#318=EDGE_CURVE('',#410,#409,#53,.T.);
#319=EDGE_CURVE('',#407,#410,#468,.T.);
#320=EDGE_CURVE('',#411,#409,#54,.T.);
#321=EDGE_CURVE('',#412,#411,#55,.T.);
#322=EDGE_CURVE('',#412,#410,#56,.T.);
#323=EDGE_CURVE('',#411,#413,#469,.T.);
#324=EDGE_CURVE('',#414,#413,#57,.T.);
#325=EDGE_CURVE('',#412,#414,#470,.T.);
#326=EDGE_CURVE('',#415,#413,#58,.T.);
#327=EDGE_CURVE('',#416,#415,#59,.T.);
#328=EDGE_CURVE('',#416,#414,#60,.T.);
#329=EDGE_CURVE('',#415,#417,#471,.T.);
#330=EDGE_CURVE('',#418,#417,#61,.T.);
#331=EDGE_CURVE('',#416,#418,#472,.T.);
#332=EDGE_CURVE('',#419,#417,#62,.T.);
#333=EDGE_CURVE('',#420,#419,#63,.T.);
#334=EDGE_CURVE('',#420,#418,#64,.T.);
#335=EDGE_CURVE('',#419,#421,#473,.T.);
#336=EDGE_CURVE('',#422,#421,#65,.T.);
#337=EDGE_CURVE('',#420,#422,#474,.T.);
#338=EDGE_CURVE('',#423,#421,#66,.T.);
#339=EDGE_CURVE('',#424,#423,#67,.T.);
#340=EDGE_CURVE('',#424,#422,#68,.T.);
#341=EDGE_CURVE('',#423,#425,#475,.T.);
#342=EDGE_CURVE('',#426,#425,#69,.T.);
#343=EDGE_CURVE('',#424,#426,#476,.T.);
#344=EDGE_CURVE('',#427,#425,#70,.T.);
#345=EDGE_CURVE('',#428,#427,#71,.T.);
#346=EDGE_CURVE('',#428,#426,#72,.T.);
#347=EDGE_CURVE('',#427,#429,#477,.T.);
#348=EDGE_CURVE('',#430,#429,#73,.T.);
#349=EDGE_CURVE('',#428,#430,#478,.T.);
#350=EDGE_CURVE('',#431,#429,#74,.T.);
#351=EDGE_CURVE('',#432,#431,#75,.T.);
#352=EDGE_CURVE('',#432,#430,#76,.T.);
#353=EDGE_CURVE('',#431,#433,#479,.T.);
#354=EDGE_CURVE('',#434,#433,#77,.T.);
#355=EDGE_CURVE('',#432,#434,#480,.T.);
#356=EDGE_CURVE('',#435,#433,#78,.T.);
#357=EDGE_CURVE('',#436,#435,#79,.T.);
#358=EDGE_CURVE('',#436,#434,#80,.T.);
#359=EDGE_CURVE('',#435,#406,#481,.T.);
#360=EDGE_CURVE('',#436,#408,#482,.T.);
#361=EDGE_CURVE('',#401,#437,#24,.T.);
#362=EDGE_CURVE('',#438,#437,#81,.T.);
#363=EDGE_CURVE('',#438,#402,#25,.T.);
#364=EDGE_CURVE('',#403,#439,#26,.T.);
#365=EDGE_CURVE('',#439,#440,#82,.T.);
#366=EDGE_CURVE('',#440,#399,#27,.T.);
#367=EDGE_CURVE('',#439,#441,#483,.T.);
#368=EDGE_CURVE('',#441,#442,#83,.T.);
#369=EDGE_CURVE('',#442,#440,#484,.F.);
#370=EDGE_CURVE('',#443,#444,#84,.T.);
#371=EDGE_CURVE('',#443,#438,#485,.T.);
#372=EDGE_CURVE('',#437,#444,#486,.F.);
#373=EDGE_CURVE('',#441,#443,#487,.F.);
#374=EDGE_CURVE('',#444,#442,#488,.T.);
#375=EDGE_CURVE('',#445,#446,#489,.F.);
#376=EDGE_CURVE('',#446,#447,#490,.F.);
#377=EDGE_CURVE('',#447,#445,#491,.T.);
#378=EDGE_CURVE('',#448,#449,#492,.F.);
#379=EDGE_CURVE('',#449,#450,#493,.T.);
#380=EDGE_CURVE('',#450,#448,#494,.T.);
#381=EDGE_CURVE('',#446,#404,#28,.T.);
#382=EDGE_CURVE('',#441,#445,#495,.T.);
#383=EDGE_CURVE('',#443,#447,#496,.T.);
#384=EDGE_CURVE('',#449,#444,#497,.T.);
#385=EDGE_CURVE('',#442,#448,#498,.T.);
#386=EDGE_CURVE('',#400,#450,#29,.F.);
#387=EDGE_CURVE('',#451,#451,#499,.T.);
#388=EDGE_CURVE('',#452,#452,#500,.T.);
#389=EDGE_CURVE('',#453,#453,#501,.T.);
#390=EDGE_CURVE('',#454,#454,#502,.T.);
#391=EDGE_CURVE('',#455,#455,#503,.T.);
#392=EDGE_CURVE('',#456,#456,#504,.T.);
#393=EDGE_CURVE('',#457,#457,#505,.T.);
#394=EDGE_CURVE('',#458,#458,#506,.T.);
#395=EDGE_CURVE('',#459,#459,#507,.T.);
#396=EDGE_CURVE('',#460,#460,#508,.T.);
#397=EDGE_CURVE('',#461,#461,#509,.T.);
#398=EDGE_CURVE('',#462,#462,#510,.T.);
#399=VERTEX_POINT('',#1051);
#400=VERTEX_POINT('',#1052);
#401=VERTEX_POINT('',#1054);
#402=VERTEX_POINT('',#1058);
#403=VERTEX_POINT('',#1059);
#404=VERTEX_POINT('',#1061);
#405=VERTEX_POINT('',#1065);
#406=VERTEX_POINT('',#1066);
#407=VERTEX_POINT('',#1068);
#408=VERTEX_POINT('',#1070);
#409=VERTEX_POINT('',#1074);
#410=VERTEX_POINT('',#1076);
#411=VERTEX_POINT('',#1080);
#412=VERTEX_POINT('',#1082);
#413=VERTEX_POINT('',#1086);
#414=VERTEX_POINT('',#1088);
#415=VERTEX_POINT('',#1092);
#416=VERTEX_POINT('',#1094);
#417=VERTEX_POINT('',#1098);
#418=VERTEX_POINT('',#1100);
#419=VERTEX_POINT('',#1104);
#420=VERTEX_POINT('',#1106);
#421=VERTEX_POINT('',#1110);
#422=VERTEX_POINT('',#1112);
#423=VERTEX_POINT('',#1116);
#424=VERTEX_POINT('',#1118);
#425=VERTEX_POINT('',#1122);
#426=VERTEX_POINT('',#1124);
#427=VERTEX_POINT('',#1128);
#428=VERTEX_POINT('',#1130);
#429=VERTEX_POINT('',#1134);
#430=VERTEX_POINT('',#1136);
#431=VERTEX_POINT('',#1140);
#432=VERTEX_POINT('',#1142);
#433=VERTEX_POINT('',#1146);
#434=VERTEX_POINT('',#1148);
#435=VERTEX_POINT('',#1152);
#436=VERTEX_POINT('',#1154);
#437=VERTEX_POINT('',#1165);
#438=VERTEX_POINT('',#1167);
#439=VERTEX_POINT('',#1178);
#440=VERTEX_POINT('',#1180);
#441=VERTEX_POINT('',#1189);
#442=VERTEX_POINT('',#1191);
#443=VERTEX_POINT('',#1195);
#444=VERTEX_POINT('',#1196);
#445=VERTEX_POINT('',#1204);
#446=VERTEX_POINT('',#1205);
#447=VERTEX_POINT('',#1207);
#448=VERTEX_POINT('',#1211);
#449=VERTEX_POINT('',#1212);
#450=VERTEX_POINT('',#1214);
#451=VERTEX_POINT('',#1238);
#452=VERTEX_POINT('',#1240);
#453=VERTEX_POINT('',#1245);
#454=VERTEX_POINT('',#1247);
#455=VERTEX_POINT('',#1252);
#456=VERTEX_POINT('',#1254);
#457=VERTEX_POINT('',#1259);
#458=VERTEX_POINT('',#1261);
#459=VERTEX_POINT('',#1266);
#460=VERTEX_POINT('',#1268);
#461=VERTEX_POINT('',#1273);
#462=VERTEX_POINT('',#1275);
#463=CIRCLE('',#718,0.0293929351429769);
#464=CIRCLE('',#719,0.0293929351429769);
#465=CIRCLE('',#721,0.0293929351429769);
#466=CIRCLE('',#722,0.0293929351429769);
#467=CIRCLE('',#725,0.01);
#468=CIRCLE('',#726,0.01);
#469=CIRCLE('',#729,0.01);
#470=CIRCLE('',#730,0.01);
#471=CIRCLE('',#733,0.01);
#472=CIRCLE('',#734,0.01);
#473=CIRCLE('',#737,0.01);
#474=CIRCLE('',#738,0.01);
#475=CIRCLE('',#741,0.01);
#476=CIRCLE('',#742,0.01);
#477=CIRCLE('',#745,0.01);
#478=CIRCLE('',#746,0.01);
#479=CIRCLE('',#749,0.01);
#480=CIRCLE('',#750,0.01);
#481=CIRCLE('',#753,0.01);
#482=CIRCLE('',#754,0.01);
#483=CIRCLE('',#758,0.0259929351429769);
#484=CIRCLE('',#759,0.0259929351429769);
#485=CIRCLE('',#761,0.0259929351429769);
#486=CIRCLE('',#762,0.0259929351429769);
#487=CIRCLE('',#764,0.00395872612701135);
#488=CIRCLE('',#765,0.00395872612701135);
#489=CIRCLE('',#767,0.0293929351429769);
#490=CIRCLE('',#768,0.0293929351429769);
#491=CIRCLE('',#769,0.000558726127011356);
#492=CIRCLE('',#771,0.000558726127011356);
#493=CIRCLE('',#772,0.0293929351429769);
#494=CIRCLE('',#773,0.0293929351429769);
#495=CIRCLE('',#775,0.0034);
#496=CIRCLE('',#777,0.0034);
#497=CIRCLE('',#780,0.0034);
#498=CIRCLE('',#781,0.0034);
#499=CIRCLE('',#785,0.002);
#500=CIRCLE('',#786,0.002);
#501=CIRCLE('',#790,0.002);
#502=CIRCLE('',#791,0.002);
#503=CIRCLE('',#795,0.002);
#504=CIRCLE('',#796,0.002);
#505=CIRCLE('',#800,0.002);
#506=CIRCLE('',#801,0.002);
#507=CIRCLE('',#805,0.002);
#508=CIRCLE('',#806,0.002);
#509=CIRCLE('',#810,0.002);
#510=CIRCLE('',#811,0.002);
#511=EDGE_LOOP('',(#123,#124,#125));
#512=EDGE_LOOP('',(#126,#127,#128));
#513=EDGE_LOOP('',(#129,#130,#131,#132));
#514=EDGE_LOOP('',(#133,#134,#135,#136));
#515=EDGE_LOOP('',(#137,#138,#139,#140));
#516=EDGE_LOOP('',(#141,#142,#143,#144));
#517=EDGE_LOOP('',(#145,#146,#147,#148));
#518=EDGE_LOOP('',(#149,#150,#151,#152));
#519=EDGE_LOOP('',(#153,#154,#155,#156));
#520=EDGE_LOOP('',(#157,#158,#159,#160));
#521=EDGE_LOOP('',(#161,#162,#163,#164));
#522=EDGE_LOOP('',(#165,#166,#167,#168));
#523=EDGE_LOOP('',(#169,#170,#171,#172));
#524=EDGE_LOOP('',(#173,#174,#175,#176));
#525=EDGE_LOOP('',(#177,#178,#179,#180));
#526=EDGE_LOOP('',(#181,#182,#183,#184));
#527=EDGE_LOOP('',(#185,#186,#187,#188));
#528=EDGE_LOOP('',(#189,#190,#191,#192));
#529=EDGE_LOOP('',(#193,#194,#195,#196,#197,#198,#199,#200));
#530=EDGE_LOOP('',(#201,#202,#203,#204,#205,#206,#207,#208,#209,#210,#211,
#212,#213,#214,#215,#216));
#531=EDGE_LOOP('',(#217,#218,#219,#220,#221,#222,#223,#224,#225,#226,#227,
#228,#229,#230,#231,#232));
#532=EDGE_LOOP('',(#233,#234,#235,#236));
#533=EDGE_LOOP('',(#237,#238,#239,#240));
#534=EDGE_LOOP('',(#241,#242,#243,#244));
#535=EDGE_LOOP('',(#245,#246,#247));
#536=EDGE_LOOP('',(#248,#249,#250));
#537=EDGE_LOOP('',(#251,#252,#253,#254,#255,#256));
#538=EDGE_LOOP('',(#257,#258,#259,#260));
#539=EDGE_LOOP('',(#261,#262,#263,#264,#265,#266));
#540=EDGE_LOOP('',(#267,#268,#269,#270));
#541=EDGE_LOOP('',(#271,#272,#273,#274,#275,#276));
#542=EDGE_LOOP('',(#277,#278,#279,#280,#281,#282));
#543=EDGE_LOOP('',(#283));
#544=EDGE_LOOP('',(#284));
#545=EDGE_LOOP('',(#285));
#546=EDGE_LOOP('',(#286));
#547=EDGE_LOOP('',(#287));
#548=EDGE_LOOP('',(#288));
#549=EDGE_LOOP('',(#289));
#550=EDGE_LOOP('',(#290));
#551=EDGE_LOOP('',(#291));
#552=EDGE_LOOP('',(#292));
#553=EDGE_LOOP('',(#293));
#554=EDGE_LOOP('',(#294));
#555=EDGE_LOOP('',(#295));
#556=EDGE_LOOP('',(#296));
#557=EDGE_LOOP('',(#297));
#558=EDGE_LOOP('',(#298));
#559=EDGE_LOOP('',(#299));
#560=EDGE_LOOP('',(#300));
#561=EDGE_LOOP('',(#301));
#562=EDGE_LOOP('',(#302));
#563=EDGE_LOOP('',(#303));
#564=EDGE_LOOP('',(#304));
#565=EDGE_LOOP('',(#305));
#566=EDGE_LOOP('',(#306));
#567=FACE_BOUND('',#511,.T.);
#568=FACE_BOUND('',#512,.T.);
#569=FACE_BOUND('',#513,.T.);
#570=FACE_BOUND('',#514,.T.);
#571=FACE_BOUND('',#515,.T.);
#572=FACE_BOUND('',#516,.T.);
#573=FACE_BOUND('',#517,.T.);
#574=FACE_BOUND('',#518,.T.);
#575=FACE_BOUND('',#519,.T.);
#576=FACE_BOUND('',#520,.T.);
#577=FACE_BOUND('',#521,.T.);
#578=FACE_BOUND('',#522,.T.);
#579=FACE_BOUND('',#523,.T.);
#580=FACE_BOUND('',#524,.T.);
#581=FACE_BOUND('',#525,.T.);
#582=FACE_BOUND('',#526,.T.);
#583=FACE_BOUND('',#527,.T.);
#584=FACE_BOUND('',#528,.T.);
#585=FACE_BOUND('',#529,.T.);
#586=FACE_BOUND('',#530,.T.);
#587=FACE_BOUND('',#531,.T.);
#588=FACE_BOUND('',#532,.T.);
#589=FACE_BOUND('',#533,.T.);
#590=FACE_BOUND('',#534,.T.);
#591=FACE_BOUND('',#535,.T.);
#592=FACE_BOUND('',#536,.T.);
#593=FACE_BOUND('',#537,.T.);
#594=FACE_BOUND('',#538,.T.);
#595=FACE_BOUND('',#539,.T.);
#596=FACE_BOUND('',#540,.T.);
#597=FACE_BOUND('',#541,.T.);
#598=FACE_BOUND('',#542,.T.);
#599=FACE_BOUND('',#543,.T.);
#600=FACE_BOUND('',#544,.T.);
#601=FACE_BOUND('',#545,.T.);
#602=FACE_BOUND('',#546,.T.);
#603=FACE_BOUND('',#547,.T.);
#604=FACE_BOUND('',#548,.T.);
#605=FACE_BOUND('',#549,.T.);
#606=FACE_BOUND('',#550,.T.);
#607=FACE_BOUND('',#551,.T.);
#608=FACE_BOUND('',#552,.T.);
#609=FACE_BOUND('',#553,.T.);
#610=FACE_BOUND('',#554,.T.);
#611=FACE_BOUND('',#555,.T.);
#612=FACE_BOUND('',#556,.T.);
#613=FACE_BOUND('',#557,.T.);
#614=FACE_BOUND('',#558,.T.);
#615=FACE_BOUND('',#559,.T.);
#616=FACE_BOUND('',#560,.T.);
#617=FACE_BOUND('',#561,.T.);
#618=FACE_BOUND('',#562,.T.);
#619=FACE_BOUND('',#563,.T.);
#620=FACE_BOUND('',#564,.T.);
#621=FACE_BOUND('',#565,.T.);
#622=FACE_BOUND('',#566,.T.);
#623=PLANE('',#717);
#624=PLANE('',#720);
#625=PLANE('',#723);
#626=PLANE('',#727);
#627=PLANE('',#731);
#628=PLANE('',#735);
#629=PLANE('',#739);
#630=PLANE('',#743);
#631=PLANE('',#747);
#632=PLANE('',#751);
#633=PLANE('',#755);
#634=PLANE('',#756);
#635=PLANE('',#766);
#636=PLANE('',#770);
#637=PLANE('',#787);
#638=PLANE('',#788);
#639=PLANE('',#792);
#640=PLANE('',#793);
#641=PLANE('',#797);
#642=PLANE('',#798);
#643=PLANE('',#802);
#644=PLANE('',#803);
#645=PLANE('',#807);
#646=PLANE('',#808);
#647=PLANE('',#812);
#648=PLANE('',#813);
#649=ADVANCED_FACE('',(#567),#623,.F.);
#650=ADVANCED_FACE('',(#568),#624,.T.);
#651=ADVANCED_FACE('',(#569),#625,.T.);
#652=ADVANCED_FACE('',(#570),#30,.T.);
#653=ADVANCED_FACE('',(#571),#626,.T.);
#654=ADVANCED_FACE('',(#572),#31,.T.);
#655=ADVANCED_FACE('',(#573),#627,.T.);
#656=ADVANCED_FACE('',(#574),#32,.T.);
#657=ADVANCED_FACE('',(#575),#628,.T.);
#658=ADVANCED_FACE('',(#576),#33,.T.);
#659=ADVANCED_FACE('',(#577),#629,.T.);
#660=ADVANCED_FACE('',(#578),#34,.T.);
#661=ADVANCED_FACE('',(#579),#630,.T.);
#662=ADVANCED_FACE('',(#580),#35,.T.);
#663=ADVANCED_FACE('',(#581),#631,.T.);
#664=ADVANCED_FACE('',(#582),#36,.T.);
#665=ADVANCED_FACE('',(#583),#632,.T.);
#666=ADVANCED_FACE('',(#584),#37,.T.);
#667=ADVANCED_FACE('',(#585,#586),#633,.T.);
#668=ADVANCED_FACE('',(#587),#634,.F.);
#669=ADVANCED_FACE('',(#588),#38,.F.);
#670=ADVANCED_FACE('',(#589),#39,.F.);
#671=ADVANCED_FACE('',(#590),#40,.T.);
#672=ADVANCED_FACE('',(#591),#635,.T.);
#673=ADVANCED_FACE('',(#592),#636,.F.);
#674=ADVANCED_FACE('',(#593),#20,.T.);
#675=ADVANCED_FACE('',(#594),#18,.T.);
#676=ADVANCED_FACE('',(#595),#21,.T.);
#677=ADVANCED_FACE('',(#596),#19,.T.);
#678=ADVANCED_FACE('',(#597),#22,.T.);
#679=ADVANCED_FACE('',(#598),#23,.T.);
#680=ADVANCED_FACE('',(#599,#600),#41,.F.);
#681=ADVANCED_FACE('',(#601),#637,.F.);
#682=ADVANCED_FACE('',(#602),#638,.T.);
#683=ADVANCED_FACE('',(#603,#604),#42,.F.);
#684=ADVANCED_FACE('',(#605),#639,.F.);
#685=ADVANCED_FACE('',(#606),#640,.T.);
#686=ADVANCED_FACE('',(#607,#608),#43,.F.);
#687=ADVANCED_FACE('',(#609),#641,.F.);
#688=ADVANCED_FACE('',(#610),#642,.T.);
#689=ADVANCED_FACE('',(#611,#612),#44,.F.);
#690=ADVANCED_FACE('',(#613),#643,.F.);
#691=ADVANCED_FACE('',(#614),#644,.T.);
#692=ADVANCED_FACE('',(#615,#616),#45,.F.);
#693=ADVANCED_FACE('',(#617),#645,.F.);
#694=ADVANCED_FACE('',(#618),#646,.T.);
#695=ADVANCED_FACE('',(#619,#620),#46,.F.);
#696=ADVANCED_FACE('',(#621),#647,.F.);
#697=ADVANCED_FACE('',(#622),#648,.T.);
#698=CLOSED_SHELL('',(#649,#650,#651,#652,#653,#654,#655,#656,#657,#658,
#659,#660,#661,#662,#663,#664,#665,#666,#667,#668,#669,#670,#671,#672,#673,
#674,#675,#676,#677,#678,#679));
#699=CLOSED_SHELL('',(#680,#681,#682));
#700=CLOSED_SHELL('',(#683,#684,#685));
#701=CLOSED_SHELL('',(#686,#687,#688));
#702=CLOSED_SHELL('',(#689,#690,#691));
#703=CLOSED_SHELL('',(#692,#693,#694));
#704=CLOSED_SHELL('',(#695,#696,#697));
#705=STYLED_ITEM('',(#706),#713);
#706=PRESENTATION_STYLE_ASSIGNMENT((#707));
#707=SURFACE_STYLE_USAGE(.BOTH.,#708);
#708=SURFACE_SIDE_STYLE('',(#709));
#709=SURFACE_STYLE_FILL_AREA(#710);
#710=FILL_AREA_STYLE('',(#711));
#711=FILL_AREA_STYLE_COLOUR('',#712);
#712=COLOUR_RGB('',0.231372549019608,0.380392156862745,0.705882352941177);
#713=BREP_WITH_VOIDS('Lid',#698,(#12,#13,#14,#15,#16,#17));
#714=SHAPE_DEFINITION_REPRESENTATION(#1284,#715);
#715=SHAPE_REPRESENTATION('Lid',(#716),#1279);
#716=AXIS2_PLACEMENT_3D('',#1048,#814,#815);
#717=AXIS2_PLACEMENT_3D('',#1049,#816,#817);
#718=AXIS2_PLACEMENT_3D('',#1050,#818,#819);
#719=AXIS2_PLACEMENT_3D('',#1053,#820,#821);
#720=AXIS2_PLACEMENT_3D('',#1056,#823,#824);
#721=AXIS2_PLACEMENT_3D('',#1060,#826,#827);
#722=AXIS2_PLACEMENT_3D('',#1062,#828,#829);
#723=AXIS2_PLACEMENT_3D('',#1063,#830,#831);
#724=AXIS2_PLACEMENT_3D('',#1072,#836,#837);
#725=AXIS2_PLACEMENT_3D('',#1073,#838,#839);
#726=AXIS2_PLACEMENT_3D('',#1077,#841,#842);
#727=AXIS2_PLACEMENT_3D('',#1078,#843,#844);
#728=AXIS2_PLACEMENT_3D('',#1084,#848,#849);
#729=AXIS2_PLACEMENT_3D('',#1085,#850,#851);
#730=AXIS2_PLACEMENT_3D('',#1089,#853,#854);
#731=AXIS2_PLACEMENT_3D('',#1090,#855,#856);
#732=AXIS2_PLACEMENT_3D('',#1096,#860,#861);
#733=AXIS2_PLACEMENT_3D('',#1097,#862,#863);
#734=AXIS2_PLACEMENT_3D('',#1101,#865,#866);
#735=AXIS2_PLACEMENT_3D('',#1102,#867,#868);
#736=AXIS2_PLACEMENT_3D('',#1108,#872,#873);
#737=AXIS2_PLACEMENT_3D('',#1109,#874,#875);
#738=AXIS2_PLACEMENT_3D('',#1113,#877,#878);
#739=AXIS2_PLACEMENT_3D('',#1114,#879,#880);
#740=AXIS2_PLACEMENT_3D('',#1120,#884,#885);
#741=AXIS2_PLACEMENT_3D('',#1121,#886,#887);
#742=AXIS2_PLACEMENT_3D('',#1125,#889,#890);
#743=AXIS2_PLACEMENT_3D('',#1126,#891,#892);
#744=AXIS2_PLACEMENT_3D('',#1132,#896,#897);
#745=AXIS2_PLACEMENT_3D('',#1133,#898,#899);
#746=AXIS2_PLACEMENT_3D('',#1137,#901,#902);
#747=AXIS2_PLACEMENT_3D('',#1138,#903,#904);
#748=AXIS2_PLACEMENT_3D('',#1144,#908,#909);
#749=AXIS2_PLACEMENT_3D('',#1145,#910,#911);
#750=AXIS2_PLACEMENT_3D('',#1149,#913,#914);
#751=AXIS2_PLACEMENT_3D('',#1150,#915,#916);
#752=AXIS2_PLACEMENT_3D('',#1156,#920,#921);
#753=AXIS2_PLACEMENT_3D('',#1157,#922,#923);
#754=AXIS2_PLACEMENT_3D('',#1158,#924,#925);
#755=AXIS2_PLACEMENT_3D('',#1159,#926,#927);
#756=AXIS2_PLACEMENT_3D('',#1186,#930,#931);
#757=AXIS2_PLACEMENT_3D('',#1187,#932,#933);
#758=AXIS2_PLACEMENT_3D('',#1188,#934,#935);
#759=AXIS2_PLACEMENT_3D('',#1192,#937,#938);
#760=AXIS2_PLACEMENT_3D('',#1193,#939,#940);
#761=AXIS2_PLACEMENT_3D('',#1197,#942,#943);
#762=AXIS2_PLACEMENT_3D('',#1198,#944,#945);
#763=AXIS2_PLACEMENT_3D('',#1199,#946,#947);
#764=AXIS2_PLACEMENT_3D('',#1200,#948,#949);
#765=AXIS2_PLACEMENT_3D('',#1201,#950,#951);
#766=AXIS2_PLACEMENT_3D('',#1202,#952,#953);
#767=AXIS2_PLACEMENT_3D('',#1203,#954,#955);
#768=AXIS2_PLACEMENT_3D('',#1206,#956,#957);
#769=AXIS2_PLACEMENT_3D('',#1208,#958,#959);
#770=AXIS2_PLACEMENT_3D('',#1209,#960,#961);
#771=AXIS2_PLACEMENT_3D('',#1210,#962,#963);
#772=AXIS2_PLACEMENT_3D('',#1213,#964,#965);
#773=AXIS2_PLACEMENT_3D('',#1215,#966,#967);
#774=AXIS2_PLACEMENT_3D('',#1216,#968,#969);
#775=AXIS2_PLACEMENT_3D('',#1222,#970,#971);
#776=AXIS2_PLACEMENT_3D('',#1223,#972,#973);
#777=AXIS2_PLACEMENT_3D('',#1224,#974,#975);
#778=AXIS2_PLACEMENT_3D('',#1225,#976,#977);
#779=AXIS2_PLACEMENT_3D('',#1226,#978,#979);
#780=AXIS2_PLACEMENT_3D('',#1227,#980,#981);
#781=AXIS2_PLACEMENT_3D('',#1228,#982,#983);
#782=AXIS2_PLACEMENT_3D('',#1229,#984,#985);
#783=AXIS2_PLACEMENT_3D('',#1235,#986,#987);
#784=AXIS2_PLACEMENT_3D('',#1236,#988,#989);
#785=AXIS2_PLACEMENT_3D('',#1237,#990,#991);
#786=AXIS2_PLACEMENT_3D('',#1239,#992,#993);
#787=AXIS2_PLACEMENT_3D('',#1241,#994,#995);
#788=AXIS2_PLACEMENT_3D('',#1242,#996,#997);
#789=AXIS2_PLACEMENT_3D('',#1243,#998,#999);
#790=AXIS2_PLACEMENT_3D('',#1244,#1000,#1001);
#791=AXIS2_PLACEMENT_3D('',#1246,#1002,#1003);
#792=AXIS2_PLACEMENT_3D('',#1248,#1004,#1005);
#793=AXIS2_PLACEMENT_3D('',#1249,#1006,#1007);
#794=AXIS2_PLACEMENT_3D('',#1250,#1008,#1009);
#795=AXIS2_PLACEMENT_3D('',#1251,#1010,#1011);
#796=AXIS2_PLACEMENT_3D('',#1253,#1012,#1013);
#797=AXIS2_PLACEMENT_3D('',#1255,#1014,#1015);
#798=AXIS2_PLACEMENT_3D('',#1256,#1016,#1017);
#799=AXIS2_PLACEMENT_3D('',#1257,#1018,#1019);
#800=AXIS2_PLACEMENT_3D('',#1258,#1020,#1021);
#801=AXIS2_PLACEMENT_3D('',#1260,#1022,#1023);
#802=AXIS2_PLACEMENT_3D('',#1262,#1024,#1025);
#803=AXIS2_PLACEMENT_3D('',#1263,#1026,#1027);
#804=AXIS2_PLACEMENT_3D('',#1264,#1028,#1029);
#805=AXIS2_PLACEMENT_3D('',#1265,#1030,#1031);
#806=AXIS2_PLACEMENT_3D('',#1267,#1032,#1033);
#807=AXIS2_PLACEMENT_3D('',#1269,#1034,#1035);
#808=AXIS2_PLACEMENT_3D('',#1270,#1036,#1037);
#809=AXIS2_PLACEMENT_3D('',#1271,#1038,#1039);
#810=AXIS2_PLACEMENT_3D('',#1272,#1040,#1041);
#811=AXIS2_PLACEMENT_3D('',#1274,#1042,#1043);
#812=AXIS2_PLACEMENT_3D('',#1276,#1044,#1045);
#813=AXIS2_PLACEMENT_3D('',#1277,#1046,#1047);
#814=DIRECTION('',(0.,0.,1.));
#815=DIRECTION('',(1.,0.,0.));
#816=DIRECTION('',(1.,0.,0.));
#817=DIRECTION('',(0.,1.,0.));
#818=DIRECTION('',(1.,0.,0.));
#819=DIRECTION('',(0.,0.,-1.));
#820=DIRECTION('',(1.,0.,0.));
#821=DIRECTION('',(0.,0.,-1.));
#822=DIRECTION('',(0.,-1.,0.));
#823=DIRECTION('',(1.,0.,0.));
#824=DIRECTION('',(0.,1.,0.));
#825=DIRECTION('',(0.,-1.,0.));
#826=DIRECTION('',(1.,0.,0.));
#827=DIRECTION('',(0.,0.,-1.));
#828=DIRECTION('',(1.,0.,0.));
#829=DIRECTION('',(0.,0.,-1.));
#830=DIRECTION('',(-0.866025403784439,-0.5,0.));
#831=DIRECTION('',(0.5,-0.866025403784439,0.));
#832=DIRECTION('',(-0.5,0.866025403784439,0.));
#833=DIRECTION('',(0.,0.,-1.));
#834=DIRECTION('',(-0.5,0.866025403784439,0.));
#835=DIRECTION('',(0.,0.,-1.));
#836=DIRECTION('',(0.,0.,-1.));
#837=DIRECTION('',(-1.,0.,0.));
#838=DIRECTION('',(0.,0.,1.));
#839=DIRECTION('',(1.,0.,0.));
#840=DIRECTION('',(0.,0.,-1.));
#841=DIRECTION('',(0.,0.,1.));
#842=DIRECTION('',(1.,0.,0.));
#843=DIRECTION('',(1.20024319773301E-16,-1.,0.));
#844=DIRECTION('',(1.,1.20024319773301E-16,0.));
#845=DIRECTION('',(-1.,-1.20024319773301E-16,0.));
#846=DIRECTION('',(0.,0.,-1.));
#847=DIRECTION('',(-1.,-1.20024319773301E-16,0.));
#848=DIRECTION('',(0.,0.,-1.));
#849=DIRECTION('',(-1.,0.,0.));
#850=DIRECTION('',(0.,0.,1.));
#851=DIRECTION('',(1.,0.,0.));
#852=DIRECTION('',(0.,0.,-1.));
#853=DIRECTION('',(0.,0.,1.));
#854=DIRECTION('',(1.,0.,0.));
#855=DIRECTION('',(0.866025403784439,-0.5,0.));
#856=DIRECTION('',(0.5,0.86602540378444,0.));
#857=DIRECTION('',(-0.5,-0.86602540378444,0.));
#858=DIRECTION('',(0.,0.,-1.));
#859=DIRECTION('',(-0.5,-0.86602540378444,0.));
#860=DIRECTION('',(0.,0.,-1.));
#861=DIRECTION('',(-1.,0.,0.));
#862=DIRECTION('',(0.,0.,1.));
#863=DIRECTION('',(1.,0.,0.));
#864=DIRECTION('',(0.,0.,-1.));
#865=DIRECTION('',(0.,0.,1.));
#866=DIRECTION('',(1.,0.,0.));
#867=DIRECTION('',(1.,0.,0.));
#868=DIRECTION('',(0.,0.,-1.));
#869=DIRECTION('',(0.,-1.,0.));
#870=DIRECTION('',(0.,0.,-1.));
#871=DIRECTION('',(0.,-1.,0.));
#872=DIRECTION('',(0.,0.,-1.));
#873=DIRECTION('',(-1.,0.,0.));
#874=DIRECTION('',(0.,0.,1.));
#875=DIRECTION('',(1.,0.,0.));
#876=DIRECTION('',(0.,0.,-1.));
#877=DIRECTION('',(0.,0.,1.));
#878=DIRECTION('',(1.,0.,0.));
#879=DIRECTION('',(0.707106781186544,0.707106781186552,0.));
#880=DIRECTION('',(-0.707106781186552,0.707106781186544,0.));
#881=DIRECTION('',(0.707106781186552,-0.707106781186544,0.));
#882=DIRECTION('',(0.,0.,-1.));
#883=DIRECTION('',(0.707106781186552,-0.707106781186544,0.));
#884=DIRECTION('',(0.,0.,-1.));
#885=DIRECTION('',(-1.,0.,0.));
#886=DIRECTION('',(0.,0.,1.));
#887=DIRECTION('',(1.,0.,0.));
#888=DIRECTION('',(0.,0.,-1.));
#889=DIRECTION('',(0.,0.,1.));
#890=DIRECTION('',(1.,0.,0.));
#891=DIRECTION('',(0.,1.,0.));
#892=DIRECTION('',(0.,0.,1.));
#893=DIRECTION('',(1.,0.,0.));
#894=DIRECTION('',(0.,0.,-1.));
#895=DIRECTION('',(1.,0.,0.));
#896=DIRECTION('',(0.,0.,-1.));
#897=DIRECTION('',(-1.,0.,0.));
#898=DIRECTION('',(0.,0.,1.));
#899=DIRECTION('',(1.,0.,0.));
#900=DIRECTION('',(0.,0.,-1.));
#901=DIRECTION('',(0.,0.,1.));
#902=DIRECTION('',(1.,0.,0.));
#903=DIRECTION('',(-0.707106781186549,0.707106781186547,0.));
#904=DIRECTION('',(-0.707106781186547,-0.707106781186549,0.));
#905=DIRECTION('',(0.707106781186547,0.707106781186549,0.));
#906=DIRECTION('',(0.,0.,-1.));
#907=DIRECTION('',(0.707106781186547,0.707106781186549,0.));
#908=DIRECTION('',(0.,0.,-1.));
#909=DIRECTION('',(-1.,0.,0.));
#910=DIRECTION('',(0.,0.,1.));
#911=DIRECTION('',(1.,0.,0.));
#912=DIRECTION('',(0.,0.,-1.));
#913=DIRECTION('',(0.,0.,1.));
#914=DIRECTION('',(1.,0.,0.));
#915=DIRECTION('',(-1.,0.,0.));
#916=DIRECTION('',(0.,0.,1.));
#917=DIRECTION('',(0.,1.,0.));
#918=DIRECTION('',(0.,0.,-1.));
#919=DIRECTION('',(0.,1.,0.));
#920=DIRECTION('',(0.,0.,-1.));
#921=DIRECTION('',(-1.,0.,0.));
#922=DIRECTION('',(0.,0.,1.));
#923=DIRECTION('',(1.,0.,0.));
#924=DIRECTION('',(0.,0.,1.));
#925=DIRECTION('',(1.,0.,0.));
#926=DIRECTION('',(0.,0.,1.));
#927=DIRECTION('',(1.,0.,0.));
#928=DIRECTION('',(-1.,0.,0.));
#929=DIRECTION('',(-1.,0.,0.));
#930=DIRECTION('',(0.,0.,1.));
#931=DIRECTION('',(1.,0.,0.));
#932=DIRECTION('',(-1.,0.,0.));
#933=DIRECTION('',(0.,0.,1.));
#934=DIRECTION('',(1.,0.,0.));
#935=DIRECTION('',(0.,0.,-1.));
#936=DIRECTION('',(-1.,0.,0.));
#937=DIRECTION('',(1.,0.,0.));
#938=DIRECTION('',(0.,0.,-1.));
#939=DIRECTION('',(-1.,0.,0.));
#940=DIRECTION('',(0.,0.,1.));
#941=DIRECTION('',(-1.,0.,0.));
#942=DIRECTION('',(1.,0.,0.));
#943=DIRECTION('',(0.,0.,-1.));
#944=DIRECTION('',(1.,0.,0.));
#945=DIRECTION('',(0.,0.,-1.));
#946=DIRECTION('',(-1.,0.,0.));
#947=DIRECTION('',(0.,0.,1.));
#948=DIRECTION('',(1.,0.,0.));
#949=DIRECTION('',(0.,0.,-1.));
#950=DIRECTION('',(1.,0.,0.));
#951=DIRECTION('',(0.,0.,-1.));
#952=DIRECTION('',(1.,0.,0.));
#953=DIRECTION('',(0.,1.,0.));
#954=DIRECTION('',(1.,0.,0.));
#955=DIRECTION('',(0.,0.,-1.));
#956=DIRECTION('',(1.,0.,0.));
#957=DIRECTION('',(0.,0.,-1.));
#958=DIRECTION('',(1.,0.,0.));
#959=DIRECTION('',(0.,0.,-1.));
#960=DIRECTION('',(1.,0.,0.));
#961=DIRECTION('',(0.,1.,0.));
#962=DIRECTION('',(1.,0.,0.));
#963=DIRECTION('',(0.,0.,-1.));
#964=DIRECTION('',(1.,0.,0.));
#965=DIRECTION('',(0.,0.,-1.));
#966=DIRECTION('',(1.,0.,0.));
#967=DIRECTION('',(0.,0.,-1.));
#968=DIRECTION('',(1.,0.,0.));
#969=DIRECTION('',(0.,0.,-1.));
#970=DIRECTION('',(0.,-0.250985345739925,0.96799088643634));
#971=DIRECTION('',(0.,-0.96799088643634,-0.250985345739925));
#972=DIRECTION('',(1.,0.,0.));
#973=DIRECTION('',(0.,0.,-1.));
#974=DIRECTION('',(1.73408736894181E-14,-0.250985345739908,-0.967990886436344));
#975=DIRECTION('',(0.,0.967990886436344,-0.250985345739908));
#976=DIRECTION('',(1.,0.,0.));
#977=DIRECTION('',(0.,0.,-1.));
#978=DIRECTION('',(1.,0.,0.));
#979=DIRECTION('',(0.,0.,-1.));
#980=DIRECTION('',(0.,-0.250985345739925,-0.96799088643634));
#981=DIRECTION('',(0.,0.96799088643634,-0.250985345739925));
#982=DIRECTION('',(-1.73408736894181E-14,0.250985345739908,-0.967990886436344));
#983=DIRECTION('',(0.,0.967990886436344,0.250985345739908));
#984=DIRECTION('',(1.,0.,0.));
#985=DIRECTION('',(0.,0.,-1.));
#986=DIRECTION('',(1.,0.,0.));
#987=DIRECTION('',(0.,0.,-1.));
#988=DIRECTION('',(0.,0.,-1.));
#989=DIRECTION('',(-1.,0.,0.));
#990=DIRECTION('',(0.,0.,-1.));
#991=DIRECTION('',(1.,0.,0.));
#992=DIRECTION('',(0.,0.,-1.));
#993=DIRECTION('',(1.,0.,0.));
#994=DIRECTION('',(0.,0.,1.));
#995=DIRECTION('',(1.,0.,0.));
#996=DIRECTION('',(0.,0.,1.));
#997=DIRECTION('',(1.,0.,0.));
#998=DIRECTION('',(0.,0.,-1.));
#999=DIRECTION('',(-1.,0.,0.));
#1000=DIRECTION('',(0.,0.,-1.));
#1001=DIRECTION('',(1.,0.,0.));
#1002=DIRECTION('',(0.,0.,-1.));
#1003=DIRECTION('',(1.,0.,0.));
#1004=DIRECTION('',(0.,0.,1.));
#1005=DIRECTION('',(1.,0.,0.));
#1006=DIRECTION('',(0.,0.,1.));
#1007=DIRECTION('',(1.,0.,0.));
#1008=DIRECTION('',(0.,0.,-1.));
#1009=DIRECTION('',(-1.,0.,0.));
#1010=DIRECTION('',(0.,0.,-1.));
#1011=DIRECTION('',(1.,0.,0.));
#1012=DIRECTION('',(0.,0.,-1.));
#1013=DIRECTION('',(1.,0.,0.));
#1014=DIRECTION('',(0.,0.,1.));
#1015=DIRECTION('',(1.,0.,0.));
#1016=DIRECTION('',(0.,0.,1.));
#1017=DIRECTION('',(1.,0.,0.));
#1018=DIRECTION('',(0.,0.,-1.));
#1019=DIRECTION('',(-1.,0.,0.));
#1020=DIRECTION('',(0.,0.,1.));
#1021=DIRECTION('',(1.,0.,0.));
#1022=DIRECTION('',(0.,0.,1.));
#1023=DIRECTION('',(1.,0.,0.));
#1024=DIRECTION('',(0.,0.,1.));
#1025=DIRECTION('',(1.,0.,0.));
#1026=DIRECTION('',(0.,0.,1.));
#1027=DIRECTION('',(1.,0.,0.));
#1028=DIRECTION('',(0.,0.,-1.));
#1029=DIRECTION('',(-1.,0.,0.));
#1030=DIRECTION('',(0.,0.,1.));
#1031=DIRECTION('',(1.,0.,0.));
#1032=DIRECTION('',(0.,0.,1.));
#1033=DIRECTION('',(1.,0.,0.));
#1034=DIRECTION('',(0.,0.,1.));
#1035=DIRECTION('',(1.,0.,0.));
#1036=DIRECTION('',(0.,0.,1.));
#1037=DIRECTION('',(1.,0.,0.));
#1038=DIRECTION('',(0.,0.,-1.));
#1039=DIRECTION('',(-1.,0.,0.));
#1040=DIRECTION('',(0.,0.,1.));
#1041=DIRECTION('',(1.,0.,0.));
#1042=DIRECTION('',(0.,0.,1.));
#1043=DIRECTION('',(1.,0.,0.));
#1044=DIRECTION('',(0.,0.,1.));
#1045=DIRECTION('',(1.,0.,0.));
#1046=DIRECTION('',(0.,0.,1.));
#1047=DIRECTION('',(1.,0.,0.));
#1048=CARTESIAN_POINT('',(0.,0.,0.));
#1049=CARTESIAN_POINT('',(-0.0125,-0.024,0.252));
#1050=CARTESIAN_POINT('',(-0.0125,-0.0529929351429769,0.249523845813655));
#1051=CARTESIAN_POINT('',(-0.0125,-0.0243331362581471,0.243));
#1052=CARTESIAN_POINT('',(-0.0125,-0.024,0.244691212151315));
#1053=CARTESIAN_POINT('',(-0.0125,0.00499293514297695,0.249523845813655));
#1054=CARTESIAN_POINT('',(-0.0125,-0.023666863741853,0.243));
#1055=CARTESIAN_POINT('',(-0.0125,-0.024,0.243));
#1056=CARTESIAN_POINT('',(0.0125,-0.024,0.252));
#1057=CARTESIAN_POINT('',(0.0125,-0.024,0.243));
#1058=CARTESIAN_POINT('',(0.0125,-0.023666863741853,0.243));
#1059=CARTESIAN_POINT('',(0.0125,-0.0243331362581471,0.243));
#1060=CARTESIAN_POINT('',(0.0125,0.00499293514297695,0.249523845813655));
#1061=CARTESIAN_POINT('',(0.0125,-0.024,0.244691212151315));
#1062=CARTESIAN_POINT('',(0.0125,-0.0529929351429769,0.249523845813655));
#1063=CARTESIAN_POINT('',(-0.0431133538700559,-0.0333924870848781,0.243));
#1064=CARTESIAN_POINT('',(-0.0431133538700559,-0.0333924870848781,0.24));
#1065=CARTESIAN_POINT('',(-0.0375664537022675,-0.043,0.24));
#1066=CARTESIAN_POINT('',(-0.0486602540378444,-0.0237849741697562,0.24));
#1067=CARTESIAN_POINT('',(-0.0375664537022675,-0.043,0.243));
#1068=CARTESIAN_POINT('',(-0.0375664537022675,-0.043,0.243));
#1069=CARTESIAN_POINT('',(-0.0431133538700559,-0.0333924870848781,0.243));
#1070=CARTESIAN_POINT('',(-0.0486602540378444,-0.0237849741697562,0.243));
#1071=CARTESIAN_POINT('',(-0.0486602540378444,-0.0237849741697562,0.243));
#1072=CARTESIAN_POINT('',(-0.0289061996644232,-0.038,0.243));
#1073=CARTESIAN_POINT('',(-0.0289061996644232,-0.038,0.24));
#1074=CARTESIAN_POINT('',(-0.0289061996644232,-0.048,0.24));
#1075=CARTESIAN_POINT('',(-0.0289061996644232,-0.048,0.243));
#1076=CARTESIAN_POINT('',(-0.0289061996644232,-0.048,0.243));
#1077=CARTESIAN_POINT('',(-0.0289061996644232,-0.038,0.243));
#1078=CARTESIAN_POINT('',(1.7347234759768E-17,-0.048,0.243));
#1079=CARTESIAN_POINT('',(1.7347234759768E-17,-0.048,0.24));
#1080=CARTESIAN_POINT('',(0.0289061996644232,-0.048,0.24));
#1081=CARTESIAN_POINT('',(0.0289061996644232,-0.048,0.243));
#1082=CARTESIAN_POINT('',(0.0289061996644232,-0.048,0.243));
#1083=CARTESIAN_POINT('',(1.7347234759768E-17,-0.048,0.243));
#1084=CARTESIAN_POINT('',(0.0289061996644232,-0.038,0.243));
#1085=CARTESIAN_POINT('',(0.0289061996644232,-0.038,0.24));
#1086=CARTESIAN_POINT('',(0.0375664537022675,-0.043,0.24));
#1087=CARTESIAN_POINT('',(0.0375664537022675,-0.043,0.243));
#1088=CARTESIAN_POINT('',(0.0375664537022675,-0.043,0.243));
#1089=CARTESIAN_POINT('',(0.0289061996644232,-0.038,0.243));
#1090=CARTESIAN_POINT('',(0.0431133538700559,-0.033392487084878,0.243));
#1091=CARTESIAN_POINT('',(0.0431133538700559,-0.033392487084878,0.24));
#1092=CARTESIAN_POINT('',(0.0486602540378444,-0.0237849741697562,0.24));
#1093=CARTESIAN_POINT('',(0.0486602540378444,-0.0237849741697562,0.243));
#1094=CARTESIAN_POINT('',(0.0486602540378444,-0.0237849741697562,0.243));
#1095=CARTESIAN_POINT('',(0.0431133538700559,-0.033392487084878,0.243));
#1096=CARTESIAN_POINT('',(0.04,-0.0187849741697561,0.243));
#1097=CARTESIAN_POINT('',(0.04,-0.0187849741697561,0.24));
#1098=CARTESIAN_POINT('',(0.05,-0.0187849741697561,0.24));
#1099=CARTESIAN_POINT('',(0.05,-0.0187849741697561,0.243));
#1100=CARTESIAN_POINT('',(0.05,-0.0187849741697561,0.243));
#1101=CARTESIAN_POINT('',(0.04,-0.0187849741697561,0.243));
#1102=CARTESIAN_POINT('',(0.05,-0.0146957879437772,0.243));
#1103=CARTESIAN_POINT('',(0.05,-0.0146957879437772,0.24));
#1104=CARTESIAN_POINT('',(0.05,-0.0106066017177983,0.24));
#1105=CARTESIAN_POINT('',(0.05,-0.0106066017177983,0.243));
#1106=CARTESIAN_POINT('',(0.05,-0.0106066017177983,0.243));
#1107=CARTESIAN_POINT('',(0.05,-0.0146957879437772,0.243));
#1108=CARTESIAN_POINT('',(0.04,-0.0106066017177983,0.243));
#1109=CARTESIAN_POINT('',(0.04,-0.0106066017177983,0.24));
#1110=CARTESIAN_POINT('',(0.0470710678118655,-0.00353553390593285,0.24));
#1111=CARTESIAN_POINT('',(0.0470710678118655,-0.00353553390593285,0.243));
#1112=CARTESIAN_POINT('',(0.0470710678118655,-0.00353553390593285,0.243));
#1113=CARTESIAN_POINT('',(0.04,-0.0106066017177983,0.243));
#1114=CARTESIAN_POINT('',(0.0467677669529664,-0.00323223304703375,0.243));
#1115=CARTESIAN_POINT('',(0.0467677669529664,-0.00323223304703375,0.24));
#1116=CARTESIAN_POINT('',(0.0464644660940674,-0.00292893218813453,0.24));
#1117=CARTESIAN_POINT('',(0.0464644660940674,-0.00292893218813453,0.243));
#1118=CARTESIAN_POINT('',(0.0464644660940674,-0.00292893218813453,0.243));
#1119=CARTESIAN_POINT('',(0.0467677669529664,-0.00323223304703375,0.243));
#1120=CARTESIAN_POINT('',(0.0393933982822019,-0.01,0.243));
#1121=CARTESIAN_POINT('',(0.0393933982822019,-0.01,0.24));
#1122=CARTESIAN_POINT('',(0.0393933982822019,0.,0.24));
#1123=CARTESIAN_POINT('',(0.0393933982822019,0.,0.243));
#1124=CARTESIAN_POINT('',(0.0393933982822019,0.,0.243));
#1125=CARTESIAN_POINT('',(0.0393933982822019,-0.01,0.243));
#1126=CARTESIAN_POINT('',(-6.93889390390723E-18,0.,0.243));
#1127=CARTESIAN_POINT('',(-6.93889390390723E-18,0.,0.24));
#1128=CARTESIAN_POINT('',(-0.0393933982822019,0.,0.24));
#1129=CARTESIAN_POINT('',(-0.0393933982822019,0.,0.243));
#1130=CARTESIAN_POINT('',(-0.0393933982822019,0.,0.243));
#1131=CARTESIAN_POINT('',(-6.93889390390723E-18,0.,0.243));
#1132=CARTESIAN_POINT('',(-0.0393933982822019,-0.01,0.243));
#1133=CARTESIAN_POINT('',(-0.0393933982822019,-0.01,0.24));
#1134=CARTESIAN_POINT('',(-0.0464644660940674,-0.00292893218813453,0.24));
#1135=CARTESIAN_POINT('',(-0.0464644660940674,-0.00292893218813453,0.243));
#1136=CARTESIAN_POINT('',(-0.0464644660940674,-0.00292893218813453,0.243));
#1137=CARTESIAN_POINT('',(-0.0393933982822019,-0.01,0.243));
#1138=CARTESIAN_POINT('',(-0.0467677669529664,-0.00323223304703374,0.243));
#1139=CARTESIAN_POINT('',(-0.0467677669529664,-0.00323223304703374,0.24));
#1140=CARTESIAN_POINT('',(-0.0470710678118655,-0.00353553390593284,0.24));
#1141=CARTESIAN_POINT('',(-0.0470710678118655,-0.00353553390593284,0.243));
#1142=CARTESIAN_POINT('',(-0.0470710678118655,-0.00353553390593284,0.243));
#1143=CARTESIAN_POINT('',(-0.0467677669529664,-0.00323223304703374,0.243));
#1144=CARTESIAN_POINT('',(-0.04,-0.0106066017177983,0.243));
#1145=CARTESIAN_POINT('',(-0.04,-0.0106066017177983,0.24));
#1146=CARTESIAN_POINT('',(-0.05,-0.0106066017177983,0.24));
#1147=CARTESIAN_POINT('',(-0.05,-0.0106066017177983,0.243));
#1148=CARTESIAN_POINT('',(-0.05,-0.0106066017177983,0.243));
#1149=CARTESIAN_POINT('',(-0.04,-0.0106066017177983,0.243));
#1150=CARTESIAN_POINT('',(-0.05,-0.0146957879437772,0.243));
#1151=CARTESIAN_POINT('',(-0.05,-0.0146957879437772,0.24));
#1152=CARTESIAN_POINT('',(-0.05,-0.0187849741697562,0.24));
#1153=CARTESIAN_POINT('',(-0.05,-0.0187849741697562,0.243));
#1154=CARTESIAN_POINT('',(-0.05,-0.0187849741697562,0.243));
#1155=CARTESIAN_POINT('',(-0.05,-0.0146957879437772,0.243));
#1156=CARTESIAN_POINT('',(-0.04,-0.0187849741697562,0.243));
#1157=CARTESIAN_POINT('',(-0.04,-0.0187849741697562,0.24));
#1158=CARTESIAN_POINT('',(-0.04,-0.0187849741697562,0.243));
#1159=CARTESIAN_POINT('',(0.,-0.024,0.243));
#1160=CARTESIAN_POINT('',(-0.0125,-0.023666863741853,0.243));
#1161=CARTESIAN_POINT('',(-0.0125,-0.0227560982940537,0.243));
#1162=CARTESIAN_POINT('',(-0.011785799599352,-0.020963402784931,0.243));
#1163=CARTESIAN_POINT('',(-0.0100115071712671,-0.0201679891871555,0.243));
#1164=CARTESIAN_POINT('',(-0.0091,-0.0201679891871555,0.243));
#1165=CARTESIAN_POINT('',(-0.0091,-0.0201679891871556,0.243));
#1166=CARTESIAN_POINT('',(0.0125,-0.0201679891871556,0.243));
#1167=CARTESIAN_POINT('',(0.0091,-0.0201679891871556,0.243));
#1168=CARTESIAN_POINT('',(0.0091,-0.0201679891871555,0.243));
#1169=CARTESIAN_POINT('',(0.0100110139129441,-0.0201679891871555,0.243));
#1170=CARTESIAN_POINT('',(0.0117828205658427,-0.0209598070397378,0.243));
#1171=CARTESIAN_POINT('',(0.0125,-0.0227565532433419,0.243));
#1172=CARTESIAN_POINT('',(0.0125,-0.023666863741853,0.243));
#1173=CARTESIAN_POINT('',(0.0125,-0.0243331362581471,0.243));
#1174=CARTESIAN_POINT('',(0.0125,-0.0252439017059463,0.243));
#1175=CARTESIAN_POINT('',(0.0117857995993521,-0.0270365972150691,0.243));
#1176=CARTESIAN_POINT('',(0.0100115071712671,-0.0278320108128445,0.243));
#1177=CARTESIAN_POINT('',(0.0091,-0.0278320108128445,0.243));
#1178=CARTESIAN_POINT('',(0.0091,-0.0278320108128445,0.243));
#1179=CARTESIAN_POINT('',(0.0125,-0.0278320108128445,0.243));
#1180=CARTESIAN_POINT('',(-0.0091,-0.0278320108128445,0.243));
#1181=CARTESIAN_POINT('',(-0.0091,-0.0278320108128445,0.243));
#1182=CARTESIAN_POINT('',(-0.0100110139129441,-0.0278320108128445,0.243));
#1183=CARTESIAN_POINT('',(-0.0117828205658427,-0.0270401929602622,0.243));
#1184=CARTESIAN_POINT('',(-0.0125,-0.0252434467566581,0.243));
#1185=CARTESIAN_POINT('',(-0.0125,-0.0243331362581471,0.243));
#1186=CARTESIAN_POINT('',(0.,-0.024,0.24));
#1187=CARTESIAN_POINT('',(0.0125,-0.0529929351429769,0.249523845813655));
#1188=CARTESIAN_POINT('',(0.0091,-0.0529929351429769,0.249523845813655));
#1189=CARTESIAN_POINT('',(0.0091,-0.0278320108128445,0.256047691627311));
#1190=CARTESIAN_POINT('',(0.0125,-0.0278320108128445,0.256047691627311));
#1191=CARTESIAN_POINT('',(-0.0091,-0.0278320108128445,0.256047691627311));
#1192=CARTESIAN_POINT('',(-0.0091,-0.0529929351429769,0.249523845813655));
#1193=CARTESIAN_POINT('',(0.0125,0.00499293514297695,0.249523845813655));
#1194=CARTESIAN_POINT('',(0.0125,-0.0201679891871555,0.256047691627311));
#1195=CARTESIAN_POINT('',(0.0091,-0.0201679891871555,0.256047691627311));
#1196=CARTESIAN_POINT('',(-0.0091,-0.0201679891871555,0.256047691627311));
#1197=CARTESIAN_POINT('',(0.0091,0.00499293514297695,0.249523845813655));
#1198=CARTESIAN_POINT('',(-0.0091,0.00499293514297695,0.249523845813655));
#1199=CARTESIAN_POINT('',(0.0125,-0.024,0.257041273872989));
#1200=CARTESIAN_POINT('',(0.0091,-0.024,0.257041273872989));
#1201=CARTESIAN_POINT('',(-0.0091,-0.024,0.257041273872989));
#1202=CARTESIAN_POINT('',(0.0125,-0.024,0.252));
#1203=CARTESIAN_POINT('',(0.0125,-0.0529929351429769,0.249523845813655));
#1204=CARTESIAN_POINT('',(0.0125,-0.0245408417989609,0.256901041802827));
#1205=CARTESIAN_POINT('',(0.0125,-0.024,0.254356479475996));
#1206=CARTESIAN_POINT('',(0.0125,0.00499293514297695,0.249523845813655));
#1207=CARTESIAN_POINT('',(0.0125,-0.0234591582010391,0.256901041802827));
#1208=CARTESIAN_POINT('',(0.0125,-0.024,0.257041273872989));
#1209=CARTESIAN_POINT('',(-0.0125,-0.024,0.252));
#1210=CARTESIAN_POINT('',(-0.0125,-0.024,0.257041273872989));
#1211=CARTESIAN_POINT('',(-0.0125,-0.0245408417989609,0.256901041802827));
#1212=CARTESIAN_POINT('',(-0.0125,-0.0234591582010391,0.256901041802827));
#1213=CARTESIAN_POINT('',(-0.0125,0.00499293514297695,0.249523845813655));
#1214=CARTESIAN_POINT('',(-0.0125,-0.024,0.254356479475996));
#1215=CARTESIAN_POINT('',(-0.0125,-0.0529929351429769,0.249523845813655));
#1216=CARTESIAN_POINT('',(0.0091,-0.0529929351429769,0.249523845813655));
#1217=CARTESIAN_POINT('',(0.0125,-0.024,0.254356479475996));
#1218=CARTESIAN_POINT('',(0.0125,-0.024,0.252745582277304));
#1219=CARTESIAN_POINT('',(0.0124527772064537,-0.024,0.249523845813102));
#1220=CARTESIAN_POINT('',(0.0125,-0.024,0.246302109350007));
#1221=CARTESIAN_POINT('',(0.0125,-0.024,0.244691212151315));
#1222=CARTESIAN_POINT('',(0.0091,-0.0245408417989608,0.256901041802827));
#1223=CARTESIAN_POINT('',(0.0091,-0.024,0.257041273872989));
#1224=CARTESIAN_POINT('',(0.0091,-0.0234591582010392,0.256901041802827));
#1225=CARTESIAN_POINT('',(0.0091,0.00499293514297695,0.249523845813655));
#1226=CARTESIAN_POINT('',(-0.0091,-0.024,0.257041273872989));
#1227=CARTESIAN_POINT('',(-0.0091,-0.0234591582010391,0.256901041802827));
#1228=CARTESIAN_POINT('',(-0.0091,-0.0245408417989608,0.256901041802827));
#1229=CARTESIAN_POINT('',(-0.0091,-0.0529929351429769,0.249523845813655));
#1230=CARTESIAN_POINT('',(-0.0125,-0.024,0.254356479475996));
#1231=CARTESIAN_POINT('',(-0.0125,-0.024,0.252745582277304));
#1232=CARTESIAN_POINT('',(-0.0124527772064536,-0.024,0.249523845813102));
#1233=CARTESIAN_POINT('',(-0.0125,-0.024,0.246302109350007));
#1234=CARTESIAN_POINT('',(-0.0125,-0.024,0.244691212151315));
#1235=CARTESIAN_POINT('',(-0.0091,0.00499293514297695,0.249523845813655));
#1236=CARTESIAN_POINT('',(0.0415270868908605,-0.00354342405595033,0.2424));
#1237=CARTESIAN_POINT('',(0.0415270868908605,-0.00354342405595033,0.2424));
#1238=CARTESIAN_POINT('',(0.0435270868908605,-0.00354342405595033,0.2424));
#1239=CARTESIAN_POINT('',(0.0415270868908605,-0.00354342405595033,0.2404));
#1240=CARTESIAN_POINT('',(0.0435270868908605,-0.00354342405595033,0.2404));
#1241=CARTESIAN_POINT('',(0.,-0.024,0.2424));
#1242=CARTESIAN_POINT('',(0.,-0.024,0.2404));
#1243=CARTESIAN_POINT('',(0.0464395862667246,-0.0209694028624382,0.2424));
#1244=CARTESIAN_POINT('',(0.0464395862667246,-0.0209694028624382,0.2424));
#1245=CARTESIAN_POINT('',(0.0484395862667246,-0.0209694028624382,0.2424));
#1246=CARTESIAN_POINT('',(0.0464395862667246,-0.0209694028624382,0.2404));
#1247=CARTESIAN_POINT('',(0.0484395862667246,-0.0209694028624382,0.2404));
#1248=CARTESIAN_POINT('',(0.,-0.024,0.2424));
#1249=CARTESIAN_POINT('',(0.,-0.024,0.2404));
#1250=CARTESIAN_POINT('',(0.032221905364944,-0.0439368422340638,0.2424));
#1251=CARTESIAN_POINT('',(0.032221905364944,-0.0439368422340638,0.2424));
#1252=CARTESIAN_POINT('',(0.034221905364944,-0.0439368422340638,0.2424));
#1253=CARTESIAN_POINT('',(0.032221905364944,-0.0439368422340638,0.2404));
#1254=CARTESIAN_POINT('',(0.034221905364944,-0.0439368422340638,0.2404));
#1255=CARTESIAN_POINT('',(0.,-0.024,0.2424));
#1256=CARTESIAN_POINT('',(0.,-0.024,0.2404));
#1257=CARTESIAN_POINT('',(-0.032221905364944,-0.0439368422340638,0.2424));
#1258=CARTESIAN_POINT('',(-0.032221905364944,-0.0439368422340638,0.2424));
#1259=CARTESIAN_POINT('',(-0.030221905364944,-0.0439368422340638,0.2424));
#1260=CARTESIAN_POINT('',(-0.032221905364944,-0.0439368422340638,0.2404));
#1261=CARTESIAN_POINT('',(-0.030221905364944,-0.0439368422340638,0.2404));
#1262=CARTESIAN_POINT('',(0.,-0.024,0.2424));
#1263=CARTESIAN_POINT('',(0.,-0.024,0.2404));
#1264=CARTESIAN_POINT('',(-0.0464395862667246,-0.0209694028624382,0.2424));
#1265=CARTESIAN_POINT('',(-0.0464395862667246,-0.0209694028624382,0.2424));
#1266=CARTESIAN_POINT('',(-0.0444395862667246,-0.0209694028624382,0.2424));
#1267=CARTESIAN_POINT('',(-0.0464395862667246,-0.0209694028624382,0.2404));
#1268=CARTESIAN_POINT('',(-0.0444395862667246,-0.0209694028624382,0.2404));
#1269=CARTESIAN_POINT('',(0.,-0.024,0.2424));
#1270=CARTESIAN_POINT('',(0.,-0.024,0.2404));
#1271=CARTESIAN_POINT('',(-0.0415270868908605,-0.00354342405595037,0.2424));
#1272=CARTESIAN_POINT('',(-0.0415270868908605,-0.00354342405595037,0.2424));
#1273=CARTESIAN_POINT('',(-0.0395270868908605,-0.00354342405595037,0.2424));
#1274=CARTESIAN_POINT('',(-0.0415270868908605,-0.00354342405595037,0.2404));
#1275=CARTESIAN_POINT('',(-0.0395270868908605,-0.00354342405595037,0.2404));
#1276=CARTESIAN_POINT('',(0.,-0.024,0.2424));
#1277=CARTESIAN_POINT('',(0.,-0.024,0.2404));
#1278=MECHANICAL_DESIGN_GEOMETRIC_PRESENTATION_REPRESENTATION('',(#705),
#1279);
#1279=(
GEOMETRIC_REPRESENTATION_CONTEXT(3)
GLOBAL_UNCERTAINTY_ASSIGNED_CONTEXT((#1280))
GLOBAL_UNIT_ASSIGNED_CONTEXT((#1283,#1282,#1281))
REPRESENTATION_CONTEXT('Lid','TOP_LEVEL_ASSEMBLY_PART')
);
#1280=UNCERTAINTY_MEASURE_WITH_UNIT(LENGTH_MEASURE(2.E-5),#1283,
'DISTANCE_ACCURACY_VALUE','Maximum Tolerance applied to model');
#1281=(
NAMED_UNIT(*)
SI_UNIT($,.STERADIAN.)
SOLID_ANGLE_UNIT()
);
#1282=(
NAMED_UNIT(*)
PLANE_ANGLE_UNIT()
SI_UNIT($,.RADIAN.)
);
#1283=(
LENGTH_UNIT()
NAMED_UNIT(*)
SI_UNIT($,.METRE.)
);
#1284=PRODUCT_DEFINITION_SHAPE('','',#1285);
#1285=PRODUCT_DEFINITION('','',#1287,#1286);
#1286=PRODUCT_DEFINITION_CONTEXT('',#1293,'design');
#1287=PRODUCT_DEFINITION_FORMATION_WITH_SPECIFIED_SOURCE('','',#1289,
 .NOT_KNOWN.);
#1288=PRODUCT_RELATED_PRODUCT_CATEGORY('','',(#1289));
#1289=PRODUCT('Lid','Lid','Lid',(#1291));
#1290=PRODUCT_CATEGORY('','');
#1291=PRODUCT_CONTEXT('',#1293,'mechanical');
#1292=APPLICATION_PROTOCOL_DEFINITION('international standard',
'ap242_managed_model_based_3d_engineering',2020,#1293);
#1293=APPLICATION_CONTEXT('managed model based 3d engineering');
ENDSEC;
END-ISO-10303-21;
