ISO-10303-21;
HEADER;
/* Generated by software containing ST-Developer
 * from STEP Tools, Inc. (www.steptools.com) 
 */
/* OPTION: using custom renumber hook */

FILE_DESCRIPTION(
/* description */ ('STEP AP242 Edition 2',
'CAx-IF Rec.Pracs.---Representation and Presentation of Product Manufa
cturing Information (PMI)---4.0---2014-10-13',
'CAx-IF Rec.Pracs.---3D Tessellated Geometry---0.4---2014-09-14','2;1',
'CAx-IF Rec.Pracs.---User Defined Attributes---1.5---2016-08-15'),
/* implementation_level */ '2;1');

FILE_NAME(
/* name */ 'Candy launcher - Slider',
/* time_stamp */ '2026-08-31T07:11:55Z',
/* author */ (''),
/* organization */ (''),
/* preprocessor_version */ 'ST-DEVELOPER v20',
/* originating_system */ 'ONSHAPE BY PTC INC, 1.220',
/* authorisation */ '  ');

FILE_SCHEMA (('AP242_MANAGED_MODEL_BASED_3D_ENGINEERING_MIM_LF { 1 0 10303 442 3 1 4 }'));
ENDSEC;

DATA;
#10=SHAPE_REPRESENTATION_RELATIONSHIP('','',#944,#11);
#11=ADVANCED_BREP_SHAPE_REPRESENTATION('',(#942),#1610);
#12=(
BOUNDED_SURFACE()
B_SPLINE_SURFACE(3,2,((#1542,#1543,#1544),(#1545,#1546,#1547),(#1548,#1549,
#1550),(#1551,#1552,#1553),(#1554,#1555,#1556),(#1557,#1558,#1559),(#1560,
#1561,#1562)),.UNSPECIFIED.,.F.,.F.,.F.)
B_SPLINE_SURFACE_WITH_KNOTS((4,1,1,1,4),(3,3),(-6.41847686111419E-17,0.00301384928470579,
0.00602769856941165,0.0090415478541175,0.0120553971388234),(0.,1.),
 .UNSPECIFIED.)
GEOMETRIC_REPRESENTATION_ITEM()
RATIONAL_B_SPLINE_SURFACE(((1.,0.707106781186513,1.),(1.,0.707106781186513,
1.),(1.,0.707106781186555,1.),(1.,0.707106781186565,1.),(1.,0.707106781186492,
1.),(1.,0.70710678118668,1.),(1.,0.70710678118668,1.)))
REPRESENTATION_ITEM('')
SURFACE()
);
#13=(
BOUNDED_SURFACE()
B_SPLINE_SURFACE(3,2,((#1573,#1574,#1575),(#1576,#1577,#1578),(#1579,#1580,
#1581),(#1582,#1583,#1584),(#1585,#1586,#1587),(#1588,#1589,#1590),(#1591,
#1592,#1593),(#1594,#1595,#1596),(#1597,#1598,#1599),(#1600,#1601,#1602),
(#1603,#1604,#1605),(#1606,#1607,#1608)),.UNSPECIFIED.,.F.,.F.,.F.)
B_SPLINE_SURFACE_WITH_KNOTS((4,1,1,1,1,1,1,1,1,4),(3,3),(-1.03541307472366E-17,
0.00268557187391703,0.00537114374783407,0.0107422874956681,0.0161134312435022,
0.0214845749913363,0.0268557187391704,0.0322268624870045,0.0375980062348385,
0.0429691499826726),(0.,1.),.UNSPECIFIED.)
GEOMETRIC_REPRESENTATION_ITEM()
RATIONAL_B_SPLINE_SURFACE(((1.,0.7071067811865,1.),(1.,0.7071067811865,
1.),(1.,0.70710678118657,1.),(1.,0.707106781186526,1.),(1.,0.707106781186559,
1.),(1.,0.707106781186546,1.),(1.,0.70710678118654,1.),(1.,0.707106781186553,
1.),(1.,0.707106781186574,1.),(1.,0.707106781186528,1.),(1.,0.707106781186596,
1.),(1.,0.707106781186596,1.)))
REPRESENTATION_ITEM('')
SURFACE()
);
#14=CIRCLE('',#953,0.00800000995753317);
#15=CIRCLE('',#956,0.0091752011117374);
#16=CIRCLE('',#957,0.0091752011117374);
#17=CIRCLE('',#959,0.00919833229037891);
#18=CIRCLE('',#960,0.00919833229037891);
#19=CIRCLE('',#962,0.0091983322907476);
#20=CIRCLE('',#963,0.0091983322907476);
#21=CIRCLE('',#965,0.00919833229383585);
#22=CIRCLE('',#966,0.00919833229383585);
#23=CIRCLE('',#968,0.00919978247353827);
#24=CIRCLE('',#969,0.00919978247353827);
#25=CIRCLE('',#971,0.00922463409799185);
#26=CIRCLE('',#972,0.00922463409799185);
#27=CIRCLE('',#974,0.002);
#28=CIRCLE('',#975,0.002);
#29=CIRCLE('',#979,0.00919999456521579);
#30=CIRCLE('',#980,0.00919999456521579);
#31=CIRCLE('',#982,0.00800001596878028);
#32=B_SPLINE_CURVE_WITH_KNOTS('',3,(#1305,#1306,#1307,#1308,#1309),
 .UNSPECIFIED.,.F.,.F.,(4,1,4),(-6.00000000524099E-8,0.00546773642027935,
0.0109355328405588),.UNSPECIFIED.);
#33=B_SPLINE_CURVE_WITH_KNOTS('',3,(#1381,#1382,#1383,#1384,#1385,#1386,
#1387,#1388,#1389,#1390,#1391),.UNSPECIFIED.,.F.,.F.,(4,1,1,1,1,1,1,1,4),
(-5.99999999978952E-8,0.00488280363927193,0.00976566727854386,0.0146485309178158,
0.0195313945570877,0.0244142581963596,0.0292971218356316,0.0341799854749035,
0.0390628491141754),.UNSPECIFIED.);
#34=B_SPLINE_CURVE_WITH_KNOTS('',3,(#1425,#1426,#1427,#1428,#1429,#1430,
#1431),.UNSPECIFIED.,.F.,.F.,(4,1,1,1,4),(0.,0.00300686470336178,0.00601372940672356,
0.00902059411008534,0.0120274588134471),.UNSPECIFIED.);
#35=B_SPLINE_CURVE_WITH_KNOTS('',3,(#1434,#1435,#1436,#1437,#1438,#1439,
#1440,#1441,#1442,#1443,#1444,#1445),.UNSPECIFIED.,.F.,.F.,(4,1,1,1,1,1,
1,1,1,4),(0.,0.00542548712040858,0.0108509742408172,0.0162764613612257,
0.0217019484816343,0.0271274356020429,0.0325529227224515,0.03797840984286,
0.0406911534030643,0.0434038969632686),.UNSPECIFIED.);
#36=B_SPLINE_CURVE_WITH_KNOTS('',3,(#1563,#1564,#1565,#1566,#1567),
 .UNSPECIFIED.,.F.,.F.,(4,1,4),(0.,0.5,1.),.UNSPECIFIED.);
#37=B_SPLINE_CURVE_WITH_KNOTS('',3,(#1568,#1569,#1570,#1571,#1572),
 .UNSPECIFIED.,.F.,.F.,(4,1,4),(0.,0.5,1.),.UNSPECIFIED.);
#38=CYLINDRICAL_SURFACE('',#952,0.00800000995753317);
#39=CYLINDRICAL_SURFACE('',#955,0.0091752011117374);
#40=CYLINDRICAL_SURFACE('',#958,0.00919833229037891);
#41=CYLINDRICAL_SURFACE('',#961,0.0091983322907476);
#42=CYLINDRICAL_SURFACE('',#964,0.00919833229383585);
#43=CYLINDRICAL_SURFACE('',#967,0.00919978247353827);
#44=CYLINDRICAL_SURFACE('',#970,0.00922463409799185);
#45=CYLINDRICAL_SURFACE('',#973,0.002);
#46=CYLINDRICAL_SURFACE('',#978,0.00919999456521579);
#47=CYLINDRICAL_SURFACE('',#981,0.00800001596878028);
#48=ORIENTED_EDGE('',*,*,#314,.F.);
#49=ORIENTED_EDGE('',*,*,#315,.T.);
#50=ORIENTED_EDGE('',*,*,#316,.F.);
#51=ORIENTED_EDGE('',*,*,#317,.F.);
#52=ORIENTED_EDGE('',*,*,#318,.T.);
#53=ORIENTED_EDGE('',*,*,#319,.T.);
#54=ORIENTED_EDGE('',*,*,#320,.F.);
#55=ORIENTED_EDGE('',*,*,#321,.F.);
#56=ORIENTED_EDGE('',*,*,#322,.T.);
#57=ORIENTED_EDGE('',*,*,#323,.T.);
#58=ORIENTED_EDGE('',*,*,#324,.F.);
#59=ORIENTED_EDGE('',*,*,#325,.F.);
#60=ORIENTED_EDGE('',*,*,#326,.T.);
#61=ORIENTED_EDGE('',*,*,#327,.T.);
#62=ORIENTED_EDGE('',*,*,#328,.F.);
#63=ORIENTED_EDGE('',*,*,#329,.F.);
#64=ORIENTED_EDGE('',*,*,#330,.T.);
#65=ORIENTED_EDGE('',*,*,#331,.T.);
#66=ORIENTED_EDGE('',*,*,#332,.F.);
#67=ORIENTED_EDGE('',*,*,#333,.F.);
#68=ORIENTED_EDGE('',*,*,#334,.T.);
#69=ORIENTED_EDGE('',*,*,#335,.T.);
#70=ORIENTED_EDGE('',*,*,#336,.F.);
#71=ORIENTED_EDGE('',*,*,#337,.F.);
#72=ORIENTED_EDGE('',*,*,#338,.T.);
#73=ORIENTED_EDGE('',*,*,#339,.T.);
#74=ORIENTED_EDGE('',*,*,#340,.F.);
#75=ORIENTED_EDGE('',*,*,#341,.T.);
#76=ORIENTED_EDGE('',*,*,#342,.T.);
#77=ORIENTED_EDGE('',*,*,#343,.F.);
#78=ORIENTED_EDGE('',*,*,#344,.F.);
#79=ORIENTED_EDGE('',*,*,#345,.T.);
#80=ORIENTED_EDGE('',*,*,#346,.T.);
#81=ORIENTED_EDGE('',*,*,#347,.F.);
#82=ORIENTED_EDGE('',*,*,#348,.F.);
#83=ORIENTED_EDGE('',*,*,#343,.T.);
#84=ORIENTED_EDGE('',*,*,#349,.T.);
#85=ORIENTED_EDGE('',*,*,#350,.F.);
#86=ORIENTED_EDGE('',*,*,#351,.F.);
#87=ORIENTED_EDGE('',*,*,#347,.T.);
#88=ORIENTED_EDGE('',*,*,#352,.T.);
#89=ORIENTED_EDGE('',*,*,#353,.F.);
#90=ORIENTED_EDGE('',*,*,#354,.F.);
#91=ORIENTED_EDGE('',*,*,#350,.T.);
#92=ORIENTED_EDGE('',*,*,#355,.T.);
#93=ORIENTED_EDGE('',*,*,#356,.F.);
#94=ORIENTED_EDGE('',*,*,#357,.F.);
#95=ORIENTED_EDGE('',*,*,#353,.T.);
#96=ORIENTED_EDGE('',*,*,#358,.T.);
#97=ORIENTED_EDGE('',*,*,#359,.F.);
#98=ORIENTED_EDGE('',*,*,#360,.F.);
#99=ORIENTED_EDGE('',*,*,#356,.T.);
#100=ORIENTED_EDGE('',*,*,#361,.T.);
#101=ORIENTED_EDGE('',*,*,#362,.F.);
#102=ORIENTED_EDGE('',*,*,#363,.F.);
#103=ORIENTED_EDGE('',*,*,#359,.T.);
#104=ORIENTED_EDGE('',*,*,#364,.F.);
#105=ORIENTED_EDGE('',*,*,#365,.F.);
#106=ORIENTED_EDGE('',*,*,#366,.T.);
#107=ORIENTED_EDGE('',*,*,#362,.T.);
#108=ORIENTED_EDGE('',*,*,#367,.F.);
#109=ORIENTED_EDGE('',*,*,#368,.F.);
#110=ORIENTED_EDGE('',*,*,#369,.T.);
#111=ORIENTED_EDGE('',*,*,#365,.T.);
#112=ORIENTED_EDGE('',*,*,#370,.F.);
#113=ORIENTED_EDGE('',*,*,#371,.F.);
#114=ORIENTED_EDGE('',*,*,#372,.T.);
#115=ORIENTED_EDGE('',*,*,#368,.T.);
#116=ORIENTED_EDGE('',*,*,#373,.T.);
#117=ORIENTED_EDGE('',*,*,#345,.F.);
#118=ORIENTED_EDGE('',*,*,#374,.F.);
#119=ORIENTED_EDGE('',*,*,#316,.T.);
#120=ORIENTED_EDGE('',*,*,#340,.T.);
#121=ORIENTED_EDGE('',*,*,#375,.T.);
#122=ORIENTED_EDGE('',*,*,#338,.F.);
#123=ORIENTED_EDGE('',*,*,#376,.T.);
#124=ORIENTED_EDGE('',*,*,#377,.T.);
#125=ORIENTED_EDGE('',*,*,#378,.T.);
#126=ORIENTED_EDGE('',*,*,#379,.T.);
#127=ORIENTED_EDGE('',*,*,#317,.T.);
#128=ORIENTED_EDGE('',*,*,#374,.T.);
#129=ORIENTED_EDGE('',*,*,#344,.T.);
#130=ORIENTED_EDGE('',*,*,#348,.T.);
#131=ORIENTED_EDGE('',*,*,#351,.T.);
#132=ORIENTED_EDGE('',*,*,#354,.T.);
#133=ORIENTED_EDGE('',*,*,#357,.T.);
#134=ORIENTED_EDGE('',*,*,#360,.T.);
#135=ORIENTED_EDGE('',*,*,#363,.T.);
#136=ORIENTED_EDGE('',*,*,#366,.F.);
#137=ORIENTED_EDGE('',*,*,#369,.F.);
#138=ORIENTED_EDGE('',*,*,#372,.F.);
#139=ORIENTED_EDGE('',*,*,#380,.T.);
#140=ORIENTED_EDGE('',*,*,#381,.T.);
#141=ORIENTED_EDGE('',*,*,#382,.T.);
#142=ORIENTED_EDGE('',*,*,#336,.T.);
#143=ORIENTED_EDGE('',*,*,#383,.T.);
#144=ORIENTED_EDGE('',*,*,#384,.T.);
#145=ORIENTED_EDGE('',*,*,#385,.T.);
#146=ORIENTED_EDGE('',*,*,#332,.T.);
#147=ORIENTED_EDGE('',*,*,#386,.T.);
#148=ORIENTED_EDGE('',*,*,#387,.T.);
#149=ORIENTED_EDGE('',*,*,#388,.T.);
#150=ORIENTED_EDGE('',*,*,#328,.T.);
#151=ORIENTED_EDGE('',*,*,#389,.T.);
#152=ORIENTED_EDGE('',*,*,#390,.T.);
#153=ORIENTED_EDGE('',*,*,#391,.T.);
#154=ORIENTED_EDGE('',*,*,#324,.T.);
#155=ORIENTED_EDGE('',*,*,#392,.T.);
#156=ORIENTED_EDGE('',*,*,#393,.T.);
#157=ORIENTED_EDGE('',*,*,#394,.T.);
#158=ORIENTED_EDGE('',*,*,#320,.T.);
#159=ORIENTED_EDGE('',*,*,#341,.F.);
#160=ORIENTED_EDGE('',*,*,#376,.F.);
#161=ORIENTED_EDGE('',*,*,#395,.T.);
#162=ORIENTED_EDGE('',*,*,#396,.T.);
#163=ORIENTED_EDGE('',*,*,#315,.F.);
#164=ORIENTED_EDGE('',*,*,#397,.F.);
#165=ORIENTED_EDGE('',*,*,#398,.F.);
#166=ORIENTED_EDGE('',*,*,#399,.F.);
#167=ORIENTED_EDGE('',*,*,#318,.F.);
#168=ORIENTED_EDGE('',*,*,#400,.F.);
#169=ORIENTED_EDGE('',*,*,#401,.F.);
#170=ORIENTED_EDGE('',*,*,#402,.F.);
#171=ORIENTED_EDGE('',*,*,#322,.F.);
#172=ORIENTED_EDGE('',*,*,#403,.F.);
#173=ORIENTED_EDGE('',*,*,#404,.F.);
#174=ORIENTED_EDGE('',*,*,#405,.F.);
#175=ORIENTED_EDGE('',*,*,#326,.F.);
#176=ORIENTED_EDGE('',*,*,#406,.F.);
#177=ORIENTED_EDGE('',*,*,#407,.F.);
#178=ORIENTED_EDGE('',*,*,#408,.F.);
#179=ORIENTED_EDGE('',*,*,#330,.F.);
#180=ORIENTED_EDGE('',*,*,#409,.F.);
#181=ORIENTED_EDGE('',*,*,#410,.F.);
#182=ORIENTED_EDGE('',*,*,#411,.F.);
#183=ORIENTED_EDGE('',*,*,#334,.F.);
#184=ORIENTED_EDGE('',*,*,#412,.F.);
#185=ORIENTED_EDGE('',*,*,#413,.F.);
#186=ORIENTED_EDGE('',*,*,#414,.F.);
#187=ORIENTED_EDGE('',*,*,#370,.T.);
#188=ORIENTED_EDGE('',*,*,#367,.T.);
#189=ORIENTED_EDGE('',*,*,#364,.T.);
#190=ORIENTED_EDGE('',*,*,#361,.F.);
#191=ORIENTED_EDGE('',*,*,#358,.F.);
#192=ORIENTED_EDGE('',*,*,#355,.F.);
#193=ORIENTED_EDGE('',*,*,#352,.F.);
#194=ORIENTED_EDGE('',*,*,#349,.F.);
#195=ORIENTED_EDGE('',*,*,#346,.F.);
#196=ORIENTED_EDGE('',*,*,#342,.F.);
#197=ORIENTED_EDGE('',*,*,#373,.F.);
#198=ORIENTED_EDGE('',*,*,#415,.T.);
#199=ORIENTED_EDGE('',*,*,#416,.T.);
#200=ORIENTED_EDGE('',*,*,#380,.F.);
#201=ORIENTED_EDGE('',*,*,#371,.T.);
#202=ORIENTED_EDGE('',*,*,#414,.T.);
#203=ORIENTED_EDGE('',*,*,#417,.T.);
#204=ORIENTED_EDGE('',*,*,#418,.T.);
#205=ORIENTED_EDGE('',*,*,#415,.F.);
#206=ORIENTED_EDGE('',*,*,#413,.T.);
#207=ORIENTED_EDGE('',*,*,#382,.F.);
#208=ORIENTED_EDGE('',*,*,#419,.T.);
#209=ORIENTED_EDGE('',*,*,#417,.F.);
#210=ORIENTED_EDGE('',*,*,#412,.T.);
#211=ORIENTED_EDGE('',*,*,#337,.T.);
#212=ORIENTED_EDGE('',*,*,#420,.T.);
#213=ORIENTED_EDGE('',*,*,#421,.T.);
#214=ORIENTED_EDGE('',*,*,#422,.F.);
#215=ORIENTED_EDGE('',*,*,#410,.T.);
#216=ORIENTED_EDGE('',*,*,#385,.F.);
#217=ORIENTED_EDGE('',*,*,#423,.T.);
#218=ORIENTED_EDGE('',*,*,#420,.F.);
#219=ORIENTED_EDGE('',*,*,#409,.T.);
#220=ORIENTED_EDGE('',*,*,#333,.T.);
#221=ORIENTED_EDGE('',*,*,#422,.T.);
#222=ORIENTED_EDGE('',*,*,#424,.T.);
#223=ORIENTED_EDGE('',*,*,#383,.F.);
#224=ORIENTED_EDGE('',*,*,#335,.F.);
#225=ORIENTED_EDGE('',*,*,#411,.T.);
#226=ORIENTED_EDGE('',*,*,#425,.T.);
#227=ORIENTED_EDGE('',*,*,#426,.T.);
#228=ORIENTED_EDGE('',*,*,#427,.F.);
#229=ORIENTED_EDGE('',*,*,#407,.T.);
#230=ORIENTED_EDGE('',*,*,#388,.F.);
#231=ORIENTED_EDGE('',*,*,#428,.T.);
#232=ORIENTED_EDGE('',*,*,#425,.F.);
#233=ORIENTED_EDGE('',*,*,#406,.T.);
#234=ORIENTED_EDGE('',*,*,#329,.T.);
#235=ORIENTED_EDGE('',*,*,#427,.T.);
#236=ORIENTED_EDGE('',*,*,#429,.T.);
#237=ORIENTED_EDGE('',*,*,#386,.F.);
#238=ORIENTED_EDGE('',*,*,#331,.F.);
#239=ORIENTED_EDGE('',*,*,#408,.T.);
#240=ORIENTED_EDGE('',*,*,#430,.T.);
#241=ORIENTED_EDGE('',*,*,#431,.T.);
#242=ORIENTED_EDGE('',*,*,#432,.F.);
#243=ORIENTED_EDGE('',*,*,#404,.T.);
#244=ORIENTED_EDGE('',*,*,#391,.F.);
#245=ORIENTED_EDGE('',*,*,#433,.T.);
#246=ORIENTED_EDGE('',*,*,#430,.F.);
#247=ORIENTED_EDGE('',*,*,#403,.T.);
#248=ORIENTED_EDGE('',*,*,#325,.T.);
#249=ORIENTED_EDGE('',*,*,#432,.T.);
#250=ORIENTED_EDGE('',*,*,#434,.T.);
#251=ORIENTED_EDGE('',*,*,#389,.F.);
#252=ORIENTED_EDGE('',*,*,#327,.F.);
#253=ORIENTED_EDGE('',*,*,#405,.T.);
#254=ORIENTED_EDGE('',*,*,#435,.T.);
#255=ORIENTED_EDGE('',*,*,#436,.T.);
#256=ORIENTED_EDGE('',*,*,#437,.F.);
#257=ORIENTED_EDGE('',*,*,#401,.T.);
#258=ORIENTED_EDGE('',*,*,#394,.F.);
#259=ORIENTED_EDGE('',*,*,#438,.T.);
#260=ORIENTED_EDGE('',*,*,#435,.F.);
#261=ORIENTED_EDGE('',*,*,#400,.T.);
#262=ORIENTED_EDGE('',*,*,#321,.T.);
#263=ORIENTED_EDGE('',*,*,#437,.T.);
#264=ORIENTED_EDGE('',*,*,#439,.T.);
#265=ORIENTED_EDGE('',*,*,#392,.F.);
#266=ORIENTED_EDGE('',*,*,#323,.F.);
#267=ORIENTED_EDGE('',*,*,#402,.T.);
#268=ORIENTED_EDGE('',*,*,#440,.T.);
#269=ORIENTED_EDGE('',*,*,#441,.T.);
#270=ORIENTED_EDGE('',*,*,#442,.F.);
#271=ORIENTED_EDGE('',*,*,#398,.T.);
#272=ORIENTED_EDGE('',*,*,#379,.F.);
#273=ORIENTED_EDGE('',*,*,#443,.T.);
#274=ORIENTED_EDGE('',*,*,#440,.F.);
#275=ORIENTED_EDGE('',*,*,#397,.T.);
#276=ORIENTED_EDGE('',*,*,#314,.T.);
#277=ORIENTED_EDGE('',*,*,#442,.T.);
#278=ORIENTED_EDGE('',*,*,#444,.T.);
#279=ORIENTED_EDGE('',*,*,#377,.F.);
#280=ORIENTED_EDGE('',*,*,#319,.F.);
#281=ORIENTED_EDGE('',*,*,#399,.T.);
#282=ORIENTED_EDGE('',*,*,#444,.F.);
#283=ORIENTED_EDGE('',*,*,#441,.F.);
#284=ORIENTED_EDGE('',*,*,#443,.F.);
#285=ORIENTED_EDGE('',*,*,#378,.F.);
#286=ORIENTED_EDGE('',*,*,#439,.F.);
#287=ORIENTED_EDGE('',*,*,#436,.F.);
#288=ORIENTED_EDGE('',*,*,#438,.F.);
#289=ORIENTED_EDGE('',*,*,#393,.F.);
#290=ORIENTED_EDGE('',*,*,#434,.F.);
#291=ORIENTED_EDGE('',*,*,#431,.F.);
#292=ORIENTED_EDGE('',*,*,#433,.F.);
#293=ORIENTED_EDGE('',*,*,#390,.F.);
#294=ORIENTED_EDGE('',*,*,#429,.F.);
#295=ORIENTED_EDGE('',*,*,#426,.F.);
#296=ORIENTED_EDGE('',*,*,#428,.F.);
#297=ORIENTED_EDGE('',*,*,#387,.F.);
#298=ORIENTED_EDGE('',*,*,#424,.F.);
#299=ORIENTED_EDGE('',*,*,#421,.F.);
#300=ORIENTED_EDGE('',*,*,#423,.F.);
#301=ORIENTED_EDGE('',*,*,#384,.F.);
#302=ORIENTED_EDGE('',*,*,#416,.F.);
#303=ORIENTED_EDGE('',*,*,#418,.F.);
#304=ORIENTED_EDGE('',*,*,#419,.F.);
#305=ORIENTED_EDGE('',*,*,#381,.F.);
#306=ORIENTED_EDGE('',*,*,#445,.F.);
#307=ORIENTED_EDGE('',*,*,#339,.F.);
#308=ORIENTED_EDGE('',*,*,#446,.F.);
#309=ORIENTED_EDGE('',*,*,#395,.F.);
#310=ORIENTED_EDGE('',*,*,#446,.T.);
#311=ORIENTED_EDGE('',*,*,#375,.F.);
#312=ORIENTED_EDGE('',*,*,#445,.T.);
#313=ORIENTED_EDGE('',*,*,#396,.F.);
#314=EDGE_CURVE('',#447,#448,#535,.T.);
#315=EDGE_CURVE('',#447,#449,#536,.T.);
#316=EDGE_CURVE('',#450,#449,#537,.T.);
#317=EDGE_CURVE('',#448,#450,#538,.T.);
#318=EDGE_CURVE('',#451,#452,#539,.T.);
#319=EDGE_CURVE('',#452,#453,#540,.T.);
#320=EDGE_CURVE('',#454,#453,#541,.T.);
#321=EDGE_CURVE('',#451,#454,#542,.T.);
#322=EDGE_CURVE('',#455,#456,#543,.T.);
#323=EDGE_CURVE('',#456,#457,#544,.T.);
#324=EDGE_CURVE('',#458,#457,#545,.T.);
#325=EDGE_CURVE('',#455,#458,#546,.T.);
#326=EDGE_CURVE('',#459,#460,#547,.T.);
#327=EDGE_CURVE('',#460,#461,#548,.T.);
#328=EDGE_CURVE('',#462,#461,#549,.T.);
#329=EDGE_CURVE('',#459,#462,#550,.T.);
#330=EDGE_CURVE('',#463,#464,#551,.T.);
#331=EDGE_CURVE('',#464,#465,#552,.T.);
#332=EDGE_CURVE('',#466,#465,#553,.T.);
#333=EDGE_CURVE('',#463,#466,#554,.T.);
#334=EDGE_CURVE('',#467,#468,#555,.T.);
#335=EDGE_CURVE('',#468,#469,#556,.T.);
#336=EDGE_CURVE('',#470,#469,#557,.T.);
#337=EDGE_CURVE('',#467,#470,#558,.T.);
#338=EDGE_CURVE('',#471,#472,#559,.T.);
#339=EDGE_CURVE('',#472,#473,#32,.T.);
#340=EDGE_CURVE('',#474,#473,#560,.T.);
#341=EDGE_CURVE('',#474,#471,#14,.F.);
#342=EDGE_CURVE('',#475,#476,#561,.T.);
#343=EDGE_CURVE('',#477,#476,#562,.T.);
#344=EDGE_CURVE('',#478,#477,#563,.T.);
#345=EDGE_CURVE('',#478,#475,#564,.T.);
#346=EDGE_CURVE('',#476,#479,#15,.F.);
#347=EDGE_CURVE('',#480,#479,#565,.T.);
#348=EDGE_CURVE('',#477,#480,#16,.F.);
#349=EDGE_CURVE('',#479,#481,#17,.F.);
#350=EDGE_CURVE('',#482,#481,#566,.T.);
#351=EDGE_CURVE('',#480,#482,#18,.F.);
#352=EDGE_CURVE('',#481,#483,#19,.F.);
#353=EDGE_CURVE('',#484,#483,#567,.T.);
#354=EDGE_CURVE('',#482,#484,#20,.F.);
#355=EDGE_CURVE('',#483,#485,#21,.F.);
#356=EDGE_CURVE('',#486,#485,#568,.T.);
#357=EDGE_CURVE('',#484,#486,#22,.F.);
#358=EDGE_CURVE('',#485,#487,#23,.F.);
#359=EDGE_CURVE('',#488,#487,#569,.T.);
#360=EDGE_CURVE('',#486,#488,#24,.F.);
#361=EDGE_CURVE('',#487,#489,#25,.F.);
#362=EDGE_CURVE('',#490,#489,#570,.T.);
#363=EDGE_CURVE('',#488,#490,#26,.F.);
#364=EDGE_CURVE('',#491,#489,#27,.T.);
#365=EDGE_CURVE('',#492,#491,#571,.T.);
#366=EDGE_CURVE('',#492,#490,#28,.T.);
#367=EDGE_CURVE('',#493,#491,#572,.T.);
#368=EDGE_CURVE('',#494,#493,#573,.T.);
#369=EDGE_CURVE('',#494,#492,#574,.T.);
#370=EDGE_CURVE('',#495,#493,#575,.T.);
#371=EDGE_CURVE('',#496,#495,#576,.T.);
#372=EDGE_CURVE('',#496,#494,#577,.T.);
#373=EDGE_CURVE('',#449,#475,#29,.T.);
#374=EDGE_CURVE('',#450,#478,#30,.T.);
#375=EDGE_CURVE('',#473,#472,#33,.T.);
#376=EDGE_CURVE('',#471,#474,#31,.F.);
#377=EDGE_CURVE('',#453,#497,#578,.T.);
#378=EDGE_CURVE('',#497,#498,#579,.T.);
#379=EDGE_CURVE('',#498,#448,#580,.T.);
#380=EDGE_CURVE('',#496,#499,#581,.T.);
#381=EDGE_CURVE('',#499,#500,#582,.T.);
#382=EDGE_CURVE('',#500,#470,#583,.T.);
#383=EDGE_CURVE('',#469,#501,#584,.T.);
#384=EDGE_CURVE('',#501,#502,#585,.T.);
#385=EDGE_CURVE('',#502,#466,#586,.T.);
#386=EDGE_CURVE('',#465,#503,#587,.T.);
#387=EDGE_CURVE('',#503,#504,#588,.T.);
#388=EDGE_CURVE('',#504,#462,#589,.T.);
#389=EDGE_CURVE('',#461,#505,#590,.T.);
#390=EDGE_CURVE('',#505,#506,#591,.T.);
#391=EDGE_CURVE('',#506,#458,#592,.T.);
#392=EDGE_CURVE('',#457,#507,#593,.T.);
#393=EDGE_CURVE('',#507,#508,#594,.T.);
#394=EDGE_CURVE('',#508,#454,#595,.T.);
#395=EDGE_CURVE('',#509,#510,#34,.T.);
#396=EDGE_CURVE('',#510,#509,#35,.T.);
#397=EDGE_CURVE('',#511,#447,#596,.T.);
#398=EDGE_CURVE('',#512,#511,#597,.T.);
#399=EDGE_CURVE('',#452,#512,#598,.T.);
#400=EDGE_CURVE('',#513,#451,#599,.T.);
#401=EDGE_CURVE('',#514,#513,#600,.T.);
#402=EDGE_CURVE('',#456,#514,#601,.T.);
#403=EDGE_CURVE('',#515,#455,#602,.T.);
#404=EDGE_CURVE('',#516,#515,#603,.T.);
#405=EDGE_CURVE('',#460,#516,#604,.T.);
#406=EDGE_CURVE('',#517,#459,#605,.T.);
#407=EDGE_CURVE('',#518,#517,#606,.T.);
#408=EDGE_CURVE('',#464,#518,#607,.T.);
#409=EDGE_CURVE('',#519,#463,#608,.T.);
#410=EDGE_CURVE('',#520,#519,#609,.T.);
#411=EDGE_CURVE('',#468,#520,#610,.T.);
#412=EDGE_CURVE('',#521,#467,#611,.T.);
#413=EDGE_CURVE('',#522,#521,#612,.T.);
#414=EDGE_CURVE('',#495,#522,#613,.T.);
#415=EDGE_CURVE('',#522,#523,#614,.T.);
#416=EDGE_CURVE('',#523,#499,#615,.F.);
#417=EDGE_CURVE('',#521,#524,#616,.T.);
#418=EDGE_CURVE('',#524,#523,#617,.T.);
#419=EDGE_CURVE('',#500,#524,#618,.F.);
#420=EDGE_CURVE('',#519,#525,#619,.T.);
#421=EDGE_CURVE('',#525,#526,#620,.T.);
#422=EDGE_CURVE('',#520,#526,#621,.T.);
#423=EDGE_CURVE('',#502,#525,#622,.F.);
#424=EDGE_CURVE('',#526,#501,#623,.F.);
#425=EDGE_CURVE('',#517,#527,#624,.T.);
#426=EDGE_CURVE('',#527,#528,#625,.T.);
#427=EDGE_CURVE('',#518,#528,#626,.T.);
#428=EDGE_CURVE('',#504,#527,#627,.F.);
#429=EDGE_CURVE('',#528,#503,#628,.F.);
#430=EDGE_CURVE('',#515,#529,#629,.T.);
#431=EDGE_CURVE('',#529,#530,#630,.T.);
#432=EDGE_CURVE('',#516,#530,#631,.T.);
#433=EDGE_CURVE('',#506,#529,#632,.F.);
#434=EDGE_CURVE('',#530,#505,#633,.F.);
#435=EDGE_CURVE('',#513,#531,#634,.T.);
#436=EDGE_CURVE('',#531,#532,#635,.T.);
#437=EDGE_CURVE('',#514,#532,#636,.T.);
#438=EDGE_CURVE('',#508,#531,#637,.F.);
#439=EDGE_CURVE('',#532,#507,#638,.F.);
#440=EDGE_CURVE('',#511,#533,#639,.T.);
#441=EDGE_CURVE('',#533,#534,#640,.T.);
#442=EDGE_CURVE('',#512,#534,#641,.T.);
#443=EDGE_CURVE('',#498,#533,#642,.F.);
#444=EDGE_CURVE('',#534,#497,#643,.F.);
#445=EDGE_CURVE('',#473,#509,#36,.F.);
#446=EDGE_CURVE('',#510,#472,#37,.F.);
#447=VERTEX_POINT('',#1249);
#448=VERTEX_POINT('',#1250);
#449=VERTEX_POINT('',#1252);
#450=VERTEX_POINT('',#1254);
#451=VERTEX_POINT('',#1258);
#452=VERTEX_POINT('',#1259);
#453=VERTEX_POINT('',#1261);
#454=VERTEX_POINT('',#1263);
#455=VERTEX_POINT('',#1267);
#456=VERTEX_POINT('',#1268);
#457=VERTEX_POINT('',#1270);
#458=VERTEX_POINT('',#1272);
#459=VERTEX_POINT('',#1276);
#460=VERTEX_POINT('',#1277);
#461=VERTEX_POINT('',#1279);
#462=VERTEX_POINT('',#1281);
#463=VERTEX_POINT('',#1285);
#464=VERTEX_POINT('',#1286);
#465=VERTEX_POINT('',#1288);
#466=VERTEX_POINT('',#1290);
#467=VERTEX_POINT('',#1294);
#468=VERTEX_POINT('',#1295);
#469=VERTEX_POINT('',#1297);
#470=VERTEX_POINT('',#1299);
#471=VERTEX_POINT('',#1303);
#472=VERTEX_POINT('',#1304);
#473=VERTEX_POINT('',#1310);
#474=VERTEX_POINT('',#1312);
#475=VERTEX_POINT('',#1316);
#476=VERTEX_POINT('',#1317);
#477=VERTEX_POINT('',#1319);
#478=VERTEX_POINT('',#1321);
#479=VERTEX_POINT('',#1325);
#480=VERTEX_POINT('',#1327);
#481=VERTEX_POINT('',#1331);
#482=VERTEX_POINT('',#1333);
#483=VERTEX_POINT('',#1337);
#484=VERTEX_POINT('',#1339);
#485=VERTEX_POINT('',#1343);
#486=VERTEX_POINT('',#1345);
#487=VERTEX_POINT('',#1349);
#488=VERTEX_POINT('',#1351);
#489=VERTEX_POINT('',#1355);
#490=VERTEX_POINT('',#1357);
#491=VERTEX_POINT('',#1361);
#492=VERTEX_POINT('',#1363);
#493=VERTEX_POINT('',#1367);
#494=VERTEX_POINT('',#1369);
#495=VERTEX_POINT('',#1373);
#496=VERTEX_POINT('',#1375);
#497=VERTEX_POINT('',#1395);
#498=VERTEX_POINT('',#1397);
#499=VERTEX_POINT('',#1400);
#500=VERTEX_POINT('',#1402);
#501=VERTEX_POINT('',#1405);
#502=VERTEX_POINT('',#1407);
#503=VERTEX_POINT('',#1410);
#504=VERTEX_POINT('',#1412);
#505=VERTEX_POINT('',#1415);
#506=VERTEX_POINT('',#1417);
#507=VERTEX_POINT('',#1420);
#508=VERTEX_POINT('',#1422);
#509=VERTEX_POINT('',#1432);
#510=VERTEX_POINT('',#1433);
#511=VERTEX_POINT('',#1447);
#512=VERTEX_POINT('',#1449);
#513=VERTEX_POINT('',#1452);
#514=VERTEX_POINT('',#1454);
#515=VERTEX_POINT('',#1457);
#516=VERTEX_POINT('',#1459);
#517=VERTEX_POINT('',#1462);
#518=VERTEX_POINT('',#1464);
#519=VERTEX_POINT('',#1467);
#520=VERTEX_POINT('',#1469);
#521=VERTEX_POINT('',#1472);
#522=VERTEX_POINT('',#1474);
#523=VERTEX_POINT('',#1478);
#524=VERTEX_POINT('',#1482);
#525=VERTEX_POINT('',#1488);
#526=VERTEX_POINT('',#1490);
#527=VERTEX_POINT('',#1498);
#528=VERTEX_POINT('',#1500);
#529=VERTEX_POINT('',#1508);
#530=VERTEX_POINT('',#1510);
#531=VERTEX_POINT('',#1518);
#532=VERTEX_POINT('',#1520);
#533=VERTEX_POINT('',#1528);
#534=VERTEX_POINT('',#1530);
#535=LINE('',#1248,#644);
#536=LINE('',#1251,#645);
#537=LINE('',#1253,#646);
#538=LINE('',#1255,#647);
#539=LINE('',#1257,#648);
#540=LINE('',#1260,#649);
#541=LINE('',#1262,#650);
#542=LINE('',#1264,#651);
#543=LINE('',#1266,#652);
#544=LINE('',#1269,#653);
#545=LINE('',#1271,#654);
#546=LINE('',#1273,#655);
#547=LINE('',#1275,#656);
#548=LINE('',#1278,#657);
#549=LINE('',#1280,#658);
#550=LINE('',#1282,#659);
#551=LINE('',#1284,#660);
#552=LINE('',#1287,#661);
#553=LINE('',#1289,#662);
#554=LINE('',#1291,#663);
#555=LINE('',#1293,#664);
#556=LINE('',#1296,#665);
#557=LINE('',#1298,#666);
#558=LINE('',#1300,#667);
#559=LINE('',#1302,#668);
#560=LINE('',#1311,#669);
#561=LINE('',#1315,#670);
#562=LINE('',#1318,#671);
#563=LINE('',#1320,#672);
#564=LINE('',#1322,#673);
#565=LINE('',#1326,#674);
#566=LINE('',#1332,#675);
#567=LINE('',#1338,#676);
#568=LINE('',#1344,#677);
#569=LINE('',#1350,#678);
#570=LINE('',#1356,#679);
#571=LINE('',#1362,#680);
#572=LINE('',#1366,#681);
#573=LINE('',#1368,#682);
#574=LINE('',#1370,#683);
#575=LINE('',#1372,#684);
#576=LINE('',#1374,#685);
#577=LINE('',#1376,#686);
#578=LINE('',#1394,#687);
#579=LINE('',#1396,#688);
#580=LINE('',#1398,#689);
#581=LINE('',#1399,#690);
#582=LINE('',#1401,#691);
#583=LINE('',#1403,#692);
#584=LINE('',#1404,#693);
#585=LINE('',#1406,#694);
#586=LINE('',#1408,#695);
#587=LINE('',#1409,#696);
#588=LINE('',#1411,#697);
#589=LINE('',#1413,#698);
#590=LINE('',#1414,#699);
#591=LINE('',#1416,#700);
#592=LINE('',#1418,#701);
#593=LINE('',#1419,#702);
#594=LINE('',#1421,#703);
#595=LINE('',#1423,#704);
#596=LINE('',#1446,#705);
#597=LINE('',#1448,#706);
#598=LINE('',#1450,#707);
#599=LINE('',#1451,#708);
#600=LINE('',#1453,#709);
#601=LINE('',#1455,#710);
#602=LINE('',#1456,#711);
#603=LINE('',#1458,#712);
#604=LINE('',#1460,#713);
#605=LINE('',#1461,#714);
#606=LINE('',#1463,#715);
#607=LINE('',#1465,#716);
#608=LINE('',#1466,#717);
#609=LINE('',#1468,#718);
#610=LINE('',#1470,#719);
#611=LINE('',#1471,#720);
#612=LINE('',#1473,#721);
#613=LINE('',#1475,#722);
#614=LINE('',#1477,#723);
#615=LINE('',#1479,#724);
#616=LINE('',#1481,#725);
#617=LINE('',#1483,#726);
#618=LINE('',#1485,#727);
#619=LINE('',#1487,#728);
#620=LINE('',#1489,#729);
#621=LINE('',#1491,#730);
#622=LINE('',#1493,#731);
#623=LINE('',#1495,#732);
#624=LINE('',#1497,#733);
#625=LINE('',#1499,#734);
#626=LINE('',#1501,#735);
#627=LINE('',#1503,#736);
#628=LINE('',#1505,#737);
#629=LINE('',#1507,#738);
#630=LINE('',#1509,#739);
#631=LINE('',#1511,#740);
#632=LINE('',#1513,#741);
#633=LINE('',#1515,#742);
#634=LINE('',#1517,#743);
#635=LINE('',#1519,#744);
#636=LINE('',#1521,#745);
#637=LINE('',#1523,#746);
#638=LINE('',#1525,#747);
#639=LINE('',#1527,#748);
#640=LINE('',#1529,#749);
#641=LINE('',#1531,#750);
#642=LINE('',#1533,#751);
#643=LINE('',#1535,#752);
#644=VECTOR('',#1013,1.);
#645=VECTOR('',#1014,1.);
#646=VECTOR('',#1015,1.);
#647=VECTOR('',#1016,1.);
#648=VECTOR('',#1019,1.);
#649=VECTOR('',#1020,1.);
#650=VECTOR('',#1021,1.);
#651=VECTOR('',#1022,1.);
#652=VECTOR('',#1025,1.);
#653=VECTOR('',#1026,1.);
#654=VECTOR('',#1027,1.);
#655=VECTOR('',#1028,1.);
#656=VECTOR('',#1031,1.);
#657=VECTOR('',#1032,1.);
#658=VECTOR('',#1033,1.);
#659=VECTOR('',#1034,1.);
#660=VECTOR('',#1037,1.);
#661=VECTOR('',#1038,1.);
#662=VECTOR('',#1039,1.);
#663=VECTOR('',#1040,1.);
#664=VECTOR('',#1043,1.);
#665=VECTOR('',#1044,1.);
#666=VECTOR('',#1045,1.);
#667=VECTOR('',#1046,1.);
#668=VECTOR('',#1049,1.);
#669=VECTOR('',#1050,1.);
#670=VECTOR('',#1055,1.);
#671=VECTOR('',#1056,1.);
#672=VECTOR('',#1057,1.);
#673=VECTOR('',#1058,1.);
#674=VECTOR('',#1063,1.);
#675=VECTOR('',#1070,1.);
#676=VECTOR('',#1077,1.);
#677=VECTOR('',#1084,1.);
#678=VECTOR('',#1091,1.);
#679=VECTOR('',#1098,1.);
#680=VECTOR('',#1105,1.);
#681=VECTOR('',#1110,1.);
#682=VECTOR('',#1111,1.);
#683=VECTOR('',#1112,1.);
#684=VECTOR('',#1115,1.);
#685=VECTOR('',#1116,1.);
#686=VECTOR('',#1117,1.);
#687=VECTOR('',#1130,1.);
#688=VECTOR('',#1131,1.);
#689=VECTOR('',#1132,1.);
#690=VECTOR('',#1133,1.);
#691=VECTOR('',#1134,1.);
#692=VECTOR('',#1135,1.);
#693=VECTOR('',#1136,1.);
#694=VECTOR('',#1137,1.);
#695=VECTOR('',#1138,1.);
#696=VECTOR('',#1139,1.);
#697=VECTOR('',#1140,1.);
#698=VECTOR('',#1141,1.);
#699=VECTOR('',#1142,1.);
#700=VECTOR('',#1143,1.);
#701=VECTOR('',#1144,1.);
#702=VECTOR('',#1145,1.);
#703=VECTOR('',#1146,1.);
#704=VECTOR('',#1147,1.);
#705=VECTOR('',#1150,1.);
#706=VECTOR('',#1151,1.);
#707=VECTOR('',#1152,1.);
#708=VECTOR('',#1153,1.);
#709=VECTOR('',#1154,1.);
#710=VECTOR('',#1155,1.);
#711=VECTOR('',#1156,1.);
#712=VECTOR('',#1157,1.);
#713=VECTOR('',#1158,1.);
#714=VECTOR('',#1159,1.);
#715=VECTOR('',#1160,1.);
#716=VECTOR('',#1161,1.);
#717=VECTOR('',#1162,1.);
#718=VECTOR('',#1163,1.);
#719=VECTOR('',#1164,1.);
#720=VECTOR('',#1165,1.);
#721=VECTOR('',#1166,1.);
#722=VECTOR('',#1167,1.);
#723=VECTOR('',#1170,1.);
#724=VECTOR('',#1171,1.);
#725=VECTOR('',#1174,1.);
#726=VECTOR('',#1175,1.);
#727=VECTOR('',#1178,1.);
#728=VECTOR('',#1181,1.);
#729=VECTOR('',#1182,1.);
#730=VECTOR('',#1183,1.);
#731=VECTOR('',#1186,1.);
#732=VECTOR('',#1189,1.);
#733=VECTOR('',#1192,1.);
#734=VECTOR('',#1193,1.);
#735=VECTOR('',#1194,1.);
#736=VECTOR('',#1197,1.);
#737=VECTOR('',#1200,1.);
#738=VECTOR('',#1203,1.);
#739=VECTOR('',#1204,1.);
#740=VECTOR('',#1205,1.);
#741=VECTOR('',#1208,1.);
#742=VECTOR('',#1211,1.);
#743=VECTOR('',#1214,1.);
#744=VECTOR('',#1215,1.);
#745=VECTOR('',#1216,1.);
#746=VECTOR('',#1219,1.);
#747=VECTOR('',#1222,1.);
#748=VECTOR('',#1225,1.);
#749=VECTOR('',#1226,1.);
#750=VECTOR('',#1227,1.);
#751=VECTOR('',#1230,1.);
#752=VECTOR('',#1233,1.);
#753=EDGE_LOOP('',(#48,#49,#50,#51));
#754=EDGE_LOOP('',(#52,#53,#54,#55));
#755=EDGE_LOOP('',(#56,#57,#58,#59));
#756=EDGE_LOOP('',(#60,#61,#62,#63));
#757=EDGE_LOOP('',(#64,#65,#66,#67));
#758=EDGE_LOOP('',(#68,#69,#70,#71));
#759=EDGE_LOOP('',(#72,#73,#74,#75));
#760=EDGE_LOOP('',(#76,#77,#78,#79));
#761=EDGE_LOOP('',(#80,#81,#82,#83));
#762=EDGE_LOOP('',(#84,#85,#86,#87));
#763=EDGE_LOOP('',(#88,#89,#90,#91));
#764=EDGE_LOOP('',(#92,#93,#94,#95));
#765=EDGE_LOOP('',(#96,#97,#98,#99));
#766=EDGE_LOOP('',(#100,#101,#102,#103));
#767=EDGE_LOOP('',(#104,#105,#106,#107));
#768=EDGE_LOOP('',(#108,#109,#110,#111));
#769=EDGE_LOOP('',(#112,#113,#114,#115));
#770=EDGE_LOOP('',(#116,#117,#118,#119));
#771=EDGE_LOOP('',(#120,#121,#122,#123));
#772=EDGE_LOOP('',(#124,#125,#126,#127,#128,#129,#130,#131,#132,#133,#134,
#135,#136,#137,#138,#139,#140,#141,#142,#143,#144,#145,#146,#147,#148,#149,
#150,#151,#152,#153,#154,#155,#156,#157,#158));
#773=EDGE_LOOP('',(#159,#160));
#774=EDGE_LOOP('',(#161,#162));
#775=EDGE_LOOP('',(#163,#164,#165,#166,#167,#168,#169,#170,#171,#172,#173,
#174,#175,#176,#177,#178,#179,#180,#181,#182,#183,#184,#185,#186,#187,#188,
#189,#190,#191,#192,#193,#194,#195,#196,#197));
#776=EDGE_LOOP('',(#198,#199,#200,#201,#202));
#777=EDGE_LOOP('',(#203,#204,#205,#206));
#778=EDGE_LOOP('',(#207,#208,#209,#210,#211));
#779=EDGE_LOOP('',(#212,#213,#214,#215));
#780=EDGE_LOOP('',(#216,#217,#218,#219,#220));
#781=EDGE_LOOP('',(#221,#222,#223,#224,#225));
#782=EDGE_LOOP('',(#226,#227,#228,#229));
#783=EDGE_LOOP('',(#230,#231,#232,#233,#234));
#784=EDGE_LOOP('',(#235,#236,#237,#238,#239));
#785=EDGE_LOOP('',(#240,#241,#242,#243));
#786=EDGE_LOOP('',(#244,#245,#246,#247,#248));
#787=EDGE_LOOP('',(#249,#250,#251,#252,#253));
#788=EDGE_LOOP('',(#254,#255,#256,#257));
#789=EDGE_LOOP('',(#258,#259,#260,#261,#262));
#790=EDGE_LOOP('',(#263,#264,#265,#266,#267));
#791=EDGE_LOOP('',(#268,#269,#270,#271));
#792=EDGE_LOOP('',(#272,#273,#274,#275,#276));
#793=EDGE_LOOP('',(#277,#278,#279,#280,#281));
#794=EDGE_LOOP('',(#282,#283,#284,#285));
#795=EDGE_LOOP('',(#286,#287,#288,#289));
#796=EDGE_LOOP('',(#290,#291,#292,#293));
#797=EDGE_LOOP('',(#294,#295,#296,#297));
#798=EDGE_LOOP('',(#298,#299,#300,#301));
#799=EDGE_LOOP('',(#302,#303,#304,#305));
#800=EDGE_LOOP('',(#306,#307,#308,#309));
#801=EDGE_LOOP('',(#310,#311,#312,#313));
#802=FACE_BOUND('',#753,.T.);
#803=FACE_BOUND('',#754,.T.);
#804=FACE_BOUND('',#755,.T.);
#805=FACE_BOUND('',#756,.T.);
#806=FACE_BOUND('',#757,.T.);
#807=FACE_BOUND('',#758,.T.);
#808=FACE_BOUND('',#759,.T.);
#809=FACE_BOUND('',#760,.T.);
#810=FACE_BOUND('',#761,.T.);
#811=FACE_BOUND('',#762,.T.);
#812=FACE_BOUND('',#763,.T.);
#813=FACE_BOUND('',#764,.T.);
#814=FACE_BOUND('',#765,.T.);
#815=FACE_BOUND('',#766,.T.);
#816=FACE_BOUND('',#767,.T.);
#817=FACE_BOUND('',#768,.T.);
#818=FACE_BOUND('',#769,.T.);
#819=FACE_BOUND('',#770,.T.);
#820=FACE_BOUND('',#771,.T.);
#821=FACE_BOUND('',#772,.T.);
#822=FACE_BOUND('',#773,.T.);
#823=FACE_BOUND('',#774,.T.);
#824=FACE_BOUND('',#775,.T.);
#825=FACE_BOUND('',#776,.T.);
#826=FACE_BOUND('',#777,.T.);
#827=FACE_BOUND('',#778,.T.);
#828=FACE_BOUND('',#779,.T.);
#829=FACE_BOUND('',#780,.T.);
#830=FACE_BOUND('',#781,.T.);
#831=FACE_BOUND('',#782,.T.);
#832=FACE_BOUND('',#783,.T.);
#833=FACE_BOUND('',#784,.T.);
#834=FACE_BOUND('',#785,.T.);
#835=FACE_BOUND('',#786,.T.);
#836=FACE_BOUND('',#787,.T.);
#837=FACE_BOUND('',#788,.T.);
#838=FACE_BOUND('',#789,.T.);
#839=FACE_BOUND('',#790,.T.);
#840=FACE_BOUND('',#791,.T.);
#841=FACE_BOUND('',#792,.T.);
#842=FACE_BOUND('',#793,.T.);
#843=FACE_BOUND('',#794,.T.);
#844=FACE_BOUND('',#795,.T.);
#845=FACE_BOUND('',#796,.T.);
#846=FACE_BOUND('',#797,.T.);
#847=FACE_BOUND('',#798,.T.);
#848=FACE_BOUND('',#799,.T.);
#849=FACE_BOUND('',#800,.T.);
#850=FACE_BOUND('',#801,.T.);
#851=PLANE('',#946);
#852=PLANE('',#947);
#853=PLANE('',#948);
#854=PLANE('',#949);
#855=PLANE('',#950);
#856=PLANE('',#951);
#857=PLANE('',#954);
#858=PLANE('',#976);
#859=PLANE('',#977);
#860=PLANE('',#983);
#861=PLANE('',#984);
#862=PLANE('',#985);
#863=PLANE('',#986);
#864=PLANE('',#987);
#865=PLANE('',#988);
#866=PLANE('',#989);
#867=PLANE('',#990);
#868=PLANE('',#991);
#869=PLANE('',#992);
#870=PLANE('',#993);
#871=PLANE('',#994);
#872=PLANE('',#995);
#873=PLANE('',#996);
#874=PLANE('',#997);
#875=PLANE('',#998);
#876=PLANE('',#999);
#877=PLANE('',#1000);
#878=PLANE('',#1001);
#879=PLANE('',#1002);
#880=PLANE('',#1003);
#881=PLANE('',#1004);
#882=PLANE('',#1005);
#883=PLANE('',#1006);
#884=PLANE('',#1007);
#885=PLANE('',#1008);
#886=ADVANCED_FACE('',(#802),#851,.F.);
#887=ADVANCED_FACE('',(#803),#852,.F.);
#888=ADVANCED_FACE('',(#804),#853,.F.);
#889=ADVANCED_FACE('',(#805),#854,.F.);
#890=ADVANCED_FACE('',(#806),#855,.F.);
#891=ADVANCED_FACE('',(#807),#856,.F.);
#892=ADVANCED_FACE('',(#808),#38,.F.);
#893=ADVANCED_FACE('',(#809),#857,.F.);
#894=ADVANCED_FACE('',(#810),#39,.T.);
#895=ADVANCED_FACE('',(#811),#40,.T.);
#896=ADVANCED_FACE('',(#812),#41,.T.);
#897=ADVANCED_FACE('',(#813),#42,.T.);
#898=ADVANCED_FACE('',(#814),#43,.T.);
#899=ADVANCED_FACE('',(#815),#44,.T.);
#900=ADVANCED_FACE('',(#816),#45,.F.);
#901=ADVANCED_FACE('',(#817),#858,.T.);
#902=ADVANCED_FACE('',(#818),#859,.T.);
#903=ADVANCED_FACE('',(#819),#46,.T.);
#904=ADVANCED_FACE('',(#820),#47,.F.);
#905=ADVANCED_FACE('',(#821,#822),#860,.T.);
#906=ADVANCED_FACE('',(#823,#824),#861,.F.);
#907=ADVANCED_FACE('',(#825),#862,.T.);
#908=ADVANCED_FACE('',(#826),#863,.T.);
#909=ADVANCED_FACE('',(#827),#864,.T.);
#910=ADVANCED_FACE('',(#828),#865,.T.);
#911=ADVANCED_FACE('',(#829),#866,.T.);
#912=ADVANCED_FACE('',(#830),#867,.T.);
#913=ADVANCED_FACE('',(#831),#868,.T.);
#914=ADVANCED_FACE('',(#832),#869,.T.);
#915=ADVANCED_FACE('',(#833),#870,.T.);
#916=ADVANCED_FACE('',(#834),#871,.T.);
#917=ADVANCED_FACE('',(#835),#872,.T.);
#918=ADVANCED_FACE('',(#836),#873,.T.);
#919=ADVANCED_FACE('',(#837),#874,.T.);
#920=ADVANCED_FACE('',(#838),#875,.T.);
#921=ADVANCED_FACE('',(#839),#876,.T.);
#922=ADVANCED_FACE('',(#840),#877,.T.);
#923=ADVANCED_FACE('',(#841),#878,.T.);
#924=ADVANCED_FACE('',(#842),#879,.T.);
#925=ADVANCED_FACE('',(#843),#880,.F.);
#926=ADVANCED_FACE('',(#844),#881,.F.);
#927=ADVANCED_FACE('',(#845),#882,.F.);
#928=ADVANCED_FACE('',(#846),#883,.F.);
#929=ADVANCED_FACE('',(#847),#884,.F.);
#930=ADVANCED_FACE('',(#848),#885,.F.);
#931=ADVANCED_FACE('',(#849),#12,.T.);
#932=ADVANCED_FACE('',(#850),#13,.T.);
#933=CLOSED_SHELL('',(#886,#887,#888,#889,#890,#891,#892,#893,#894,#895,
#896,#897,#898,#899,#900,#901,#902,#903,#904,#905,#906,#907,#908,#909,#910,
#911,#912,#913,#914,#915,#916,#917,#918,#919,#920,#921,#922,#923,#924,#925,
#926,#927,#928,#929,#930,#931,#932));
#934=STYLED_ITEM('',(#935),#942);
#935=PRESENTATION_STYLE_ASSIGNMENT((#936));
#936=SURFACE_STYLE_USAGE(.BOTH.,#937);
#937=SURFACE_SIDE_STYLE('',(#938));
#938=SURFACE_STYLE_FILL_AREA(#939);
#939=FILL_AREA_STYLE('',(#940));
#940=FILL_AREA_STYLE_COLOUR('',#941);
#941=COLOUR_RGB('',0.231372549019608,0.380392156862745,0.705882352941177);
#942=MANIFOLD_SOLID_BREP('Slider',#933);
#943=SHAPE_DEFINITION_REPRESENTATION(#1615,#944);
#944=SHAPE_REPRESENTATION('Slider',(#945),#1610);
#945=AXIS2_PLACEMENT_3D('',#1246,#1009,#1010);
#946=AXIS2_PLACEMENT_3D('',#1247,#1011,#1012);
#947=AXIS2_PLACEMENT_3D('',#1256,#1017,#1018);
#948=AXIS2_PLACEMENT_3D('',#1265,#1023,#1024);
#949=AXIS2_PLACEMENT_3D('',#1274,#1029,#1030);
#950=AXIS2_PLACEMENT_3D('',#1283,#1035,#1036);
#951=AXIS2_PLACEMENT_3D('',#1292,#1041,#1042);
#952=AXIS2_PLACEMENT_3D('',#1301,#1047,#1048);
#953=AXIS2_PLACEMENT_3D('',#1313,#1051,#1052);
#954=AXIS2_PLACEMENT_3D('',#1314,#1053,#1054);
#955=AXIS2_PLACEMENT_3D('',#1323,#1059,#1060);
#956=AXIS2_PLACEMENT_3D('',#1324,#1061,#1062);
#957=AXIS2_PLACEMENT_3D('',#1328,#1064,#1065);
#958=AXIS2_PLACEMENT_3D('',#1329,#1066,#1067);
#959=AXIS2_PLACEMENT_3D('',#1330,#1068,#1069);
#960=AXIS2_PLACEMENT_3D('',#1334,#1071,#1072);
#961=AXIS2_PLACEMENT_3D('',#1335,#1073,#1074);
#962=AXIS2_PLACEMENT_3D('',#1336,#1075,#1076);
#963=AXIS2_PLACEMENT_3D('',#1340,#1078,#1079);
#964=AXIS2_PLACEMENT_3D('',#1341,#1080,#1081);
#965=AXIS2_PLACEMENT_3D('',#1342,#1082,#1083);
#966=AXIS2_PLACEMENT_3D('',#1346,#1085,#1086);
#967=AXIS2_PLACEMENT_3D('',#1347,#1087,#1088);
#968=AXIS2_PLACEMENT_3D('',#1348,#1089,#1090);
#969=AXIS2_PLACEMENT_3D('',#1352,#1092,#1093);
#970=AXIS2_PLACEMENT_3D('',#1353,#1094,#1095);
#971=AXIS2_PLACEMENT_3D('',#1354,#1096,#1097);
#972=AXIS2_PLACEMENT_3D('',#1358,#1099,#1100);
#973=AXIS2_PLACEMENT_3D('',#1359,#1101,#1102);
#974=AXIS2_PLACEMENT_3D('',#1360,#1103,#1104);
#975=AXIS2_PLACEMENT_3D('',#1364,#1106,#1107);
#976=AXIS2_PLACEMENT_3D('',#1365,#1108,#1109);
#977=AXIS2_PLACEMENT_3D('',#1371,#1113,#1114);
#978=AXIS2_PLACEMENT_3D('',#1377,#1118,#1119);
#979=AXIS2_PLACEMENT_3D('',#1378,#1120,#1121);
#980=AXIS2_PLACEMENT_3D('',#1379,#1122,#1123);
#981=AXIS2_PLACEMENT_3D('',#1380,#1124,#1125);
#982=AXIS2_PLACEMENT_3D('',#1392,#1126,#1127);
#983=AXIS2_PLACEMENT_3D('',#1393,#1128,#1129);
#984=AXIS2_PLACEMENT_3D('',#1424,#1148,#1149);
#985=AXIS2_PLACEMENT_3D('',#1476,#1168,#1169);
#986=AXIS2_PLACEMENT_3D('',#1480,#1172,#1173);
#987=AXIS2_PLACEMENT_3D('',#1484,#1176,#1177);
#988=AXIS2_PLACEMENT_3D('',#1486,#1179,#1180);
#989=AXIS2_PLACEMENT_3D('',#1492,#1184,#1185);
#990=AXIS2_PLACEMENT_3D('',#1494,#1187,#1188);
#991=AXIS2_PLACEMENT_3D('',#1496,#1190,#1191);
#992=AXIS2_PLACEMENT_3D('',#1502,#1195,#1196);
#993=AXIS2_PLACEMENT_3D('',#1504,#1198,#1199);
#994=AXIS2_PLACEMENT_3D('',#1506,#1201,#1202);
#995=AXIS2_PLACEMENT_3D('',#1512,#1206,#1207);
#996=AXIS2_PLACEMENT_3D('',#1514,#1209,#1210);
#997=AXIS2_PLACEMENT_3D('',#1516,#1212,#1213);
#998=AXIS2_PLACEMENT_3D('',#1522,#1217,#1218);
#999=AXIS2_PLACEMENT_3D('',#1524,#1220,#1221);
#1000=AXIS2_PLACEMENT_3D('',#1526,#1223,#1224);
#1001=AXIS2_PLACEMENT_3D('',#1532,#1228,#1229);
#1002=AXIS2_PLACEMENT_3D('',#1534,#1231,#1232);
#1003=AXIS2_PLACEMENT_3D('',#1536,#1234,#1235);
#1004=AXIS2_PLACEMENT_3D('',#1537,#1236,#1237);
#1005=AXIS2_PLACEMENT_3D('',#1538,#1238,#1239);
#1006=AXIS2_PLACEMENT_3D('',#1539,#1240,#1241);
#1007=AXIS2_PLACEMENT_3D('',#1540,#1242,#1243);
#1008=AXIS2_PLACEMENT_3D('',#1541,#1244,#1245);
#1009=DIRECTION('',(0.,0.,1.));
#1010=DIRECTION('',(1.,0.,0.));
#1011=DIRECTION('',(1.,-2.0945186051274E-16,5.6122456877585E-17));
#1012=DIRECTION('',(2.0945186051274E-16,1.,0.));
#1013=DIRECTION('',(0.,-0.258819045102521,-0.965925826289068));
#1014=DIRECTION('',(2.16840522131416E-16,0.965925826289068,-0.258819045102521));
#1015=DIRECTION('',(0.,0.258819045102521,0.965925826289068));
#1016=DIRECTION('',(2.16840522131416E-16,0.965925826289068,-0.258819045102521));
#1017=DIRECTION('',(1.,-1.94838861269296E-16,5.22069155313074E-17));
#1018=DIRECTION('',(1.94838861269296E-16,1.,0.));
#1019=DIRECTION('',(2.01712032090326E-16,0.965925826289068,-0.258819045102521));
#1020=DIRECTION('',(0.,-0.258819045102521,-0.965925826289068));
#1021=DIRECTION('',(2.01712032090326E-16,0.965925826289068,-0.258819045102521));
#1022=DIRECTION('',(0.,-0.258819045102521,-0.965925826289068));
#1023=DIRECTION('',(1.,-1.94838861269296E-16,5.22069155313074E-17));
#1024=DIRECTION('',(1.94838861269296E-16,1.,0.));
#1025=DIRECTION('',(2.01712032090326E-16,0.965925826289068,-0.258819045102521));
#1026=DIRECTION('',(0.,-0.258819045102521,-0.965925826289068));
#1027=DIRECTION('',(2.01712032090326E-16,0.965925826289068,-0.258819045102521));
#1028=DIRECTION('',(0.,-0.258819045102521,-0.965925826289068));
#1029=DIRECTION('',(1.,-1.94838861269296E-16,5.22069155313074E-17));
#1030=DIRECTION('',(1.94838861269296E-16,1.,0.));
#1031=DIRECTION('',(2.01712032090326E-16,0.965925826289068,-0.258819045102521));
#1032=DIRECTION('',(0.,-0.258819045102521,-0.965925826289068));
#1033=DIRECTION('',(2.01712032090326E-16,0.965925826289068,-0.258819045102521));
#1034=DIRECTION('',(0.,-0.258819045102521,-0.965925826289068));
#1035=DIRECTION('',(1.,-1.94838861269296E-16,5.22069155313074E-17));
#1036=DIRECTION('',(1.94838861269296E-16,1.,0.));
#1037=DIRECTION('',(2.01712032090326E-16,0.965925826289068,-0.258819045102521));
#1038=DIRECTION('',(0.,-0.258819045102521,-0.965925826289068));
#1039=DIRECTION('',(2.01712032090326E-16,0.965925826289068,-0.258819045102521));
#1040=DIRECTION('',(0.,-0.258819045102521,-0.965925826289068));
#1041=DIRECTION('',(1.,-1.94838861269296E-16,5.22069155313074E-17));
#1042=DIRECTION('',(1.94838861269296E-16,1.,0.));
#1043=DIRECTION('',(2.01712032090326E-16,0.965925826289068,-0.258819045102521));
#1044=DIRECTION('',(0.,-0.258819045102521,-0.965925826289068));
#1045=DIRECTION('',(2.01712032090326E-16,0.965925826289068,-0.258819045102521));
#1046=DIRECTION('',(0.,-0.258819045102521,-0.965925826289068));
#1047=DIRECTION('',(0.,0.258819045102521,0.965925826289068));
#1048=DIRECTION('',(0.772588938290162,0.613272637879716,-0.164325908059975));
#1049=DIRECTION('',(0.,0.258819045102521,0.965925826289068));
#1050=DIRECTION('',(0.,0.258819045102521,0.965925826289068));
#1051=DIRECTION('',(0.,0.258819045102521,0.965925826289068));
#1052=DIRECTION('',(0.,-0.965925826289068,0.258819045102521));
#1053=DIRECTION('',(-1.,0.,0.));
#1054=DIRECTION('',(0.,0.,1.));
#1055=DIRECTION('',(0.,-0.965925826289068,0.258819045102521));
#1056=DIRECTION('',(0.,0.258819045102521,0.965925826289068));
#1057=DIRECTION('',(0.,-0.965925826289068,0.258819045102521));
#1058=DIRECTION('',(0.,0.258819045102521,0.965925826289068));
#1059=DIRECTION('',(0.,0.258819045102521,0.965925826289068));
#1060=DIRECTION('',(0.996196422111495,-0.0841669464779735,0.0225524653381668));
#1061=DIRECTION('',(0.,0.258819045102521,0.965925826289068));
#1062=DIRECTION('',(0.,-0.965925826289068,0.258819045102521));
#1063=DIRECTION('',(0.,0.258819045102521,0.965925826289068));
#1064=DIRECTION('',(0.,0.258819045102521,0.965925826289068));
#1065=DIRECTION('',(0.,-0.965925826289068,0.258819045102521));
#1066=DIRECTION('',(0.,0.258819045102521,0.965925826289068));
#1067=DIRECTION('',(0.939696160564176,-0.330356695324276,0.0885188097263541));
#1068=DIRECTION('',(0.,0.258819045102521,0.965925826289068));
#1069=DIRECTION('',(0.,-0.965925826289068,0.258819045102521));
#1070=DIRECTION('',(0.,0.258819045102521,0.965925826289068));
#1071=DIRECTION('',(0.,0.258819045102521,0.965925826289068));
#1072=DIRECTION('',(0.,-0.965925826289068,0.258819045102521));
#1073=DIRECTION('',(0.,0.258819045102521,0.965925826289068));
#1074=DIRECTION('',(0.766051095773848,-0.620877494760155,0.166363623319643));
#1075=DIRECTION('',(0.,0.258819045102521,0.965925826289068));
#1076=DIRECTION('',(0.,-0.965925826289068,0.258819045102521));
#1077=DIRECTION('',(0.,0.258819045102521,0.965925826289068));
#1078=DIRECTION('',(0.,0.258819045102521,0.965925826289068));
#1079=DIRECTION('',(0.,-0.965925826289068,0.258819045102521));
#1080=DIRECTION('',(0.,0.258819045102521,0.965925826289068));
#1081=DIRECTION('',(0.500008963134413,-0.836511305139358,0.224142528671596));
#1082=DIRECTION('',(0.,0.258819045102521,0.965925826289068));
#1083=DIRECTION('',(0.,-0.965925826289068,0.258819045102521));
#1084=DIRECTION('',(0.,0.258819045102521,0.965925826289068));
#1085=DIRECTION('',(0.,0.258819045102521,0.965925826289068));
#1086=DIRECTION('',(0.,-0.965925826289068,0.258819045102521));
#1087=DIRECTION('',(0.,0.258819045102521,0.965925826289068));
#1088=DIRECTION('',(3.77347160127734E-6,-0.965925826282191,0.258819045100678));
#1089=DIRECTION('',(0.,0.258819045102521,0.965925826289068));
#1090=DIRECTION('',(0.,-0.965925826289068,0.258819045102521));
#1091=DIRECTION('',(0.,0.258819045102521,0.965925826289068));
#1092=DIRECTION('',(0.,0.258819045102521,0.965925826289068));
#1093=DIRECTION('',(0.,-0.965925826289068,0.258819045102521));
#1094=DIRECTION('',(0.,0.258819045102521,0.965925826289068));
#1095=DIRECTION('',(-0.358677883952935,-0.901654469071349,0.241597586839581));
#1096=DIRECTION('',(0.,0.258819045102521,0.965925826289068));
#1097=DIRECTION('',(0.,-0.965925826289068,0.258819045102521));
#1098=DIRECTION('',(0.,0.258819045102521,0.965925826289068));
#1099=DIRECTION('',(0.,0.258819045102521,0.965925826289068));
#1100=DIRECTION('',(0.,-0.965925826289068,0.258819045102521));
#1101=DIRECTION('',(0.,0.258819045102521,0.965925826289068));
#1102=DIRECTION('',(0.,-0.965925826289068,0.258819045102521));
#1103=DIRECTION('',(0.,-0.258819045102521,-0.965925826289068));
#1104=DIRECTION('',(0.,0.965925826289068,-0.258819045102521));
#1105=DIRECTION('',(0.,0.258819045102521,0.965925826289068));
#1106=DIRECTION('',(0.,-0.258819045102521,-0.965925826289068));
#1107=DIRECTION('',(0.,0.965925826289068,-0.258819045102521));
#1108=DIRECTION('',(1.,-1.22893910413472E-16,3.29293240499926E-17));
#1109=DIRECTION('',(1.22893910413472E-16,1.,0.));
#1110=DIRECTION('',(1.27229138168518E-16,0.965925826289068,-0.258819045102521));
#1111=DIRECTION('',(0.,0.258819045102521,0.965925826289068));
#1112=DIRECTION('',(1.27229138168518E-16,0.965925826289068,-0.258819045102521));
#1113=DIRECTION('',(0.,-0.965925826289068,0.258819045102521));
#1114=DIRECTION('',(0.,-0.258819045102521,-0.965925826289068));
#1115=DIRECTION('',(1.,0.,0.));
#1116=DIRECTION('',(0.,0.258819045102521,0.965925826289068));
#1117=DIRECTION('',(1.,0.,0.));
#1118=DIRECTION('',(0.,0.258819045102521,0.965925826289068));
#1119=DIRECTION('',(0.,-0.965925826289068,0.258819045102521));
#1120=DIRECTION('',(0.,-0.258819045102521,-0.965925826289068));
#1121=DIRECTION('',(0.,0.965925826289068,-0.258819045102521));
#1122=DIRECTION('',(0.,-0.258819045102521,-0.965925826289068));
#1123=DIRECTION('',(0.,0.965925826289068,-0.258819045102521));
#1124=DIRECTION('',(0.,0.258819045102521,0.965925826289068));
#1125=DIRECTION('',(-0.772343991060875,-0.613560433541351,0.164403022675095));
#1126=DIRECTION('',(0.,0.258819045102521,0.965925826289068));
#1127=DIRECTION('',(0.,-0.965925826289068,0.258819045102521));
#1128=DIRECTION('',(0.,-0.258819045102521,-0.965925826289068));
#1129=DIRECTION('',(1.,0.,0.));
#1130=DIRECTION('',(-0.958565065004705,0.275166849142789,-0.073730735011627));
#1131=DIRECTION('',(0.,0.965925826289068,-0.258819045102521));
#1132=DIRECTION('',(0.958565065004704,0.275166849142793,-0.0737307350116279));
#1133=DIRECTION('',(-0.958565065004705,0.275166849142791,-0.0737307350116275));
#1134=DIRECTION('',(0.,0.965925826289068,-0.258819045102521));
#1135=DIRECTION('',(0.958565065004704,0.275166849142793,-0.073730735011628));
#1136=DIRECTION('',(-0.958565065004705,0.27516684914279,-0.0737307350116273));
#1137=DIRECTION('',(0.,0.965925826289068,-0.258819045102521));
#1138=DIRECTION('',(0.958565065004704,0.275166849142793,-0.073730735011628));
#1139=DIRECTION('',(-0.958565065004704,0.275166849142793,-0.073730735011628));
#1140=DIRECTION('',(0.,0.965925826289068,-0.258819045102521));
#1141=DIRECTION('',(0.958565065004704,0.275166849142793,-0.0737307350116281));
#1142=DIRECTION('',(-0.958565065004704,0.275166849142793,-0.0737307350116279));
#1143=DIRECTION('',(0.,0.965925826289068,-0.258819045102521));
#1144=DIRECTION('',(0.958565065004703,0.275166849142795,-0.0737307350116287));
#1145=DIRECTION('',(-0.958565065004705,0.27516684914279,-0.0737307350116271));
#1146=DIRECTION('',(0.,0.965925826289068,-0.258819045102521));
#1147=DIRECTION('',(0.958565065004704,0.275166849142792,-0.0737307350116278));
#1148=DIRECTION('',(0.,-0.258819045102521,-0.965925826289068));
#1149=DIRECTION('',(1.,0.,0.));
#1150=DIRECTION('',(0.958565065004704,0.275166849142793,-0.0737307350116279));
#1151=DIRECTION('',(0.,0.965925826289068,-0.258819045102521));
#1152=DIRECTION('',(-0.958565065004705,0.275166849142789,-0.073730735011627));
#1153=DIRECTION('',(0.958565065004704,0.275166849142792,-0.0737307350116278));
#1154=DIRECTION('',(0.,0.965925826289068,-0.258819045102521));
#1155=DIRECTION('',(-0.958565065004705,0.27516684914279,-0.0737307350116271));
#1156=DIRECTION('',(0.958565065004703,0.275166849142795,-0.0737307350116287));
#1157=DIRECTION('',(0.,0.965925826289068,-0.258819045102521));
#1158=DIRECTION('',(-0.958565065004704,0.275166849142793,-0.0737307350116279));
#1159=DIRECTION('',(0.958565065004704,0.275166849142793,-0.0737307350116281));
#1160=DIRECTION('',(0.,0.965925826289068,-0.258819045102521));
#1161=DIRECTION('',(-0.958565065004704,0.275166849142793,-0.073730735011628));
#1162=DIRECTION('',(0.958565065004704,0.275166849142793,-0.073730735011628));
#1163=DIRECTION('',(0.,0.965925826289068,-0.258819045102521));
#1164=DIRECTION('',(-0.958565065004705,0.27516684914279,-0.0737307350116273));
#1165=DIRECTION('',(0.958565065004704,0.275166849142793,-0.073730735011628));
#1166=DIRECTION('',(0.,0.965925826289068,-0.258819045102521));
#1167=DIRECTION('',(-0.958565065004705,0.275166849142791,-0.0737307350116275));
#1168=DIRECTION('',(-0.284873684556027,-0.925902752466504,0.248094894793153));
#1169=DIRECTION('',(0.955784657828728,-0.29406748861311,0.));
#1170=DIRECTION('',(0.,-0.258819045102521,-0.965925826289068));
#1171=DIRECTION('',(-0.838693102355627,0.366081535659492,0.403209857655144));
#1172=DIRECTION('',(-1.,0.,0.));
#1173=DIRECTION('',(0.,0.,1.));
#1174=DIRECTION('',(0.,-0.258819045102521,-0.965925826289068));
#1175=DIRECTION('',(0.,-0.965925826289068,0.258819045102521));
#1176=DIRECTION('',(-0.284873684556029,0.925902752466503,-0.248094894793153));
#1177=DIRECTION('',(-0.955784657828727,-0.294067488613112,0.));
#1178=DIRECTION('',(0.838693102355627,0.115430980909968,-0.532230747615408));
#1179=DIRECTION('',(-1.,0.,0.));
#1180=DIRECTION('',(0.,0.,1.));
#1181=DIRECTION('',(0.,-0.258819045102521,-0.965925826289068));
#1182=DIRECTION('',(0.,-0.965925826289068,0.258819045102521));
#1183=DIRECTION('',(0.,-0.258819045102521,-0.965925826289068));
#1184=DIRECTION('',(-0.284873684556029,0.925902752466503,-0.248094894793153));
#1185=DIRECTION('',(-0.955784657828727,-0.294067488613112,0.));
#1186=DIRECTION('',(0.838693102355626,0.115430980909967,-0.53223074761541));
#1187=DIRECTION('',(-0.284873684556026,-0.925902752466504,0.248094894793153));
#1188=DIRECTION('',(0.955784657828728,-0.294067488613109,0.));
#1189=DIRECTION('',(-0.838693102355626,0.366081535659491,0.403209857655146));
#1190=DIRECTION('',(-1.,0.,0.));
#1191=DIRECTION('',(0.,0.,1.));
#1192=DIRECTION('',(0.,-0.258819045102521,-0.965925826289068));
#1193=DIRECTION('',(0.,-0.965925826289068,0.258819045102521));
#1194=DIRECTION('',(0.,-0.258819045102521,-0.965925826289068));
#1195=DIRECTION('',(-0.284873684556029,0.925902752466503,-0.248094894793153));
#1196=DIRECTION('',(-0.955784657828727,-0.294067488613112,0.));
#1197=DIRECTION('',(0.838693102355621,0.115430980909964,-0.532230747615418));
#1198=DIRECTION('',(-0.284873684556029,-0.925902752466503,0.248094894793153));
#1199=DIRECTION('',(0.955784657828727,-0.294067488613112,0.));
#1200=DIRECTION('',(-0.838693102355621,0.366081535659494,0.403209857655154));
#1201=DIRECTION('',(-1.,0.,0.));
#1202=DIRECTION('',(0.,0.,1.));
#1203=DIRECTION('',(0.,-0.258819045102521,-0.965925826289068));
#1204=DIRECTION('',(0.,-0.965925826289068,0.258819045102521));
#1205=DIRECTION('',(0.,-0.258819045102521,-0.965925826289068));
#1206=DIRECTION('',(-0.284873684556031,0.925902752466502,-0.248094894793153));
#1207=DIRECTION('',(-0.955784657828726,-0.294067488613114,0.));
#1208=DIRECTION('',(0.838693102355631,0.115430980909974,-0.532230747615401));
#1209=DIRECTION('',(-0.284873684556029,-0.925902752466503,0.248094894793153));
#1210=DIRECTION('',(0.955784657828727,-0.294067488613112,0.));
#1211=DIRECTION('',(-0.838693102355631,0.366081535659492,0.403209857655136));
#1212=DIRECTION('',(-1.,0.,0.));
#1213=DIRECTION('',(0.,0.,1.));
#1214=DIRECTION('',(0.,-0.258819045102521,-0.965925826289068));
#1215=DIRECTION('',(0.,-0.965925826289068,0.258819045102521));
#1216=DIRECTION('',(0.,-0.258819045102521,-0.965925826289068));
#1217=DIRECTION('',(-0.284873684556028,0.925902752466503,-0.248094894793153));
#1218=DIRECTION('',(-0.955784657828727,-0.294067488613111,0.));
#1219=DIRECTION('',(0.83869310235562,0.115430980909962,-0.53223074761542));
#1220=DIRECTION('',(-0.284873684556025,-0.925902752466504,0.248094894793153));
#1221=DIRECTION('',(0.955784657828728,-0.294067488613108,0.));
#1222=DIRECTION('',(-0.838693102355621,0.366081535659492,0.403209857655157));
#1223=DIRECTION('',(-1.,0.,0.));
#1224=DIRECTION('',(0.,0.,1.));
#1225=DIRECTION('',(0.,-0.258819045102521,-0.965925826289068));
#1226=DIRECTION('',(0.,-0.965925826289068,0.258819045102521));
#1227=DIRECTION('',(0.,-0.258819045102521,-0.965925826289068));
#1228=DIRECTION('',(-0.284873684556029,0.925902752466503,-0.248094894793153));
#1229=DIRECTION('',(-0.955784657828727,-0.294067488613112,0.));
#1230=DIRECTION('',(0.838693102355625,0.115430980909966,-0.532230747615412));
#1231=DIRECTION('',(-0.284873684556025,-0.925902752466504,0.248094894793153));
#1232=DIRECTION('',(0.955784657828728,-0.294067488613108,0.));
#1233=DIRECTION('',(-0.838693102355626,0.366081535659491,0.403209857655148));
#1234=DIRECTION('',(0.5,0.224143868042013,0.836516303737809));
#1235=DIRECTION('',(0.,0.965925826289068,-0.258819045102521));
#1236=DIRECTION('',(0.500000000000007,0.224143868042013,0.836516303737804));
#1237=DIRECTION('',(0.,0.965925826289068,-0.258819045102521));
#1238=DIRECTION('',(0.499999999999986,0.224143868042015,0.836516303737816));
#1239=DIRECTION('',(0.,0.965925826289068,-0.258819045102521));
#1240=DIRECTION('',(0.5,0.224143868042013,0.836516303737805));
#1241=DIRECTION('',(0.,0.965925826289068,-0.258819045102521));
#1242=DIRECTION('',(0.5,0.224143868042014,0.83651630373781));
#1243=DIRECTION('',(0.,0.965925826289068,-0.258819045102521));
#1244=DIRECTION('',(0.499999999999994,0.224143868042014,0.836516303737811));
#1245=DIRECTION('',(0.,0.965925826289068,-0.258819045102521));
#1246=CARTESIAN_POINT('',(0.,0.,0.));
#1247=CARTESIAN_POINT('',(-0.00919999456521579,-0.0301709287635766,0.121446282297718));
#1248=CARTESIAN_POINT('',(-0.00919999456521579,-0.0351506180784966,0.132098071651899));
#1249=CARTESIAN_POINT('',(-0.00919999456521579,-0.0351506180784965,0.132098071651899));
#1250=CARTESIAN_POINT('',(-0.00919999456521579,-0.0374799894844192,0.123404739215298));
#1251=CARTESIAN_POINT('',(-0.00919999456521579,-0.027841557357654,0.130139614734319));
#1252=CARTESIAN_POINT('',(-0.00919999456521583,-0.0201141538703092,0.128069063210296));
#1253=CARTESIAN_POINT('',(-0.00919999456521583,-0.022443525276232,0.119375730773694));
#1254=CARTESIAN_POINT('',(-0.00919999456521583,-0.022443525276232,0.119375730773694));
#1255=CARTESIAN_POINT('',(-0.00919999456521579,-0.0301709287635766,0.121446282297718));
#1256=CARTESIAN_POINT('',(-0.00919999456521579,-0.0462052943570073,0.125742677609623));
#1257=CARTESIAN_POINT('',(-0.00919999456521579,-0.0438759229510846,0.134436010046224));
#1258=CARTESIAN_POINT('',(-0.00919999456521579,-0.0381850740617836,0.132911151682089));
#1259=CARTESIAN_POINT('',(-0.00919999456521579,-0.0370106051407351,0.132596453683158));
#1260=CARTESIAN_POINT('',(-0.00919999456521579,-0.0370106051407351,0.132596453683158));
#1261=CARTESIAN_POINT('',(-0.00919999456521579,-0.0393399765466577,0.123903121246557));
#1262=CARTESIAN_POINT('',(-0.00919999456521579,-0.0462052943570073,0.125742677609623));
#1263=CARTESIAN_POINT('',(-0.00919999456521579,-0.0405144454677063,0.124217819245487));
#1264=CARTESIAN_POINT('',(-0.00919999456521579,-0.0381850740617836,0.132911151682089));
#1265=CARTESIAN_POINT('',(-0.00919999456521579,-0.0462052943570073,0.125742677609623));
#1266=CARTESIAN_POINT('',(-0.00919999456521579,-0.0438759229510846,0.134436010046224));
#1267=CARTESIAN_POINT('',(-0.00919999456521579,-0.0412195300450707,0.133724231712278));
#1268=CARTESIAN_POINT('',(-0.00919999456521579,-0.0400450611240222,0.133409533713348));
#1269=CARTESIAN_POINT('',(-0.00919999456521579,-0.0400450611240222,0.133409533713348));
#1270=CARTESIAN_POINT('',(-0.00919999456521579,-0.0423744325299449,0.124716201276746));
#1271=CARTESIAN_POINT('',(-0.00919999456521579,-0.0462052943570073,0.125742677609623));
#1272=CARTESIAN_POINT('',(-0.00919999456521579,-0.0435489014509935,0.125030899275677));
#1273=CARTESIAN_POINT('',(-0.00919999456521579,-0.0412195300450707,0.133724231712278));
#1274=CARTESIAN_POINT('',(-0.00919999456521579,-0.0462052943570073,0.125742677609623));
#1275=CARTESIAN_POINT('',(-0.00919999456521579,-0.0438759229510846,0.134436010046224));
#1276=CARTESIAN_POINT('',(-0.00919999456521579,-0.0442539860283579,0.134537311742468));
#1277=CARTESIAN_POINT('',(-0.00919999456521579,-0.0430795171073092,0.134222613743537));
#1278=CARTESIAN_POINT('',(-0.00919999456521579,-0.0430795171073092,0.134222613743537));
#1279=CARTESIAN_POINT('',(-0.00919999456521579,-0.045408888513232,0.125529281306936));
#1280=CARTESIAN_POINT('',(-0.00919999456521579,-0.0462052943570073,0.125742677609623));
#1281=CARTESIAN_POINT('',(-0.00919999456521579,-0.0465833574342806,0.125843979305866));
#1282=CARTESIAN_POINT('',(-0.00919999456521579,-0.0442539860283579,0.134537311742468));
#1283=CARTESIAN_POINT('',(-0.00919999456521579,-0.0462052943570073,0.125742677609623));
#1284=CARTESIAN_POINT('',(-0.00919999456521579,-0.0438759229510846,0.134436010046224));
#1285=CARTESIAN_POINT('',(-0.00919999456521579,-0.047288442011645,0.135350391772657));
#1286=CARTESIAN_POINT('',(-0.00919999456521579,-0.0461139730905964,0.135035693773727));
#1287=CARTESIAN_POINT('',(-0.00919999456521579,-0.0461139730905964,0.135035693773727));
#1288=CARTESIAN_POINT('',(-0.00919999456521579,-0.0484433444965191,0.126342361337125));
#1289=CARTESIAN_POINT('',(-0.00919999456521579,-0.0462052943570073,0.125742677609623));
#1290=CARTESIAN_POINT('',(-0.00919999456521579,-0.0496178134175677,0.126657059336056));
#1291=CARTESIAN_POINT('',(-0.00919999456521579,-0.047288442011645,0.135350391772657));
#1292=CARTESIAN_POINT('',(-0.00919999456521579,-0.0462052943570073,0.125742677609623));
#1293=CARTESIAN_POINT('',(-0.00919999456521579,-0.0438759229510846,0.134436010046224));
#1294=CARTESIAN_POINT('',(-0.00919999456521579,-0.050322897994932,0.136163471802847));
#1295=CARTESIAN_POINT('',(-0.00919999456521579,-0.0491484290738835,0.135848773803917));
#1296=CARTESIAN_POINT('',(-0.00919999456521579,-0.0491484290738835,0.135848773803917));
#1297=CARTESIAN_POINT('',(-0.00919999456521579,-0.0514778004798062,0.127155441367315));
#1298=CARTESIAN_POINT('',(-0.00919999456521579,-0.0462052943570073,0.125742677609623));
#1299=CARTESIAN_POINT('',(-0.00919999456521579,-0.0526522694008548,0.127470139366245));
#1300=CARTESIAN_POINT('',(-0.00919999456521579,-0.0503228979949321,0.136163471802847));
#1301=CARTESIAN_POINT('',(-6.40027466942039E-9,-0.0378983390783436,0.123516835651144));
#1302=CARTESIAN_POINT('',(0.00800000007652258,-0.0378983386112436,0.123516835525984));
#1303=CARTESIAN_POINT('',(0.00800000721768815,-0.0378983385861356,0.123516835622784));
#1304=CARTESIAN_POINT('',(0.0080000072626116,-0.0357760225060276,0.131437427060377));
#1305=CARTESIAN_POINT('',(0.00800000007652258,-0.035776022441403,0.131437427301555));
#1306=CARTESIAN_POINT('',(0.00799998326579014,-0.034015527183065,0.130965704018804));
#1307=CARTESIAN_POINT('',(0.00669051314492849,-0.0304741116293143,0.130016784581114));
#1308=CARTESIAN_POINT('',(0.00336323429552534,-0.0285407846687901,0.129498751183336));
#1309=CARTESIAN_POINT('',(0.00154935413580605,-0.0281949134189313,0.129406075261251));
#1310=CARTESIAN_POINT('',(0.00154935521881389,-0.0281949081843231,0.129406073600148));
#1311=CARTESIAN_POINT('',(0.001549354135806,-0.030317229588772,0.121485483485681));
#1312=CARTESIAN_POINT('',(0.00154935513959527,-0.0303172246472906,0.121485482265142));
#1313=CARTESIAN_POINT('',(-6.40027466942039E-9,-0.0378983390783437,0.123516835651143));
#1314=CARTESIAN_POINT('',(0.00919999456521579,-0.0301709287635766,0.121446282297718));
#1315=CARTESIAN_POINT('',(0.00919999456521579,-0.027841557357654,0.130139614734319));
#1316=CARTESIAN_POINT('',(0.00919999456521579,-0.0201141538703092,0.128069063210296));
#1317=CARTESIAN_POINT('',(0.00919999864130395,-0.0355689608449987,0.132210166258343));
#1318=CARTESIAN_POINT('',(0.00919999864130395,-0.0378983322509213,0.123516833821741));
#1319=CARTESIAN_POINT('',(0.00919999864130395,-0.0378983322509213,0.123516833821741));
#1320=CARTESIAN_POINT('',(0.00919999456521579,-0.0301709287635766,0.121446282297718));
#1321=CARTESIAN_POINT('',(0.00919999456521579,-0.022443525276232,0.119375730773694));
#1322=CARTESIAN_POINT('',(0.00919999456521579,-0.022443525276232,0.119375730773694));
#1323=CARTESIAN_POINT('',(2.47963151565164E-5,-0.0379003374404849,0.123517371110666));
#1324=CARTESIAN_POINT('',(2.47963151565164E-5,-0.0355709660345623,0.132210703547267));
#1325=CARTESIAN_POINT('',(0.00906022238539654,-0.0371120869056443,0.132623645640112));
#1326=CARTESIAN_POINT('',(0.00906023132771231,-0.0394414598382893,0.123930313612595));
#1327=CARTESIAN_POINT('',(0.00906022238539654,-0.039441458311567,0.123930313203511));
#1328=CARTESIAN_POINT('',(2.47963151565164E-5,-0.037900337440485,0.123517371110665));
#1329=CARTESIAN_POINT('',(1.57541047256117E-6,-0.0378989839730488,0.123517008450151));
#1330=CARTESIAN_POINT('',(1.57541047256117E-6,-0.0355696125671241,0.13221034088676));
#1331=CARTESIAN_POINT('',(0.00796744843239882,-0.0400122278545762,0.133400736065315));
#1332=CARTESIAN_POINT('',(0.00796743371481684,-0.042341591051851,0.124707401429213));
#1333=CARTESIAN_POINT('',(0.00796744843239883,-0.0423415992604989,0.124707403628713));
#1334=CARTESIAN_POINT('',(1.57541047256117E-6,-0.0378989839730468,0.123517008450158));
#1335=CARTESIAN_POINT('',(1.24963610695663E-6,-0.0378994651312767,0.123517137376119));
#1336=CARTESIAN_POINT('',(1.24963610695663E-6,-0.0355700937253543,0.132210469812719));
#1337=CARTESIAN_POINT('',(0.00591365693254261,-0.0423764408483605,0.134034225027735));
#1338=CARTESIAN_POINT('',(0.0059136460091161,-0.0447057996785047,0.125340889221463));
#1339=CARTESIAN_POINT('',(0.00591365693254263,-0.0447058122542832,0.125340892591133));
#1340=CARTESIAN_POINT('',(1.24963610695663E-6,-0.037899465131277,0.123517137376118));
#1341=CARTESIAN_POINT('',(7.73135915321298E-7,-0.0378998096450768,0.123517229688319));
#1342=CARTESIAN_POINT('',(7.73135915321298E-7,-0.0355704382391558,0.132210562124914));
#1343=CARTESIAN_POINT('',(0.00314659113078729,-0.0439195712859242,0.134447705582296));
#1344=CARTESIAN_POINT('',(0.00314658531859617,-0.0462489272658727,0.125754369012317));
#1345=CARTESIAN_POINT('',(0.00314659113078729,-0.0462489426918469,0.125754373145694));
#1346=CARTESIAN_POINT('',(7.73135915321298E-7,-0.0378998096450786,0.123517229688312));
#1347=CARTESIAN_POINT('',(-3.47149685007975E-8,-0.0378985806087927,0.123516900369032));
#1348=CARTESIAN_POINT('',(-3.47149685007975E-8,-0.0355692092028701,0.132210232805634));
#1349=CARTESIAN_POINT('',(-0.00314659138184183,-0.0439195719498993,0.134447705760207));
#1350=CARTESIAN_POINT('',(-0.00314658531859617,-0.0462489272658727,0.125754369012317));
#1351=CARTESIAN_POINT('',(-0.00314659138184183,-0.046248943355822,0.125754373323606));
#1352=CARTESIAN_POINT('',(-3.47149685007975E-8,-0.0378985806087928,0.123516900369032));
#1353=CARTESIAN_POINT('',(8.22821904184598E-6,-0.0378759027107639,0.123510823844775));
#1354=CARTESIAN_POINT('',(8.22821904184598E-6,-0.0355465313048925,0.132204156281185));
#1355=CARTESIAN_POINT('',(-0.00345011183031369,-0.0438069510350857,0.134417529077032));
#1356=CARTESIAN_POINT('',(-0.00345011372812443,-0.0461363269726656,0.125724197854684));
#1357=CARTESIAN_POINT('',(-0.00345009167269298,-0.0461363300429923,0.125724198677376));
#1358=CARTESIAN_POINT('',(8.22821904184598E-6,-0.0378759027108153,0.123510823844583));
#1359=CARTESIAN_POINT('',(-0.00419999456521578,-0.0479272310866872,0.126204069165758));
#1360=CARTESIAN_POINT('',(-0.00419999456521578,-0.0455978596807645,0.13489740160236));
#1361=CARTESIAN_POINT('',(-0.00619999456521579,-0.0455978596807645,0.13489740160236));
#1362=CARTESIAN_POINT('',(-0.00619999456521579,-0.0479272310866872,0.126204069165758));
#1363=CARTESIAN_POINT('',(-0.00619999456521579,-0.0479272310866872,0.126204069165758));
#1364=CARTESIAN_POINT('',(-0.00419999456521578,-0.0479272310866872,0.126204069165758));
#1365=CARTESIAN_POINT('',(-0.00619999456521579,-0.0512197437748902,0.127086295281631));
#1366=CARTESIAN_POINT('',(-0.00619999456521579,-0.0488903723689675,0.135779627718233));
#1367=CARTESIAN_POINT('',(-0.00619999456521579,-0.0521828850571706,0.136661853834106));
#1368=CARTESIAN_POINT('',(-0.00619999456521579,-0.0545122564630933,0.127968521397505));
#1369=CARTESIAN_POINT('',(-0.00619999456521579,-0.0545122564630933,0.127968521397505));
#1370=CARTESIAN_POINT('',(-0.00619999456521579,-0.0512197437748902,0.127086295281631));
#1371=CARTESIAN_POINT('',(-0.00769999456521579,-0.0545122564630933,0.127968521397505));
#1372=CARTESIAN_POINT('',(-0.00769999456521579,-0.0521828850571706,0.136661853834106));
#1373=CARTESIAN_POINT('',(-0.00919999456521579,-0.0521828850571706,0.136661853834106));
#1374=CARTESIAN_POINT('',(-0.00919999456521579,-0.0545122564630933,0.127968521397505));
#1375=CARTESIAN_POINT('',(-0.00919999456521579,-0.0545122564630933,0.127968521397505));
#1376=CARTESIAN_POINT('',(-0.00769999456521579,-0.0545122564630933,0.127968521397505));
#1377=CARTESIAN_POINT('',(-4.16333634234433E-17,-0.022443525276232,0.119375730773694));
#1378=CARTESIAN_POINT('',(-4.16333634234433E-17,-0.0201141538703092,0.128069063210296));
#1379=CARTESIAN_POINT('',(-4.16333634234433E-17,-0.022443525276232,0.119375730773694));
#1380=CARTESIAN_POINT('',(-1.52007942156688E-9,-0.0378983366719222,0.123516835006345));
#1381=CARTESIAN_POINT('',(0.00154935413580594,-0.0281949134189312,0.129406075261251));
#1382=CARTESIAN_POINT('',(-4.74523004029289E-5,-0.0278904398414246,0.129324491812042));
#1383=CARTESIAN_POINT('',(-0.00345952514377698,-0.028256805584151,0.12942265921694));
#1384=CARTESIAN_POINT('',(-0.00730765675064341,-0.031550038413198,0.13030507829397));
#1385=CARTESIAN_POINT('',(-0.00849467224770636,-0.0363854073300173,0.131600711490339));
#1386=CARTESIAN_POINT('',(-0.00658184084569303,-0.0409982477165095,0.132836718346713));
#1387=CARTESIAN_POINT('',(-0.00227115010671609,-0.0437043836654417,0.133561825288838));
#1388=CARTESIAN_POINT('',(0.00286230192356885,-0.04352476629929,0.133513696960631));
#1389=CARTESIAN_POINT('',(0.00695681508213265,-0.0405191934617446,0.132708356146018));
#1390=CARTESIAN_POINT('',(0.00800000913639378,-0.0373708424480625,0.131864758034412));
#1391=CARTESIAN_POINT('',(0.00800000007652258,-0.035776022441403,0.131437427301555));
#1392=CARTESIAN_POINT('',(-1.52007942156688E-9,-0.0378983366719222,0.123516835006345));
#1393=CARTESIAN_POINT('',(-0.0054993602558281,-0.035984452493695,0.123004011286382));
#1394=CARTESIAN_POINT('',(-0.0101999945640499,-0.0390529153351993,0.123826203426768));
#1395=CARTESIAN_POINT('',(-0.00939999456288408,-0.0392825643049685,0.12388773768276));
#1396=CARTESIAN_POINT('',(-0.00939999456288408,-0.035984452493695,0.123004011286382));
#1397=CARTESIAN_POINT('',(-0.00939999456288408,-0.0375374017261084,0.123420122779094));
#1398=CARTESIAN_POINT('',(-0.0101999945640499,-0.0377670506958777,0.123481657035086));
#1399=CARTESIAN_POINT('',(-0.0101999945640499,-0.0542251952516348,0.127891603577716));
#1400=CARTESIAN_POINT('',(-0.00939999456288408,-0.054454844221404,0.127953137833708));
#1401=CARTESIAN_POINT('',(-0.00939999456288408,-0.035984452493695,0.123004011286382));
#1402=CARTESIAN_POINT('',(-0.00939999456288408,-0.052709681642544,0.127485522930042));
#1403=CARTESIAN_POINT('',(-0.0101999945640499,-0.0529393306123132,0.127547057186034));
#1404=CARTESIAN_POINT('',(-0.0101999945640499,-0.0511907392683477,0.127078523547526));
#1405=CARTESIAN_POINT('',(-0.00939999456288408,-0.0514203882381169,0.127140057803519));
#1406=CARTESIAN_POINT('',(-0.00939999456288408,-0.035984452493695,0.123004011286382));
#1407=CARTESIAN_POINT('',(-0.00939999456288408,-0.0496752256592569,0.126672442899852));
#1408=CARTESIAN_POINT('',(-0.0101999945640499,-0.049904874629026,0.126733977155844));
#1409=CARTESIAN_POINT('',(-0.0101999945640499,-0.0481562832850606,0.126265443517337));
#1410=CARTESIAN_POINT('',(-0.00939999456288408,-0.0483859322548298,0.126326977773329));
#1411=CARTESIAN_POINT('',(-0.00939999456288408,-0.035984452493695,0.123004011286382));
#1412=CARTESIAN_POINT('',(-0.00939999456288408,-0.0466407696759698,0.125859362869663));
#1413=CARTESIAN_POINT('',(-0.0101999945640499,-0.046870418645739,0.125920897125655));
#1414=CARTESIAN_POINT('',(-0.0101999945640499,-0.0451218273017735,0.125452363487147));
#1415=CARTESIAN_POINT('',(-0.00939999456288408,-0.0453514762715427,0.125513897743139));
#1416=CARTESIAN_POINT('',(-0.00939999456288408,-0.035984452493695,0.123004011286382));
#1417=CARTESIAN_POINT('',(-0.00939999456288408,-0.0436063136926827,0.125046282839473));
#1418=CARTESIAN_POINT('',(-0.0101999945640499,-0.0438359626624518,0.125107817095465));
#1419=CARTESIAN_POINT('',(-0.0101999945640499,-0.0420873713184864,0.124639283456958));
#1420=CARTESIAN_POINT('',(-0.00939999456288408,-0.0423170202882555,0.12470081771295));
#1421=CARTESIAN_POINT('',(-0.00939999456288408,-0.035984452493695,0.123004011286382));
#1422=CARTESIAN_POINT('',(-0.00939999456288408,-0.0405718577093955,0.124233202809283));
#1423=CARTESIAN_POINT('',(-0.01019999456405,-0.0408015066791648,0.124294737065276));
#1424=CARTESIAN_POINT('',(-0.0054993602558281,-0.0336550810877723,0.131697343722984));
#1425=CARTESIAN_POINT('',(0.00170428954892074,-0.0272297479165455,0.129975680888653));
#1426=CARTESIAN_POINT('',(0.00270409649335937,-0.027420391424959,0.130026763662774));
#1427=CARTESIAN_POINT('',(0.00459404584967661,-0.0281239298972576,0.130215276228271));
#1428=CARTESIAN_POINT('',(0.00693370684100745,-0.0300608160387027,0.130734263305702));
#1429=CARTESIAN_POINT('',(0.00844852455036398,-0.0326478299756564,0.131427451600917));
#1430=CARTESIAN_POINT('',(0.00879999448458387,-0.0345846094015142,0.131946410083993));
#1431=CARTESIAN_POINT('',(0.00880000007651053,-0.0355689629651059,0.132210166826424));
#1432=CARTESIAN_POINT('',(0.00170428954892074,-0.0272297479165455,0.129975680888653));
#1433=CARTESIAN_POINT('',(0.00880000007651053,-0.0355689629651058,0.132210166826424));
#1434=CARTESIAN_POINT('',(0.00880000007651053,-0.0355689629651058,0.132210166826424));
#1435=CARTESIAN_POINT('',(0.00880001004235003,-0.0373232616605646,0.132680229745155));
#1436=CARTESIAN_POINT('',(0.00765250128872755,-0.0407864523223865,0.133608188886225));
#1437=CARTESIAN_POINT('',(0.00314854211699536,-0.0440925732421397,0.134494061316753));
#1438=CARTESIAN_POINT('',(-0.00249823724355093,-0.0442901940506926,0.134547013652812));
#1439=CARTESIAN_POINT('',(-0.00724000369136125,-0.0413133481880519,0.133749370207925));
#1440=CARTESIAN_POINT('',(-0.00934416847575268,-0.0362396225281674,0.132389869514742));
#1441=CARTESIAN_POINT('',(-0.00803831899386618,-0.0309192272254852,0.130964273889974));
#1442=CARTESIAN_POINT('',(-0.00451130278093781,-0.0279050284567868,0.130156621764075));
#1443=CARTESIAN_POINT('',(-0.000989932265745256,-0.026989616282858,0.129911337811329));
#1444=CARTESIAN_POINT('',(0.000813400295914465,-0.0270598728684215,0.129930163006694));
#1445=CARTESIAN_POINT('',(0.00170428954892074,-0.0272297479165455,0.129975680888653));
#1446=CARTESIAN_POINT('',(-0.0101999945640499,-0.035437679289955,0.132174989471688));
#1447=CARTESIAN_POINT('',(-0.0111999945628841,-0.0357247405014135,0.132251907291476));
#1448=CARTESIAN_POINT('',(-0.0111999945628841,-0.0360806116096158,0.132347262667529));
#1449=CARTESIAN_POINT('',(-0.0111999945628841,-0.0364364827178182,0.132442618043581));
#1450=CARTESIAN_POINT('',(-0.0101999945640499,-0.0367235439292766,0.13251953586337));
#1451=CARTESIAN_POINT('',(-0.01019999456405,-0.0384721352732421,0.132988069501877));
#1452=CARTESIAN_POINT('',(-0.0111999945628841,-0.0387591964847006,0.133064987321666));
#1453=CARTESIAN_POINT('',(-0.0111999945628841,-0.0391150675929029,0.133160342697718));
#1454=CARTESIAN_POINT('',(-0.0111999945628841,-0.0394709387011053,0.133255698073771));
#1455=CARTESIAN_POINT('',(-0.0101999945640499,-0.0397579999125637,0.133332615893559));
#1456=CARTESIAN_POINT('',(-0.0101999945640499,-0.0415065912565291,0.133801149532067));
#1457=CARTESIAN_POINT('',(-0.0111999945628841,-0.0417936524679876,0.133878067351855));
#1458=CARTESIAN_POINT('',(-0.0111999945628841,-0.04214952357619,0.133973422727908));
#1459=CARTESIAN_POINT('',(-0.0111999945628841,-0.0425053946843924,0.13406877810396));
#1460=CARTESIAN_POINT('',(-0.0101999945640499,-0.0427924558958508,0.134145695923749));
#1461=CARTESIAN_POINT('',(-0.0101999945640499,-0.0445410472398163,0.134614229562256));
#1462=CARTESIAN_POINT('',(-0.0111999945628841,-0.0448281084512747,0.134691147382045));
#1463=CARTESIAN_POINT('',(-0.0111999945628841,-0.0451839795594771,0.134786502758097));
#1464=CARTESIAN_POINT('',(-0.0111999945628841,-0.0455398506676795,0.13488185813415));
#1465=CARTESIAN_POINT('',(-0.0101999945640499,-0.0458269118791379,0.134958775953938));
#1466=CARTESIAN_POINT('',(-0.0101999945640499,-0.0475755032231034,0.135427309592446));
#1467=CARTESIAN_POINT('',(-0.0111999945628841,-0.0478625644345619,0.135504227412235));
#1468=CARTESIAN_POINT('',(-0.0111999945628841,-0.0482184355427642,0.135599582788287));
#1469=CARTESIAN_POINT('',(-0.0111999945628841,-0.0485743066509666,0.135694938164339));
#1470=CARTESIAN_POINT('',(-0.0101999945640499,-0.048861367862425,0.135771855984128));
#1471=CARTESIAN_POINT('',(-0.0101999945640499,-0.0506099592063905,0.136240389622636));
#1472=CARTESIAN_POINT('',(-0.0111999945628841,-0.0508970204178489,0.136317307442424));
#1473=CARTESIAN_POINT('',(-0.0111999945628841,-0.0512528915260513,0.136412662818477));
#1474=CARTESIAN_POINT('',(-0.0111999945628841,-0.0516087626342537,0.136508018194529));
#1475=CARTESIAN_POINT('',(-0.0101999945640499,-0.0518958238457122,0.136584936014318));
#1476=CARTESIAN_POINT('',(-0.0101999945640499,-0.0518958238457122,0.136584936014318));
#1477=CARTESIAN_POINT('',(-0.0111999945628841,-0.0516087626342537,0.136508018194529));
#1478=CARTESIAN_POINT('',(-0.0111999945628841,-0.0536691613985259,0.128818505322413));
#1479=CARTESIAN_POINT('',(-0.0136674250127267,-0.0525921515534774,0.130004746484598));
#1480=CARTESIAN_POINT('',(-0.0111999945628841,-0.0512528915260513,0.136412662818477));
#1481=CARTESIAN_POINT('',(-0.0111999945628841,-0.0508970204178489,0.136317307442424));
#1482=CARTESIAN_POINT('',(-0.0111999945628841,-0.0529574191821212,0.128627794570308));
#1483=CARTESIAN_POINT('',(-0.0111999945628841,-0.0533132902903236,0.12872314994636));
#1484=CARTESIAN_POINT('',(-0.0101999945640499,-0.0506099592063905,0.136240389622636));
#1485=CARTESIAN_POINT('',(-0.0136674250127267,-0.0532970164869667,0.130193614474299));
#1486=CARTESIAN_POINT('',(-0.0111999945628841,-0.0482184355427642,0.135599582788287));
#1487=CARTESIAN_POINT('',(-0.0111999945628841,-0.0478625644345619,0.135504227412235));
#1488=CARTESIAN_POINT('',(-0.0111999945628841,-0.0499229631988341,0.127814714540118));
#1489=CARTESIAN_POINT('',(-0.0111999945628841,-0.0502788343070365,0.127910069916171));
#1490=CARTESIAN_POINT('',(-0.0111999945628841,-0.0506347054152389,0.128005425292223));
#1491=CARTESIAN_POINT('',(-0.0111999945628841,-0.0485743066509666,0.135694938164339));
#1492=CARTESIAN_POINT('',(-0.0101999945640499,-0.0475755032231034,0.135427309592446));
#1493=CARTESIAN_POINT('',(-0.0136674250127267,-0.0502625605036795,0.12938053444411));
#1494=CARTESIAN_POINT('',(-0.0101999945640499,-0.048861367862425,0.135771855984128));
#1495=CARTESIAN_POINT('',(-0.0136674250127267,-0.0495576955701903,0.129191666454408));
#1496=CARTESIAN_POINT('',(-0.0111999945628841,-0.0451839795594771,0.134786502758097));
#1497=CARTESIAN_POINT('',(-0.0111999945628841,-0.0448281084512747,0.134691147382045));
#1498=CARTESIAN_POINT('',(-0.0111999945628841,-0.046888507215547,0.127001634509929));
#1499=CARTESIAN_POINT('',(-0.0111999945628841,-0.0472443783237494,0.127096989885981));
#1500=CARTESIAN_POINT('',(-0.0111999945628841,-0.0476002494319518,0.127192345262034));
#1501=CARTESIAN_POINT('',(-0.0111999945628841,-0.0455398506676795,0.13488185813415));
#1502=CARTESIAN_POINT('',(-0.0101999945640499,-0.0445410472398163,0.134614229562256));
#1503=CARTESIAN_POINT('',(-0.0136674250127268,-0.0472281045203924,0.12856745441392));
#1504=CARTESIAN_POINT('',(-0.0101999945640499,-0.0458269118791379,0.134958775953938));
#1505=CARTESIAN_POINT('',(-0.0136674250127268,-0.0465232395869031,0.128378586424219));
#1506=CARTESIAN_POINT('',(-0.0111999945628841,-0.04214952357619,0.133973422727908));
#1507=CARTESIAN_POINT('',(-0.0111999945628841,-0.0417936524679876,0.133878067351855));
#1508=CARTESIAN_POINT('',(-0.0111999945628841,-0.04385405123226,0.126188554479739));
#1509=CARTESIAN_POINT('',(-0.0111999945628841,-0.0442099223404623,0.126283909855792));
#1510=CARTESIAN_POINT('',(-0.0111999945628841,-0.0445657934486646,0.126379265231844));
#1511=CARTESIAN_POINT('',(-0.0111999945628841,-0.0425053946843924,0.13406877810396));
#1512=CARTESIAN_POINT('',(-0.0101999945640499,-0.0415065912565291,0.133801149532067));
#1513=CARTESIAN_POINT('',(-0.0136674250127267,-0.0441936485371053,0.127754374383731));
#1514=CARTESIAN_POINT('',(-0.0101999945640499,-0.0427924558958508,0.134145695923749));
#1515=CARTESIAN_POINT('',(-0.0136674250127267,-0.043488783603616,0.127565506394029));
#1516=CARTESIAN_POINT('',(-0.0111999945628841,-0.0391150675929029,0.133160342697718));
#1517=CARTESIAN_POINT('',(-0.0111999945628841,-0.0387591964847006,0.133064987321666));
#1518=CARTESIAN_POINT('',(-0.0111999945628841,-0.0408195952489728,0.12537547444955));
#1519=CARTESIAN_POINT('',(-0.0111999945628841,-0.0411754663571751,0.125470829825602));
#1520=CARTESIAN_POINT('',(-0.0111999945628841,-0.0415313374653776,0.125566185201654));
#1521=CARTESIAN_POINT('',(-0.0111999945628841,-0.0394709387011053,0.133255698073771));
#1522=CARTESIAN_POINT('',(-0.01019999456405,-0.0384721352732421,0.132988069501877));
#1523=CARTESIAN_POINT('',(-0.0136674250127268,-0.0411591925538182,0.126941294353541));
#1524=CARTESIAN_POINT('',(-0.0101999945640499,-0.0397579999125637,0.133332615893559));
#1525=CARTESIAN_POINT('',(-0.0136674250127268,-0.0404543276203289,0.12675242636384));
#1526=CARTESIAN_POINT('',(-0.0111999945628841,-0.0360806116096158,0.132347262667529));
#1527=CARTESIAN_POINT('',(-0.0111999945628841,-0.0357247405014135,0.132251907291476));
#1528=CARTESIAN_POINT('',(-0.0111999945628841,-0.0377851392656857,0.12456239441936));
#1529=CARTESIAN_POINT('',(-0.0111999945628841,-0.038141010373888,0.124657749795412));
#1530=CARTESIAN_POINT('',(-0.0111999945628841,-0.0384968814820905,0.124753105171465));
#1531=CARTESIAN_POINT('',(-0.0111999945628841,-0.0364364827178182,0.132442618043581));
#1532=CARTESIAN_POINT('',(-0.0101999945640499,-0.035437679289955,0.132174989471688));
#1533=CARTESIAN_POINT('',(-0.0136674250127267,-0.0381247365705311,0.126128214323352));
#1534=CARTESIAN_POINT('',(-0.0101999945640499,-0.0367235439292766,0.13251953586337));
#1535=CARTESIAN_POINT('',(-0.0136674250127267,-0.0374198716370419,0.12593934633365));
#1536=CARTESIAN_POINT('',(-0.00939999456288408,-0.035984452493695,0.123004011286382));
#1537=CARTESIAN_POINT('',(-0.00939999456288408,-0.035984452493695,0.123004011286382));
#1538=CARTESIAN_POINT('',(-0.00939999456288408,-0.035984452493695,0.123004011286382));
#1539=CARTESIAN_POINT('',(-0.00939999456288408,-0.035984452493695,0.123004011286382));
#1540=CARTESIAN_POINT('',(-0.00939999456288408,-0.035984452493695,0.123004011286382));
#1541=CARTESIAN_POINT('',(-0.00939999456288408,-0.035984452493695,0.123004011286382));
#1542=CARTESIAN_POINT('',(0.00880000007651053,-0.0355689629651058,0.132210166826424));
#1543=CARTESIAN_POINT('',(0.0080000000765225,-0.0355689672053209,0.132210167962586));
#1544=CARTESIAN_POINT('',(0.00800000007652257,-0.035776022441403,0.131437427301555));
#1545=CARTESIAN_POINT('',(0.0087999944831179,-0.0345846094017585,0.131946410084058));
#1546=CARTESIAN_POINT('',(0.00799999499039136,-0.0346737997788346,0.131970308581191));
#1547=CARTESIAN_POINT('',(0.00799999499124554,-0.0348808550126163,0.13119756791182));
#1548=CARTESIAN_POINT('',(0.00844852455108781,-0.0326478299754782,0.131427451600869));
#1549=CARTESIAN_POINT('',(0.00768050258216363,-0.0329135953521054,0.131498663216544));
#1550=CARTESIAN_POINT('',(0.00768050258173576,-0.0331206505890655,0.13072592255818));
#1551=CARTESIAN_POINT('',(0.00693370684067185,-0.0300608160389568,0.13073426330577));
#1552=CARTESIAN_POINT('',(0.00630336478097753,-0.030561501547468,0.130868421580293));
#1553=CARTESIAN_POINT('',(0.00630336478119378,-0.0307685567839269,0.130095680922434));
#1554=CARTESIAN_POINT('',(0.00459404585029098,-0.0281239298964144,0.130215276228045));
#1555=CARTESIAN_POINT('',(0.00417642629423784,-0.0288007960524833,0.130396641982895));
#1556=CARTESIAN_POINT('',(0.00417642629380087,-0.0290078512861799,0.129623901306505));
#1557=CARTESIAN_POINT('',(0.00270409649214745,-0.0274203914267559,0.130026763663256));
#1558=CARTESIAN_POINT('',(0.00245837903950972,-0.0281611913376301,0.130225260368346));
#1559=CARTESIAN_POINT('',(0.00245837904038486,-0.0283682465790268,0.129452519741038));
#1560=CARTESIAN_POINT('',(0.0017042895489209,-0.0272297479165455,0.129975680888652));
#1561=CARTESIAN_POINT('',(0.00154935413580612,-0.027987858182849,0.130178815922282));
#1562=CARTESIAN_POINT('',(0.00154935413580606,-0.0281949134189312,0.129406075261251));
#1563=CARTESIAN_POINT('',(0.0017042895489209,-0.0272297479165455,0.129975680888653));
#1564=CARTESIAN_POINT('',(0.00166372755261906,-0.0274282207201481,0.130028861516098));
#1565=CARTESIAN_POINT('',(0.00158292649111047,-0.0278684522000924,0.129967357193156));
#1566=CARTESIAN_POINT('',(0.00154935413580618,-0.0281407064848845,0.129608378293237));
#1567=CARTESIAN_POINT('',(0.00154935413580618,-0.0281949134189314,0.129406075261251));
#1568=CARTESIAN_POINT('',(0.00800000007652258,-0.035776022441403,0.131437427301555));
#1569=CARTESIAN_POINT('',(0.00800000007652258,-0.0357218155073561,0.13163973033354));
#1570=CARTESIAN_POINT('',(0.00817334898174115,-0.0356138322846441,0.132042725531883));
#1571=CARTESIAN_POINT('',(0.00859056056627436,-0.0355689640751916,0.13221016712387));
#1572=CARTESIAN_POINT('',(0.00880000007651053,-0.0355689629651058,0.132210166826424));
#1573=CARTESIAN_POINT('',(0.00170428954892074,-0.0272297479165455,0.129975680888653));
#1574=CARTESIAN_POINT('',(0.00154935413580591,-0.0279878581828493,0.130178815922283));
#1575=CARTESIAN_POINT('',(0.00154935413580593,-0.0281949134189313,0.129406075261251));
#1576=CARTESIAN_POINT('',(0.000813400295890802,-0.0270598728696386,0.12993016300702));
#1577=CARTESIAN_POINT('',(0.000739159249474249,-0.0278333699659306,0.130137420939581));
#1578=CARTESIAN_POINT('',(0.000739159249560472,-0.0280404251985171,0.129364680267317));
#1579=CARTESIAN_POINT('',(-0.000989932265735453,-0.0269896162823076,0.129911337811181));
#1580=CARTESIAN_POINT('',(-0.000899753307535935,-0.0277695823091276,0.13012032907355));
#1581=CARTESIAN_POINT('',(-0.000899753307574918,-0.0279766375467905,0.129347588417599));
#1582=CARTESIAN_POINT('',(-0.00451130278094423,-0.0279050284571049,0.13015662176416));
#1583=CARTESIAN_POINT('',(-0.00410120494094377,-0.0286016995954648,0.130343294235755));
#1584=CARTESIAN_POINT('',(-0.00410120494092143,-0.0288087548306334,0.129570553571789));
#1585=CARTESIAN_POINT('',(-0.0080383189938648,-0.0309192272253776,0.130964273889945));
#1586=CARTESIAN_POINT('',(-0.00730752521607151,-0.0313419158803071,0.131077532972754));
#1587=CARTESIAN_POINT('',(-0.00730752521607717,-0.0315489711167048,0.13030479231274));
#1588=CARTESIAN_POINT('',(-0.00934416847575168,-0.0362396225281968,0.13238986951475));
#1589=CARTESIAN_POINT('',(-0.00849470142678825,-0.0361785842237861,0.132373514350688));
#1590=CARTESIAN_POINT('',(-0.00849470142679363,-0.0363856394597646,0.131600773689316));
#1591=CARTESIAN_POINT('',(-0.00724000369136641,-0.0413133481880442,0.133749370207923));
#1592=CARTESIAN_POINT('',(-0.00658187462897992,-0.0407910848494641,0.133609430167794));
#1593=CARTESIAN_POINT('',(-0.00658187462895275,-0.0409981400856445,0.13283668950711));
#1594=CARTESIAN_POINT('',(-0.00249823724353011,-0.0442901940506955,0.134547013652813));
#1595=CARTESIAN_POINT('',(-0.00227116155269439,-0.0434973201525417,0.134334563733073));
#1596=CARTESIAN_POINT('',(-0.0022711615527977,-0.043704375388334,0.133561823070994));
#1597=CARTESIAN_POINT('',(0.00314854211691844,-0.0440925732421361,0.134494061316752));
#1598=CARTESIAN_POINT('',(0.00286223001649542,-0.0433178113149208,0.134286464480468));
#1599=CARTESIAN_POINT('',(0.00286223001688174,-0.0435248665520633,0.13351372382328));
#1600=CARTESIAN_POINT('',(0.0076525012890146,-0.0407864523223982,0.133608188886228));
#1601=CARTESIAN_POINT('',(0.00695679719955398,-0.0403118547974785,0.133481020875964));
#1602=CARTESIAN_POINT('',(0.00695679719811181,-0.0405189100296081,0.132708280200609));
#1603=CARTESIAN_POINT('',(0.00880001004173176,-0.0373232616605396,0.132680229745148));
#1604=CARTESIAN_POINT('',(0.00800000913736057,-0.0371645043892967,0.13263769083394));
#1605=CARTESIAN_POINT('',(0.00800000914046801,-0.0373715596338939,0.131864950203771));
#1606=CARTESIAN_POINT('',(0.00880000007651053,-0.0355689629651058,0.132210166826424));
#1607=CARTESIAN_POINT('',(0.00800000007652268,-0.035568967205321,0.132210167962586));
#1608=CARTESIAN_POINT('',(0.00800000007652257,-0.035776022441403,0.131437427301555));
#1609=MECHANICAL_DESIGN_GEOMETRIC_PRESENTATION_REPRESENTATION('',(#934),
#1610);
#1610=(
GEOMETRIC_REPRESENTATION_CONTEXT(3)
GLOBAL_UNCERTAINTY_ASSIGNED_CONTEXT((#1611))
GLOBAL_UNIT_ASSIGNED_CONTEXT((#1614,#1613,#1612))
REPRESENTATION_CONTEXT('Slider','TOP_LEVEL_ASSEMBLY_PART')
);
#1611=UNCERTAINTY_MEASURE_WITH_UNIT(LENGTH_MEASURE(2.E-5),#1614,
'DISTANCE_ACCURACY_VALUE','Maximum Tolerance applied to model');
#1612=(
NAMED_UNIT(*)
SI_UNIT($,.STERADIAN.)
SOLID_ANGLE_UNIT()
);
#1613=(
NAMED_UNIT(*)
PLANE_ANGLE_UNIT()
SI_UNIT($,.RADIAN.)
);
#1614=(
LENGTH_UNIT()
NAMED_UNIT(*)
SI_UNIT($,.METRE.)
);
#1615=PRODUCT_DEFINITION_SHAPE('','',#1616);
#1616=PRODUCT_DEFINITION('','',#1618,#1617);
#1617=PRODUCT_DEFINITION_CONTEXT('',#1624,'design');
#1618=PRODUCT_DEFINITION_FORMATION_WITH_SPECIFIED_SOURCE('','',#1620,
 .NOT_KNOWN.);
#1619=PRODUCT_RELATED_PRODUCT_CATEGORY('','',(#1620));
#1620=PRODUCT('Slider','Slider','Slider',(#1622));
#1621=PRODUCT_CATEGORY('','');
#1622=PRODUCT_CONTEXT('',#1624,'mechanical');
#1623=APPLICATION_PROTOCOL_DEFINITION('international standard',
'ap242_managed_model_based_3d_engineering',2020,#1624);
#1624=APPLICATION_CONTEXT('managed model based 3d engineering');
ENDSEC;
END-ISO-10303-21;
