ISO-10303-21;
HEADER;
/* Generated by software containing ST-Developer
 * from STEP Tools, Inc. (www.steptools.com) 
 */
/* OPTION: using custom renumber hook */

FILE_DESCRIPTION(
/* description */ ('STEP AP242 Edition 2',
'CAx-IF Rec.Pracs.---Representation and Presentation of Product Manufa
cturing Information (PMI)---4.0---2014-10-13',
'CAx-IF Rec.Pracs.---3D Tessellated Geometry---0.4---2014-09-14','2;1',
'CAx-IF Rec.Pracs.---User Defined Attributes---1.5---2016-08-15'),
/* implementation_level */ '2;1');

FILE_NAME(
/* name */ 'Candy launcher - Part 25',
/* time_stamp */ '2026-08-31T07:11:54Z',
/* author */ (''),
/* organization */ (''),
/* preprocessor_version */ 'ST-DEVELOPER v20',
/* originating_system */ 'ONSHAPE BY PTC INC, 1.220',
/* authorisation */ '  ');

FILE_SCHEMA (('AP242_MANAGED_MODEL_BASED_3D_ENGINEERING_MIM_LF { 1 0 10303 442 3 1 4 }'));
ENDSEC;

DATA;
#10=SHAPE_REPRESENTATION_RELATIONSHIP('','',#207,#11);
#11=ADVANCED_BREP_SHAPE_REPRESENTATION('',(#205),#355);
#12=PLANE('',#215);
#13=PLANE('',#225);
#14=PLANE('',#232);
#15=PLANE('',#233);
#16=LINE('',#303,#28);
#17=LINE('',#307,#29);
#18=LINE('',#311,#30);
#19=LINE('',#315,#31);
#20=LINE('',#317,#32);
#21=LINE('',#319,#33);
#22=LINE('',#323,#34);
#23=LINE('',#329,#35);
#24=LINE('',#335,#36);
#25=LINE('',#339,#37);
#26=LINE('',#341,#38);
#27=LINE('',#343,#39);
#28=VECTOR('',#240,1.);
#29=VECTOR('',#243,1.);
#30=VECTOR('',#248,1.);
#31=VECTOR('',#253,1.);
#32=VECTOR('',#254,1.);
#33=VECTOR('',#255,1.);
#34=VECTOR('',#260,1.);
#35=VECTOR('',#267,1.);
#36=VECTOR('',#274,1.);
#37=VECTOR('',#279,1.);
#38=VECTOR('',#280,1.);
#39=VECTOR('',#281,1.);
#40=ORIENTED_EDGE('',*,*,#92,.T.);
#41=ORIENTED_EDGE('',*,*,#93,.F.);
#42=ORIENTED_EDGE('',*,*,#94,.F.);
#43=ORIENTED_EDGE('',*,*,#95,.T.);
#44=ORIENTED_EDGE('',*,*,#96,.T.);
#45=ORIENTED_EDGE('',*,*,#97,.F.);
#46=ORIENTED_EDGE('',*,*,#98,.F.);
#47=ORIENTED_EDGE('',*,*,#93,.T.);
#48=ORIENTED_EDGE('',*,*,#99,.F.);
#49=ORIENTED_EDGE('',*,*,#100,.F.);
#50=ORIENTED_EDGE('',*,*,#101,.T.);
#51=ORIENTED_EDGE('',*,*,#97,.T.);
#52=ORIENTED_EDGE('',*,*,#102,.T.);
#53=ORIENTED_EDGE('',*,*,#103,.F.);
#54=ORIENTED_EDGE('',*,*,#104,.F.);
#55=ORIENTED_EDGE('',*,*,#100,.T.);
#56=ORIENTED_EDGE('',*,*,#105,.T.);
#57=ORIENTED_EDGE('',*,*,#106,.F.);
#58=ORIENTED_EDGE('',*,*,#107,.F.);
#59=ORIENTED_EDGE('',*,*,#103,.T.);
#60=ORIENTED_EDGE('',*,*,#108,.T.);
#61=ORIENTED_EDGE('',*,*,#109,.F.);
#62=ORIENTED_EDGE('',*,*,#110,.F.);
#63=ORIENTED_EDGE('',*,*,#106,.T.);
#64=ORIENTED_EDGE('',*,*,#111,.T.);
#65=ORIENTED_EDGE('',*,*,#112,.F.);
#66=ORIENTED_EDGE('',*,*,#113,.F.);
#67=ORIENTED_EDGE('',*,*,#109,.T.);
#68=ORIENTED_EDGE('',*,*,#114,.F.);
#69=ORIENTED_EDGE('',*,*,#115,.T.);
#70=ORIENTED_EDGE('',*,*,#116,.T.);
#71=ORIENTED_EDGE('',*,*,#95,.F.);
#72=ORIENTED_EDGE('',*,*,#117,.F.);
#73=ORIENTED_EDGE('',*,*,#112,.T.);
#74=ORIENTED_EDGE('',*,*,#114,.T.);
#75=ORIENTED_EDGE('',*,*,#94,.T.);
#76=ORIENTED_EDGE('',*,*,#98,.T.);
#77=ORIENTED_EDGE('',*,*,#101,.F.);
#78=ORIENTED_EDGE('',*,*,#104,.T.);
#79=ORIENTED_EDGE('',*,*,#107,.T.);
#80=ORIENTED_EDGE('',*,*,#110,.T.);
#81=ORIENTED_EDGE('',*,*,#113,.T.);
#82=ORIENTED_EDGE('',*,*,#117,.T.);
#83=ORIENTED_EDGE('',*,*,#115,.F.);
#84=ORIENTED_EDGE('',*,*,#92,.F.);
#85=ORIENTED_EDGE('',*,*,#116,.F.);
#86=ORIENTED_EDGE('',*,*,#111,.F.);
#87=ORIENTED_EDGE('',*,*,#108,.F.);
#88=ORIENTED_EDGE('',*,*,#105,.F.);
#89=ORIENTED_EDGE('',*,*,#102,.F.);
#90=ORIENTED_EDGE('',*,*,#99,.T.);
#91=ORIENTED_EDGE('',*,*,#96,.F.);
#92=EDGE_CURVE('',#118,#119,#136,.T.);
#93=EDGE_CURVE('',#120,#119,#16,.T.);
#94=EDGE_CURVE('',#121,#120,#137,.T.);
#95=EDGE_CURVE('',#121,#118,#17,.T.);
#96=EDGE_CURVE('',#119,#122,#138,.T.);
#97=EDGE_CURVE('',#123,#122,#18,.T.);
#98=EDGE_CURVE('',#120,#123,#139,.T.);
#99=EDGE_CURVE('',#124,#122,#19,.T.);
#100=EDGE_CURVE('',#125,#124,#20,.T.);
#101=EDGE_CURVE('',#125,#123,#21,.T.);
#102=EDGE_CURVE('',#124,#126,#140,.T.);
#103=EDGE_CURVE('',#127,#126,#22,.T.);
#104=EDGE_CURVE('',#125,#127,#141,.T.);
#105=EDGE_CURVE('',#126,#128,#142,.T.);
#106=EDGE_CURVE('',#129,#128,#23,.T.);
#107=EDGE_CURVE('',#127,#129,#143,.T.);
#108=EDGE_CURVE('',#128,#130,#144,.T.);
#109=EDGE_CURVE('',#131,#130,#24,.T.);
#110=EDGE_CURVE('',#129,#131,#145,.T.);
#111=EDGE_CURVE('',#130,#132,#25,.T.);
#112=EDGE_CURVE('',#133,#132,#26,.T.);
#113=EDGE_CURVE('',#131,#133,#27,.T.);
#114=EDGE_CURVE('',#134,#134,#146,.T.);
#115=EDGE_CURVE('',#135,#135,#147,.T.);
#116=EDGE_CURVE('',#132,#118,#148,.T.);
#117=EDGE_CURVE('',#133,#121,#149,.T.);
#118=VERTEX_POINT('',#301);
#119=VERTEX_POINT('',#302);
#120=VERTEX_POINT('',#304);
#121=VERTEX_POINT('',#306);
#122=VERTEX_POINT('',#310);
#123=VERTEX_POINT('',#312);
#124=VERTEX_POINT('',#316);
#125=VERTEX_POINT('',#318);
#126=VERTEX_POINT('',#322);
#127=VERTEX_POINT('',#324);
#128=VERTEX_POINT('',#328);
#129=VERTEX_POINT('',#330);
#130=VERTEX_POINT('',#334);
#131=VERTEX_POINT('',#336);
#132=VERTEX_POINT('',#340);
#133=VERTEX_POINT('',#342);
#134=VERTEX_POINT('',#346);
#135=VERTEX_POINT('',#348);
#136=CIRCLE('',#210,0.0108653846153846);
#137=CIRCLE('',#211,0.0108653846153846);
#138=CIRCLE('',#213,0.000999999999999975);
#139=CIRCLE('',#214,0.000999999999999975);
#140=CIRCLE('',#217,0.000999999999999931);
#141=CIRCLE('',#218,0.000999999999999931);
#142=CIRCLE('',#220,0.0108653846153846);
#143=CIRCLE('',#221,0.0108653846153846);
#144=CIRCLE('',#223,0.000999999999999961);
#145=CIRCLE('',#224,0.000999999999999961);
#146=CIRCLE('',#227,0.0008);
#147=CIRCLE('',#228,0.0008);
#148=CIRCLE('',#230,0.001);
#149=CIRCLE('',#231,0.001);
#150=EDGE_LOOP('',(#40,#41,#42,#43));
#151=EDGE_LOOP('',(#44,#45,#46,#47));
#152=EDGE_LOOP('',(#48,#49,#50,#51));
#153=EDGE_LOOP('',(#52,#53,#54,#55));
#154=EDGE_LOOP('',(#56,#57,#58,#59));
#155=EDGE_LOOP('',(#60,#61,#62,#63));
#156=EDGE_LOOP('',(#64,#65,#66,#67));
#157=EDGE_LOOP('',(#68));
#158=EDGE_LOOP('',(#69));
#159=EDGE_LOOP('',(#70,#71,#72,#73));
#160=EDGE_LOOP('',(#74));
#161=EDGE_LOOP('',(#75,#76,#77,#78,#79,#80,#81,#82));
#162=EDGE_LOOP('',(#83));
#163=EDGE_LOOP('',(#84,#85,#86,#87,#88,#89,#90,#91));
#164=FACE_BOUND('',#150,.T.);
#165=FACE_BOUND('',#151,.T.);
#166=FACE_BOUND('',#152,.T.);
#167=FACE_BOUND('',#153,.T.);
#168=FACE_BOUND('',#154,.T.);
#169=FACE_BOUND('',#155,.T.);
#170=FACE_BOUND('',#156,.T.);
#171=FACE_BOUND('',#157,.T.);
#172=FACE_BOUND('',#158,.T.);
#173=FACE_BOUND('',#159,.T.);
#174=FACE_BOUND('',#160,.T.);
#175=FACE_BOUND('',#161,.T.);
#176=FACE_BOUND('',#162,.T.);
#177=FACE_BOUND('',#163,.T.);
#178=CYLINDRICAL_SURFACE('',#209,0.0108653846153846);
#179=CYLINDRICAL_SURFACE('',#212,0.000999999999999975);
#180=CYLINDRICAL_SURFACE('',#216,0.000999999999999931);
#181=CYLINDRICAL_SURFACE('',#219,0.0108653846153846);
#182=CYLINDRICAL_SURFACE('',#222,0.000999999999999961);
#183=CYLINDRICAL_SURFACE('',#226,0.0008);
#184=CYLINDRICAL_SURFACE('',#229,0.001);
#185=ADVANCED_FACE('',(#164),#178,.T.);
#186=ADVANCED_FACE('',(#165),#179,.T.);
#187=ADVANCED_FACE('',(#166),#12,.T.);
#188=ADVANCED_FACE('',(#167),#180,.T.);
#189=ADVANCED_FACE('',(#168),#181,.T.);
#190=ADVANCED_FACE('',(#169),#182,.T.);
#191=ADVANCED_FACE('',(#170),#13,.F.);
#192=ADVANCED_FACE('',(#171,#172),#183,.F.);
#193=ADVANCED_FACE('',(#173),#184,.T.);
#194=ADVANCED_FACE('',(#174,#175),#14,.T.);
#195=ADVANCED_FACE('',(#176,#177),#15,.F.);
#196=CLOSED_SHELL('',(#185,#186,#187,#188,#189,#190,#191,#192,#193,#194,
#195));
#197=STYLED_ITEM('',(#198),#205);
#198=PRESENTATION_STYLE_ASSIGNMENT((#199));
#199=SURFACE_STYLE_USAGE(.BOTH.,#200);
#200=SURFACE_SIDE_STYLE('',(#201));
#201=SURFACE_STYLE_FILL_AREA(#202);
#202=FILL_AREA_STYLE('',(#203));
#203=FILL_AREA_STYLE_COLOUR('',#204);
#204=COLOUR_RGB('',0.972549019607843,0.529411764705882,0.00392156862745098);
#205=MANIFOLD_SOLID_BREP('Part 25',#196);
#206=SHAPE_DEFINITION_REPRESENTATION(#360,#207);
#207=SHAPE_REPRESENTATION('Part 25',(#208),#355);
#208=AXIS2_PLACEMENT_3D('',#298,#234,#235);
#209=AXIS2_PLACEMENT_3D('',#299,#236,#237);
#210=AXIS2_PLACEMENT_3D('',#300,#238,#239);
#211=AXIS2_PLACEMENT_3D('',#305,#241,#242);
#212=AXIS2_PLACEMENT_3D('',#308,#244,#245);
#213=AXIS2_PLACEMENT_3D('',#309,#246,#247);
#214=AXIS2_PLACEMENT_3D('',#313,#249,#250);
#215=AXIS2_PLACEMENT_3D('',#314,#251,#252);
#216=AXIS2_PLACEMENT_3D('',#320,#256,#257);
#217=AXIS2_PLACEMENT_3D('',#321,#258,#259);
#218=AXIS2_PLACEMENT_3D('',#325,#261,#262);
#219=AXIS2_PLACEMENT_3D('',#326,#263,#264);
#220=AXIS2_PLACEMENT_3D('',#327,#265,#266);
#221=AXIS2_PLACEMENT_3D('',#331,#268,#269);
#222=AXIS2_PLACEMENT_3D('',#332,#270,#271);
#223=AXIS2_PLACEMENT_3D('',#333,#272,#273);
#224=AXIS2_PLACEMENT_3D('',#337,#275,#276);
#225=AXIS2_PLACEMENT_3D('',#338,#277,#278);
#226=AXIS2_PLACEMENT_3D('',#344,#282,#283);
#227=AXIS2_PLACEMENT_3D('',#345,#284,#285);
#228=AXIS2_PLACEMENT_3D('',#347,#286,#287);
#229=AXIS2_PLACEMENT_3D('',#349,#288,#289);
#230=AXIS2_PLACEMENT_3D('',#350,#290,#291);
#231=AXIS2_PLACEMENT_3D('',#351,#292,#293);
#232=AXIS2_PLACEMENT_3D('',#352,#294,#295);
#233=AXIS2_PLACEMENT_3D('',#353,#296,#297);
#234=DIRECTION('',(0.,0.,1.));
#235=DIRECTION('',(1.,0.,0.));
#236=DIRECTION('',(-1.,0.,0.));
#237=DIRECTION('',(0.,0.,1.));
#238=DIRECTION('',(1.,0.,0.));
#239=DIRECTION('',(0.,0.,-1.));
#240=DIRECTION('',(-1.,0.,0.));
#241=DIRECTION('',(1.,0.,0.));
#242=DIRECTION('',(0.,0.,-1.));
#243=DIRECTION('',(-1.,0.,0.));
#244=DIRECTION('',(-1.,0.,0.));
#245=DIRECTION('',(0.,0.,1.));
#246=DIRECTION('',(1.,0.,0.));
#247=DIRECTION('',(0.,0.,-1.));
#248=DIRECTION('',(-1.,0.,0.));
#249=DIRECTION('',(1.,0.,0.));
#250=DIRECTION('',(0.,0.,-1.));
#251=DIRECTION('',(0.,0.,1.));
#252=DIRECTION('',(1.,0.,0.));
#253=DIRECTION('',(0.,1.,0.));
#254=DIRECTION('',(-1.,0.,0.));
#255=DIRECTION('',(0.,1.,0.));
#256=DIRECTION('',(-1.,0.,0.));
#257=DIRECTION('',(0.,0.,1.));
#258=DIRECTION('',(1.,0.,0.));
#259=DIRECTION('',(0.,0.,-1.));
#260=DIRECTION('',(-1.,0.,0.));
#261=DIRECTION('',(1.,0.,0.));
#262=DIRECTION('',(0.,0.,-1.));
#263=DIRECTION('',(-1.,0.,0.));
#264=DIRECTION('',(0.,0.,1.));
#265=DIRECTION('',(1.,0.,0.));
#266=DIRECTION('',(0.,0.,-1.));
#267=DIRECTION('',(-1.,0.,0.));
#268=DIRECTION('',(1.,0.,0.));
#269=DIRECTION('',(0.,0.,-1.));
#270=DIRECTION('',(-1.,0.,0.));
#271=DIRECTION('',(0.,0.,1.));
#272=DIRECTION('',(1.,0.,0.));
#273=DIRECTION('',(0.,0.,-1.));
#274=DIRECTION('',(-1.,0.,0.));
#275=DIRECTION('',(1.,0.,0.));
#276=DIRECTION('',(0.,0.,-1.));
#277=DIRECTION('',(0.,0.,1.));
#278=DIRECTION('',(1.,0.,0.));
#279=DIRECTION('',(0.,1.,0.));
#280=DIRECTION('',(-1.,0.,0.));
#281=DIRECTION('',(0.,1.,0.));
#282=DIRECTION('',(-1.,0.,0.));
#283=DIRECTION('',(0.,0.,1.));
#284=DIRECTION('',(-1.,0.,0.));
#285=DIRECTION('',(0.,0.,1.));
#286=DIRECTION('',(-1.,0.,0.));
#287=DIRECTION('',(0.,0.,1.));
#288=DIRECTION('',(-1.,0.,0.));
#289=DIRECTION('',(0.,0.,1.));
#290=DIRECTION('',(1.,0.,0.));
#291=DIRECTION('',(0.,0.,-1.));
#292=DIRECTION('',(1.,0.,0.));
#293=DIRECTION('',(0.,0.,-1.));
#294=DIRECTION('',(1.,0.,0.));
#295=DIRECTION('',(0.,1.,0.));
#296=DIRECTION('',(1.,0.,0.));
#297=DIRECTION('',(0.,1.,0.));
#298=CARTESIAN_POINT('',(0.,0.,0.));
#299=CARTESIAN_POINT('',(0.033,-0.104322491396571,0.0157071067811866));
#300=CARTESIAN_POINT('',(0.005,-0.104322491396571,0.0157071067811866));
#301=CARTESIAN_POINT('',(0.005,-0.0963985342607298,0.00827289625487077));
#302=CARTESIAN_POINT('',(0.005,-0.0963985342607298,0.0231413173075023));
#303=CARTESIAN_POINT('',(0.033,-0.0963985342607298,0.0231413173075023));
#304=CARTESIAN_POINT('',(0.033,-0.0963985342607298,0.0231413173075023));
#305=CARTESIAN_POINT('',(0.033,-0.104322491396571,0.0157071067811866));
#306=CARTESIAN_POINT('',(0.033,-0.0963985342607298,0.00827289625487077));
#307=CARTESIAN_POINT('',(0.033,-0.0963985342607298,0.00827289625487077));
#308=CARTESIAN_POINT('',(0.033,-0.0971278188112851,0.0224571067811866));
#309=CARTESIAN_POINT('',(0.005,-0.0971278188112851,0.0224571067811866));
#310=CARTESIAN_POINT('',(0.005,-0.0971278188112851,0.0234571067811866));
#311=CARTESIAN_POINT('',(0.033,-0.0971278188112851,0.0234571067811866));
#312=CARTESIAN_POINT('',(0.033,-0.0971278188112851,0.0234571067811866));
#313=CARTESIAN_POINT('',(0.033,-0.0971278188112851,0.0224571067811866));
#314=CARTESIAN_POINT('',(0.033,-0.103707106781187,0.0234571067811866));
#315=CARTESIAN_POINT('',(0.005,-0.103707106781187,0.0234571067811866));
#316=CARTESIAN_POINT('',(0.005,-0.110286394751088,0.0234571067811866));
#317=CARTESIAN_POINT('',(0.033,-0.110286394751088,0.0234571067811866));
#318=CARTESIAN_POINT('',(0.033,-0.110286394751088,0.0234571067811866));
#319=CARTESIAN_POINT('',(0.033,-0.103707106781187,0.0234571067811866));
#320=CARTESIAN_POINT('',(0.033,-0.110286394751088,0.0224571067811867));
#321=CARTESIAN_POINT('',(0.005,-0.110286394751088,0.0224571067811867));
#322=CARTESIAN_POINT('',(0.005,-0.111015679301643,0.0231413173075023));
#323=CARTESIAN_POINT('',(0.033,-0.111015679301643,0.0231413173075023));
#324=CARTESIAN_POINT('',(0.033,-0.111015679301643,0.0231413173075023));
#325=CARTESIAN_POINT('',(0.033,-0.110286394751088,0.0224571067811867));
#326=CARTESIAN_POINT('',(0.033,-0.103091722165802,0.0157071067811866));
#327=CARTESIAN_POINT('',(0.005,-0.103091722165802,0.0157071067811866));
#328=CARTESIAN_POINT('',(0.005,-0.111015679301643,0.00827289625487077));
#329=CARTESIAN_POINT('',(0.033,-0.111015679301643,0.00827289625487077));
#330=CARTESIAN_POINT('',(0.033,-0.111015679301643,0.00827289625487077));
#331=CARTESIAN_POINT('',(0.033,-0.103091722165802,0.0157071067811866));
#332=CARTESIAN_POINT('',(0.033,-0.110286394751088,0.00895710678118651));
#333=CARTESIAN_POINT('',(0.005,-0.110286394751088,0.00895710678118651));
#334=CARTESIAN_POINT('',(0.005,-0.110286394751088,0.00795710678118655));
#335=CARTESIAN_POINT('',(0.033,-0.110286394751088,0.00795710678118655));
#336=CARTESIAN_POINT('',(0.033,-0.110286394751088,0.00795710678118655));
#337=CARTESIAN_POINT('',(0.033,-0.110286394751088,0.00895710678118651));
#338=CARTESIAN_POINT('',(0.033,-0.103707106781187,0.00795710678118655));
#339=CARTESIAN_POINT('',(0.005,-0.103707106781187,0.00795710678118655));
#340=CARTESIAN_POINT('',(0.005,-0.0971278188112851,0.00795710678118655));
#341=CARTESIAN_POINT('',(0.033,-0.0971278188112851,0.00795710678118655));
#342=CARTESIAN_POINT('',(0.033,-0.0971278188112851,0.00795710678118655));
#343=CARTESIAN_POINT('',(0.033,-0.103707106781187,0.00795710678118655));
#344=CARTESIAN_POINT('',(0.033,-0.103707106781187,0.0157071067811866));
#345=CARTESIAN_POINT('',(0.033,-0.103707106781187,0.0157071067811866));
#346=CARTESIAN_POINT('',(0.033,-0.103707106781187,0.0165071067811866));
#347=CARTESIAN_POINT('',(0.005,-0.103707106781187,0.0157071067811866));
#348=CARTESIAN_POINT('',(0.005,-0.103707106781187,0.0165071067811866));
#349=CARTESIAN_POINT('',(0.033,-0.0971278188112851,0.00895710678118656));
#350=CARTESIAN_POINT('',(0.005,-0.0971278188112851,0.00895710678118656));
#351=CARTESIAN_POINT('',(0.033,-0.0971278188112851,0.00895710678118656));
#352=CARTESIAN_POINT('',(0.033,-0.0949785533905933,0.0157071067811866));
#353=CARTESIAN_POINT('',(0.005,-0.0949785533905933,0.0157071067811866));
#354=MECHANICAL_DESIGN_GEOMETRIC_PRESENTATION_REPRESENTATION('',(#197),
#355);
#355=(
GEOMETRIC_REPRESENTATION_CONTEXT(3)
GLOBAL_UNCERTAINTY_ASSIGNED_CONTEXT((#356))
GLOBAL_UNIT_ASSIGNED_CONTEXT((#359,#358,#357))
REPRESENTATION_CONTEXT('Part 25','TOP_LEVEL_ASSEMBLY_PART')
);
#356=UNCERTAINTY_MEASURE_WITH_UNIT(LENGTH_MEASURE(1.E-8),#359,
'DISTANCE_ACCURACY_VALUE','Maximum Tolerance applied to model');
#357=(
NAMED_UNIT(*)
SI_UNIT($,.STERADIAN.)
SOLID_ANGLE_UNIT()
);
#358=(
NAMED_UNIT(*)
PLANE_ANGLE_UNIT()
SI_UNIT($,.RADIAN.)
);
#359=(
LENGTH_UNIT()
NAMED_UNIT(*)
SI_UNIT($,.METRE.)
);
#360=PRODUCT_DEFINITION_SHAPE('','',#361);
#361=PRODUCT_DEFINITION('','',#363,#362);
#362=PRODUCT_DEFINITION_CONTEXT('',#369,'design');
#363=PRODUCT_DEFINITION_FORMATION_WITH_SPECIFIED_SOURCE('','',#365,
 .NOT_KNOWN.);
#364=PRODUCT_RELATED_PRODUCT_CATEGORY('','',(#365));
#365=PRODUCT('Part 25','Part 25','Part 25',(#367));
#366=PRODUCT_CATEGORY('','');
#367=PRODUCT_CONTEXT('',#369,'mechanical');
#368=APPLICATION_PROTOCOL_DEFINITION('international standard',
'ap242_managed_model_based_3d_engineering',2020,#369);
#369=APPLICATION_CONTEXT('managed model based 3d engineering');
ENDSEC;
END-ISO-10303-21;
