ISO-10303-21;
HEADER;
/* Generated by software containing ST-Developer
 * from STEP Tools, Inc. (www.steptools.com) 
 */
/* OPTION: using custom renumber hook */

FILE_DESCRIPTION(
/* description */ ('STEP AP242 Edition 2',
'CAx-IF Rec.Pracs.---Representation and Presentation of Product Manufa
cturing Information (PMI)---4.0---2014-10-13',
'CAx-IF Rec.Pracs.---3D Tessellated Geometry---0.4---2014-09-14','2;1',
'CAx-IF Rec.Pracs.---User Defined Attributes---1.5---2016-08-15'),
/* implementation_level */ '2;1');

FILE_NAME(
/* name */ 'Candy launcher - Servo Horn 3',
/* time_stamp */ '2026-08-31T07:11:55Z',
/* author */ (''),
/* organization */ (''),
/* preprocessor_version */ 'ST-DEVELOPER v20',
/* originating_system */ 'ONSHAPE BY PTC INC, 1.220',
/* authorisation */ '  ');

FILE_SCHEMA (('AP242_MANAGED_MODEL_BASED_3D_ENGINEERING_MIM_LF { 1 0 10303 442 3 1 4 }'));
ENDSEC;

DATA;
#10=SHAPE_REPRESENTATION_RELATIONSHIP('','',#542,#11);
#11=ADVANCED_BREP_SHAPE_REPRESENTATION('',(#540),#877);
#12=CONICAL_SURFACE('',#578,0.00165,0.785398163397448);
#13=CIRCLE('',#553,0.00155);
#14=CIRCLE('',#554,0.00155);
#15=CIRCLE('',#556,0.003);
#16=CIRCLE('',#557,0.003);
#17=CIRCLE('',#559,0.00645);
#18=CIRCLE('',#560,0.00645);
#19=CIRCLE('',#561,0.00645);
#20=CIRCLE('',#562,0.00645);
#21=CIRCLE('',#564,0.00426);
#22=CIRCLE('',#568,0.00155);
#23=CIRCLE('',#573,0.00155);
#24=CIRCLE('',#575,0.00165);
#25=CIRCLE('',#576,0.00165);
#26=CIRCLE('',#582,0.00155);
#27=CIRCLE('',#586,0.00155);
#28=CYLINDRICAL_SURFACE('',#552,0.00155);
#29=CYLINDRICAL_SURFACE('',#555,0.003);
#30=CYLINDRICAL_SURFACE('',#558,0.00645);
#31=CYLINDRICAL_SURFACE('',#572,0.00155);
#32=CYLINDRICAL_SURFACE('',#574,0.00165);
#33=CYLINDRICAL_SURFACE('',#587,0.00155);
#34=ORIENTED_EDGE('',*,*,#168,.F.);
#35=ORIENTED_EDGE('',*,*,#169,.F.);
#36=ORIENTED_EDGE('',*,*,#170,.F.);
#37=ORIENTED_EDGE('',*,*,#171,.T.);
#38=ORIENTED_EDGE('',*,*,#172,.T.);
#39=ORIENTED_EDGE('',*,*,#173,.F.);
#40=ORIENTED_EDGE('',*,*,#174,.T.);
#41=ORIENTED_EDGE('',*,*,#175,.T.);
#42=ORIENTED_EDGE('',*,*,#176,.F.);
#43=ORIENTED_EDGE('',*,*,#177,.F.);
#44=ORIENTED_EDGE('',*,*,#178,.T.);
#45=ORIENTED_EDGE('',*,*,#179,.T.);
#46=ORIENTED_EDGE('',*,*,#180,.F.);
#47=ORIENTED_EDGE('',*,*,#181,.F.);
#48=ORIENTED_EDGE('',*,*,#182,.F.);
#49=ORIENTED_EDGE('',*,*,#169,.T.);
#50=ORIENTED_EDGE('',*,*,#183,.F.);
#51=ORIENTED_EDGE('',*,*,#184,.T.);
#52=ORIENTED_EDGE('',*,*,#177,.T.);
#53=ORIENTED_EDGE('',*,*,#185,.F.);
#54=ORIENTED_EDGE('',*,*,#181,.T.);
#55=ORIENTED_EDGE('',*,*,#186,.T.);
#56=ORIENTED_EDGE('',*,*,#187,.F.);
#57=ORIENTED_EDGE('',*,*,#188,.T.);
#58=ORIENTED_EDGE('',*,*,#189,.F.);
#59=ORIENTED_EDGE('',*,*,#183,.T.);
#60=ORIENTED_EDGE('',*,*,#190,.T.);
#61=ORIENTED_EDGE('',*,*,#191,.F.);
#62=ORIENTED_EDGE('',*,*,#187,.T.);
#63=ORIENTED_EDGE('',*,*,#192,.T.);
#64=ORIENTED_EDGE('',*,*,#193,.F.);
#65=ORIENTED_EDGE('',*,*,#194,.T.);
#66=ORIENTED_EDGE('',*,*,#195,.F.);
#67=ORIENTED_EDGE('',*,*,#191,.T.);
#68=ORIENTED_EDGE('',*,*,#196,.T.);
#69=ORIENTED_EDGE('',*,*,#197,.F.);
#70=ORIENTED_EDGE('',*,*,#193,.T.);
#71=ORIENTED_EDGE('',*,*,#198,.T.);
#72=ORIENTED_EDGE('',*,*,#199,.F.);
#73=ORIENTED_EDGE('',*,*,#200,.F.);
#74=ORIENTED_EDGE('',*,*,#197,.T.);
#75=ORIENTED_EDGE('',*,*,#201,.T.);
#76=ORIENTED_EDGE('',*,*,#202,.F.);
#77=ORIENTED_EDGE('',*,*,#203,.F.);
#78=ORIENTED_EDGE('',*,*,#204,.T.);
#79=ORIENTED_EDGE('',*,*,#205,.F.);
#80=ORIENTED_EDGE('',*,*,#206,.F.);
#81=ORIENTED_EDGE('',*,*,#207,.T.);
#82=ORIENTED_EDGE('',*,*,#208,.T.);
#83=ORIENTED_EDGE('',*,*,#209,.T.);
#84=ORIENTED_EDGE('',*,*,#210,.F.);
#85=ORIENTED_EDGE('',*,*,#211,.T.);
#86=ORIENTED_EDGE('',*,*,#212,.T.);
#87=ORIENTED_EDGE('',*,*,#206,.T.);
#88=ORIENTED_EDGE('',*,*,#213,.F.);
#89=ORIENTED_EDGE('',*,*,#171,.F.);
#90=ORIENTED_EDGE('',*,*,#214,.F.);
#91=ORIENTED_EDGE('',*,*,#215,.T.);
#92=ORIENTED_EDGE('',*,*,#216,.T.);
#93=ORIENTED_EDGE('',*,*,#214,.T.);
#94=ORIENTED_EDGE('',*,*,#210,.T.);
#95=ORIENTED_EDGE('',*,*,#215,.F.);
#96=ORIENTED_EDGE('',*,*,#208,.F.);
#97=ORIENTED_EDGE('',*,*,#212,.F.);
#98=ORIENTED_EDGE('',*,*,#170,.T.);
#99=ORIENTED_EDGE('',*,*,#182,.T.);
#100=ORIENTED_EDGE('',*,*,#188,.F.);
#101=ORIENTED_EDGE('',*,*,#194,.F.);
#102=ORIENTED_EDGE('',*,*,#207,.F.);
#103=ORIENTED_EDGE('',*,*,#217,.T.);
#104=ORIENTED_EDGE('',*,*,#172,.F.);
#105=ORIENTED_EDGE('',*,*,#213,.T.);
#106=ORIENTED_EDGE('',*,*,#205,.T.);
#107=ORIENTED_EDGE('',*,*,#218,.T.);
#108=ORIENTED_EDGE('',*,*,#219,.T.);
#109=ORIENTED_EDGE('',*,*,#220,.F.);
#110=ORIENTED_EDGE('',*,*,#221,.F.);
#111=ORIENTED_EDGE('',*,*,#222,.T.);
#112=ORIENTED_EDGE('',*,*,#173,.T.);
#113=ORIENTED_EDGE('',*,*,#220,.T.);
#114=ORIENTED_EDGE('',*,*,#223,.F.);
#115=ORIENTED_EDGE('',*,*,#221,.T.);
#116=ORIENTED_EDGE('',*,*,#219,.F.);
#117=ORIENTED_EDGE('',*,*,#224,.F.);
#118=ORIENTED_EDGE('',*,*,#225,.F.);
#119=ORIENTED_EDGE('',*,*,#224,.T.);
#120=ORIENTED_EDGE('',*,*,#218,.F.);
#121=ORIENTED_EDGE('',*,*,#204,.F.);
#122=ORIENTED_EDGE('',*,*,#226,.F.);
#123=ORIENTED_EDGE('',*,*,#217,.F.);
#124=ORIENTED_EDGE('',*,*,#227,.T.);
#125=ORIENTED_EDGE('',*,*,#228,.F.);
#126=ORIENTED_EDGE('',*,*,#228,.T.);
#127=ORIENTED_EDGE('',*,*,#211,.F.);
#128=ORIENTED_EDGE('',*,*,#216,.F.);
#129=ORIENTED_EDGE('',*,*,#227,.F.);
#130=ORIENTED_EDGE('',*,*,#229,.F.);
#131=ORIENTED_EDGE('',*,*,#202,.T.);
#132=ORIENTED_EDGE('',*,*,#230,.T.);
#133=ORIENTED_EDGE('',*,*,#175,.F.);
#134=ORIENTED_EDGE('',*,*,#226,.T.);
#135=ORIENTED_EDGE('',*,*,#222,.F.);
#136=ORIENTED_EDGE('',*,*,#223,.T.);
#137=ORIENTED_EDGE('',*,*,#225,.T.);
#138=ORIENTED_EDGE('',*,*,#203,.T.);
#139=ORIENTED_EDGE('',*,*,#229,.T.);
#140=ORIENTED_EDGE('',*,*,#174,.F.);
#141=ORIENTED_EDGE('',*,*,#231,.F.);
#142=ORIENTED_EDGE('',*,*,#176,.T.);
#143=ORIENTED_EDGE('',*,*,#230,.F.);
#144=ORIENTED_EDGE('',*,*,#201,.F.);
#145=ORIENTED_EDGE('',*,*,#196,.F.);
#146=ORIENTED_EDGE('',*,*,#190,.F.);
#147=ORIENTED_EDGE('',*,*,#185,.T.);
#148=ORIENTED_EDGE('',*,*,#232,.F.);
#149=ORIENTED_EDGE('',*,*,#199,.T.);
#150=ORIENTED_EDGE('',*,*,#233,.T.);
#151=ORIENTED_EDGE('',*,*,#179,.F.);
#152=ORIENTED_EDGE('',*,*,#209,.F.);
#153=ORIENTED_EDGE('',*,*,#168,.T.);
#154=ORIENTED_EDGE('',*,*,#233,.F.);
#155=ORIENTED_EDGE('',*,*,#198,.F.);
#156=ORIENTED_EDGE('',*,*,#192,.F.);
#157=ORIENTED_EDGE('',*,*,#186,.F.);
#158=ORIENTED_EDGE('',*,*,#180,.T.);
#159=ORIENTED_EDGE('',*,*,#234,.T.);
#160=ORIENTED_EDGE('',*,*,#184,.F.);
#161=ORIENTED_EDGE('',*,*,#189,.T.);
#162=ORIENTED_EDGE('',*,*,#195,.T.);
#163=ORIENTED_EDGE('',*,*,#200,.T.);
#164=ORIENTED_EDGE('',*,*,#232,.T.);
#165=ORIENTED_EDGE('',*,*,#178,.F.);
#166=ORIENTED_EDGE('',*,*,#234,.F.);
#167=ORIENTED_EDGE('',*,*,#231,.T.);
#168=EDGE_CURVE('',#235,#236,#284,.T.);
#169=EDGE_CURVE('',#237,#235,#285,.T.);
#170=EDGE_CURVE('',#238,#237,#286,.T.);
#171=EDGE_CURVE('',#238,#239,#287,.T.);
#172=EDGE_CURVE('',#239,#240,#288,.T.);
#173=EDGE_CURVE('',#241,#240,#289,.T.);
#174=EDGE_CURVE('',#241,#242,#290,.T.);
#175=EDGE_CURVE('',#242,#243,#291,.T.);
#176=EDGE_CURVE('',#244,#243,#292,.T.);
#177=EDGE_CURVE('',#245,#244,#293,.T.);
#178=EDGE_CURVE('',#245,#246,#294,.T.);
#179=EDGE_CURVE('',#246,#236,#295,.T.);
#180=EDGE_CURVE('',#247,#235,#296,.T.);
#181=EDGE_CURVE('',#248,#247,#297,.T.);
#182=EDGE_CURVE('',#237,#248,#298,.T.);
#183=EDGE_CURVE('',#249,#250,#299,.T.);
#184=EDGE_CURVE('',#249,#245,#300,.T.);
#185=EDGE_CURVE('',#250,#244,#301,.T.);
#186=EDGE_CURVE('',#247,#251,#302,.T.);
#187=EDGE_CURVE('',#252,#251,#303,.T.);
#188=EDGE_CURVE('',#252,#248,#304,.T.);
#189=EDGE_CURVE('',#249,#253,#305,.T.);
#190=EDGE_CURVE('',#250,#254,#306,.T.);
#191=EDGE_CURVE('',#253,#254,#307,.T.);
#192=EDGE_CURVE('',#251,#255,#308,.T.);
#193=EDGE_CURVE('',#256,#255,#309,.T.);
#194=EDGE_CURVE('',#256,#252,#310,.T.);
#195=EDGE_CURVE('',#253,#257,#311,.T.);
#196=EDGE_CURVE('',#254,#258,#312,.T.);
#197=EDGE_CURVE('',#257,#258,#313,.T.);
#198=EDGE_CURVE('',#255,#259,#314,.T.);
#199=EDGE_CURVE('',#260,#259,#315,.T.);
#200=EDGE_CURVE('',#257,#260,#316,.T.);
#201=EDGE_CURVE('',#258,#261,#317,.T.);
#202=EDGE_CURVE('',#262,#261,#318,.T.);
#203=EDGE_CURVE('',#263,#262,#319,.T.);
#204=EDGE_CURVE('',#263,#264,#320,.T.);
#205=EDGE_CURVE('',#265,#264,#321,.T.);
#206=EDGE_CURVE('',#266,#265,#322,.T.);
#207=EDGE_CURVE('',#266,#256,#323,.T.);
#208=EDGE_CURVE('',#267,#267,#13,.T.);
#209=EDGE_CURVE('',#268,#268,#14,.T.);
#210=EDGE_CURVE('',#269,#269,#15,.T.);
#211=EDGE_CURVE('',#270,#270,#16,.T.);
#212=EDGE_CURVE('',#238,#266,#17,.T.);
#213=EDGE_CURVE('',#239,#265,#18,.T.);
#214=EDGE_CURVE('',#271,#271,#19,.T.);
#215=EDGE_CURVE('',#272,#272,#20,.T.);
#216=EDGE_CURVE('',#273,#273,#21,.F.);
#217=EDGE_CURVE('',#274,#274,#22,.T.);
#218=EDGE_CURVE('',#264,#275,#324,.T.);
#219=EDGE_CURVE('',#275,#276,#325,.T.);
#220=EDGE_CURVE('',#240,#276,#326,.T.);
#221=EDGE_CURVE('',#277,#276,#327,.T.);
#222=EDGE_CURVE('',#277,#241,#328,.T.);
#223=EDGE_CURVE('',#277,#278,#329,.T.);
#224=EDGE_CURVE('',#278,#275,#330,.T.);
#225=EDGE_CURVE('',#278,#263,#331,.T.);
#226=EDGE_CURVE('',#279,#279,#23,.T.);
#227=EDGE_CURVE('',#280,#280,#24,.T.);
#228=EDGE_CURVE('',#281,#281,#25,.T.);
#229=EDGE_CURVE('',#262,#242,#332,.T.);
#230=EDGE_CURVE('',#261,#243,#333,.T.);
#231=EDGE_CURVE('',#282,#282,#26,.T.);
#232=EDGE_CURVE('',#260,#246,#334,.T.);
#233=EDGE_CURVE('',#259,#236,#335,.T.);
#234=EDGE_CURVE('',#283,#283,#27,.T.);
#235=VERTEX_POINT('',#733);
#236=VERTEX_POINT('',#734);
#237=VERTEX_POINT('',#736);
#238=VERTEX_POINT('',#738);
#239=VERTEX_POINT('',#740);
#240=VERTEX_POINT('',#742);
#241=VERTEX_POINT('',#744);
#242=VERTEX_POINT('',#746);
#243=VERTEX_POINT('',#748);
#244=VERTEX_POINT('',#750);
#245=VERTEX_POINT('',#752);
#246=VERTEX_POINT('',#754);
#247=VERTEX_POINT('',#758);
#248=VERTEX_POINT('',#760);
#249=VERTEX_POINT('',#764);
#250=VERTEX_POINT('',#765);
#251=VERTEX_POINT('',#770);
#252=VERTEX_POINT('',#772);
#253=VERTEX_POINT('',#776);
#254=VERTEX_POINT('',#778);
#255=VERTEX_POINT('',#782);
#256=VERTEX_POINT('',#784);
#257=VERTEX_POINT('',#788);
#258=VERTEX_POINT('',#790);
#259=VERTEX_POINT('',#794);
#260=VERTEX_POINT('',#796);
#261=VERTEX_POINT('',#799);
#262=VERTEX_POINT('',#801);
#263=VERTEX_POINT('',#803);
#264=VERTEX_POINT('',#805);
#265=VERTEX_POINT('',#807);
#266=VERTEX_POINT('',#809);
#267=VERTEX_POINT('',#813);
#268=VERTEX_POINT('',#815);
#269=VERTEX_POINT('',#818);
#270=VERTEX_POINT('',#820);
#271=VERTEX_POINT('',#825);
#272=VERTEX_POINT('',#827);
#273=VERTEX_POINT('',#830);
#274=VERTEX_POINT('',#835);
#275=VERTEX_POINT('',#837);
#276=VERTEX_POINT('',#839);
#277=VERTEX_POINT('',#843);
#278=VERTEX_POINT('',#847);
#279=VERTEX_POINT('',#853);
#280=VERTEX_POINT('',#856);
#281=VERTEX_POINT('',#858);
#282=VERTEX_POINT('',#867);
#283=VERTEX_POINT('',#874);
#284=LINE('',#732,#336);
#285=LINE('',#735,#337);
#286=LINE('',#737,#338);
#287=LINE('',#739,#339);
#288=LINE('',#741,#340);
#289=LINE('',#743,#341);
#290=LINE('',#745,#342);
#291=LINE('',#747,#343);
#292=LINE('',#749,#344);
#293=LINE('',#751,#345);
#294=LINE('',#753,#346);
#295=LINE('',#755,#347);
#296=LINE('',#757,#348);
#297=LINE('',#759,#349);
#298=LINE('',#761,#350);
#299=LINE('',#763,#351);
#300=LINE('',#766,#352);
#301=LINE('',#767,#353);
#302=LINE('',#769,#354);
#303=LINE('',#771,#355);
#304=LINE('',#773,#356);
#305=LINE('',#775,#357);
#306=LINE('',#777,#358);
#307=LINE('',#779,#359);
#308=LINE('',#781,#360);
#309=LINE('',#783,#361);
#310=LINE('',#785,#362);
#311=LINE('',#787,#363);
#312=LINE('',#789,#364);
#313=LINE('',#791,#365);
#314=LINE('',#793,#366);
#315=LINE('',#795,#367);
#316=LINE('',#797,#368);
#317=LINE('',#798,#369);
#318=LINE('',#800,#370);
#319=LINE('',#802,#371);
#320=LINE('',#804,#372);
#321=LINE('',#806,#373);
#322=LINE('',#808,#374);
#323=LINE('',#810,#375);
#324=LINE('',#836,#376);
#325=LINE('',#838,#377);
#326=LINE('',#840,#378);
#327=LINE('',#842,#379);
#328=LINE('',#844,#380);
#329=LINE('',#846,#381);
#330=LINE('',#848,#382);
#331=LINE('',#850,#383);
#332=LINE('',#862,#384);
#333=LINE('',#863,#385);
#334=LINE('',#869,#386);
#335=LINE('',#870,#387);
#336=VECTOR('',#592,1.);
#337=VECTOR('',#593,1.);
#338=VECTOR('',#594,1.);
#339=VECTOR('',#595,1.);
#340=VECTOR('',#596,1.);
#341=VECTOR('',#597,1.);
#342=VECTOR('',#598,1.);
#343=VECTOR('',#599,1.);
#344=VECTOR('',#600,1.);
#345=VECTOR('',#601,1.);
#346=VECTOR('',#602,1.);
#347=VECTOR('',#603,1.);
#348=VECTOR('',#606,1.);
#349=VECTOR('',#607,1.);
#350=VECTOR('',#608,1.);
#351=VECTOR('',#611,1.);
#352=VECTOR('',#612,1.);
#353=VECTOR('',#613,1.);
#354=VECTOR('',#616,1.);
#355=VECTOR('',#617,1.);
#356=VECTOR('',#618,1.);
#357=VECTOR('',#621,1.);
#358=VECTOR('',#622,1.);
#359=VECTOR('',#623,1.);
#360=VECTOR('',#626,1.);
#361=VECTOR('',#627,1.);
#362=VECTOR('',#628,1.);
#363=VECTOR('',#631,1.);
#364=VECTOR('',#632,1.);
#365=VECTOR('',#633,1.);
#366=VECTOR('',#636,1.);
#367=VECTOR('',#637,1.);
#368=VECTOR('',#638,1.);
#369=VECTOR('',#639,1.);
#370=VECTOR('',#640,1.);
#371=VECTOR('',#641,1.);
#372=VECTOR('',#642,1.);
#373=VECTOR('',#643,1.);
#374=VECTOR('',#644,1.);
#375=VECTOR('',#645,1.);
#376=VECTOR('',#680,1.);
#377=VECTOR('',#681,1.);
#378=VECTOR('',#682,1.);
#379=VECTOR('',#685,1.);
#380=VECTOR('',#686,1.);
#381=VECTOR('',#689,1.);
#382=VECTOR('',#690,1.);
#383=VECTOR('',#693,1.);
#384=VECTOR('',#710,1.);
#385=VECTOR('',#711,1.);
#386=VECTOR('',#720,1.);
#387=VECTOR('',#721,1.);
#388=EDGE_LOOP('',(#34,#35,#36,#37,#38,#39,#40,#41,#42,#43,#44,#45));
#389=EDGE_LOOP('',(#46,#47,#48,#49));
#390=EDGE_LOOP('',(#50,#51,#52,#53));
#391=EDGE_LOOP('',(#54,#55,#56,#57));
#392=EDGE_LOOP('',(#58,#59,#60,#61));
#393=EDGE_LOOP('',(#62,#63,#64,#65));
#394=EDGE_LOOP('',(#66,#67,#68,#69));
#395=EDGE_LOOP('',(#70,#71,#72,#73,#74,#75,#76,#77,#78,#79,#80,#81));
#396=EDGE_LOOP('',(#82));
#397=EDGE_LOOP('',(#83));
#398=EDGE_LOOP('',(#84));
#399=EDGE_LOOP('',(#85));
#400=EDGE_LOOP('',(#86,#87,#88,#89));
#401=EDGE_LOOP('',(#90));
#402=EDGE_LOOP('',(#91));
#403=EDGE_LOOP('',(#92));
#404=EDGE_LOOP('',(#93));
#405=EDGE_LOOP('',(#94));
#406=EDGE_LOOP('',(#95));
#407=EDGE_LOOP('',(#96));
#408=EDGE_LOOP('',(#97,#98,#99,#100,#101,#102));
#409=EDGE_LOOP('',(#103));
#410=EDGE_LOOP('',(#104,#105,#106,#107,#108,#109));
#411=EDGE_LOOP('',(#110,#111,#112,#113));
#412=EDGE_LOOP('',(#114,#115,#116,#117));
#413=EDGE_LOOP('',(#118,#119,#120,#121));
#414=EDGE_LOOP('',(#122));
#415=EDGE_LOOP('',(#123));
#416=EDGE_LOOP('',(#124));
#417=EDGE_LOOP('',(#125));
#418=EDGE_LOOP('',(#126));
#419=EDGE_LOOP('',(#127));
#420=EDGE_LOOP('',(#128));
#421=EDGE_LOOP('',(#129));
#422=EDGE_LOOP('',(#130,#131,#132,#133));
#423=EDGE_LOOP('',(#134));
#424=EDGE_LOOP('',(#135,#136,#137,#138,#139,#140));
#425=EDGE_LOOP('',(#141));
#426=EDGE_LOOP('',(#142,#143,#144,#145,#146,#147));
#427=EDGE_LOOP('',(#148,#149,#150,#151));
#428=EDGE_LOOP('',(#152));
#429=EDGE_LOOP('',(#153,#154,#155,#156,#157,#158));
#430=EDGE_LOOP('',(#159));
#431=EDGE_LOOP('',(#160,#161,#162,#163,#164,#165));
#432=EDGE_LOOP('',(#166));
#433=EDGE_LOOP('',(#167));
#434=FACE_BOUND('',#388,.T.);
#435=FACE_BOUND('',#389,.T.);
#436=FACE_BOUND('',#390,.T.);
#437=FACE_BOUND('',#391,.T.);
#438=FACE_BOUND('',#392,.T.);
#439=FACE_BOUND('',#393,.T.);
#440=FACE_BOUND('',#394,.T.);
#441=FACE_BOUND('',#395,.T.);
#442=FACE_BOUND('',#396,.T.);
#443=FACE_BOUND('',#397,.T.);
#444=FACE_BOUND('',#398,.T.);
#445=FACE_BOUND('',#399,.T.);
#446=FACE_BOUND('',#400,.T.);
#447=FACE_BOUND('',#401,.T.);
#448=FACE_BOUND('',#402,.T.);
#449=FACE_BOUND('',#403,.T.);
#450=FACE_BOUND('',#404,.T.);
#451=FACE_BOUND('',#405,.T.);
#452=FACE_BOUND('',#406,.T.);
#453=FACE_BOUND('',#407,.T.);
#454=FACE_BOUND('',#408,.T.);
#455=FACE_BOUND('',#409,.T.);
#456=FACE_BOUND('',#410,.T.);
#457=FACE_BOUND('',#411,.T.);
#458=FACE_BOUND('',#412,.T.);
#459=FACE_BOUND('',#413,.T.);
#460=FACE_BOUND('',#414,.T.);
#461=FACE_BOUND('',#415,.T.);
#462=FACE_BOUND('',#416,.T.);
#463=FACE_BOUND('',#417,.T.);
#464=FACE_BOUND('',#418,.T.);
#465=FACE_BOUND('',#419,.T.);
#466=FACE_BOUND('',#420,.T.);
#467=FACE_BOUND('',#421,.T.);
#468=FACE_BOUND('',#422,.T.);
#469=FACE_BOUND('',#423,.T.);
#470=FACE_BOUND('',#424,.T.);
#471=FACE_BOUND('',#425,.T.);
#472=FACE_BOUND('',#426,.T.);
#473=FACE_BOUND('',#427,.T.);
#474=FACE_BOUND('',#428,.T.);
#475=FACE_BOUND('',#429,.T.);
#476=FACE_BOUND('',#430,.T.);
#477=FACE_BOUND('',#431,.T.);
#478=FACE_BOUND('',#432,.T.);
#479=FACE_BOUND('',#433,.T.);
#480=PLANE('',#544);
#481=PLANE('',#545);
#482=PLANE('',#546);
#483=PLANE('',#547);
#484=PLANE('',#548);
#485=PLANE('',#549);
#486=PLANE('',#550);
#487=PLANE('',#551);
#488=PLANE('',#563);
#489=PLANE('',#565);
#490=PLANE('',#566);
#491=PLANE('',#567);
#492=PLANE('',#569);
#493=PLANE('',#570);
#494=PLANE('',#571);
#495=PLANE('',#577);
#496=PLANE('',#579);
#497=PLANE('',#580);
#498=PLANE('',#581);
#499=PLANE('',#583);
#500=PLANE('',#584);
#501=PLANE('',#585);
#502=ADVANCED_FACE('',(#434),#480,.F.);
#503=ADVANCED_FACE('',(#435),#481,.F.);
#504=ADVANCED_FACE('',(#436),#482,.F.);
#505=ADVANCED_FACE('',(#437),#483,.T.);
#506=ADVANCED_FACE('',(#438),#484,.T.);
#507=ADVANCED_FACE('',(#439),#485,.T.);
#508=ADVANCED_FACE('',(#440),#486,.T.);
#509=ADVANCED_FACE('',(#441),#487,.T.);
#510=ADVANCED_FACE('',(#442,#443),#28,.F.);
#511=ADVANCED_FACE('',(#444,#445),#29,.F.);
#512=ADVANCED_FACE('',(#446,#447,#448),#30,.T.);
#513=ADVANCED_FACE('',(#449,#450),#488,.T.);
#514=ADVANCED_FACE('',(#451,#452),#489,.F.);
#515=ADVANCED_FACE('',(#453,#454),#490,.T.);
#516=ADVANCED_FACE('',(#455,#456),#491,.F.);
#517=ADVANCED_FACE('',(#457),#492,.F.);
#518=ADVANCED_FACE('',(#458),#493,.T.);
#519=ADVANCED_FACE('',(#459),#494,.T.);
#520=ADVANCED_FACE('',(#460,#461),#31,.F.);
#521=ADVANCED_FACE('',(#462,#463),#32,.F.);
#522=ADVANCED_FACE('',(#464,#465),#495,.F.);
#523=ADVANCED_FACE('',(#466,#467),#12,.F.);
#524=ADVANCED_FACE('',(#468),#496,.F.);
#525=ADVANCED_FACE('',(#469,#470),#497,.F.);
#526=ADVANCED_FACE('',(#471,#472),#498,.T.);
#527=ADVANCED_FACE('',(#473),#499,.F.);
#528=ADVANCED_FACE('',(#474,#475),#500,.T.);
#529=ADVANCED_FACE('',(#476,#477),#501,.F.);
#530=ADVANCED_FACE('',(#478,#479),#33,.F.);
#531=CLOSED_SHELL('',(#502,#503,#504,#505,#506,#507,#508,#509,#510,#511,
#512,#513,#514,#515,#516,#517,#518,#519,#520,#521,#522,#523,#524,#525,#526,
#527,#528,#529,#530));
#532=STYLED_ITEM('',(#533),#540);
#533=PRESENTATION_STYLE_ASSIGNMENT((#534));
#534=SURFACE_STYLE_USAGE(.BOTH.,#535);
#535=SURFACE_SIDE_STYLE('',(#536));
#536=SURFACE_STYLE_FILL_AREA(#537);
#537=FILL_AREA_STYLE('',(#538));
#538=FILL_AREA_STYLE_COLOUR('',#539);
#539=COLOUR_RGB('',0.768627450980392,0.886274509803922,0.952941176470588);
#540=MANIFOLD_SOLID_BREP('Servo Horn 3',#531);
#541=SHAPE_DEFINITION_REPRESENTATION(#882,#542);
#542=SHAPE_REPRESENTATION('Servo Horn 3',(#543),#877);
#543=AXIS2_PLACEMENT_3D('',#730,#588,#589);
#544=AXIS2_PLACEMENT_3D('',#731,#590,#591);
#545=AXIS2_PLACEMENT_3D('',#756,#604,#605);
#546=AXIS2_PLACEMENT_3D('',#762,#609,#610);
#547=AXIS2_PLACEMENT_3D('',#768,#614,#615);
#548=AXIS2_PLACEMENT_3D('',#774,#619,#620);
#549=AXIS2_PLACEMENT_3D('',#780,#624,#625);
#550=AXIS2_PLACEMENT_3D('',#786,#629,#630);
#551=AXIS2_PLACEMENT_3D('',#792,#634,#635);
#552=AXIS2_PLACEMENT_3D('',#811,#646,#647);
#553=AXIS2_PLACEMENT_3D('',#812,#648,#649);
#554=AXIS2_PLACEMENT_3D('',#814,#650,#651);
#555=AXIS2_PLACEMENT_3D('',#816,#652,#653);
#556=AXIS2_PLACEMENT_3D('',#817,#654,#655);
#557=AXIS2_PLACEMENT_3D('',#819,#656,#657);
#558=AXIS2_PLACEMENT_3D('',#821,#658,#659);
#559=AXIS2_PLACEMENT_3D('',#822,#660,#661);
#560=AXIS2_PLACEMENT_3D('',#823,#662,#663);
#561=AXIS2_PLACEMENT_3D('',#824,#664,#665);
#562=AXIS2_PLACEMENT_3D('',#826,#666,#667);
#563=AXIS2_PLACEMENT_3D('',#828,#668,#669);
#564=AXIS2_PLACEMENT_3D('',#829,#670,#671);
#565=AXIS2_PLACEMENT_3D('',#831,#672,#673);
#566=AXIS2_PLACEMENT_3D('',#832,#674,#675);
#567=AXIS2_PLACEMENT_3D('',#833,#676,#677);
#568=AXIS2_PLACEMENT_3D('',#834,#678,#679);
#569=AXIS2_PLACEMENT_3D('',#841,#683,#684);
#570=AXIS2_PLACEMENT_3D('',#845,#687,#688);
#571=AXIS2_PLACEMENT_3D('',#849,#691,#692);
#572=AXIS2_PLACEMENT_3D('',#851,#694,#695);
#573=AXIS2_PLACEMENT_3D('',#852,#696,#697);
#574=AXIS2_PLACEMENT_3D('',#854,#698,#699);
#575=AXIS2_PLACEMENT_3D('',#855,#700,#701);
#576=AXIS2_PLACEMENT_3D('',#857,#702,#703);
#577=AXIS2_PLACEMENT_3D('',#859,#704,#705);
#578=AXIS2_PLACEMENT_3D('',#860,#706,#707);
#579=AXIS2_PLACEMENT_3D('',#861,#708,#709);
#580=AXIS2_PLACEMENT_3D('',#864,#712,#713);
#581=AXIS2_PLACEMENT_3D('',#865,#714,#715);
#582=AXIS2_PLACEMENT_3D('',#866,#716,#717);
#583=AXIS2_PLACEMENT_3D('',#868,#718,#719);
#584=AXIS2_PLACEMENT_3D('',#871,#722,#723);
#585=AXIS2_PLACEMENT_3D('',#872,#724,#725);
#586=AXIS2_PLACEMENT_3D('',#873,#726,#727);
#587=AXIS2_PLACEMENT_3D('',#875,#728,#729);
#588=DIRECTION('',(0.,0.,1.));
#589=DIRECTION('',(1.,0.,0.));
#590=DIRECTION('',(0.854155284477009,0.165,0.493146783422542));
#591=DIRECTION('',(0.142894191624434,-0.986293566845085,0.082500000000001));
#592=DIRECTION('',(-0.142894191624434,0.986293566845085,-0.082500000000001));
#593=DIRECTION('',(0.5,0.,-0.866025403784439));
#594=DIRECTION('',(0.142894191624434,-0.986293566845085,0.082500000000001));
#595=DIRECTION('',(0.5,0.,-0.866025403784439));
#596=DIRECTION('',(0.142894191624434,-0.986293566845085,0.082500000000001));
#597=DIRECTION('',(0.5,0.,-0.866025403784439));
#598=DIRECTION('',(-0.142894191624434,0.986293566845085,-0.082500000000001));
#599=DIRECTION('',(-0.5,-1.91821539707517E-32,0.866025403784439));
#600=DIRECTION('',(-0.142894191624434,0.986293566845085,-0.082500000000001));
#601=DIRECTION('',(0.5,0.,-0.866025403784439));
#602=DIRECTION('',(-0.142894191624434,0.986293566845085,-0.082500000000001));
#603=DIRECTION('',(-0.5,-1.91821539707517E-32,0.866025403784439));
#604=DIRECTION('',(0.559575732139987,0.763216876123685,0.323071199583004));
#605=DIRECTION('',(0.660965203320112,-0.646142399166008,0.381608438061842));
#606=DIRECTION('',(-0.660965203320112,0.646142399166008,-0.381608438061842));
#607=DIRECTION('',(0.5,0.,-0.866025403784439));
#608=DIRECTION('',(0.660965203320112,-0.646142399166008,0.381608438061842));
#609=DIRECTION('',(0.559575732139987,0.763216876123685,0.323071199583004));
#610=DIRECTION('',(0.660965203320112,-0.646142399166008,0.381608438061842));
#611=DIRECTION('',(0.5,0.,-0.866025403784439));
#612=DIRECTION('',(-0.660965203320112,0.646142399166008,-0.381608438061842));
#613=DIRECTION('',(-0.660965203320112,0.646142399166008,-0.381608438061842));
#614=DIRECTION('',(0.,-1.,0.));
#615=DIRECTION('',(-0.866025403784439,0.,-0.5));
#616=DIRECTION('',(0.866025403784439,0.,0.5));
#617=DIRECTION('',(0.5,0.,-0.866025403784439));
#618=DIRECTION('',(-0.866025403784439,0.,-0.5));
#619=DIRECTION('',(0.,-1.,0.));
#620=DIRECTION('',(-0.866025403784439,0.,-0.5));
#621=DIRECTION('',(0.866025403784439,0.,0.5));
#622=DIRECTION('',(0.866025403784439,0.,0.5));
#623=DIRECTION('',(0.5,0.,-0.866025403784439));
#624=DIRECTION('',(0.559575732139985,-0.763216876123688,0.323071199583002));
#625=DIRECTION('',(-0.660965203320114,-0.646142399166004,-0.381608438061844));
#626=DIRECTION('',(0.660965203320114,0.646142399166004,0.381608438061844));
#627=DIRECTION('',(0.5,0.,-0.866025403784439));
#628=DIRECTION('',(-0.660965203320114,-0.646142399166004,-0.381608438061844));
#629=DIRECTION('',(0.559575732139985,-0.763216876123688,0.323071199583002));
#630=DIRECTION('',(-0.660965203320114,-0.646142399166004,-0.381608438061844));
#631=DIRECTION('',(0.660965203320114,0.646142399166004,0.381608438061844));
#632=DIRECTION('',(0.660965203320114,0.646142399166004,0.381608438061844));
#633=DIRECTION('',(0.5,0.,-0.866025403784439));
#634=DIRECTION('',(0.854155284477009,-0.165,0.493146783422543));
#635=DIRECTION('',(-0.142894191624432,-0.986293566845085,-0.0825));
#636=DIRECTION('',(0.142894191624432,0.986293566845085,0.0825));
#637=DIRECTION('',(-0.5,-1.91821539707517E-32,0.866025403784439));
#638=DIRECTION('',(0.142894191624432,0.986293566845085,0.0825));
#639=DIRECTION('',(0.142894191624432,0.986293566845085,0.0825));
#640=DIRECTION('',(-0.5,-1.91821539707517E-32,0.866025403784439));
#641=DIRECTION('',(0.142894191624432,0.986293566845085,0.0825));
#642=DIRECTION('',(0.5,0.,-0.866025403784439));
#643=DIRECTION('',(-0.142894191624432,-0.986293566845085,-0.0825));
#644=DIRECTION('',(0.5,0.,-0.866025403784439));
#645=DIRECTION('',(-0.142894191624432,-0.986293566845085,-0.0825));
#646=DIRECTION('',(0.5,0.,-0.866025403784439));
#647=DIRECTION('',(-0.866025403784439,0.,-0.5));
#648=DIRECTION('',(-0.5,0.,0.866025403784439));
#649=DIRECTION('',(0.866025403784439,0.,0.5));
#650=DIRECTION('',(0.5,0.,-0.866025403784439));
#651=DIRECTION('',(-0.866025403784439,0.,-0.5));
#652=DIRECTION('',(0.5,0.,-0.866025403784439));
#653=DIRECTION('',(-0.866025403784439,0.,-0.5));
#654=DIRECTION('',(-0.5,0.,0.866025403784439));
#655=DIRECTION('',(0.866025403784439,0.,0.5));
#656=DIRECTION('',(-0.5,0.,0.866025403784439));
#657=DIRECTION('',(0.866025403784439,0.,0.5));
#658=DIRECTION('',(0.5,0.,-0.866025403784439));
#659=DIRECTION('',(-0.866025403784439,0.,-0.5));
#660=DIRECTION('',(-0.5,0.,0.866025403784439));
#661=DIRECTION('',(0.866025403784439,0.,0.5));
#662=DIRECTION('',(-0.5,0.,0.866025403784439));
#663=DIRECTION('',(0.866025403784439,0.,0.5));
#664=DIRECTION('',(-0.5,0.,0.866025403784439));
#665=DIRECTION('',(0.866025403784439,0.,0.5));
#666=DIRECTION('',(-0.5,0.,0.866025403784439));
#667=DIRECTION('',(0.866025403784439,0.,0.5));
#668=DIRECTION('',(-0.5,0.,0.866025403784439));
#669=DIRECTION('',(0.,-1.,0.));
#670=DIRECTION('',(-0.5,0.,0.866025403784439));
#671=DIRECTION('',(0.866025403784439,0.,0.5));
#672=DIRECTION('',(-0.5,0.,0.866025403784439));
#673=DIRECTION('',(0.,-1.,0.));
#674=DIRECTION('',(-0.5,0.,0.866025403784439));
#675=DIRECTION('',(0.,-1.,0.));
#676=DIRECTION('',(-0.5,0.,0.866025403784439));
#677=DIRECTION('',(0.,-1.,0.));
#678=DIRECTION('',(-0.5,0.,0.866025403784439));
#679=DIRECTION('',(0.866025403784439,0.,0.5));
#680=DIRECTION('',(-0.660965203320114,-0.646142399166004,-0.381608438061844));
#681=DIRECTION('',(-0.866025403784439,0.,-0.5));
#682=DIRECTION('',(0.660965203320112,-0.646142399166008,0.381608438061842));
#683=DIRECTION('',(0.559575732139987,0.763216876123685,0.323071199583004));
#684=DIRECTION('',(0.660965203320112,-0.646142399166008,0.381608438061842));
#685=DIRECTION('',(0.5,0.,-0.866025403784439));
#686=DIRECTION('',(-0.660965203320112,0.646142399166008,-0.381608438061842));
#687=DIRECTION('',(0.,-1.,0.));
#688=DIRECTION('',(-0.866025403784439,0.,-0.5));
#689=DIRECTION('',(0.866025403784439,0.,0.5));
#690=DIRECTION('',(0.5,0.,-0.866025403784439));
#691=DIRECTION('',(0.559575732139985,-0.763216876123688,0.323071199583002));
#692=DIRECTION('',(-0.660965203320114,-0.646142399166004,-0.381608438061844));
#693=DIRECTION('',(0.660965203320114,0.646142399166004,0.381608438061844));
#694=DIRECTION('',(0.5,0.,-0.866025403784439));
#695=DIRECTION('',(-0.866025403784439,0.,-0.5));
#696=DIRECTION('',(0.5,0.,-0.866025403784439));
#697=DIRECTION('',(-0.866025403784439,0.,-0.5));
#698=DIRECTION('',(0.5,0.,-0.866025403784439));
#699=DIRECTION('',(-0.866025403784439,0.,-0.5));
#700=DIRECTION('',(-0.5,0.,0.866025403784439));
#701=DIRECTION('',(0.866025403784439,0.,0.5));
#702=DIRECTION('',(-0.5,0.,0.866025403784439));
#703=DIRECTION('',(0.866025403784439,0.,0.5));
#704=DIRECTION('',(-0.5,0.,0.866025403784439));
#705=DIRECTION('',(0.,-1.,0.));
#706=DIRECTION('',(-0.5,0.,0.866025403784439));
#707=DIRECTION('',(0.866025403784439,0.,0.5));
#708=DIRECTION('',(-2.71298347401742E-16,1.,-1.56634173903096E-16));
#709=DIRECTION('',(0.866025403784439,3.13268347806193E-16,0.5));
#710=DIRECTION('',(-0.866025403784439,-3.13268347806193E-16,-0.5));
#711=DIRECTION('',(-0.866025403784439,-3.13268347806193E-16,-0.5));
#712=DIRECTION('',(0.5,0.,-0.866025403784439));
#713=DIRECTION('',(-0.866025403784439,0.,-0.5));
#714=DIRECTION('',(0.5,0.,-0.866025403784439));
#715=DIRECTION('',(-0.866025403784439,0.,-0.5));
#716=DIRECTION('',(0.5,0.,-0.866025403784439));
#717=DIRECTION('',(-0.866025403784439,0.,-0.5));
#718=DIRECTION('',(-2.71298347401742E-16,1.,-1.56634173903096E-16));
#719=DIRECTION('',(0.866025403784439,3.13268347806193E-16,0.5));
#720=DIRECTION('',(-0.866025403784439,-3.13268347806193E-16,-0.5));
#721=DIRECTION('',(-0.866025403784439,-3.13268347806193E-16,-0.5));
#722=DIRECTION('',(0.5,0.,-0.866025403784439));
#723=DIRECTION('',(-0.866025403784439,0.,-0.5));
#724=DIRECTION('',(0.5,0.,-0.866025403784439));
#725=DIRECTION('',(-0.866025403784439,0.,-0.5));
#726=DIRECTION('',(0.5,0.,-0.866025403784439));
#727=DIRECTION('',(-0.866025403784439,0.,-0.5));
#728=DIRECTION('',(0.5,0.,-0.866025403784439));
#729=DIRECTION('',(-0.866025403784439,0.,-0.5));
#730=CARTESIAN_POINT('',(0.,0.,0.));
#731=CARTESIAN_POINT('',(-0.0338642587723565,-0.0253612581597896,-0.0126233356878517));
#732=CARTESIAN_POINT('',(-0.0332559254390232,-0.0253612581597896,-0.0136769999291228));
#733=CARTESIAN_POINT('',(-0.0317640951091855,-0.0356582663195792,-0.0128156912866057));
#734=CARTESIAN_POINT('',(-0.0325766206179083,-0.03005,-0.0132848031077902));
#735=CARTESIAN_POINT('',(-0.0323724284425188,-0.0356582663195792,-0.0117620270453346));
#736=CARTESIAN_POINT('',(-0.0323724284425188,-0.0356582663195792,-0.0117620270453346));
#737=CARTESIAN_POINT('',(-0.0338642587723565,-0.0253612581597896,-0.0126233356878517));
#738=CARTESIAN_POINT('',(-0.0353560891021943,-0.01506425,-0.0134846443303688));
#739=CARTESIAN_POINT('',(-0.0353560891021943,-0.01506425,-0.0134846443303688));
#740=CARTESIAN_POINT('',(-0.0323560891021943,-0.01506425,-0.0186807967530754));
#741=CARTESIAN_POINT('',(-0.0308642587723566,-0.0253612581597896,-0.0178194881105583));
#742=CARTESIAN_POINT('',(-0.0293724284425189,-0.0356582663195792,-0.0169581794680413));
#743=CARTESIAN_POINT('',(-0.0323724284425188,-0.0356582663195792,-0.0117620270453346));
#744=CARTESIAN_POINT('',(-0.0299807617758522,-0.0356582663195792,-0.0159045152267702));
#745=CARTESIAN_POINT('',(-0.0314725921056899,-0.0253612581597896,-0.0167658238692873));
#746=CARTESIAN_POINT('',(-0.030793287284575,-0.03005,-0.0163736270479548));
#747=CARTESIAN_POINT('',(-0.0331849539512416,-0.03005,-0.0122311388665192));
#748=CARTESIAN_POINT('',(-0.031393287284575,-0.03005,-0.0153343965634134));
#749=CARTESIAN_POINT('',(-0.0320725921056899,-0.0253612581597896,-0.015726593384746));
#750=CARTESIAN_POINT('',(-0.0305807617758522,-0.0356582663195792,-0.0148652847422289));
#751=CARTESIAN_POINT('',(-0.0323724284425188,-0.0356582663195792,-0.0117620270453346));
#752=CARTESIAN_POINT('',(-0.0311640951091855,-0.0356582663195792,-0.013854921771147));
#753=CARTESIAN_POINT('',(-0.0326559254390233,-0.0253612581597896,-0.0147162304136641));
#754=CARTESIAN_POINT('',(-0.0319766206179083,-0.03005,-0.0143240335923316));
#755=CARTESIAN_POINT('',(-0.0331849539512416,-0.03005,-0.0122311388665192));
#756=CARTESIAN_POINT('',(-0.0316094510735585,-0.0364041331597896,-0.0113215218559798));
#757=CARTESIAN_POINT('',(-0.0310011177402252,-0.0364041331597896,-0.0123751860972509));
#758=CARTESIAN_POINT('',(-0.0302381403712649,-0.03715,-0.011934680907896));
#759=CARTESIAN_POINT('',(-0.0308464737045982,-0.03715,-0.010881016666625));
#760=CARTESIAN_POINT('',(-0.0308464737045982,-0.03715,-0.010881016666625));
#761=CARTESIAN_POINT('',(-0.0316094510735585,-0.0364041331597896,-0.0113215218559798));
#762=CARTESIAN_POINT('',(-0.0316094510735585,-0.0364041331597896,-0.0113215218559798));
#763=CARTESIAN_POINT('',(-0.0308464737045982,-0.03715,-0.010881016666625));
#764=CARTESIAN_POINT('',(-0.0296381403712649,-0.03715,-0.0129739113924374));
#765=CARTESIAN_POINT('',(-0.0290548070379315,-0.03715,-0.0139842743635192));
#766=CARTESIAN_POINT('',(-0.0304011177402252,-0.0364041331597896,-0.0134144165817922));
#767=CARTESIAN_POINT('',(-0.0298177844068919,-0.0364041331597896,-0.014424779552874));
#768=CARTESIAN_POINT('',(-0.0298467875173176,-0.03715,-0.0103038475772934));
#769=CARTESIAN_POINT('',(-0.0292384541839842,-0.03715,-0.0113575118185644));
#770=CARTESIAN_POINT('',(-0.0282387679967036,-0.03715,-0.0107803427292328));
#771=CARTESIAN_POINT('',(-0.0288471013300369,-0.03715,-0.00972667848796174));
#772=CARTESIAN_POINT('',(-0.0288471013300369,-0.03715,-0.00972667848796174));
#773=CARTESIAN_POINT('',(-0.0298467875173176,-0.03715,-0.0103038475772934));
#774=CARTESIAN_POINT('',(-0.0298467875173176,-0.03715,-0.0103038475772934));
#775=CARTESIAN_POINT('',(-0.0286384541839842,-0.03715,-0.0123967423031057));
#776=CARTESIAN_POINT('',(-0.0276387679967036,-0.03715,-0.0118195732137741));
#777=CARTESIAN_POINT('',(-0.0280551208506509,-0.03715,-0.0134071052741876));
#778=CARTESIAN_POINT('',(-0.0270554346633703,-0.03715,-0.012829936184856));
#779=CARTESIAN_POINT('',(-0.0288471013300369,-0.03715,-0.00972667848796174));
#780=CARTESIAN_POINT('',(-0.0280841239610767,-0.0364041331597896,-0.00928617329860692));
#781=CARTESIAN_POINT('',(-0.0274757906277433,-0.0364041331597896,-0.010339837539878));
#782=CARTESIAN_POINT('',(-0.026712813258783,-0.0356582663195792,-0.00989933235052314));
#783=CARTESIAN_POINT('',(-0.0273211465921163,-0.0356582663195792,-0.00884566810925208));
#784=CARTESIAN_POINT('',(-0.0273211465921163,-0.0356582663195792,-0.00884566810925208));
#785=CARTESIAN_POINT('',(-0.0280841239610767,-0.0364041331597896,-0.00928617329860692));
#786=CARTESIAN_POINT('',(-0.0280841239610767,-0.0364041331597896,-0.00928617329860692));
#787=CARTESIAN_POINT('',(-0.0268757906277433,-0.0364041331597896,-0.0113790680244193));
#788=CARTESIAN_POINT('',(-0.026112813258783,-0.0356582663195792,-0.0109385628350645));
#789=CARTESIAN_POINT('',(-0.02629245729441,-0.0364041331597896,-0.0123894309955011));
#790=CARTESIAN_POINT('',(-0.0255294799254496,-0.0356582663195792,-0.0119489258061463));
#791=CARTESIAN_POINT('',(-0.0273211465921163,-0.0356582663195792,-0.00884566810925208));
#792=CARTESIAN_POINT('',(-0.0258293162622786,-0.0253612581597896,-0.00798435946673502));
#793=CARTESIAN_POINT('',(-0.0252209829289453,-0.0253612581597896,-0.00903802370800608));
#794=CARTESIAN_POINT('',(-0.0259002877500602,-0.03005,-0.00943022052933861));
#795=CARTESIAN_POINT('',(-0.0265086210833935,-0.03005,-0.00837655628806754));
#796=CARTESIAN_POINT('',(-0.0253002877500602,-0.03005,-0.0104694510138799));
#797=CARTESIAN_POINT('',(-0.0246209829289453,-0.0253612581597896,-0.0100772541925474));
#798=CARTESIAN_POINT('',(-0.0240376495956119,-0.0253612581597896,-0.0110876171636293));
#799=CARTESIAN_POINT('',(-0.0247169544167269,-0.03005,-0.0114798139849618));
#800=CARTESIAN_POINT('',(-0.0265086210833935,-0.03005,-0.00837655628806754));
#801=CARTESIAN_POINT('',(-0.0241169544167269,-0.03005,-0.0125190444695031));
#802=CARTESIAN_POINT('',(-0.023437649595612,-0.0253612581597896,-0.0121268476481706));
#803=CARTESIAN_POINT('',(-0.0249294799254496,-0.0356582663195792,-0.0129881562906876));
#804=CARTESIAN_POINT('',(-0.0273211465921163,-0.0356582663195792,-0.00884566810925208));
#805=CARTESIAN_POINT('',(-0.0243211465921164,-0.0356582663195792,-0.0140418205319587));
#806=CARTESIAN_POINT('',(-0.0228293162622786,-0.0253612581597896,-0.0131805118894416));
#807=CARTESIAN_POINT('',(-0.0213374859324409,-0.01506425,-0.0123192032469246));
#808=CARTESIAN_POINT('',(-0.0243374859324409,-0.01506425,-0.00712305082421797));
#809=CARTESIAN_POINT('',(-0.0243374859324409,-0.01506425,-0.00712305082421797));
#810=CARTESIAN_POINT('',(-0.0258293162622786,-0.0253612581597896,-0.00798435946673502));
#811=CARTESIAN_POINT('',(-0.0298467875173176,-0.034,-0.0103038475772934));
#812=CARTESIAN_POINT('',(-0.0298467875173176,-0.034,-0.0103038475772934));
#813=CARTESIAN_POINT('',(-0.0285044481414517,-0.034,-0.00952884757729336));
#814=CARTESIAN_POINT('',(-0.0292384541839842,-0.034,-0.0113575118185644));
#815=CARTESIAN_POINT('',(-0.0305807935598501,-0.034,-0.0121325118185644));
#816=CARTESIAN_POINT('',(-0.0305267875173176,-0.014,-0.00912605302814653));
#817=CARTESIAN_POINT('',(-0.0265267875173176,-0.014,-0.0160542562584221));
#818=CARTESIAN_POINT('',(-0.0239287113059643,-0.014,-0.0145542562584221));
#819=CARTESIAN_POINT('',(-0.0279717875173176,-0.014,-0.013551442841485));
#820=CARTESIAN_POINT('',(-0.0253737113059643,-0.014,-0.012051442841485));
#821=CARTESIAN_POINT('',(-0.0305267875173176,-0.014,-0.00912605302814653));
#822=CARTESIAN_POINT('',(-0.0298467875173176,-0.014,-0.0103038475772934));
#823=CARTESIAN_POINT('',(-0.0268467875173176,-0.014,-0.0155));
#824=CARTESIAN_POINT('',(-0.0305267875173176,-0.014,-0.00912605302814653));
#825=CARTESIAN_POINT('',(-0.024940923662908,-0.014,-0.00590105302814653));
#826=CARTESIAN_POINT('',(-0.0265267875173176,-0.014,-0.0160542562584221));
#827=CARTESIAN_POINT('',(-0.020940923662908,-0.014,-0.0128292562584221));
#828=CARTESIAN_POINT('',(-0.0305267875173176,-0.02235,-0.00912605302814653));
#829=CARTESIAN_POINT('',(-0.0305267875173176,-0.014,-0.00912605302814653));
#830=CARTESIAN_POINT('',(-0.0268375192971959,-0.014,-0.00699605302814653));
#831=CARTESIAN_POINT('',(-0.0265267875173176,-0.02235,-0.0160542562584221));
#832=CARTESIAN_POINT('',(-0.0298467875173176,-0.02235,-0.0103038475772934));
#833=CARTESIAN_POINT('',(-0.0268467875173176,-0.02235,-0.0155));
#834=CARTESIAN_POINT('',(-0.0268467875173176,-0.034,-0.0155));
#835=CARTESIAN_POINT('',(-0.0255044481414517,-0.034,-0.014725));
#836=CARTESIAN_POINT('',(-0.0250841239610767,-0.0364041331597896,-0.0144823257213135));
#837=CARTESIAN_POINT('',(-0.0258471013300369,-0.03715,-0.0149228309106684));
#838=CARTESIAN_POINT('',(-0.0268467875173176,-0.03715,-0.0155));
#839=CARTESIAN_POINT('',(-0.0278464737045982,-0.03715,-0.0160771690893316));
#840=CARTESIAN_POINT('',(-0.0286094510735585,-0.0364041331597896,-0.0165176742786865));
#841=CARTESIAN_POINT('',(-0.0316094510735585,-0.0364041331597896,-0.0113215218559798));
#842=CARTESIAN_POINT('',(-0.0308464737045982,-0.03715,-0.010881016666625));
#843=CARTESIAN_POINT('',(-0.0284548070379315,-0.03715,-0.0150235048480606));
#844=CARTESIAN_POINT('',(-0.0292177844068919,-0.0364041331597896,-0.0154640100374153));
#845=CARTESIAN_POINT('',(-0.0298467875173176,-0.03715,-0.0103038475772934));
#846=CARTESIAN_POINT('',(-0.0274551208506509,-0.03715,-0.0144463357587289));
#847=CARTESIAN_POINT('',(-0.0264554346633703,-0.03715,-0.0138691666693973));
#848=CARTESIAN_POINT('',(-0.0288471013300369,-0.03715,-0.00972667848796174));
#849=CARTESIAN_POINT('',(-0.0280841239610767,-0.0364041331597896,-0.00928617329860692));
#850=CARTESIAN_POINT('',(-0.02569245729441,-0.0364041331597896,-0.0134286614800425));
#851=CARTESIAN_POINT('',(-0.0298467875173176,-0.034,-0.0103038475772934));
#852=CARTESIAN_POINT('',(-0.0274551208506509,-0.034,-0.0144463357587289));
#853=CARTESIAN_POINT('',(-0.0287974602265168,-0.034,-0.0152213357587289));
#854=CARTESIAN_POINT('',(-0.0305277875173176,-0.014,-0.00912432097733896));
#855=CARTESIAN_POINT('',(-0.0292217875173176,-0.014,-0.0113863793320239));
#856=CARTESIAN_POINT('',(-0.0277928456010733,-0.014,-0.0105613793320239));
#857=CARTESIAN_POINT('',(-0.0279717875173176,-0.014,-0.013551442841485));
#858=CARTESIAN_POINT('',(-0.0265428456010733,-0.014,-0.012726442841485));
#859=CARTESIAN_POINT('',(-0.0279717875173176,-0.02235,-0.013551442841485));
#860=CARTESIAN_POINT('',(-0.0292217875173176,-0.014,-0.0113863793320239));
#861=CARTESIAN_POINT('',(-0.023769671942435,-0.03005,-0.0116257205164583));
#862=CARTESIAN_POINT('',(-0.023469671942435,-0.03005,-0.0121453357587289));
#863=CARTESIAN_POINT('',(-0.024069671942435,-0.03005,-0.0111061052741876));
#864=CARTESIAN_POINT('',(-0.023469671942435,-0.034025,-0.0121453357587289));
#865=CARTESIAN_POINT('',(-0.024069671942435,-0.034025,-0.0111061052741876));
#866=CARTESIAN_POINT('',(-0.0280551208506509,-0.034,-0.0134071052741876));
#867=CARTESIAN_POINT('',(-0.0293974602265168,-0.034,-0.0141821052741876));
#868=CARTESIAN_POINT('',(-0.0249530052757682,-0.03005,-0.0095761270608351));
#869=CARTESIAN_POINT('',(-0.0246530052757683,-0.03005,-0.0100957423031058));
#870=CARTESIAN_POINT('',(-0.0252530052757683,-0.03005,-0.00905651181856443));
#871=CARTESIAN_POINT('',(-0.0252530052757683,-0.034025,-0.00905651181856443));
#872=CARTESIAN_POINT('',(-0.0246530052757683,-0.034025,-0.0100957423031058));
#873=CARTESIAN_POINT('',(-0.0286384541839842,-0.034,-0.0123967423031058));
#874=CARTESIAN_POINT('',(-0.0299807935598501,-0.034,-0.0131717423031058));
#875=CARTESIAN_POINT('',(-0.0298467875173176,-0.034,-0.0103038475772934));
#876=MECHANICAL_DESIGN_GEOMETRIC_PRESENTATION_REPRESENTATION('',(#532),
#877);
#877=(
GEOMETRIC_REPRESENTATION_CONTEXT(3)
GLOBAL_UNCERTAINTY_ASSIGNED_CONTEXT((#878))
GLOBAL_UNIT_ASSIGNED_CONTEXT((#881,#880,#879))
REPRESENTATION_CONTEXT('Servo Horn 3','TOP_LEVEL_ASSEMBLY_PART')
);
#878=UNCERTAINTY_MEASURE_WITH_UNIT(LENGTH_MEASURE(1.E-8),#881,
'DISTANCE_ACCURACY_VALUE','Maximum Tolerance applied to model');
#879=(
NAMED_UNIT(*)
SI_UNIT($,.STERADIAN.)
SOLID_ANGLE_UNIT()
);
#880=(
NAMED_UNIT(*)
PLANE_ANGLE_UNIT()
SI_UNIT($,.RADIAN.)
);
#881=(
LENGTH_UNIT()
NAMED_UNIT(*)
SI_UNIT($,.METRE.)
);
#882=PRODUCT_DEFINITION_SHAPE('','',#883);
#883=PRODUCT_DEFINITION('','',#885,#884);
#884=PRODUCT_DEFINITION_CONTEXT('',#891,'design');
#885=PRODUCT_DEFINITION_FORMATION_WITH_SPECIFIED_SOURCE('','',#887,
 .NOT_KNOWN.);
#886=PRODUCT_RELATED_PRODUCT_CATEGORY('','',(#887));
#887=PRODUCT('Servo Horn 3','Servo Horn 3','Servo Horn 3',(#889));
#888=PRODUCT_CATEGORY('','');
#889=PRODUCT_CONTEXT('',#891,'mechanical');
#890=APPLICATION_PROTOCOL_DEFINITION('international standard',
'ap242_managed_model_based_3d_engineering',2020,#891);
#891=APPLICATION_CONTEXT('managed model based 3d engineering');
ENDSEC;
END-ISO-10303-21;
