ISO-10303-21;
HEADER;
/* Generated by software containing ST-Developer
 * from STEP Tools, Inc. (www.steptools.com) 
 */
/* OPTION: using custom renumber hook */

FILE_DESCRIPTION(
/* description */ ('STEP AP242 Edition 2',
'CAx-IF Rec.Pracs.---Representation and Presentation of Product Manufa
cturing Information (PMI)---4.0---2014-10-13',
'CAx-IF Rec.Pracs.---3D Tessellated Geometry---0.4---2014-09-14','2;1',
'CAx-IF Rec.Pracs.---User Defined Attributes---1.5---2016-08-15'),
/* implementation_level */ '2;1');

FILE_NAME(
/* name */ 'Candy launcher - Cap',
/* time_stamp */ '2026-08-31T07:11:54Z',
/* author */ (''),
/* organization */ (''),
/* preprocessor_version */ 'ST-DEVELOPER v20',
/* originating_system */ 'ONSHAPE BY PTC INC, 1.220',
/* authorisation */ '  ');

FILE_SCHEMA (('AP242_MANAGED_MODEL_BASED_3D_ENGINEERING_MIM_LF { 1 0 10303 442 3 1 4 }'));
ENDSEC;

DATA;
#10=SHAPE_REPRESENTATION_RELATIONSHIP('','',#701,#11);
#11=ADVANCED_BREP_SHAPE_REPRESENTATION('',(#699),#1214);
#12=CONICAL_SURFACE('',#772,0.0102,0.523598775598286);
#13=CONICAL_SURFACE('',#775,0.0016,0.785398163397446);
#14=CONICAL_SURFACE('',#776,0.0016,0.785398163397446);
#15=CONICAL_SURFACE('',#777,0.0016,0.78539816339745);
#16=B_SPLINE_CURVE_WITH_KNOTS('',3,(#1151,#1152,#1153,#1154,#1155,#1156),
 .UNSPECIFIED.,.F.,.F.,(4,1,1,4),(0.,0.000773712658847292,0.00154742531769458,
0.00309485063538917),.UNSPECIFIED.);
#17=PLANE('',#707);
#18=PLANE('',#715);
#19=PLANE('',#730);
#20=PLANE('',#737);
#21=PLANE('',#742);
#22=PLANE('',#761);
#23=PLANE('',#765);
#24=PLANE('',#766);
#25=PLANE('',#767);
#26=PLANE('',#770);
#27=PLANE('',#771);
#28=PLANE('',#774);
#29=PLANE('',#782);
#30=PLANE('',#787);
#31=LINE('',#1014,#78);
#32=LINE('',#1018,#79);
#33=LINE('',#1020,#80);
#34=LINE('',#1024,#81);
#35=LINE('',#1026,#82);
#36=LINE('',#1028,#83);
#37=LINE('',#1032,#84);
#38=LINE('',#1038,#85);
#39=LINE('',#1043,#86);
#40=LINE('',#1047,#87);
#41=LINE('',#1049,#88);
#42=LINE('',#1051,#89);
#43=LINE('',#1055,#90);
#44=LINE('',#1061,#91);
#45=LINE('',#1067,#92);
#46=LINE('',#1072,#93);
#47=LINE('',#1076,#94);
#48=LINE('',#1080,#95);
#49=LINE('',#1082,#96);
#50=LINE('',#1084,#97);
#51=LINE('',#1088,#98);
#52=LINE('',#1094,#99);
#53=LINE('',#1101,#100);
#54=LINE('',#1102,#101);
#55=LINE('',#1104,#102);
#56=LINE('',#1105,#103);
#57=LINE('',#1107,#104);
#58=LINE('',#1109,#105);
#59=LINE('',#1111,#106);
#60=LINE('',#1117,#107);
#61=LINE('',#1121,#108);
#62=LINE('',#1123,#109);
#63=LINE('',#1125,#110);
#64=LINE('',#1129,#111);
#65=LINE('',#1163,#112);
#66=LINE('',#1165,#113);
#67=LINE('',#1167,#114);
#68=LINE('',#1174,#115);
#69=LINE('',#1177,#116);
#70=LINE('',#1179,#117);
#71=LINE('',#1183,#118);
#72=LINE('',#1185,#119);
#73=LINE('',#1195,#120);
#74=LINE('',#1199,#121);
#75=LINE('',#1203,#122);
#76=LINE('',#1205,#123);
#77=LINE('',#1207,#124);
#78=VECTOR('',#796,1.);
#79=VECTOR('',#799,1.);
#80=VECTOR('',#802,1.);
#81=VECTOR('',#805,1.);
#82=VECTOR('',#806,1.);
#83=VECTOR('',#807,1.);
#84=VECTOR('',#810,1.);
#85=VECTOR('',#817,1.);
#86=VECTOR('',#820,1.);
#87=VECTOR('',#825,1.);
#88=VECTOR('',#826,1.);
#89=VECTOR('',#827,1.);
#90=VECTOR('',#832,1.);
#91=VECTOR('',#839,1.);
#92=VECTOR('',#846,1.);
#93=VECTOR('',#853,1.);
#94=VECTOR('',#858,1.);
#95=VECTOR('',#863,1.);
#96=VECTOR('',#864,1.);
#97=VECTOR('',#867,1.);
#98=VECTOR('',#870,1.);
#99=VECTOR('',#877,1.);
#100=VECTOR('',#884,1.);
#101=VECTOR('',#885,1.);
#102=VECTOR('',#886,1.);
#103=VECTOR('',#887,1.);
#104=VECTOR('',#888,1.);
#105=VECTOR('',#889,1.);
#106=VECTOR('',#890,1.);
#107=VECTOR('',#895,1.);
#108=VECTOR('',#900,1.);
#109=VECTOR('',#901,1.);
#110=VECTOR('',#902,1.);
#111=VECTOR('',#907,1.);
#112=VECTOR('',#942,1.);
#113=VECTOR('',#943,1.);
#114=VECTOR('',#944,1.);
#115=VECTOR('',#953,1.);
#116=VECTOR('',#958,1.);
#117=VECTOR('',#959,1.);
#118=VECTOR('',#964,1.);
#119=VECTOR('',#967,1.);
#120=VECTOR('',#984,1.);
#121=VECTOR('',#989,1.);
#122=VECTOR('',#994,1.);
#123=VECTOR('',#995,1.);
#124=VECTOR('',#998,1.);
#125=ORIENTED_EDGE('',*,*,#315,.T.);
#126=ORIENTED_EDGE('',*,*,#316,.T.);
#127=ORIENTED_EDGE('',*,*,#317,.F.);
#128=ORIENTED_EDGE('',*,*,#318,.T.);
#129=ORIENTED_EDGE('',*,*,#319,.T.);
#130=ORIENTED_EDGE('',*,*,#320,.F.);
#131=ORIENTED_EDGE('',*,*,#321,.T.);
#132=ORIENTED_EDGE('',*,*,#322,.T.);
#133=ORIENTED_EDGE('',*,*,#323,.T.);
#134=ORIENTED_EDGE('',*,*,#324,.F.);
#135=ORIENTED_EDGE('',*,*,#325,.F.);
#136=ORIENTED_EDGE('',*,*,#326,.F.);
#137=ORIENTED_EDGE('',*,*,#327,.T.);
#138=ORIENTED_EDGE('',*,*,#328,.F.);
#139=ORIENTED_EDGE('',*,*,#316,.F.);
#140=ORIENTED_EDGE('',*,*,#329,.T.);
#141=ORIENTED_EDGE('',*,*,#330,.F.);
#142=ORIENTED_EDGE('',*,*,#331,.F.);
#143=ORIENTED_EDGE('',*,*,#332,.T.);
#144=ORIENTED_EDGE('',*,*,#331,.T.);
#145=ORIENTED_EDGE('',*,*,#333,.T.);
#146=ORIENTED_EDGE('',*,*,#334,.F.);
#147=ORIENTED_EDGE('',*,*,#335,.F.);
#148=ORIENTED_EDGE('',*,*,#334,.T.);
#149=ORIENTED_EDGE('',*,*,#336,.T.);
#150=ORIENTED_EDGE('',*,*,#337,.F.);
#151=ORIENTED_EDGE('',*,*,#338,.F.);
#152=ORIENTED_EDGE('',*,*,#337,.T.);
#153=ORIENTED_EDGE('',*,*,#339,.F.);
#154=ORIENTED_EDGE('',*,*,#340,.F.);
#155=ORIENTED_EDGE('',*,*,#341,.T.);
#156=ORIENTED_EDGE('',*,*,#340,.T.);
#157=ORIENTED_EDGE('',*,*,#342,.T.);
#158=ORIENTED_EDGE('',*,*,#343,.F.);
#159=ORIENTED_EDGE('',*,*,#344,.F.);
#160=ORIENTED_EDGE('',*,*,#343,.T.);
#161=ORIENTED_EDGE('',*,*,#345,.F.);
#162=ORIENTED_EDGE('',*,*,#317,.T.);
#163=ORIENTED_EDGE('',*,*,#328,.T.);
#164=ORIENTED_EDGE('',*,*,#346,.F.);
#165=ORIENTED_EDGE('',*,*,#347,.T.);
#166=ORIENTED_EDGE('',*,*,#327,.F.);
#167=ORIENTED_EDGE('',*,*,#348,.F.);
#168=ORIENTED_EDGE('',*,*,#349,.T.);
#169=ORIENTED_EDGE('',*,*,#346,.T.);
#170=ORIENTED_EDGE('',*,*,#326,.T.);
#171=ORIENTED_EDGE('',*,*,#350,.F.);
#172=ORIENTED_EDGE('',*,*,#351,.F.);
#173=ORIENTED_EDGE('',*,*,#348,.T.);
#174=ORIENTED_EDGE('',*,*,#350,.T.);
#175=ORIENTED_EDGE('',*,*,#325,.T.);
#176=ORIENTED_EDGE('',*,*,#352,.F.);
#177=ORIENTED_EDGE('',*,*,#353,.F.);
#178=ORIENTED_EDGE('',*,*,#354,.F.);
#179=ORIENTED_EDGE('',*,*,#355,.T.);
#180=ORIENTED_EDGE('',*,*,#354,.T.);
#181=ORIENTED_EDGE('',*,*,#356,.T.);
#182=ORIENTED_EDGE('',*,*,#357,.F.);
#183=ORIENTED_EDGE('',*,*,#358,.F.);
#184=ORIENTED_EDGE('',*,*,#359,.F.);
#185=ORIENTED_EDGE('',*,*,#360,.T.);
#186=ORIENTED_EDGE('',*,*,#357,.T.);
#187=ORIENTED_EDGE('',*,*,#361,.T.);
#188=ORIENTED_EDGE('',*,*,#362,.T.);
#189=ORIENTED_EDGE('',*,*,#323,.F.);
#190=ORIENTED_EDGE('',*,*,#363,.F.);
#191=ORIENTED_EDGE('',*,*,#364,.F.);
#192=ORIENTED_EDGE('',*,*,#365,.F.);
#193=ORIENTED_EDGE('',*,*,#366,.T.);
#194=ORIENTED_EDGE('',*,*,#367,.F.);
#195=ORIENTED_EDGE('',*,*,#368,.F.);
#196=ORIENTED_EDGE('',*,*,#369,.T.);
#197=ORIENTED_EDGE('',*,*,#370,.F.);
#198=ORIENTED_EDGE('',*,*,#365,.T.);
#199=ORIENTED_EDGE('',*,*,#371,.F.);
#200=ORIENTED_EDGE('',*,*,#372,.F.);
#201=ORIENTED_EDGE('',*,*,#373,.T.);
#202=ORIENTED_EDGE('',*,*,#372,.T.);
#203=ORIENTED_EDGE('',*,*,#374,.F.);
#204=ORIENTED_EDGE('',*,*,#375,.F.);
#205=ORIENTED_EDGE('',*,*,#376,.T.);
#206=ORIENTED_EDGE('',*,*,#377,.T.);
#207=ORIENTED_EDGE('',*,*,#378,.F.);
#208=ORIENTED_EDGE('',*,*,#379,.T.);
#209=ORIENTED_EDGE('',*,*,#380,.F.);
#210=ORIENTED_EDGE('',*,*,#375,.T.);
#211=ORIENTED_EDGE('',*,*,#381,.T.);
#212=ORIENTED_EDGE('',*,*,#329,.F.);
#213=ORIENTED_EDGE('',*,*,#382,.F.);
#214=ORIENTED_EDGE('',*,*,#383,.F.);
#215=ORIENTED_EDGE('',*,*,#384,.F.);
#216=ORIENTED_EDGE('',*,*,#385,.T.);
#217=ORIENTED_EDGE('',*,*,#386,.T.);
#218=ORIENTED_EDGE('',*,*,#387,.F.);
#219=ORIENTED_EDGE('',*,*,#388,.F.);
#220=ORIENTED_EDGE('',*,*,#389,.T.);
#221=ORIENTED_EDGE('',*,*,#390,.F.);
#222=ORIENTED_EDGE('',*,*,#366,.F.);
#223=ORIENTED_EDGE('',*,*,#373,.F.);
#224=ORIENTED_EDGE('',*,*,#376,.F.);
#225=ORIENTED_EDGE('',*,*,#382,.T.);
#226=ORIENTED_EDGE('',*,*,#332,.F.);
#227=ORIENTED_EDGE('',*,*,#335,.T.);
#228=ORIENTED_EDGE('',*,*,#338,.T.);
#229=ORIENTED_EDGE('',*,*,#341,.F.);
#230=ORIENTED_EDGE('',*,*,#344,.T.);
#231=ORIENTED_EDGE('',*,*,#347,.F.);
#232=ORIENTED_EDGE('',*,*,#349,.F.);
#233=ORIENTED_EDGE('',*,*,#351,.T.);
#234=ORIENTED_EDGE('',*,*,#355,.F.);
#235=ORIENTED_EDGE('',*,*,#358,.T.);
#236=ORIENTED_EDGE('',*,*,#360,.F.);
#237=ORIENTED_EDGE('',*,*,#391,.T.);
#238=ORIENTED_EDGE('',*,*,#392,.T.);
#239=ORIENTED_EDGE('',*,*,#384,.T.);
#240=ORIENTED_EDGE('',*,*,#393,.T.);
#241=ORIENTED_EDGE('',*,*,#352,.T.);
#242=ORIENTED_EDGE('',*,*,#324,.T.);
#243=ORIENTED_EDGE('',*,*,#362,.F.);
#244=ORIENTED_EDGE('',*,*,#394,.F.);
#245=ORIENTED_EDGE('',*,*,#356,.F.);
#246=ORIENTED_EDGE('',*,*,#353,.T.);
#247=ORIENTED_EDGE('',*,*,#394,.T.);
#248=ORIENTED_EDGE('',*,*,#361,.F.);
#249=ORIENTED_EDGE('',*,*,#378,.T.);
#250=ORIENTED_EDGE('',*,*,#395,.T.);
#251=ORIENTED_EDGE('',*,*,#320,.T.);
#252=ORIENTED_EDGE('',*,*,#319,.F.);
#253=ORIENTED_EDGE('',*,*,#396,.F.);
#254=ORIENTED_EDGE('',*,*,#321,.F.);
#255=ORIENTED_EDGE('',*,*,#395,.F.);
#256=ORIENTED_EDGE('',*,*,#397,.T.);
#257=ORIENTED_EDGE('',*,*,#398,.T.);
#258=ORIENTED_EDGE('',*,*,#322,.F.);
#259=ORIENTED_EDGE('',*,*,#398,.F.);
#260=ORIENTED_EDGE('',*,*,#399,.T.);
#261=ORIENTED_EDGE('',*,*,#363,.T.);
#262=ORIENTED_EDGE('',*,*,#387,.T.);
#263=ORIENTED_EDGE('',*,*,#380,.T.);
#264=ORIENTED_EDGE('',*,*,#318,.F.);
#265=ORIENTED_EDGE('',*,*,#345,.T.);
#266=ORIENTED_EDGE('',*,*,#342,.F.);
#267=ORIENTED_EDGE('',*,*,#339,.T.);
#268=ORIENTED_EDGE('',*,*,#336,.F.);
#269=ORIENTED_EDGE('',*,*,#333,.F.);
#270=ORIENTED_EDGE('',*,*,#330,.T.);
#271=ORIENTED_EDGE('',*,*,#381,.F.);
#272=ORIENTED_EDGE('',*,*,#374,.T.);
#273=ORIENTED_EDGE('',*,*,#371,.T.);
#274=ORIENTED_EDGE('',*,*,#364,.T.);
#275=ORIENTED_EDGE('',*,*,#399,.F.);
#276=ORIENTED_EDGE('',*,*,#397,.F.);
#277=ORIENTED_EDGE('',*,*,#396,.T.);
#278=ORIENTED_EDGE('',*,*,#315,.F.);
#279=ORIENTED_EDGE('',*,*,#400,.T.);
#280=ORIENTED_EDGE('',*,*,#400,.F.);
#281=ORIENTED_EDGE('',*,*,#383,.T.);
#282=ORIENTED_EDGE('',*,*,#391,.F.);
#283=ORIENTED_EDGE('',*,*,#377,.F.);
#284=ORIENTED_EDGE('',*,*,#392,.F.);
#285=ORIENTED_EDGE('',*,*,#379,.F.);
#286=ORIENTED_EDGE('',*,*,#385,.F.);
#287=ORIENTED_EDGE('',*,*,#393,.F.);
#288=ORIENTED_EDGE('',*,*,#386,.F.);
#289=ORIENTED_EDGE('',*,*,#388,.T.);
#290=ORIENTED_EDGE('',*,*,#359,.T.);
#291=ORIENTED_EDGE('',*,*,#401,.F.);
#292=ORIENTED_EDGE('',*,*,#402,.F.);
#293=ORIENTED_EDGE('',*,*,#370,.T.);
#294=ORIENTED_EDGE('',*,*,#403,.F.);
#295=ORIENTED_EDGE('',*,*,#404,.F.);
#296=ORIENTED_EDGE('',*,*,#401,.T.);
#297=ORIENTED_EDGE('',*,*,#369,.F.);
#298=ORIENTED_EDGE('',*,*,#405,.F.);
#299=ORIENTED_EDGE('',*,*,#406,.T.);
#300=ORIENTED_EDGE('',*,*,#403,.T.);
#301=ORIENTED_EDGE('',*,*,#368,.T.);
#302=ORIENTED_EDGE('',*,*,#407,.F.);
#303=ORIENTED_EDGE('',*,*,#408,.F.);
#304=ORIENTED_EDGE('',*,*,#405,.T.);
#305=ORIENTED_EDGE('',*,*,#390,.T.);
#306=ORIENTED_EDGE('',*,*,#409,.F.);
#307=ORIENTED_EDGE('',*,*,#407,.T.);
#308=ORIENTED_EDGE('',*,*,#367,.T.);
#309=ORIENTED_EDGE('',*,*,#402,.T.);
#310=ORIENTED_EDGE('',*,*,#404,.T.);
#311=ORIENTED_EDGE('',*,*,#406,.F.);
#312=ORIENTED_EDGE('',*,*,#408,.T.);
#313=ORIENTED_EDGE('',*,*,#409,.T.);
#314=ORIENTED_EDGE('',*,*,#389,.F.);
#315=EDGE_CURVE('',#410,#410,#477,.T.);
#316=EDGE_CURVE('',#411,#412,#478,.T.);
#317=EDGE_CURVE('',#413,#412,#31,.T.);
#318=EDGE_CURVE('',#413,#414,#479,.T.);
#319=EDGE_CURVE('',#414,#411,#32,.T.);
#320=EDGE_CURVE('',#415,#411,#33,.T.);
#321=EDGE_CURVE('',#415,#416,#480,.T.);
#322=EDGE_CURVE('',#416,#417,#34,.T.);
#323=EDGE_CURVE('',#417,#418,#35,.T.);
#324=EDGE_CURVE('',#419,#418,#36,.T.);
#325=EDGE_CURVE('',#420,#419,#481,.T.);
#326=EDGE_CURVE('',#421,#420,#37,.T.);
#327=EDGE_CURVE('',#421,#422,#482,.T.);
#328=EDGE_CURVE('',#412,#422,#483,.T.);
#329=EDGE_CURVE('',#423,#424,#38,.T.);
#330=EDGE_CURVE('',#425,#424,#484,.F.);
#331=EDGE_CURVE('',#426,#425,#39,.T.);
#332=EDGE_CURVE('',#426,#423,#485,.T.);
#333=EDGE_CURVE('',#425,#427,#40,.T.);
#334=EDGE_CURVE('',#428,#427,#41,.T.);
#335=EDGE_CURVE('',#426,#428,#42,.T.);
#336=EDGE_CURVE('',#427,#429,#486,.F.);
#337=EDGE_CURVE('',#430,#429,#43,.T.);
#338=EDGE_CURVE('',#428,#430,#487,.T.);
#339=EDGE_CURVE('',#431,#429,#488,.F.);
#340=EDGE_CURVE('',#432,#431,#44,.T.);
#341=EDGE_CURVE('',#432,#430,#489,.T.);
#342=EDGE_CURVE('',#431,#433,#490,.F.);
#343=EDGE_CURVE('',#434,#433,#45,.T.);
#344=EDGE_CURVE('',#432,#434,#491,.T.);
#345=EDGE_CURVE('',#413,#433,#492,.F.);
#346=EDGE_CURVE('',#435,#422,#46,.T.);
#347=EDGE_CURVE('',#435,#434,#493,.T.);
#348=EDGE_CURVE('',#436,#421,#47,.T.);
#349=EDGE_CURVE('',#436,#435,#494,.T.);
#350=EDGE_CURVE('',#437,#420,#48,.T.);
#351=EDGE_CURVE('',#436,#437,#49,.T.);
#352=EDGE_CURVE('',#438,#419,#50,.T.);
#353=EDGE_CURVE('',#439,#438,#495,.F.);
#354=EDGE_CURVE('',#440,#439,#51,.T.);
#355=EDGE_CURVE('',#440,#437,#496,.T.);
#356=EDGE_CURVE('',#439,#441,#497,.F.);
#357=EDGE_CURVE('',#442,#441,#52,.T.);
#358=EDGE_CURVE('',#440,#442,#498,.T.);
#359=EDGE_CURVE('',#443,#444,#499,.T.);
#360=EDGE_CURVE('',#443,#442,#53,.T.);
#361=EDGE_CURVE('',#441,#445,#54,.T.);
#362=EDGE_CURVE('',#445,#418,#55,.T.);
#363=EDGE_CURVE('',#446,#417,#56,.T.);
#364=EDGE_CURVE('',#447,#446,#57,.T.);
#365=EDGE_CURVE('',#448,#447,#58,.T.);
#366=EDGE_CURVE('',#448,#449,#59,.T.);
#367=EDGE_CURVE('',#450,#449,#500,.T.);
#368=EDGE_CURVE('',#451,#450,#501,.T.);
#369=EDGE_CURVE('',#451,#452,#60,.T.);
#370=EDGE_CURVE('',#444,#452,#502,.T.);
#371=EDGE_CURVE('',#453,#447,#61,.T.);
#372=EDGE_CURVE('',#454,#453,#62,.T.);
#373=EDGE_CURVE('',#454,#448,#63,.T.);
#374=EDGE_CURVE('',#455,#453,#503,.F.);
#375=EDGE_CURVE('',#456,#455,#64,.T.);
#376=EDGE_CURVE('',#456,#454,#504,.T.);
#377=EDGE_CURVE('',#457,#457,#505,.T.);
#378=EDGE_CURVE('',#458,#458,#506,.F.);
#379=EDGE_CURVE('',#459,#459,#507,.T.);
#380=EDGE_CURVE('',#460,#460,#508,.F.);
#381=EDGE_CURVE('',#455,#424,#509,.F.);
#382=EDGE_CURVE('',#456,#423,#510,.T.);
#383=EDGE_CURVE('',#461,#461,#511,.T.);
#384=EDGE_CURVE('',#462,#463,#512,.T.);
#385=EDGE_CURVE('',#462,#463,#16,.T.);
#386=EDGE_CURVE('',#464,#464,#513,.T.);
#387=EDGE_CURVE('',#465,#465,#514,.F.);
#388=EDGE_CURVE('',#466,#443,#65,.T.);
#389=EDGE_CURVE('',#466,#467,#66,.T.);
#390=EDGE_CURVE('',#449,#467,#67,.F.);
#391=EDGE_CURVE('',#468,#468,#515,.F.);
#392=EDGE_CURVE('',#469,#469,#516,.F.);
#393=EDGE_CURVE('',#463,#462,#517,.F.);
#394=EDGE_CURVE('',#438,#445,#68,.T.);
#395=EDGE_CURVE('',#470,#415,#69,.T.);
#396=EDGE_CURVE('',#470,#414,#70,.T.);
#397=EDGE_CURVE('',#470,#471,#518,.F.);
#398=EDGE_CURVE('',#471,#416,#71,.T.);
#399=EDGE_CURVE('',#471,#446,#72,.T.);
#400=EDGE_CURVE('',#472,#472,#519,.T.);
#401=EDGE_CURVE('',#473,#444,#73,.T.);
#402=EDGE_CURVE('',#466,#473,#520,.T.);
#403=EDGE_CURVE('',#474,#452,#74,.T.);
#404=EDGE_CURVE('',#473,#474,#521,.T.);
#405=EDGE_CURVE('',#475,#451,#75,.T.);
#406=EDGE_CURVE('',#475,#474,#76,.T.);
#407=EDGE_CURVE('',#476,#450,#77,.T.);
#408=EDGE_CURVE('',#475,#476,#522,.T.);
#409=EDGE_CURVE('',#476,#467,#523,.T.);
#410=VERTEX_POINT('',#1010);
#411=VERTEX_POINT('',#1012);
#412=VERTEX_POINT('',#1013);
#413=VERTEX_POINT('',#1015);
#414=VERTEX_POINT('',#1017);
#415=VERTEX_POINT('',#1021);
#416=VERTEX_POINT('',#1023);
#417=VERTEX_POINT('',#1025);
#418=VERTEX_POINT('',#1027);
#419=VERTEX_POINT('',#1029);
#420=VERTEX_POINT('',#1031);
#421=VERTEX_POINT('',#1033);
#422=VERTEX_POINT('',#1035);
#423=VERTEX_POINT('',#1039);
#424=VERTEX_POINT('',#1040);
#425=VERTEX_POINT('',#1042);
#426=VERTEX_POINT('',#1044);
#427=VERTEX_POINT('',#1048);
#428=VERTEX_POINT('',#1050);
#429=VERTEX_POINT('',#1054);
#430=VERTEX_POINT('',#1056);
#431=VERTEX_POINT('',#1060);
#432=VERTEX_POINT('',#1062);
#433=VERTEX_POINT('',#1066);
#434=VERTEX_POINT('',#1068);
#435=VERTEX_POINT('',#1073);
#436=VERTEX_POINT('',#1077);
#437=VERTEX_POINT('',#1081);
#438=VERTEX_POINT('',#1085);
#439=VERTEX_POINT('',#1087);
#440=VERTEX_POINT('',#1089);
#441=VERTEX_POINT('',#1093);
#442=VERTEX_POINT('',#1095);
#443=VERTEX_POINT('',#1099);
#444=VERTEX_POINT('',#1100);
#445=VERTEX_POINT('',#1103);
#446=VERTEX_POINT('',#1106);
#447=VERTEX_POINT('',#1108);
#448=VERTEX_POINT('',#1110);
#449=VERTEX_POINT('',#1112);
#450=VERTEX_POINT('',#1114);
#451=VERTEX_POINT('',#1116);
#452=VERTEX_POINT('',#1118);
#453=VERTEX_POINT('',#1122);
#454=VERTEX_POINT('',#1124);
#455=VERTEX_POINT('',#1128);
#456=VERTEX_POINT('',#1130);
#457=VERTEX_POINT('',#1134);
#458=VERTEX_POINT('',#1136);
#459=VERTEX_POINT('',#1139);
#460=VERTEX_POINT('',#1141);
#461=VERTEX_POINT('',#1147);
#462=VERTEX_POINT('',#1149);
#463=VERTEX_POINT('',#1150);
#464=VERTEX_POINT('',#1159);
#465=VERTEX_POINT('',#1161);
#466=VERTEX_POINT('',#1164);
#467=VERTEX_POINT('',#1166);
#468=VERTEX_POINT('',#1169);
#469=VERTEX_POINT('',#1171);
#470=VERTEX_POINT('',#1178);
#471=VERTEX_POINT('',#1182);
#472=VERTEX_POINT('',#1189);
#473=VERTEX_POINT('',#1196);
#474=VERTEX_POINT('',#1200);
#475=VERTEX_POINT('',#1204);
#476=VERTEX_POINT('',#1208);
#477=CIRCLE('',#704,0.0092);
#478=CIRCLE('',#705,0.0092);
#479=CIRCLE('',#706,0.0092);
#480=CIRCLE('',#708,0.003);
#481=CIRCLE('',#709,0.003);
#482=CIRCLE('',#710,0.0112);
#483=CIRCLE('',#711,0.00300000000000061);
#484=CIRCLE('',#713,0.00299999999999963);
#485=CIRCLE('',#714,0.00299999999999963);
#486=CIRCLE('',#717,0.0112);
#487=CIRCLE('',#718,0.0112);
#488=CIRCLE('',#720,0.00300000000000066);
#489=CIRCLE('',#721,0.00300000000000066);
#490=CIRCLE('',#723,0.00375);
#491=CIRCLE('',#724,0.00375);
#492=CIRCLE('',#726,0.00300000000000061);
#493=CIRCLE('',#727,0.00300000000000061);
#494=CIRCLE('',#729,0.0112);
#495=CIRCLE('',#732,0.003);
#496=CIRCLE('',#733,0.00299999999999971);
#497=CIRCLE('',#735,0.00375);
#498=CIRCLE('',#736,0.00375);
#499=CIRCLE('',#738,0.0102788461538462);
#500=CIRCLE('',#739,0.0102788461538462);
#501=CIRCLE('',#740,0.00150000000000009);
#502=CIRCLE('',#741,0.00150000000000009);
#503=CIRCLE('',#744,0.003);
#504=CIRCLE('',#745,0.003);
#505=CIRCLE('',#747,0.0016);
#506=CIRCLE('',#748,0.0016);
#507=CIRCLE('',#750,0.0016);
#508=CIRCLE('',#751,0.0016);
#509=CIRCLE('',#753,0.00375);
#510=CIRCLE('',#754,0.00375);
#511=CIRCLE('',#756,0.0092);
#512=CIRCLE('',#757,0.0092);
#513=CIRCLE('',#759,0.0016);
#514=CIRCLE('',#760,0.0016);
#515=CIRCLE('',#762,0.00313);
#516=CIRCLE('',#763,0.00313);
#517=CIRCLE('',#764,0.00313);
#518=CIRCLE('',#769,0.003);
#519=CIRCLE('',#773,0.0102);
#520=CIRCLE('',#779,0.0102788461538462);
#521=CIRCLE('',#781,0.00150000000000009);
#522=CIRCLE('',#784,0.00150000000000009);
#523=CIRCLE('',#786,0.0102788461538462);
#524=EDGE_LOOP('',(#125));
#525=EDGE_LOOP('',(#126,#127,#128,#129));
#526=EDGE_LOOP('',(#130,#131,#132,#133,#134,#135,#136,#137,#138,#139));
#527=EDGE_LOOP('',(#140,#141,#142,#143));
#528=EDGE_LOOP('',(#144,#145,#146,#147));
#529=EDGE_LOOP('',(#148,#149,#150,#151));
#530=EDGE_LOOP('',(#152,#153,#154,#155));
#531=EDGE_LOOP('',(#156,#157,#158,#159));
#532=EDGE_LOOP('',(#160,#161,#162,#163,#164,#165));
#533=EDGE_LOOP('',(#166,#167,#168,#169));
#534=EDGE_LOOP('',(#170,#171,#172,#173));
#535=EDGE_LOOP('',(#174,#175,#176,#177,#178,#179));
#536=EDGE_LOOP('',(#180,#181,#182,#183));
#537=EDGE_LOOP('',(#184,#185,#186,#187,#188,#189,#190,#191,#192,#193,#194,
#195,#196,#197));
#538=EDGE_LOOP('',(#198,#199,#200,#201));
#539=EDGE_LOOP('',(#202,#203,#204,#205));
#540=EDGE_LOOP('',(#206));
#541=EDGE_LOOP('',(#207));
#542=EDGE_LOOP('',(#208));
#543=EDGE_LOOP('',(#209));
#544=EDGE_LOOP('',(#210,#211,#212,#213));
#545=EDGE_LOOP('',(#214));
#546=EDGE_LOOP('',(#215,#216));
#547=EDGE_LOOP('',(#217));
#548=EDGE_LOOP('',(#218));
#549=EDGE_LOOP('',(#219,#220,#221,#222,#223,#224,#225,#226,#227,#228,#229,
#230,#231,#232,#233,#234,#235,#236));
#550=EDGE_LOOP('',(#237));
#551=EDGE_LOOP('',(#238));
#552=EDGE_LOOP('',(#239,#240));
#553=EDGE_LOOP('',(#241,#242,#243,#244));
#554=EDGE_LOOP('',(#245,#246,#247,#248));
#555=EDGE_LOOP('',(#249));
#556=EDGE_LOOP('',(#250,#251,#252,#253));
#557=EDGE_LOOP('',(#254,#255,#256,#257));
#558=EDGE_LOOP('',(#258,#259,#260,#261));
#559=EDGE_LOOP('',(#262));
#560=EDGE_LOOP('',(#263));
#561=EDGE_LOOP('',(#264,#265,#266,#267,#268,#269,#270,#271,#272,#273,#274,
#275,#276,#277));
#562=EDGE_LOOP('',(#278));
#563=EDGE_LOOP('',(#279));
#564=EDGE_LOOP('',(#280));
#565=EDGE_LOOP('',(#281));
#566=EDGE_LOOP('',(#282));
#567=EDGE_LOOP('',(#283));
#568=EDGE_LOOP('',(#284));
#569=EDGE_LOOP('',(#285));
#570=EDGE_LOOP('',(#286,#287));
#571=EDGE_LOOP('',(#288));
#572=EDGE_LOOP('',(#289,#290,#291,#292));
#573=EDGE_LOOP('',(#293,#294,#295,#296));
#574=EDGE_LOOP('',(#297,#298,#299,#300));
#575=EDGE_LOOP('',(#301,#302,#303,#304));
#576=EDGE_LOOP('',(#305,#306,#307,#308));
#577=EDGE_LOOP('',(#309,#310,#311,#312,#313,#314));
#578=FACE_BOUND('',#524,.T.);
#579=FACE_BOUND('',#525,.T.);
#580=FACE_BOUND('',#526,.T.);
#581=FACE_BOUND('',#527,.T.);
#582=FACE_BOUND('',#528,.T.);
#583=FACE_BOUND('',#529,.T.);
#584=FACE_BOUND('',#530,.T.);
#585=FACE_BOUND('',#531,.T.);
#586=FACE_BOUND('',#532,.T.);
#587=FACE_BOUND('',#533,.T.);
#588=FACE_BOUND('',#534,.T.);
#589=FACE_BOUND('',#535,.T.);
#590=FACE_BOUND('',#536,.T.);
#591=FACE_BOUND('',#537,.T.);
#592=FACE_BOUND('',#538,.T.);
#593=FACE_BOUND('',#539,.T.);
#594=FACE_BOUND('',#540,.T.);
#595=FACE_BOUND('',#541,.T.);
#596=FACE_BOUND('',#542,.T.);
#597=FACE_BOUND('',#543,.T.);
#598=FACE_BOUND('',#544,.T.);
#599=FACE_BOUND('',#545,.T.);
#600=FACE_BOUND('',#546,.T.);
#601=FACE_BOUND('',#547,.T.);
#602=FACE_BOUND('',#548,.T.);
#603=FACE_BOUND('',#549,.T.);
#604=FACE_BOUND('',#550,.T.);
#605=FACE_BOUND('',#551,.T.);
#606=FACE_BOUND('',#552,.T.);
#607=FACE_BOUND('',#553,.T.);
#608=FACE_BOUND('',#554,.T.);
#609=FACE_BOUND('',#555,.T.);
#610=FACE_BOUND('',#556,.T.);
#611=FACE_BOUND('',#557,.T.);
#612=FACE_BOUND('',#558,.T.);
#613=FACE_BOUND('',#559,.T.);
#614=FACE_BOUND('',#560,.T.);
#615=FACE_BOUND('',#561,.T.);
#616=FACE_BOUND('',#562,.T.);
#617=FACE_BOUND('',#563,.T.);
#618=FACE_BOUND('',#564,.T.);
#619=FACE_BOUND('',#565,.T.);
#620=FACE_BOUND('',#566,.T.);
#621=FACE_BOUND('',#567,.T.);
#622=FACE_BOUND('',#568,.T.);
#623=FACE_BOUND('',#569,.T.);
#624=FACE_BOUND('',#570,.T.);
#625=FACE_BOUND('',#571,.T.);
#626=FACE_BOUND('',#572,.T.);
#627=FACE_BOUND('',#573,.T.);
#628=FACE_BOUND('',#574,.T.);
#629=FACE_BOUND('',#575,.T.);
#630=FACE_BOUND('',#576,.T.);
#631=FACE_BOUND('',#577,.T.);
#632=CYLINDRICAL_SURFACE('',#703,0.0092);
#633=CYLINDRICAL_SURFACE('',#712,0.00299999999999963);
#634=CYLINDRICAL_SURFACE('',#716,0.0112);
#635=CYLINDRICAL_SURFACE('',#719,0.00300000000000066);
#636=CYLINDRICAL_SURFACE('',#722,0.00375);
#637=CYLINDRICAL_SURFACE('',#725,0.00300000000000061);
#638=CYLINDRICAL_SURFACE('',#728,0.0112);
#639=CYLINDRICAL_SURFACE('',#731,0.00299999999999971);
#640=CYLINDRICAL_SURFACE('',#734,0.00375);
#641=CYLINDRICAL_SURFACE('',#743,0.003);
#642=CYLINDRICAL_SURFACE('',#746,0.0016);
#643=CYLINDRICAL_SURFACE('',#749,0.0016);
#644=CYLINDRICAL_SURFACE('',#752,0.00375);
#645=CYLINDRICAL_SURFACE('',#755,0.0092);
#646=CYLINDRICAL_SURFACE('',#758,0.0016);
#647=CYLINDRICAL_SURFACE('',#768,0.003);
#648=CYLINDRICAL_SURFACE('',#778,0.0102788461538462);
#649=CYLINDRICAL_SURFACE('',#780,0.00150000000000009);
#650=CYLINDRICAL_SURFACE('',#783,0.00150000000000009);
#651=CYLINDRICAL_SURFACE('',#785,0.0102788461538462);
#652=ADVANCED_FACE('',(#578,#579),#632,.F.);
#653=ADVANCED_FACE('',(#580),#17,.F.);
#654=ADVANCED_FACE('',(#581),#633,.F.);
#655=ADVANCED_FACE('',(#582),#18,.F.);
#656=ADVANCED_FACE('',(#583),#634,.T.);
#657=ADVANCED_FACE('',(#584),#635,.F.);
#658=ADVANCED_FACE('',(#585),#636,.T.);
#659=ADVANCED_FACE('',(#586),#637,.F.);
#660=ADVANCED_FACE('',(#587),#638,.T.);
#661=ADVANCED_FACE('',(#588),#19,.F.);
#662=ADVANCED_FACE('',(#589),#639,.F.);
#663=ADVANCED_FACE('',(#590),#640,.T.);
#664=ADVANCED_FACE('',(#591),#20,.T.);
#665=ADVANCED_FACE('',(#592),#21,.T.);
#666=ADVANCED_FACE('',(#593),#641,.F.);
#667=ADVANCED_FACE('',(#594,#595),#642,.F.);
#668=ADVANCED_FACE('',(#596,#597),#643,.F.);
#669=ADVANCED_FACE('',(#598),#644,.T.);
#670=ADVANCED_FACE('',(#599,#600),#645,.F.);
#671=ADVANCED_FACE('',(#601,#602),#646,.F.);
#672=ADVANCED_FACE('',(#603,#604,#605,#606),#22,.T.);
#673=ADVANCED_FACE('',(#607),#23,.F.);
#674=ADVANCED_FACE('',(#608,#609),#24,.T.);
#675=ADVANCED_FACE('',(#610),#25,.F.);
#676=ADVANCED_FACE('',(#611),#647,.T.);
#677=ADVANCED_FACE('',(#612),#26,.T.);
#678=ADVANCED_FACE('',(#613,#614,#615),#27,.T.);
#679=ADVANCED_FACE('',(#616,#617),#12,.F.);
#680=ADVANCED_FACE('',(#618,#619),#28,.F.);
#681=ADVANCED_FACE('',(#620,#621),#13,.F.);
#682=ADVANCED_FACE('',(#622,#623),#14,.F.);
#683=ADVANCED_FACE('',(#624,#625),#15,.F.);
#684=ADVANCED_FACE('',(#626),#648,.F.);
#685=ADVANCED_FACE('',(#627),#649,.F.);
#686=ADVANCED_FACE('',(#628),#29,.T.);
#687=ADVANCED_FACE('',(#629),#650,.F.);
#688=ADVANCED_FACE('',(#630),#651,.F.);
#689=ADVANCED_FACE('',(#631),#30,.T.);
#690=CLOSED_SHELL('',(#652,#653,#654,#655,#656,#657,#658,#659,#660,#661,
#662,#663,#664,#665,#666,#667,#668,#669,#670,#671,#672,#673,#674,#675,#676,
#677,#678,#679,#680,#681,#682,#683,#684,#685,#686,#687,#688,#689));
#691=STYLED_ITEM('',(#692),#699);
#692=PRESENTATION_STYLE_ASSIGNMENT((#693));
#693=SURFACE_STYLE_USAGE(.BOTH.,#694);
#694=SURFACE_SIDE_STYLE('',(#695));
#695=SURFACE_STYLE_FILL_AREA(#696);
#696=FILL_AREA_STYLE('',(#697));
#697=FILL_AREA_STYLE_COLOUR('',#698);
#698=COLOUR_RGB('',0.972549019607843,0.529411764705882,0.00392156862745098);
#699=MANIFOLD_SOLID_BREP('Cap',#690);
#700=SHAPE_DEFINITION_REPRESENTATION(#1219,#701);
#701=SHAPE_REPRESENTATION('Cap',(#702),#1214);
#702=AXIS2_PLACEMENT_3D('',#1007,#788,#789);
#703=AXIS2_PLACEMENT_3D('',#1008,#790,#791);
#704=AXIS2_PLACEMENT_3D('',#1009,#792,#793);
#705=AXIS2_PLACEMENT_3D('',#1011,#794,#795);
#706=AXIS2_PLACEMENT_3D('',#1016,#797,#798);
#707=AXIS2_PLACEMENT_3D('',#1019,#800,#801);
#708=AXIS2_PLACEMENT_3D('',#1022,#803,#804);
#709=AXIS2_PLACEMENT_3D('',#1030,#808,#809);
#710=AXIS2_PLACEMENT_3D('',#1034,#811,#812);
#711=AXIS2_PLACEMENT_3D('',#1036,#813,#814);
#712=AXIS2_PLACEMENT_3D('',#1037,#815,#816);
#713=AXIS2_PLACEMENT_3D('',#1041,#818,#819);
#714=AXIS2_PLACEMENT_3D('',#1045,#821,#822);
#715=AXIS2_PLACEMENT_3D('',#1046,#823,#824);
#716=AXIS2_PLACEMENT_3D('',#1052,#828,#829);
#717=AXIS2_PLACEMENT_3D('',#1053,#830,#831);
#718=AXIS2_PLACEMENT_3D('',#1057,#833,#834);
#719=AXIS2_PLACEMENT_3D('',#1058,#835,#836);
#720=AXIS2_PLACEMENT_3D('',#1059,#837,#838);
#721=AXIS2_PLACEMENT_3D('',#1063,#840,#841);
#722=AXIS2_PLACEMENT_3D('',#1064,#842,#843);
#723=AXIS2_PLACEMENT_3D('',#1065,#844,#845);
#724=AXIS2_PLACEMENT_3D('',#1069,#847,#848);
#725=AXIS2_PLACEMENT_3D('',#1070,#849,#850);
#726=AXIS2_PLACEMENT_3D('',#1071,#851,#852);
#727=AXIS2_PLACEMENT_3D('',#1074,#854,#855);
#728=AXIS2_PLACEMENT_3D('',#1075,#856,#857);
#729=AXIS2_PLACEMENT_3D('',#1078,#859,#860);
#730=AXIS2_PLACEMENT_3D('',#1079,#861,#862);
#731=AXIS2_PLACEMENT_3D('',#1083,#865,#866);
#732=AXIS2_PLACEMENT_3D('',#1086,#868,#869);
#733=AXIS2_PLACEMENT_3D('',#1090,#871,#872);
#734=AXIS2_PLACEMENT_3D('',#1091,#873,#874);
#735=AXIS2_PLACEMENT_3D('',#1092,#875,#876);
#736=AXIS2_PLACEMENT_3D('',#1096,#878,#879);
#737=AXIS2_PLACEMENT_3D('',#1097,#880,#881);
#738=AXIS2_PLACEMENT_3D('',#1098,#882,#883);
#739=AXIS2_PLACEMENT_3D('',#1113,#891,#892);
#740=AXIS2_PLACEMENT_3D('',#1115,#893,#894);
#741=AXIS2_PLACEMENT_3D('',#1119,#896,#897);
#742=AXIS2_PLACEMENT_3D('',#1120,#898,#899);
#743=AXIS2_PLACEMENT_3D('',#1126,#903,#904);
#744=AXIS2_PLACEMENT_3D('',#1127,#905,#906);
#745=AXIS2_PLACEMENT_3D('',#1131,#908,#909);
#746=AXIS2_PLACEMENT_3D('',#1132,#910,#911);
#747=AXIS2_PLACEMENT_3D('',#1133,#912,#913);
#748=AXIS2_PLACEMENT_3D('',#1135,#914,#915);
#749=AXIS2_PLACEMENT_3D('',#1137,#916,#917);
#750=AXIS2_PLACEMENT_3D('',#1138,#918,#919);
#751=AXIS2_PLACEMENT_3D('',#1140,#920,#921);
#752=AXIS2_PLACEMENT_3D('',#1142,#922,#923);
#753=AXIS2_PLACEMENT_3D('',#1143,#924,#925);
#754=AXIS2_PLACEMENT_3D('',#1144,#926,#927);
#755=AXIS2_PLACEMENT_3D('',#1145,#928,#929);
#756=AXIS2_PLACEMENT_3D('',#1146,#930,#931);
#757=AXIS2_PLACEMENT_3D('',#1148,#932,#933);
#758=AXIS2_PLACEMENT_3D('',#1157,#934,#935);
#759=AXIS2_PLACEMENT_3D('',#1158,#936,#937);
#760=AXIS2_PLACEMENT_3D('',#1160,#938,#939);
#761=AXIS2_PLACEMENT_3D('',#1162,#940,#941);
#762=AXIS2_PLACEMENT_3D('',#1168,#945,#946);
#763=AXIS2_PLACEMENT_3D('',#1170,#947,#948);
#764=AXIS2_PLACEMENT_3D('',#1172,#949,#950);
#765=AXIS2_PLACEMENT_3D('',#1173,#951,#952);
#766=AXIS2_PLACEMENT_3D('',#1175,#954,#955);
#767=AXIS2_PLACEMENT_3D('',#1176,#956,#957);
#768=AXIS2_PLACEMENT_3D('',#1180,#960,#961);
#769=AXIS2_PLACEMENT_3D('',#1181,#962,#963);
#770=AXIS2_PLACEMENT_3D('',#1184,#965,#966);
#771=AXIS2_PLACEMENT_3D('',#1186,#968,#969);
#772=AXIS2_PLACEMENT_3D('',#1187,#970,#971);
#773=AXIS2_PLACEMENT_3D('',#1188,#972,#973);
#774=AXIS2_PLACEMENT_3D('',#1190,#974,#975);
#775=AXIS2_PLACEMENT_3D('',#1191,#976,#977);
#776=AXIS2_PLACEMENT_3D('',#1192,#978,#979);
#777=AXIS2_PLACEMENT_3D('',#1193,#980,#981);
#778=AXIS2_PLACEMENT_3D('',#1194,#982,#983);
#779=AXIS2_PLACEMENT_3D('',#1197,#985,#986);
#780=AXIS2_PLACEMENT_3D('',#1198,#987,#988);
#781=AXIS2_PLACEMENT_3D('',#1201,#990,#991);
#782=AXIS2_PLACEMENT_3D('',#1202,#992,#993);
#783=AXIS2_PLACEMENT_3D('',#1206,#996,#997);
#784=AXIS2_PLACEMENT_3D('',#1209,#999,#1000);
#785=AXIS2_PLACEMENT_3D('',#1210,#1001,#1002);
#786=AXIS2_PLACEMENT_3D('',#1211,#1003,#1004);
#787=AXIS2_PLACEMENT_3D('',#1212,#1005,#1006);
#788=DIRECTION('',(0.,0.,1.));
#789=DIRECTION('',(1.,0.,0.));
#790=DIRECTION('',(0.,0.258819045102521,0.965925826289068));
#791=DIRECTION('',(0.,-0.965925826289068,0.258819045102521));
#792=DIRECTION('',(0.,-0.258819045102522,-0.965925826289068));
#793=DIRECTION('',(0.,0.965925826289068,-0.258819045102522));
#794=DIRECTION('',(0.,0.258819045102521,0.965925826289068));
#795=DIRECTION('',(0.,0.965925826289068,-0.258819045102521));
#796=DIRECTION('',(0.,-0.258819045102521,-0.965925826289068));
#797=DIRECTION('',(0.,0.258819045102521,0.965925826289068));
#798=DIRECTION('',(0.,-0.965925826289068,0.258819045102521));
#799=DIRECTION('',(0.,-0.258819045102521,-0.965925826289068));
#800=DIRECTION('',(0.,-0.258819045102521,-0.965925826289068));
#801=DIRECTION('',(1.,0.,0.));
#802=DIRECTION('',(0.,-0.965925826289068,0.258819045102521));
#803=DIRECTION('',(0.,-0.258819045102521,-0.965925826289068));
#804=DIRECTION('',(0.,0.965925826289068,-0.258819045102521));
#805=DIRECTION('',(1.57353221384466E-16,0.965925826289068,-0.258819045102521));
#806=DIRECTION('',(-1.,0.,0.));
#807=DIRECTION('',(3.5683600312292E-16,0.965925826289068,-0.258819045102521));
#808=DIRECTION('',(0.,-0.258819045102521,-0.965925826289068));
#809=DIRECTION('',(0.,0.965925826289068,-0.258819045102521));
#810=DIRECTION('',(0.00530692198971831,0.965912224305445,-0.258815400461993));
#811=DIRECTION('',(0.,0.258819045102521,0.965925826289068));
#812=DIRECTION('',(0.,0.965925826289068,-0.258819045102521));
#813=DIRECTION('',(0.,-0.258819045102521,-0.965925826289068));
#814=DIRECTION('',(0.,0.965925826289068,-0.258819045102521));
#815=DIRECTION('',(0.,0.258819045102521,0.965925826289068));
#816=DIRECTION('',(0.,-0.965925826289068,0.258819045102521));
#817=DIRECTION('',(0.,0.258819045102521,0.965925826289068));
#818=DIRECTION('',(0.,0.258819045102521,0.965925826289068));
#819=DIRECTION('',(0.,-0.965925826289068,0.258819045102521));
#820=DIRECTION('',(0.,0.258819045102521,0.965925826289068));
#821=DIRECTION('',(0.,-0.258819045102521,-0.965925826289068));
#822=DIRECTION('',(0.,0.965925826289068,-0.258819045102521));
#823=DIRECTION('',(-1.,0.,0.));
#824=DIRECTION('',(0.,0.,1.));
#825=DIRECTION('',(0.,-0.965925826289068,0.258819045102521));
#826=DIRECTION('',(0.,0.258819045102521,0.965925826289068));
#827=DIRECTION('',(0.,-0.965925826289068,0.258819045102521));
#828=DIRECTION('',(0.,0.258819045102521,0.965925826289068));
#829=DIRECTION('',(0.,-0.965925826289068,0.258819045102521));
#830=DIRECTION('',(0.,0.258819045102521,0.965925826289068));
#831=DIRECTION('',(0.,-0.965925826289068,0.258819045102521));
#832=DIRECTION('',(0.,0.258819045102521,0.965925826289068));
#833=DIRECTION('',(0.,-0.258819045102521,-0.965925826289068));
#834=DIRECTION('',(0.,0.965925826289068,-0.258819045102521));
#835=DIRECTION('',(0.,0.258819045102521,0.965925826289068));
#836=DIRECTION('',(0.,-0.965925826289068,0.258819045102521));
#837=DIRECTION('',(0.,0.258819045102521,0.965925826289068));
#838=DIRECTION('',(0.,-0.965925826289068,0.258819045102521));
#839=DIRECTION('',(0.,0.258819045102521,0.965925826289068));
#840=DIRECTION('',(0.,-0.258819045102521,-0.965925826289068));
#841=DIRECTION('',(0.,0.965925826289068,-0.258819045102521));
#842=DIRECTION('',(0.,0.258819045102521,0.965925826289068));
#843=DIRECTION('',(0.,-0.965925826289068,0.258819045102521));
#844=DIRECTION('',(0.,0.258819045102521,0.965925826289068));
#845=DIRECTION('',(0.,-0.965925826289068,0.258819045102521));
#846=DIRECTION('',(0.,0.258819045102521,0.965925826289068));
#847=DIRECTION('',(0.,-0.258819045102521,-0.965925826289068));
#848=DIRECTION('',(0.,0.965925826289068,-0.258819045102521));
#849=DIRECTION('',(0.,0.258819045102521,0.965925826289068));
#850=DIRECTION('',(0.,-0.965925826289068,0.258819045102521));
#851=DIRECTION('',(0.,0.258819045102521,0.965925826289068));
#852=DIRECTION('',(0.,-0.965925826289068,0.258819045102521));
#853=DIRECTION('',(0.,0.258819045102521,0.965925826289068));
#854=DIRECTION('',(0.,-0.258819045102521,-0.965925826289068));
#855=DIRECTION('',(0.,0.965925826289068,-0.258819045102521));
#856=DIRECTION('',(0.,0.258819045102521,0.965925826289068));
#857=DIRECTION('',(0.,-0.965925826289068,0.258819045102521));
#858=DIRECTION('',(0.,0.258819045102521,0.965925826289068));
#859=DIRECTION('',(0.,0.258819045102521,0.965925826289068));
#860=DIRECTION('',(0.,0.965925826289068,-0.258819045102521));
#861=DIRECTION('',(0.999985918190349,-0.00512609300797028,0.00137353248181246));
#862=DIRECTION('',(0.00512609784339882,0.999986861474139,0.));
#863=DIRECTION('',(0.,0.258819045102521,0.965925826289068));
#864=DIRECTION('',(0.00530692198971831,0.965912224305445,-0.258815400461993));
#865=DIRECTION('',(0.,0.258819045102521,0.965925826289068));
#866=DIRECTION('',(0.,-0.965925826289068,0.258819045102521));
#867=DIRECTION('',(0.,-0.258819045102521,-0.965925826289068));
#868=DIRECTION('',(0.,0.258819045102521,0.965925826289068));
#869=DIRECTION('',(0.,-0.965925826289068,0.258819045102521));
#870=DIRECTION('',(0.,0.258819045102521,0.965925826289068));
#871=DIRECTION('',(0.,-0.258819045102521,-0.965925826289068));
#872=DIRECTION('',(0.,0.965925826289068,-0.258819045102521));
#873=DIRECTION('',(0.,0.258819045102521,0.965925826289068));
#874=DIRECTION('',(0.,-0.965925826289068,0.258819045102521));
#875=DIRECTION('',(0.,0.258819045102521,0.965925826289068));
#876=DIRECTION('',(0.,-0.965925826289068,0.258819045102521));
#877=DIRECTION('',(0.,0.258819045102521,0.965925826289068));
#878=DIRECTION('',(0.,-0.258819045102521,-0.965925826289068));
#879=DIRECTION('',(0.,0.965925826289068,-0.258819045102521));
#880=DIRECTION('',(0.,0.965925826289068,-0.258819045102521));
#881=DIRECTION('',(0.,0.258819045102521,0.965925826289068));
#882=DIRECTION('',(0.,0.965925826289068,-0.258819045102521));
#883=DIRECTION('',(0.,0.258819045102521,0.965925826289068));
#884=DIRECTION('',(-1.,0.,0.));
#885=DIRECTION('',(1.,0.,0.));
#886=DIRECTION('',(0.,-0.258819045102521,-0.965925826289068));
#887=DIRECTION('',(0.,-0.258819045102521,-0.965925826289068));
#888=DIRECTION('',(-1.,0.,0.));
#889=DIRECTION('',(0.,0.258819045102521,0.965925826289068));
#890=DIRECTION('',(-1.,0.,0.));
#891=DIRECTION('',(0.,0.965925826289068,-0.258819045102521));
#892=DIRECTION('',(0.,0.258819045102521,0.965925826289068));
#893=DIRECTION('',(0.,0.965925826289068,-0.258819045102521));
#894=DIRECTION('',(0.,0.258819045102521,0.965925826289068));
#895=DIRECTION('',(-1.,0.,0.));
#896=DIRECTION('',(0.,0.965925826289068,-0.258819045102521));
#897=DIRECTION('',(0.,0.258819045102521,0.965925826289068));
#898=DIRECTION('',(1.,0.,0.));
#899=DIRECTION('',(0.,0.,-1.));
#900=DIRECTION('',(0.,0.965925826289068,-0.258819045102521));
#901=DIRECTION('',(0.,0.258819045102521,0.965925826289068));
#902=DIRECTION('',(0.,0.965925826289068,-0.258819045102521));
#903=DIRECTION('',(0.,0.258819045102521,0.965925826289068));
#904=DIRECTION('',(0.,-0.965925826289068,0.258819045102521));
#905=DIRECTION('',(0.,0.258819045102521,0.965925826289068));
#906=DIRECTION('',(0.,-0.965925826289068,0.258819045102521));
#907=DIRECTION('',(0.,0.258819045102521,0.965925826289068));
#908=DIRECTION('',(0.,-0.258819045102521,-0.965925826289068));
#909=DIRECTION('',(0.,0.965925826289068,-0.258819045102521));
#910=DIRECTION('',(0.,0.258819045102521,0.965925826289068));
#911=DIRECTION('',(0.,-0.965925826289068,0.258819045102521));
#912=DIRECTION('',(0.,-0.258819045102521,-0.965925826289068));
#913=DIRECTION('',(0.,0.965925826289069,-0.258819045102521));
#914=DIRECTION('',(0.,0.258819045102521,0.965925826289068));
#915=DIRECTION('',(0.,-0.965925826289068,0.258819045102521));
#916=DIRECTION('',(0.,0.258819045102521,0.965925826289068));
#917=DIRECTION('',(0.,-0.965925826289068,0.258819045102521));
#918=DIRECTION('',(0.,-0.258819045102521,-0.965925826289068));
#919=DIRECTION('',(0.,0.965925826289069,-0.258819045102521));
#920=DIRECTION('',(0.,0.258819045102521,0.965925826289068));
#921=DIRECTION('',(0.,-0.965925826289068,0.258819045102521));
#922=DIRECTION('',(0.,0.258819045102521,0.965925826289068));
#923=DIRECTION('',(0.,-0.965925826289068,0.258819045102521));
#924=DIRECTION('',(0.,0.258819045102521,0.965925826289068));
#925=DIRECTION('',(0.,-0.965925826289068,0.258819045102521));
#926=DIRECTION('',(0.,-0.258819045102521,-0.965925826289068));
#927=DIRECTION('',(0.,0.965925826289068,-0.258819045102521));
#928=DIRECTION('',(0.,0.258819045102521,0.965925826289068));
#929=DIRECTION('',(0.,-0.965925826289068,0.258819045102521));
#930=DIRECTION('',(0.,-0.258819045102522,-0.965925826289068));
#931=DIRECTION('',(0.,0.965925826289068,-0.258819045102522));
#932=DIRECTION('',(0.,0.258819045102521,0.965925826289068));
#933=DIRECTION('',(0.,0.965925826289068,-0.258819045102521));
#934=DIRECTION('',(0.,0.258819045102521,0.965925826289068));
#935=DIRECTION('',(0.,-0.965925826289068,0.258819045102521));
#936=DIRECTION('',(0.,-0.258819045102515,-0.96592582628907));
#937=DIRECTION('',(0.,0.96592582628907,-0.258819045102515));
#938=DIRECTION('',(0.,0.258819045102521,0.965925826289068));
#939=DIRECTION('',(0.,-0.965925826289068,0.258819045102521));
#940=DIRECTION('',(0.,-0.258819045102521,-0.965925826289068));
#941=DIRECTION('',(1.,0.,0.));
#942=DIRECTION('',(0.,0.965925826289068,-0.258819045102521));
#943=DIRECTION('',(1.,0.,0.));
#944=DIRECTION('',(0.,0.965925826289068,-0.258819045102521));
#945=DIRECTION('',(0.,-0.258819045102521,-0.965925826289068));
#946=DIRECTION('',(0.,0.965925826289068,-0.258819045102521));
#947=DIRECTION('',(0.,-0.258819045102521,-0.965925826289068));
#948=DIRECTION('',(0.,0.965925826289068,-0.258819045102521));
#949=DIRECTION('',(0.,-0.258819045102521,-0.965925826289068));
#950=DIRECTION('',(0.,0.965925826289068,-0.258819045102521));
#951=DIRECTION('',(-1.,3.44677111166195E-16,-9.23559535864743E-17));
#952=DIRECTION('',(-3.44677111166195E-16,-1.,0.));
#953=DIRECTION('',(3.5683600312292E-16,0.965925826289068,-0.258819045102521));
#954=DIRECTION('',(0.,0.258819045102521,0.965925826289068));
#955=DIRECTION('',(1.,0.,0.));
#956=DIRECTION('',(1.,0.,0.));
#957=DIRECTION('',(0.,0.,-1.));
#958=DIRECTION('',(0.,-0.258819045102521,-0.965925826289068));
#959=DIRECTION('',(0.,-0.965925826289068,0.258819045102521));
#960=DIRECTION('',(0.,-0.258819045102521,-0.965925826289068));
#961=DIRECTION('',(0.,0.965925826289068,-0.258819045102521));
#962=DIRECTION('',(0.,0.258819045102521,0.965925826289068));
#963=DIRECTION('',(0.,-0.965925826289068,0.258819045102521));
#964=DIRECTION('',(0.,-0.258819045102521,-0.965925826289068));
#965=DIRECTION('',(-1.,1.51991540385036E-16,-4.07260105025329E-17));
#966=DIRECTION('',(-1.51991540385036E-16,-1.,0.));
#967=DIRECTION('',(1.57353221384466E-16,0.965925826289068,-0.258819045102521));
#968=DIRECTION('',(0.,0.258819045102521,0.965925826289068));
#969=DIRECTION('',(1.,0.,0.));
#970=DIRECTION('',(0.,-0.258819045102522,-0.965925826289068));
#971=DIRECTION('',(0.,0.965925826289068,-0.258819045102522));
#972=DIRECTION('',(0.,-0.258819045102522,-0.965925826289068));
#973=DIRECTION('',(0.,0.965925826289068,-0.258819045102522));
#974=DIRECTION('',(0.,-0.258819045102522,-0.965925826289068));
#975=DIRECTION('',(0.,0.965925826289068,-0.258819045102522));
#976=DIRECTION('',(0.,-0.258819045102521,-0.965925826289068));
#977=DIRECTION('',(0.,0.965925826289069,-0.258819045102521));
#978=DIRECTION('',(0.,-0.258819045102521,-0.965925826289068));
#979=DIRECTION('',(0.,0.965925826289069,-0.258819045102521));
#980=DIRECTION('',(0.,-0.258819045102515,-0.96592582628907));
#981=DIRECTION('',(0.,0.96592582628907,-0.258819045102515));
#982=DIRECTION('',(0.,0.965925826289068,-0.258819045102521));
#983=DIRECTION('',(0.,0.258819045102521,0.965925826289068));
#984=DIRECTION('',(0.,0.965925826289068,-0.258819045102521));
#985=DIRECTION('',(0.,0.965925826289068,-0.258819045102521));
#986=DIRECTION('',(0.,0.258819045102521,0.965925826289068));
#987=DIRECTION('',(0.,0.965925826289068,-0.258819045102521));
#988=DIRECTION('',(0.,0.258819045102521,0.965925826289068));
#989=DIRECTION('',(0.,0.965925826289068,-0.258819045102521));
#990=DIRECTION('',(0.,0.965925826289068,-0.258819045102521));
#991=DIRECTION('',(0.,0.258819045102521,0.965925826289068));
#992=DIRECTION('',(0.,-0.258819045102521,-0.965925826289068));
#993=DIRECTION('',(0.,0.965925826289068,-0.258819045102521));
#994=DIRECTION('',(0.,0.965925826289068,-0.258819045102521));
#995=DIRECTION('',(-1.,0.,0.));
#996=DIRECTION('',(0.,0.965925826289068,-0.258819045102521));
#997=DIRECTION('',(0.,0.258819045102521,0.965925826289068));
#998=DIRECTION('',(0.,0.965925826289068,-0.258819045102521));
#999=DIRECTION('',(0.,0.965925826289068,-0.258819045102521));
#1000=DIRECTION('',(0.,0.258819045102521,0.965925826289068));
#1001=DIRECTION('',(0.,0.965925826289068,-0.258819045102521));
#1002=DIRECTION('',(0.,0.258819045102521,0.965925826289068));
#1003=DIRECTION('',(0.,0.965925826289068,-0.258819045102521));
#1004=DIRECTION('',(0.,0.258819045102521,0.965925826289068));
#1005=DIRECTION('',(0.,0.965925826289068,-0.258819045102521));
#1006=DIRECTION('',(-1.,0.,0.));
#1007=CARTESIAN_POINT('',(0.,0.,0.));
#1008=CARTESIAN_POINT('',(1.43114686768087E-17,-0.0555863555002688,0.123959929218405));
#1009=CARTESIAN_POINT('',(0.,-0.0547498391965309,0.127081850565314));
#1010=CARTESIAN_POINT('',(0.,-0.0458633215946715,0.124700715350371));
#1011=CARTESIAN_POINT('',(1.43114686768087E-17,-0.0545510793198587,0.127823632523561));
#1012=CARTESIAN_POINT('',(0.00919999456521579,-0.0545510793198587,0.127823632523561));
#1013=CARTESIAN_POINT('',(-0.00495104881101918,-0.0620410254004892,0.129830557527219));
#1014=CARTESIAN_POINT('',(-0.00495104896931317,-0.059672318098935,0.138670711921775));
#1015=CARTESIAN_POINT('',(-0.0049510460445389,-0.0596728313124349,0.138668778884557));
#1016=CARTESIAN_POINT('',(1.43114686768087E-17,-0.0521828850571706,0.136661853834106));
#1017=CARTESIAN_POINT('',(0.00919999728260789,-0.0521828850571706,0.136661853834106));
#1018=CARTESIAN_POINT('',(0.0092,-0.0521823674190804,0.136663785685759));
#1019=CARTESIAN_POINT('',(3.46944695195361E-18,-0.041607676370553,0.124355458155984));
#1020=CARTESIAN_POINT('',(0.00919999456521579,-0.041607676370553,0.124355458155984));
#1021=CARTESIAN_POINT('',(0.00919999456521579,-0.0494247921228736,0.126450048008959));
#1022=CARTESIAN_POINT('',(0.0121999945652158,-0.0494247921228736,0.126450048008959));
#1023=CARTESIAN_POINT('',(0.00929999456521578,-0.0486828504175379,0.126251245328183));
#1024=CARTESIAN_POINT('',(0.00929999456521578,-0.041607676370553,0.124355458155984));
#1025=CARTESIAN_POINT('',(0.00929999456521579,-0.0273853619749992,0.120544600499194));
#1026=CARTESIAN_POINT('',(0.0101642802795015,-0.0273853619749992,0.120544600499194));
#1027=CARTESIAN_POINT('',(-0.00929999456521578,-0.0273853619749992,0.120544600499194));
#1028=CARTESIAN_POINT('',(-0.00929999456521579,-0.041607676370553,0.124355458155984));
#1029=CARTESIAN_POINT('',(-0.00929999456521578,-0.0367768706358489,0.123061047660579));
#1030=CARTESIAN_POINT('',(-0.0121999945652158,-0.0375188123411846,0.123259850341354));
#1031=CARTESIAN_POINT('',(-0.0110917840289197,-0.0348259972947314,0.122538312724291));
#1032=CARTESIAN_POINT('',(-0.0111458131563258,-0.0446598321864504,0.125173280842028));
#1033=CARTESIAN_POINT('',(-0.0111998422837319,-0.0544936670781694,0.127808248959765));
#1034=CARTESIAN_POINT('',(-8.67361737988404E-19,-0.0545510793198587,0.127823632523561));
#1035=CARTESIAN_POINT('',(-0.00358356412127252,-0.0648007343300826,0.130570019306248));
#1036=CARTESIAN_POINT('',(-0.00656552124939533,-0.0644833991224345,0.130484989593629));
#1037=CARTESIAN_POINT('',(0.0121999945652157,-0.0504600683032833,0.122586344703803));
#1038=CARTESIAN_POINT('',(0.0120444390096602,-0.0475661889496514,0.121810932068004));
#1039=CARTESIAN_POINT('',(0.0120444390096602,-0.0475661889496514,0.121810932068004));
#1040=CARTESIAN_POINT('',(0.0120444390096602,-0.0441627185065533,0.134512856683705));
#1041=CARTESIAN_POINT('',(0.0121999945652157,-0.0470565978601852,0.135288269319504));
#1042=CARTESIAN_POINT('',(0.0112,-0.044324545196609,0.134556218014619));
#1043=CARTESIAN_POINT('',(0.0112,-0.0477280156397072,0.121854293398918));
#1044=CARTESIAN_POINT('',(0.0112,-0.0477280156397072,0.121854293398918));
#1045=CARTESIAN_POINT('',(0.0121999945652157,-0.0504600683032833,0.122586344703803));
#1046=CARTESIAN_POINT('',(0.0112,-0.051657185569988,0.122907111308662));
#1047=CARTESIAN_POINT('',(0.0112,-0.0482537151268898,0.135609035924363));
#1048=CARTESIAN_POINT('',(0.0112,-0.0521828850571706,0.136661853834106));
#1049=CARTESIAN_POINT('',(0.0112,-0.0555863555002687,0.123959929218405));
#1050=CARTESIAN_POINT('',(0.0112,-0.0555863555002687,0.123959929218405));
#1051=CARTESIAN_POINT('',(0.0112,-0.051657185569988,0.122907111308662));
#1052=CARTESIAN_POINT('',(-5.42101086242752E-18,-0.0555863555002687,0.123959929218405));
#1053=CARTESIAN_POINT('',(-5.42101086242752E-18,-0.0521828850571706,0.136661853834106));
#1054=CARTESIAN_POINT('',(0.00358356412127253,-0.0624325400673946,0.139408240616793));
#1055=CARTESIAN_POINT('',(0.00358356412127253,-0.0658360105104927,0.126706316001092));
#1056=CARTESIAN_POINT('',(0.00358356412127253,-0.0658360105104927,0.126706316001092));
#1057=CARTESIAN_POINT('',(-5.42101086242752E-18,-0.0555863555002687,0.123959929218405));
#1058=CARTESIAN_POINT('',(0.00656552124939539,-0.0655186753028445,0.126621286288473));
#1059=CARTESIAN_POINT('',(0.00656552124939539,-0.0621152048597464,0.139323210904174));
#1060=CARTESIAN_POINT('',(0.00364751314926174,-0.062788052960131,0.139503500009301));
#1061=CARTESIAN_POINT('',(0.00364751314926174,-0.0661915234032292,0.1268015753936));
#1062=CARTESIAN_POINT('',(0.00364751314926174,-0.0661915234032292,0.1268015753936));
#1063=CARTESIAN_POINT('',(0.00656552124939539,-0.0655186753028445,0.126621286288473));
#1064=CARTESIAN_POINT('',(2.30044387441426E-17,-0.0670325712921958,0.127026933496244));
#1065=CARTESIAN_POINT('',(2.30044387441426E-17,-0.0636291008490976,0.139728858111945));
#1066=CARTESIAN_POINT('',(-0.00364751314927049,-0.0627880529601246,0.139503500009299));
#1067=CARTESIAN_POINT('',(-0.00364751314927049,-0.0661915234032228,0.126801575393598));
#1068=CARTESIAN_POINT('',(-0.00364751314927049,-0.0661915234032228,0.126801575393598));
#1069=CARTESIAN_POINT('',(2.30044387441426E-17,-0.0670325712921958,0.127026933496244));
#1070=CARTESIAN_POINT('',(-0.00656552124939533,-0.0655186753028445,0.126621286288473));
#1071=CARTESIAN_POINT('',(-0.00656552124939533,-0.0621152048597464,0.139323210904174));
#1072=CARTESIAN_POINT('',(-0.00358356412127252,-0.0658360105104927,0.126706316001092));
#1073=CARTESIAN_POINT('',(-0.00358356412127252,-0.0658360105104927,0.126706316001092));
#1074=CARTESIAN_POINT('',(-0.00656552124939533,-0.0655186753028445,0.126621286288473));
#1075=CARTESIAN_POINT('',(-8.67361737988404E-19,-0.0555863555002687,0.123959929218405));
#1076=CARTESIAN_POINT('',(-0.0111998422837319,-0.0555289432585795,0.123944545654609));
#1077=CARTESIAN_POINT('',(-0.0111998422837319,-0.0555289432585795,0.123944545654609));
#1078=CARTESIAN_POINT('',(-8.67361737988404E-19,-0.0555863555002687,0.123959929218405));
#1079=CARTESIAN_POINT('',(-0.0111458131563258,-0.0456951083668605,0.121309577536871));
#1080=CARTESIAN_POINT('',(-0.0110917840289197,-0.0358612734751415,0.118674609419134));
#1081=CARTESIAN_POINT('',(-0.0110917840289197,-0.0358612734751415,0.118674609419134));
#1082=CARTESIAN_POINT('',(-0.0111458131563258,-0.0456951083668605,0.121309577536871));
#1083=CARTESIAN_POINT('',(-0.0121999945652157,-0.0385540885215944,0.119396147036198));
#1084=CARTESIAN_POINT('',(-0.00929999456521578,-0.0344081587350706,0.131901200822776));
#1085=CARTESIAN_POINT('',(-0.00929999456521578,-0.0344086763731609,0.131899268971123));
#1086=CARTESIAN_POINT('',(-0.0121999945652158,-0.0351506180784965,0.132098071651899));
#1087=CARTESIAN_POINT('',(-0.0120444444283283,-0.0322567384531091,0.131322658943284));
#1088=CARTESIAN_POINT('',(-0.0120444444283283,-0.0356602088962073,0.118620734327582));
#1089=CARTESIAN_POINT('',(-0.0120444444283283,-0.0356602088962073,0.118620734327582));
#1090=CARTESIAN_POINT('',(-0.0121999945652157,-0.0385540885215944,0.119396147036198));
#1091=CARTESIAN_POINT('',(-0.0118499945652158,-0.0320428599759223,0.117651468605651));
#1092=CARTESIAN_POINT('',(-0.0118499945652158,-0.0286393895328243,0.130353393221352));
#1093=CARTESIAN_POINT('',(-0.01185,-0.0250171676842437,0.129382821802218));
#1094=CARTESIAN_POINT('',(-0.01185,-0.0284206381273418,0.116680897186517));
#1095=CARTESIAN_POINT('',(-0.01185,-0.0284206381273418,0.116680897186517));
#1096=CARTESIAN_POINT('',(-0.0118499945652158,-0.0320428599759223,0.117651468605651));
#1097=CARTESIAN_POINT('',(0.0101642802795015,-0.0284206381554094,0.116680897194038));
#1098=CARTESIAN_POINT('',(0.000278846153846158,-0.0297406152854322,0.111754675479963));
#1099=CARTESIAN_POINT('',(-0.00864554056202614,-0.0284206381554094,0.116680897194038));
#1100=CARTESIAN_POINT('',(-0.00722457707643957,-0.027922361884241,0.118540489554244));
#1101=CARTESIAN_POINT('',(0.0101642802795015,-0.0284206381554094,0.116680897194038));
#1102=CARTESIAN_POINT('',(-0.0105749972826079,-0.0250171677123112,0.129382821809739));
#1103=CARTESIAN_POINT('',(-0.00929999456521578,-0.0250171677123112,0.129382821809739));
#1104=CARTESIAN_POINT('',(-0.00929999456521578,-0.025016650074221,0.129384753661391));
#1105=CARTESIAN_POINT('',(0.00929999456521579,-0.025016650074221,0.129384753661391));
#1106=CARTESIAN_POINT('',(0.00929999456521579,-0.0250171677123112,0.129382821809739));
#1107=CARTESIAN_POINT('',(0.0101642802795015,-0.0250171677123112,0.129382821809739));
#1108=CARTESIAN_POINT('',(0.0110285659937872,-0.0250171677123112,0.129382821809739));
#1109=CARTESIAN_POINT('',(0.0110285659937872,-0.0284206381554094,0.116680897194038));
#1110=CARTESIAN_POINT('',(0.0110285659937872,-0.0284206381554094,0.116680897194038));
#1111=CARTESIAN_POINT('',(0.0101642802795015,-0.0284206381554094,0.116680897194038));
#1112=CARTESIAN_POINT('',(0.00864554056202614,-0.0284206381554094,0.116680897194038));
#1113=CARTESIAN_POINT('',(-0.00027884615384616,-0.0297406152854322,0.111754675479963));
#1114=CARTESIAN_POINT('',(0.00722457707643957,-0.027922361884241,0.118540489554244));
#1115=CARTESIAN_POINT('',(0.00612959669858679,-0.0281877010148171,0.117550230437698));
#1116=CARTESIAN_POINT('',(0.00612959669858684,-0.0277994724471633,0.118999119177131));
#1117=CARTESIAN_POINT('',(-4.33680868994202E-19,-0.0277994724471633,0.118999119177131));
#1118=CARTESIAN_POINT('',(-0.00612959669858684,-0.0277994724471633,0.118999119177131));
#1119=CARTESIAN_POINT('',(-0.00612959669858679,-0.0281877010148171,0.117550230437698));
#1120=CARTESIAN_POINT('',(0.0110285659937872,-0.0330992020867888,0.117934514621188));
#1121=CARTESIAN_POINT('',(0.0110285659937872,-0.0296957316436906,0.130636439236889));
#1122=CARTESIAN_POINT('',(0.0110285659937872,-0.03437429557507,0.13189005666404));
#1123=CARTESIAN_POINT('',(0.0110285659937872,-0.0377777660181681,0.119188132048339));
#1124=CARTESIAN_POINT('',(0.0110285659937872,-0.0377777660181681,0.119188132048339));
#1125=CARTESIAN_POINT('',(0.0110285659937872,-0.0330992020867888,0.117934514621188));
#1126=CARTESIAN_POINT('',(0.0140285659937872,-0.0377777660181681,0.119188132048339));
#1127=CARTESIAN_POINT('',(0.0140285659937872,-0.03437429557507,0.13189005666404));
#1128=CARTESIAN_POINT('',(0.0130603120255332,-0.0371169950148224,0.132624960764003));
#1129=CARTESIAN_POINT('',(0.0130603120255332,-0.0405204654579205,0.119923036148302));
#1130=CARTESIAN_POINT('',(0.0130603120255332,-0.0405204654579205,0.119923036148302));
#1131=CARTESIAN_POINT('',(0.0140285659937872,-0.0377777660181681,0.119188132048339));
#1132=CARTESIAN_POINT('',(-0.0118499945652158,-0.032042859975922,0.11765146860565));
#1133=CARTESIAN_POINT('',(-0.0118499945652158,-0.0316468668369152,0.119129335119873));
#1134=CARTESIAN_POINT('',(-0.0118499945652158,-0.0301013855148526,0.118715224647709));
#1135=CARTESIAN_POINT('',(-0.0118499945652158,-0.0286393895328239,0.130353393221352));
#1136=CARTESIAN_POINT('',(-0.0118499945652158,-0.0301848708548864,0.130767503693516));
#1137=CARTESIAN_POINT('',(0.0118499945652158,-0.043948839757611,0.120841666273255));
#1138=CARTESIAN_POINT('',(0.0118499945652158,-0.0435528466186042,0.122319532787478));
#1139=CARTESIAN_POINT('',(0.0118499945652158,-0.0420073652965417,0.121905422315314));
#1140=CARTESIAN_POINT('',(0.0118499945652158,-0.0405453693145129,0.133543590888957));
#1141=CARTESIAN_POINT('',(0.0118499945652158,-0.0420908506365754,0.133957701361121));
#1142=CARTESIAN_POINT('',(0.0118499945652158,-0.043948839757611,0.120841666273255));
#1143=CARTESIAN_POINT('',(0.0118499945652158,-0.0405453693145129,0.133543590888957));
#1144=CARTESIAN_POINT('',(0.0118499945652158,-0.043948839757611,0.120841666273255));
#1145=CARTESIAN_POINT('',(1.43114686768087E-17,-0.0555863555002688,0.123959929218405));
#1146=CARTESIAN_POINT('',(0.,-0.055198126932615,0.125408817957838));
#1147=CARTESIAN_POINT('',(0.,-0.0463116093307556,0.123027682742895));
#1148=CARTESIAN_POINT('',(1.43114686768087E-17,-0.0555863555002688,0.123959929218405));
#1149=CARTESIAN_POINT('',(0.00146297088024571,-0.0643597974200867,0.126310765895661));
#1150=CARTESIAN_POINT('',(-0.0014629708802457,-0.0643597974200867,0.126310765895661));
#1151=CARTESIAN_POINT('',(0.00146297088024571,-0.0643597974200867,0.126310765895661));
#1152=CARTESIAN_POINT('',(0.00124201702810685,-0.0643593010392259,0.126450122246266));
#1153=CARTESIAN_POINT('',(0.00078813684527958,-0.0643537514732186,0.126693465157236));
#1154=CARTESIAN_POINT('',(-0.000257624217712892,-0.0643435396576958,0.126914128111145));
#1155=CARTESIAN_POINT('',(-0.00101817950940505,-0.0643587981801034,0.126591297335239));
#1156=CARTESIAN_POINT('',(-0.0014629708802457,-0.0643597974200867,0.126310765895661));
#1157=CARTESIAN_POINT('',(0.,-0.0670325712921958,0.127026933496244));
#1158=CARTESIAN_POINT('',(0.,-0.0666365781531889,0.128504800010466));
#1159=CARTESIAN_POINT('',(0.,-0.0650910968311264,0.128090689538302));
#1160=CARTESIAN_POINT('',(0.,-0.0636291008490976,0.139728858111945));
#1161=CARTESIAN_POINT('',(0.,-0.0651745821711601,0.140142968584109));
#1162=CARTESIAN_POINT('',(3.46944695195361E-18,-0.0426429525509631,0.120491754850828));
#1163=CARTESIAN_POINT('',(-0.00864554056202614,-0.0429095255497454,0.120563182870575));
#1164=CARTESIAN_POINT('',(-0.00864554056202614,-0.0429095255497454,0.120563182870575));
#1165=CARTESIAN_POINT('',(3.46944695195361E-18,-0.0429095255497454,0.120563182870575));
#1166=CARTESIAN_POINT('',(0.00864554056202614,-0.0429095255497454,0.120563182870575));
#1167=CARTESIAN_POINT('',(0.00864554056202614,-0.0429095255497454,0.120563182870575));
#1168=CARTESIAN_POINT('',(-0.0118499945652158,-0.032042859975922,0.11765146860565));
#1169=CARTESIAN_POINT('',(-0.0118499945652158,-0.0290195121396372,0.11684136499448));
#1170=CARTESIAN_POINT('',(0.0118499945652158,-0.043948839757611,0.120841666273255));
#1171=CARTESIAN_POINT('',(0.0118499945652158,-0.0409254919213263,0.120031562662084));
#1172=CARTESIAN_POINT('',(0.,-0.0670325712921958,0.127026933496244));
#1173=CARTESIAN_POINT('',(-0.00929999456521578,-0.0297124044046458,0.130642977242084));
#1174=CARTESIAN_POINT('',(-0.00929999456521578,-0.029712922042736,0.130641045390431));
#1175=CARTESIAN_POINT('',(0.,-0.0437793303684558,0.134410128141714));
#1176=CARTESIAN_POINT('',(0.00919999456521579,-0.0496192238205879,0.135976993428458));
#1177=CARTESIAN_POINT('',(0.00919999456521579,-0.0470560802220954,0.135290201171157));
#1178=CARTESIAN_POINT('',(0.00919999456521579,-0.0470565978601856,0.135288269319504));
#1179=CARTESIAN_POINT('',(0.00919999456521579,-0.0496197414586781,0.135975061576805));
#1180=CARTESIAN_POINT('',(0.0121999945652158,-0.0470560802220953,0.135290201171157));
#1181=CARTESIAN_POINT('',(0.0121999945652158,-0.0470565978601856,0.135288269319504));
#1182=CARTESIAN_POINT('',(0.00929999456521579,-0.0463146561548499,0.135089466638728));
#1183=CARTESIAN_POINT('',(0.00929999456521579,-0.0463141385167597,0.135091398490381));
#1184=CARTESIAN_POINT('',(0.00929999456521579,-0.0356653942954904,0.132238076075886));
#1185=CARTESIAN_POINT('',(0.00929999456521579,-0.0356659119335805,0.132236144224234));
#1186=CARTESIAN_POINT('',(0.,-0.0437793303684558,0.134410128141714));
#1187=CARTESIAN_POINT('',(0.,-0.055198126932615,0.125408817957838));
#1188=CARTESIAN_POINT('',(0.,-0.055198126932615,0.125408817957838));
#1189=CARTESIAN_POINT('',(0.,-0.0453456835044665,0.122768863697793));
#1190=CARTESIAN_POINT('',(0.,-0.0645676074476189,0.127919362695333));
#1191=CARTESIAN_POINT('',(-0.0118499945652158,-0.0316468668369152,0.119129335119873));
#1192=CARTESIAN_POINT('',(0.0118499945652158,-0.0435528466186042,0.122319532787478));
#1193=CARTESIAN_POINT('',(0.,-0.0666365781531889,0.128504800010466));
#1194=CARTESIAN_POINT('',(0.000278846153846158,-0.0442295026797682,0.115636961156501));
#1195=CARTESIAN_POINT('',(-0.00722457707643957,-0.042411249278577,0.122422775230782));
#1196=CARTESIAN_POINT('',(-0.00722457707643957,-0.042411249278577,0.122422775230782));
#1197=CARTESIAN_POINT('',(0.000278846153846158,-0.0442295026797682,0.115636961156501));
#1198=CARTESIAN_POINT('',(-0.00612959669858679,-0.0426765884091532,0.121432516114236));
#1199=CARTESIAN_POINT('',(-0.00612959669858684,-0.0422883598414994,0.122881404853669));
#1200=CARTESIAN_POINT('',(-0.00612959669858684,-0.0422883598414994,0.122881404853669));
#1201=CARTESIAN_POINT('',(-0.00612959669858679,-0.0426765884091532,0.121432516114236));
#1202=CARTESIAN_POINT('',(-4.33680868994202E-19,-0.0422883598414994,0.122881404853669));
#1203=CARTESIAN_POINT('',(0.00612959669858684,-0.0422883598414994,0.122881404853669));
#1204=CARTESIAN_POINT('',(0.00612959669858684,-0.0422883598414994,0.122881404853669));
#1205=CARTESIAN_POINT('',(-4.33680868994202E-19,-0.0422883598414994,0.122881404853669));
#1206=CARTESIAN_POINT('',(0.00612959669858679,-0.0426765884091532,0.121432516114236));
#1207=CARTESIAN_POINT('',(0.00722457707643957,-0.042411249278577,0.122422775230782));
#1208=CARTESIAN_POINT('',(0.00722457707643957,-0.042411249278577,0.122422775230782));
#1209=CARTESIAN_POINT('',(0.00612959669858679,-0.0426765884091532,0.121432516114236));
#1210=CARTESIAN_POINT('',(-0.00027884615384616,-0.0442295026797682,0.115636961156501));
#1211=CARTESIAN_POINT('',(-0.00027884615384616,-0.0442295026797682,0.115636961156501));
#1212=CARTESIAN_POINT('',(-0.000410717003106409,-0.0428383503114021,0.120828812476313));
#1213=MECHANICAL_DESIGN_GEOMETRIC_PRESENTATION_REPRESENTATION('',(#691),
#1214);
#1214=(
GEOMETRIC_REPRESENTATION_CONTEXT(3)
GLOBAL_UNCERTAINTY_ASSIGNED_CONTEXT((#1215))
GLOBAL_UNIT_ASSIGNED_CONTEXT((#1218,#1217,#1216))
REPRESENTATION_CONTEXT('Cap','TOP_LEVEL_ASSEMBLY_PART')
);
#1215=UNCERTAINTY_MEASURE_WITH_UNIT(LENGTH_MEASURE(2.E-5),#1218,
'DISTANCE_ACCURACY_VALUE','Maximum Tolerance applied to model');
#1216=(
NAMED_UNIT(*)
SI_UNIT($,.STERADIAN.)
SOLID_ANGLE_UNIT()
);
#1217=(
NAMED_UNIT(*)
PLANE_ANGLE_UNIT()
SI_UNIT($,.RADIAN.)
);
#1218=(
LENGTH_UNIT()
NAMED_UNIT(*)
SI_UNIT($,.METRE.)
);
#1219=PRODUCT_DEFINITION_SHAPE('','',#1220);
#1220=PRODUCT_DEFINITION('','',#1222,#1221);
#1221=PRODUCT_DEFINITION_CONTEXT('',#1228,'design');
#1222=PRODUCT_DEFINITION_FORMATION_WITH_SPECIFIED_SOURCE('','',#1224,
 .NOT_KNOWN.);
#1223=PRODUCT_RELATED_PRODUCT_CATEGORY('','',(#1224));
#1224=PRODUCT('Cap','Cap','Cap',(#1226));
#1225=PRODUCT_CATEGORY('','');
#1226=PRODUCT_CONTEXT('',#1228,'mechanical');
#1227=APPLICATION_PROTOCOL_DEFINITION('international standard',
'ap242_managed_model_based_3d_engineering',2020,#1228);
#1228=APPLICATION_CONTEXT('managed model based 3d engineering');
ENDSEC;
END-ISO-10303-21;
