ISO-10303-21;
HEADER;
/* Generated by software containing ST-Developer
 * from STEP Tools, Inc. (www.steptools.com) 
 */
/* OPTION: using custom renumber hook */

FILE_DESCRIPTION(
/* description */ ('STEP AP242 Edition 2',
'CAx-IF Rec.Pracs.---Representation and Presentation of Product Manufa
cturing Information (PMI)---4.0---2014-10-13',
'CAx-IF Rec.Pracs.---3D Tessellated Geometry---0.4---2014-09-14','2;1',
'CAx-IF Rec.Pracs.---User Defined Attributes---1.5---2016-08-15'),
/* implementation_level */ '2;1');

FILE_NAME(
/* name */ 'Candy launcher - Servo rod 3',
/* time_stamp */ '2026-08-31T07:11:55Z',
/* author */ (''),
/* organization */ (''),
/* preprocessor_version */ 'ST-DEVELOPER v20',
/* originating_system */ 'ONSHAPE BY PTC INC, 1.220',
/* authorisation */ '  ');

FILE_SCHEMA (('AP242_MANAGED_MODEL_BASED_3D_ENGINEERING_MIM_LF { 1 0 10303 442 3 1 4 }'));
ENDSEC;

DATA;
#10=SHAPE_REPRESENTATION_RELATIONSHIP('','',#637,#11);
#11=ADVANCED_BREP_SHAPE_REPRESENTATION('',(#635),#1013);
#12=CIRCLE('',#651,0.00155);
#13=CIRCLE('',#652,0.00155);
#14=CIRCLE('',#657,0.003075);
#15=CIRCLE('',#659,0.00155);
#16=CIRCLE('',#660,0.00155);
#17=CIRCLE('',#665,0.00155);
#18=CIRCLE('',#668,0.00155);
#19=CIRCLE('',#671,0.00155);
#20=CIRCLE('',#674,0.00155);
#21=CIRCLE('',#679,0.003075);
#22=CYLINDRICAL_SURFACE('',#650,0.00155);
#23=CYLINDRICAL_SURFACE('',#658,0.00155);
#24=CYLINDRICAL_SURFACE('',#667,0.00155);
#25=CYLINDRICAL_SURFACE('',#673,0.00155);
#26=CYLINDRICAL_SURFACE('',#678,0.003075);
#27=ORIENTED_EDGE('',*,*,#191,.F.);
#28=ORIENTED_EDGE('',*,*,#192,.T.);
#29=ORIENTED_EDGE('',*,*,#193,.T.);
#30=ORIENTED_EDGE('',*,*,#194,.F.);
#31=ORIENTED_EDGE('',*,*,#195,.F.);
#32=ORIENTED_EDGE('',*,*,#196,.F.);
#33=ORIENTED_EDGE('',*,*,#197,.T.);
#34=ORIENTED_EDGE('',*,*,#198,.T.);
#35=ORIENTED_EDGE('',*,*,#199,.F.);
#36=ORIENTED_EDGE('',*,*,#200,.F.);
#37=ORIENTED_EDGE('',*,*,#201,.T.);
#38=ORIENTED_EDGE('',*,*,#202,.T.);
#39=ORIENTED_EDGE('',*,*,#203,.F.);
#40=ORIENTED_EDGE('',*,*,#204,.T.);
#41=ORIENTED_EDGE('',*,*,#205,.T.);
#42=ORIENTED_EDGE('',*,*,#193,.F.);
#43=ORIENTED_EDGE('',*,*,#206,.T.);
#44=ORIENTED_EDGE('',*,*,#207,.T.);
#45=ORIENTED_EDGE('',*,*,#198,.F.);
#46=ORIENTED_EDGE('',*,*,#208,.F.);
#47=ORIENTED_EDGE('',*,*,#209,.T.);
#48=ORIENTED_EDGE('',*,*,#210,.T.);
#49=ORIENTED_EDGE('',*,*,#202,.F.);
#50=ORIENTED_EDGE('',*,*,#211,.F.);
#51=ORIENTED_EDGE('',*,*,#212,.F.);
#52=ORIENTED_EDGE('',*,*,#213,.T.);
#53=ORIENTED_EDGE('',*,*,#214,.T.);
#54=ORIENTED_EDGE('',*,*,#204,.F.);
#55=ORIENTED_EDGE('',*,*,#215,.T.);
#56=ORIENTED_EDGE('',*,*,#216,.T.);
#57=ORIENTED_EDGE('',*,*,#206,.F.);
#58=ORIENTED_EDGE('',*,*,#217,.F.);
#59=ORIENTED_EDGE('',*,*,#218,.T.);
#60=ORIENTED_EDGE('',*,*,#219,.T.);
#61=ORIENTED_EDGE('',*,*,#209,.F.);
#62=ORIENTED_EDGE('',*,*,#220,.F.);
#63=ORIENTED_EDGE('',*,*,#221,.F.);
#64=ORIENTED_EDGE('',*,*,#215,.F.);
#65=ORIENTED_EDGE('',*,*,#222,.T.);
#66=ORIENTED_EDGE('',*,*,#223,.T.);
#67=ORIENTED_EDGE('',*,*,#224,.F.);
#68=ORIENTED_EDGE('',*,*,#218,.F.);
#69=ORIENTED_EDGE('',*,*,#225,.T.);
#70=ORIENTED_EDGE('',*,*,#226,.F.);
#71=ORIENTED_EDGE('',*,*,#227,.F.);
#72=ORIENTED_EDGE('',*,*,#228,.F.);
#73=ORIENTED_EDGE('',*,*,#229,.T.);
#74=ORIENTED_EDGE('',*,*,#230,.T.);
#75=ORIENTED_EDGE('',*,*,#231,.F.);
#76=ORIENTED_EDGE('',*,*,#213,.F.);
#77=ORIENTED_EDGE('',*,*,#232,.T.);
#78=ORIENTED_EDGE('',*,*,#233,.T.);
#79=ORIENTED_EDGE('',*,*,#196,.T.);
#80=ORIENTED_EDGE('',*,*,#234,.T.);
#81=ORIENTED_EDGE('',*,*,#235,.F.);
#82=ORIENTED_EDGE('',*,*,#236,.F.);
#83=ORIENTED_EDGE('',*,*,#191,.T.);
#84=ORIENTED_EDGE('',*,*,#237,.T.);
#85=ORIENTED_EDGE('',*,*,#238,.F.);
#86=ORIENTED_EDGE('',*,*,#239,.F.);
#87=ORIENTED_EDGE('',*,*,#240,.T.);
#88=ORIENTED_EDGE('',*,*,#241,.T.);
#89=ORIENTED_EDGE('',*,*,#242,.T.);
#90=ORIENTED_EDGE('',*,*,#243,.F.);
#91=ORIENTED_EDGE('',*,*,#200,.T.);
#92=ORIENTED_EDGE('',*,*,#244,.T.);
#93=ORIENTED_EDGE('',*,*,#245,.F.);
#94=ORIENTED_EDGE('',*,*,#246,.F.);
#95=ORIENTED_EDGE('',*,*,#247,.T.);
#96=ORIENTED_EDGE('',*,*,#248,.F.);
#97=ORIENTED_EDGE('',*,*,#249,.F.);
#98=ORIENTED_EDGE('',*,*,#240,.F.);
#99=ORIENTED_EDGE('',*,*,#250,.T.);
#100=ORIENTED_EDGE('',*,*,#251,.T.);
#101=ORIENTED_EDGE('',*,*,#252,.T.);
#102=ORIENTED_EDGE('',*,*,#253,.T.);
#103=ORIENTED_EDGE('',*,*,#251,.F.);
#104=ORIENTED_EDGE('',*,*,#254,.F.);
#105=ORIENTED_EDGE('',*,*,#228,.T.);
#106=ORIENTED_EDGE('',*,*,#255,.T.);
#107=ORIENTED_EDGE('',*,*,#252,.F.);
#108=ORIENTED_EDGE('',*,*,#256,.F.);
#109=ORIENTED_EDGE('',*,*,#257,.F.);
#110=ORIENTED_EDGE('',*,*,#258,.F.);
#111=ORIENTED_EDGE('',*,*,#230,.F.);
#112=ORIENTED_EDGE('',*,*,#259,.T.);
#113=ORIENTED_EDGE('',*,*,#238,.T.);
#114=ORIENTED_EDGE('',*,*,#260,.T.);
#115=ORIENTED_EDGE('',*,*,#261,.F.);
#116=ORIENTED_EDGE('',*,*,#250,.F.);
#117=ORIENTED_EDGE('',*,*,#239,.T.);
#118=ORIENTED_EDGE('',*,*,#259,.F.);
#119=ORIENTED_EDGE('',*,*,#229,.F.);
#120=ORIENTED_EDGE('',*,*,#256,.T.);
#121=ORIENTED_EDGE('',*,*,#254,.T.);
#122=ORIENTED_EDGE('',*,*,#261,.T.);
#123=ORIENTED_EDGE('',*,*,#194,.T.);
#124=ORIENTED_EDGE('',*,*,#205,.F.);
#125=ORIENTED_EDGE('',*,*,#214,.F.);
#126=ORIENTED_EDGE('',*,*,#231,.T.);
#127=ORIENTED_EDGE('',*,*,#258,.T.);
#128=ORIENTED_EDGE('',*,*,#237,.F.);
#129=ORIENTED_EDGE('',*,*,#247,.F.);
#130=ORIENTED_EDGE('',*,*,#226,.T.);
#131=ORIENTED_EDGE('',*,*,#262,.F.);
#132=ORIENTED_EDGE('',*,*,#242,.F.);
#133=ORIENTED_EDGE('',*,*,#263,.T.);
#134=ORIENTED_EDGE('',*,*,#220,.T.);
#135=ORIENTED_EDGE('',*,*,#211,.T.);
#136=ORIENTED_EDGE('',*,*,#201,.F.);
#137=ORIENTED_EDGE('',*,*,#243,.T.);
#138=ORIENTED_EDGE('',*,*,#262,.T.);
#139=ORIENTED_EDGE('',*,*,#225,.F.);
#140=ORIENTED_EDGE('',*,*,#264,.T.);
#141=ORIENTED_EDGE('',*,*,#227,.T.);
#142=ORIENTED_EDGE('',*,*,#263,.F.);
#143=ORIENTED_EDGE('',*,*,#241,.F.);
#144=ORIENTED_EDGE('',*,*,#249,.T.);
#145=ORIENTED_EDGE('',*,*,#253,.F.);
#146=ORIENTED_EDGE('',*,*,#255,.F.);
#147=ORIENTED_EDGE('',*,*,#260,.F.);
#148=ORIENTED_EDGE('',*,*,#265,.T.);
#149=ORIENTED_EDGE('',*,*,#264,.F.);
#150=ORIENTED_EDGE('',*,*,#266,.F.);
#151=ORIENTED_EDGE('',*,*,#245,.T.);
#152=ORIENTED_EDGE('',*,*,#267,.T.);
#153=ORIENTED_EDGE('',*,*,#223,.F.);
#154=ORIENTED_EDGE('',*,*,#217,.T.);
#155=ORIENTED_EDGE('',*,*,#208,.T.);
#156=ORIENTED_EDGE('',*,*,#197,.F.);
#157=ORIENTED_EDGE('',*,*,#246,.T.);
#158=ORIENTED_EDGE('',*,*,#266,.T.);
#159=ORIENTED_EDGE('',*,*,#222,.F.);
#160=ORIENTED_EDGE('',*,*,#268,.T.);
#161=ORIENTED_EDGE('',*,*,#224,.T.);
#162=ORIENTED_EDGE('',*,*,#267,.F.);
#163=ORIENTED_EDGE('',*,*,#244,.F.);
#164=ORIENTED_EDGE('',*,*,#199,.T.);
#165=ORIENTED_EDGE('',*,*,#210,.F.);
#166=ORIENTED_EDGE('',*,*,#219,.F.);
#167=ORIENTED_EDGE('',*,*,#265,.F.);
#168=ORIENTED_EDGE('',*,*,#269,.T.);
#169=ORIENTED_EDGE('',*,*,#268,.F.);
#170=ORIENTED_EDGE('',*,*,#270,.F.);
#171=ORIENTED_EDGE('',*,*,#235,.T.);
#172=ORIENTED_EDGE('',*,*,#271,.T.);
#173=ORIENTED_EDGE('',*,*,#233,.F.);
#174=ORIENTED_EDGE('',*,*,#221,.T.);
#175=ORIENTED_EDGE('',*,*,#271,.F.);
#176=ORIENTED_EDGE('',*,*,#234,.F.);
#177=ORIENTED_EDGE('',*,*,#195,.T.);
#178=ORIENTED_EDGE('',*,*,#207,.F.);
#179=ORIENTED_EDGE('',*,*,#216,.F.);
#180=ORIENTED_EDGE('',*,*,#269,.F.);
#181=ORIENTED_EDGE('',*,*,#212,.T.);
#182=ORIENTED_EDGE('',*,*,#203,.T.);
#183=ORIENTED_EDGE('',*,*,#192,.F.);
#184=ORIENTED_EDGE('',*,*,#236,.T.);
#185=ORIENTED_EDGE('',*,*,#270,.T.);
#186=ORIENTED_EDGE('',*,*,#232,.F.);
#187=ORIENTED_EDGE('',*,*,#248,.T.);
#188=ORIENTED_EDGE('',*,*,#272,.F.);
#189=ORIENTED_EDGE('',*,*,#257,.T.);
#190=ORIENTED_EDGE('',*,*,#272,.T.);
#191=EDGE_CURVE('',#273,#274,#331,.T.);
#192=EDGE_CURVE('',#273,#275,#332,.T.);
#193=EDGE_CURVE('',#275,#276,#333,.T.);
#194=EDGE_CURVE('',#274,#276,#334,.T.);
#195=EDGE_CURVE('',#277,#278,#335,.T.);
#196=EDGE_CURVE('',#279,#277,#336,.T.);
#197=EDGE_CURVE('',#279,#280,#337,.T.);
#198=EDGE_CURVE('',#280,#278,#338,.T.);
#199=EDGE_CURVE('',#281,#282,#339,.T.);
#200=EDGE_CURVE('',#283,#281,#340,.T.);
#201=EDGE_CURVE('',#283,#284,#341,.T.);
#202=EDGE_CURVE('',#284,#282,#342,.T.);
#203=EDGE_CURVE('',#285,#275,#343,.T.);
#204=EDGE_CURVE('',#285,#286,#344,.T.);
#205=EDGE_CURVE('',#286,#276,#345,.T.);
#206=EDGE_CURVE('',#287,#288,#346,.T.);
#207=EDGE_CURVE('',#288,#278,#347,.T.);
#208=EDGE_CURVE('',#287,#280,#348,.T.);
#209=EDGE_CURVE('',#289,#290,#349,.T.);
#210=EDGE_CURVE('',#290,#282,#350,.T.);
#211=EDGE_CURVE('',#289,#284,#351,.T.);
#212=EDGE_CURVE('',#291,#285,#352,.T.);
#213=EDGE_CURVE('',#291,#292,#353,.T.);
#214=EDGE_CURVE('',#292,#286,#354,.T.);
#215=EDGE_CURVE('',#293,#294,#355,.T.);
#216=EDGE_CURVE('',#294,#288,#356,.T.);
#217=EDGE_CURVE('',#293,#287,#357,.T.);
#218=EDGE_CURVE('',#295,#296,#358,.T.);
#219=EDGE_CURVE('',#296,#290,#359,.T.);
#220=EDGE_CURVE('',#295,#289,#360,.T.);
#221=EDGE_CURVE('',#294,#297,#361,.T.);
#222=EDGE_CURVE('',#293,#298,#362,.T.);
#223=EDGE_CURVE('',#298,#299,#363,.T.);
#224=EDGE_CURVE('',#296,#299,#364,.T.);
#225=EDGE_CURVE('',#295,#300,#365,.T.);
#226=EDGE_CURVE('',#301,#300,#366,.T.);
#227=EDGE_CURVE('',#302,#301,#367,.T.);
#228=EDGE_CURVE('',#303,#302,#368,.T.);
#229=EDGE_CURVE('',#303,#304,#369,.T.);
#230=EDGE_CURVE('',#304,#305,#370,.T.);
#231=EDGE_CURVE('',#292,#305,#371,.T.);
#232=EDGE_CURVE('',#291,#306,#372,.T.);
#233=EDGE_CURVE('',#306,#297,#373,.T.);
#234=EDGE_CURVE('',#277,#307,#374,.T.);
#235=EDGE_CURVE('',#308,#307,#375,.T.);
#236=EDGE_CURVE('',#273,#308,#376,.T.);
#237=EDGE_CURVE('',#274,#309,#377,.T.);
#238=EDGE_CURVE('',#310,#309,#378,.T.);
#239=EDGE_CURVE('',#311,#310,#379,.T.);
#240=EDGE_CURVE('',#311,#312,#380,.T.);
#241=EDGE_CURVE('',#312,#313,#381,.T.);
#242=EDGE_CURVE('',#313,#314,#382,.T.);
#243=EDGE_CURVE('',#283,#314,#383,.T.);
#244=EDGE_CURVE('',#281,#315,#384,.T.);
#245=EDGE_CURVE('',#316,#315,#385,.T.);
#246=EDGE_CURVE('',#279,#316,#386,.T.);
#247=EDGE_CURVE('',#317,#317,#12,.T.);
#248=EDGE_CURVE('',#318,#318,#13,.F.);
#249=EDGE_CURVE('',#312,#319,#387,.T.);
#250=EDGE_CURVE('',#311,#320,#388,.T.);
#251=EDGE_CURVE('',#320,#319,#389,.T.);
#252=EDGE_CURVE('',#321,#322,#390,.T.);
#253=EDGE_CURVE('',#322,#319,#391,.T.);
#254=EDGE_CURVE('',#321,#320,#392,.T.);
#255=EDGE_CURVE('',#302,#322,#393,.T.);
#256=EDGE_CURVE('',#303,#321,#394,.T.);
#257=EDGE_CURVE('',#323,#323,#14,.T.);
#258=EDGE_CURVE('',#305,#309,#395,.T.);
#259=EDGE_CURVE('',#304,#310,#396,.T.);
#260=EDGE_CURVE('',#324,#324,#15,.F.);
#261=EDGE_CURVE('',#325,#325,#16,.T.);
#262=EDGE_CURVE('',#314,#300,#397,.T.);
#263=EDGE_CURVE('',#313,#301,#398,.T.);
#264=EDGE_CURVE('',#326,#326,#17,.F.);
#265=EDGE_CURVE('',#327,#327,#18,.F.);
#266=EDGE_CURVE('',#316,#298,#399,.T.);
#267=EDGE_CURVE('',#315,#299,#400,.T.);
#268=EDGE_CURVE('',#328,#328,#19,.F.);
#269=EDGE_CURVE('',#329,#329,#20,.F.);
#270=EDGE_CURVE('',#308,#306,#401,.T.);
#271=EDGE_CURVE('',#307,#297,#402,.T.);
#272=EDGE_CURVE('',#330,#330,#21,.T.);
#273=VERTEX_POINT('',#842);
#274=VERTEX_POINT('',#843);
#275=VERTEX_POINT('',#845);
#276=VERTEX_POINT('',#847);
#277=VERTEX_POINT('',#851);
#278=VERTEX_POINT('',#852);
#279=VERTEX_POINT('',#854);
#280=VERTEX_POINT('',#856);
#281=VERTEX_POINT('',#860);
#282=VERTEX_POINT('',#861);
#283=VERTEX_POINT('',#863);
#284=VERTEX_POINT('',#865);
#285=VERTEX_POINT('',#869);
#286=VERTEX_POINT('',#871);
#287=VERTEX_POINT('',#875);
#288=VERTEX_POINT('',#876);
#289=VERTEX_POINT('',#881);
#290=VERTEX_POINT('',#882);
#291=VERTEX_POINT('',#887);
#292=VERTEX_POINT('',#889);
#293=VERTEX_POINT('',#893);
#294=VERTEX_POINT('',#894);
#295=VERTEX_POINT('',#899);
#296=VERTEX_POINT('',#900);
#297=VERTEX_POINT('',#905);
#298=VERTEX_POINT('',#907);
#299=VERTEX_POINT('',#909);
#300=VERTEX_POINT('',#912);
#301=VERTEX_POINT('',#914);
#302=VERTEX_POINT('',#916);
#303=VERTEX_POINT('',#918);
#304=VERTEX_POINT('',#920);
#305=VERTEX_POINT('',#922);
#306=VERTEX_POINT('',#925);
#307=VERTEX_POINT('',#929);
#308=VERTEX_POINT('',#931);
#309=VERTEX_POINT('',#934);
#310=VERTEX_POINT('',#936);
#311=VERTEX_POINT('',#938);
#312=VERTEX_POINT('',#940);
#313=VERTEX_POINT('',#942);
#314=VERTEX_POINT('',#944);
#315=VERTEX_POINT('',#947);
#316=VERTEX_POINT('',#949);
#317=VERTEX_POINT('',#953);
#318=VERTEX_POINT('',#955);
#319=VERTEX_POINT('',#958);
#320=VERTEX_POINT('',#960);
#321=VERTEX_POINT('',#964);
#322=VERTEX_POINT('',#965);
#323=VERTEX_POINT('',#973);
#324=VERTEX_POINT('',#978);
#325=VERTEX_POINT('',#980);
#326=VERTEX_POINT('',#988);
#327=VERTEX_POINT('',#992);
#328=VERTEX_POINT('',#998);
#329=VERTEX_POINT('',#1002);
#330=VERTEX_POINT('',#1010);
#331=LINE('',#841,#403);
#332=LINE('',#844,#404);
#333=LINE('',#846,#405);
#334=LINE('',#848,#406);
#335=LINE('',#850,#407);
#336=LINE('',#853,#408);
#337=LINE('',#855,#409);
#338=LINE('',#857,#410);
#339=LINE('',#859,#411);
#340=LINE('',#862,#412);
#341=LINE('',#864,#413);
#342=LINE('',#866,#414);
#343=LINE('',#868,#415);
#344=LINE('',#870,#416);
#345=LINE('',#872,#417);
#346=LINE('',#874,#418);
#347=LINE('',#877,#419);
#348=LINE('',#878,#420);
#349=LINE('',#880,#421);
#350=LINE('',#883,#422);
#351=LINE('',#884,#423);
#352=LINE('',#886,#424);
#353=LINE('',#888,#425);
#354=LINE('',#890,#426);
#355=LINE('',#892,#427);
#356=LINE('',#895,#428);
#357=LINE('',#896,#429);
#358=LINE('',#898,#430);
#359=LINE('',#901,#431);
#360=LINE('',#902,#432);
#361=LINE('',#904,#433);
#362=LINE('',#906,#434);
#363=LINE('',#908,#435);
#364=LINE('',#910,#436);
#365=LINE('',#911,#437);
#366=LINE('',#913,#438);
#367=LINE('',#915,#439);
#368=LINE('',#917,#440);
#369=LINE('',#919,#441);
#370=LINE('',#921,#442);
#371=LINE('',#923,#443);
#372=LINE('',#924,#444);
#373=LINE('',#926,#445);
#374=LINE('',#928,#446);
#375=LINE('',#930,#447);
#376=LINE('',#932,#448);
#377=LINE('',#933,#449);
#378=LINE('',#935,#450);
#379=LINE('',#937,#451);
#380=LINE('',#939,#452);
#381=LINE('',#941,#453);
#382=LINE('',#943,#454);
#383=LINE('',#945,#455);
#384=LINE('',#946,#456);
#385=LINE('',#948,#457);
#386=LINE('',#950,#458);
#387=LINE('',#957,#459);
#388=LINE('',#959,#460);
#389=LINE('',#961,#461);
#390=LINE('',#963,#462);
#391=LINE('',#966,#463);
#392=LINE('',#967,#464);
#393=LINE('',#969,#465);
#394=LINE('',#970,#466);
#395=LINE('',#974,#467);
#396=LINE('',#975,#468);
#397=LINE('',#984,#469);
#398=LINE('',#985,#470);
#399=LINE('',#994,#471);
#400=LINE('',#995,#472);
#401=LINE('',#1004,#473);
#402=LINE('',#1005,#474);
#403=VECTOR('',#685,1.);
#404=VECTOR('',#686,1.);
#405=VECTOR('',#687,1.);
#406=VECTOR('',#688,1.);
#407=VECTOR('',#691,1.);
#408=VECTOR('',#692,1.);
#409=VECTOR('',#693,1.);
#410=VECTOR('',#694,1.);
#411=VECTOR('',#697,1.);
#412=VECTOR('',#698,1.);
#413=VECTOR('',#699,1.);
#414=VECTOR('',#700,1.);
#415=VECTOR('',#703,1.);
#416=VECTOR('',#704,1.);
#417=VECTOR('',#705,1.);
#418=VECTOR('',#708,1.);
#419=VECTOR('',#709,1.);
#420=VECTOR('',#710,1.);
#421=VECTOR('',#713,1.);
#422=VECTOR('',#714,1.);
#423=VECTOR('',#715,1.);
#424=VECTOR('',#718,1.);
#425=VECTOR('',#719,1.);
#426=VECTOR('',#720,1.);
#427=VECTOR('',#723,1.);
#428=VECTOR('',#724,1.);
#429=VECTOR('',#725,1.);
#430=VECTOR('',#728,1.);
#431=VECTOR('',#729,1.);
#432=VECTOR('',#730,1.);
#433=VECTOR('',#733,1.);
#434=VECTOR('',#734,1.);
#435=VECTOR('',#735,1.);
#436=VECTOR('',#736,1.);
#437=VECTOR('',#737,1.);
#438=VECTOR('',#738,1.);
#439=VECTOR('',#739,1.);
#440=VECTOR('',#740,1.);
#441=VECTOR('',#741,1.);
#442=VECTOR('',#742,1.);
#443=VECTOR('',#743,1.);
#444=VECTOR('',#744,1.);
#445=VECTOR('',#745,1.);
#446=VECTOR('',#748,1.);
#447=VECTOR('',#749,1.);
#448=VECTOR('',#750,1.);
#449=VECTOR('',#751,1.);
#450=VECTOR('',#752,1.);
#451=VECTOR('',#753,1.);
#452=VECTOR('',#754,1.);
#453=VECTOR('',#755,1.);
#454=VECTOR('',#756,1.);
#455=VECTOR('',#757,1.);
#456=VECTOR('',#758,1.);
#457=VECTOR('',#759,1.);
#458=VECTOR('',#760,1.);
#459=VECTOR('',#769,1.);
#460=VECTOR('',#770,1.);
#461=VECTOR('',#771,1.);
#462=VECTOR('',#774,1.);
#463=VECTOR('',#775,1.);
#464=VECTOR('',#776,1.);
#465=VECTOR('',#779,1.);
#466=VECTOR('',#780,1.);
#467=VECTOR('',#785,1.);
#468=VECTOR('',#786,1.);
#469=VECTOR('',#799,1.);
#470=VECTOR('',#800,1.);
#471=VECTOR('',#813,1.);
#472=VECTOR('',#814,1.);
#473=VECTOR('',#827,1.);
#474=VECTOR('',#828,1.);
#475=EDGE_LOOP('',(#27,#28,#29,#30));
#476=EDGE_LOOP('',(#31,#32,#33,#34));
#477=EDGE_LOOP('',(#35,#36,#37,#38));
#478=EDGE_LOOP('',(#39,#40,#41,#42));
#479=EDGE_LOOP('',(#43,#44,#45,#46));
#480=EDGE_LOOP('',(#47,#48,#49,#50));
#481=EDGE_LOOP('',(#51,#52,#53,#54));
#482=EDGE_LOOP('',(#55,#56,#57,#58));
#483=EDGE_LOOP('',(#59,#60,#61,#62));
#484=EDGE_LOOP('',(#63,#64,#65,#66,#67,#68,#69,#70,#71,#72,#73,#74,#75,
#76,#77,#78));
#485=EDGE_LOOP('',(#79,#80,#81,#82,#83,#84,#85,#86,#87,#88,#89,#90,#91,
#92,#93,#94));
#486=EDGE_LOOP('',(#95));
#487=EDGE_LOOP('',(#96));
#488=EDGE_LOOP('',(#97,#98,#99,#100));
#489=EDGE_LOOP('',(#101,#102,#103,#104));
#490=EDGE_LOOP('',(#105,#106,#107,#108));
#491=EDGE_LOOP('',(#109));
#492=EDGE_LOOP('',(#110,#111,#112,#113));
#493=EDGE_LOOP('',(#114));
#494=EDGE_LOOP('',(#115));
#495=EDGE_LOOP('',(#116,#117,#118,#119,#120,#121));
#496=EDGE_LOOP('',(#122));
#497=EDGE_LOOP('',(#123,#124,#125,#126,#127,#128));
#498=EDGE_LOOP('',(#129));
#499=EDGE_LOOP('',(#130,#131,#132,#133));
#500=EDGE_LOOP('',(#134,#135,#136,#137,#138,#139));
#501=EDGE_LOOP('',(#140));
#502=EDGE_LOOP('',(#141,#142,#143,#144,#145,#146));
#503=EDGE_LOOP('',(#147));
#504=EDGE_LOOP('',(#148));
#505=EDGE_LOOP('',(#149));
#506=EDGE_LOOP('',(#150,#151,#152,#153));
#507=EDGE_LOOP('',(#154,#155,#156,#157,#158,#159));
#508=EDGE_LOOP('',(#160));
#509=EDGE_LOOP('',(#161,#162,#163,#164,#165,#166));
#510=EDGE_LOOP('',(#167));
#511=EDGE_LOOP('',(#168));
#512=EDGE_LOOP('',(#169));
#513=EDGE_LOOP('',(#170,#171,#172,#173));
#514=EDGE_LOOP('',(#174,#175,#176,#177,#178,#179));
#515=EDGE_LOOP('',(#180));
#516=EDGE_LOOP('',(#181,#182,#183,#184,#185,#186));
#517=EDGE_LOOP('',(#187));
#518=EDGE_LOOP('',(#188));
#519=EDGE_LOOP('',(#189));
#520=EDGE_LOOP('',(#190));
#521=FACE_BOUND('',#475,.T.);
#522=FACE_BOUND('',#476,.T.);
#523=FACE_BOUND('',#477,.T.);
#524=FACE_BOUND('',#478,.T.);
#525=FACE_BOUND('',#479,.T.);
#526=FACE_BOUND('',#480,.T.);
#527=FACE_BOUND('',#481,.T.);
#528=FACE_BOUND('',#482,.T.);
#529=FACE_BOUND('',#483,.T.);
#530=FACE_BOUND('',#484,.T.);
#531=FACE_BOUND('',#485,.T.);
#532=FACE_BOUND('',#486,.T.);
#533=FACE_BOUND('',#487,.T.);
#534=FACE_BOUND('',#488,.T.);
#535=FACE_BOUND('',#489,.T.);
#536=FACE_BOUND('',#490,.T.);
#537=FACE_BOUND('',#491,.T.);
#538=FACE_BOUND('',#492,.T.);
#539=FACE_BOUND('',#493,.T.);
#540=FACE_BOUND('',#494,.T.);
#541=FACE_BOUND('',#495,.T.);
#542=FACE_BOUND('',#496,.T.);
#543=FACE_BOUND('',#497,.T.);
#544=FACE_BOUND('',#498,.T.);
#545=FACE_BOUND('',#499,.T.);
#546=FACE_BOUND('',#500,.T.);
#547=FACE_BOUND('',#501,.T.);
#548=FACE_BOUND('',#502,.T.);
#549=FACE_BOUND('',#503,.T.);
#550=FACE_BOUND('',#504,.T.);
#551=FACE_BOUND('',#505,.T.);
#552=FACE_BOUND('',#506,.T.);
#553=FACE_BOUND('',#507,.T.);
#554=FACE_BOUND('',#508,.T.);
#555=FACE_BOUND('',#509,.T.);
#556=FACE_BOUND('',#510,.T.);
#557=FACE_BOUND('',#511,.T.);
#558=FACE_BOUND('',#512,.T.);
#559=FACE_BOUND('',#513,.T.);
#560=FACE_BOUND('',#514,.T.);
#561=FACE_BOUND('',#515,.T.);
#562=FACE_BOUND('',#516,.T.);
#563=FACE_BOUND('',#517,.T.);
#564=FACE_BOUND('',#518,.T.);
#565=FACE_BOUND('',#519,.T.);
#566=FACE_BOUND('',#520,.T.);
#567=PLANE('',#639);
#568=PLANE('',#640);
#569=PLANE('',#641);
#570=PLANE('',#642);
#571=PLANE('',#643);
#572=PLANE('',#644);
#573=PLANE('',#645);
#574=PLANE('',#646);
#575=PLANE('',#647);
#576=PLANE('',#648);
#577=PLANE('',#649);
#578=PLANE('',#653);
#579=PLANE('',#654);
#580=PLANE('',#655);
#581=PLANE('',#656);
#582=PLANE('',#661);
#583=PLANE('',#662);
#584=PLANE('',#663);
#585=PLANE('',#664);
#586=PLANE('',#666);
#587=PLANE('',#669);
#588=PLANE('',#670);
#589=PLANE('',#672);
#590=PLANE('',#675);
#591=PLANE('',#676);
#592=PLANE('',#677);
#593=PLANE('',#680);
#594=ADVANCED_FACE('',(#521),#567,.T.);
#595=ADVANCED_FACE('',(#522),#568,.T.);
#596=ADVANCED_FACE('',(#523),#569,.T.);
#597=ADVANCED_FACE('',(#524),#570,.F.);
#598=ADVANCED_FACE('',(#525),#571,.F.);
#599=ADVANCED_FACE('',(#526),#572,.F.);
#600=ADVANCED_FACE('',(#527),#573,.F.);
#601=ADVANCED_FACE('',(#528),#574,.F.);
#602=ADVANCED_FACE('',(#529),#575,.F.);
#603=ADVANCED_FACE('',(#530),#576,.T.);
#604=ADVANCED_FACE('',(#531),#577,.F.);
#605=ADVANCED_FACE('',(#532,#533),#22,.F.);
#606=ADVANCED_FACE('',(#534),#578,.T.);
#607=ADVANCED_FACE('',(#535),#579,.F.);
#608=ADVANCED_FACE('',(#536),#580,.F.);
#609=ADVANCED_FACE('',(#537,#538),#581,.T.);
#610=ADVANCED_FACE('',(#539,#540),#23,.F.);
#611=ADVANCED_FACE('',(#541,#542),#582,.F.);
#612=ADVANCED_FACE('',(#543,#544),#583,.T.);
#613=ADVANCED_FACE('',(#545),#584,.F.);
#614=ADVANCED_FACE('',(#546,#547),#585,.T.);
#615=ADVANCED_FACE('',(#548,#549),#586,.F.);
#616=ADVANCED_FACE('',(#550,#551),#24,.F.);
#617=ADVANCED_FACE('',(#552),#587,.T.);
#618=ADVANCED_FACE('',(#553,#554),#588,.T.);
#619=ADVANCED_FACE('',(#555,#556),#589,.F.);
#620=ADVANCED_FACE('',(#557,#558),#25,.F.);
#621=ADVANCED_FACE('',(#559),#590,.T.);
#622=ADVANCED_FACE('',(#560,#561),#591,.F.);
#623=ADVANCED_FACE('',(#562,#563),#592,.T.);
#624=ADVANCED_FACE('',(#564,#565),#26,.F.);
#625=ADVANCED_FACE('',(#566),#593,.T.);
#626=CLOSED_SHELL('',(#594,#595,#596,#597,#598,#599,#600,#601,#602,#603,
#604,#605,#606,#607,#608,#609,#610,#611,#612,#613,#614,#615,#616,#617,#618,
#619,#620,#621,#622,#623,#624,#625));
#627=STYLED_ITEM('',(#628),#635);
#628=PRESENTATION_STYLE_ASSIGNMENT((#629));
#629=SURFACE_STYLE_USAGE(.BOTH.,#630);
#630=SURFACE_SIDE_STYLE('',(#631));
#631=SURFACE_STYLE_FILL_AREA(#632);
#632=FILL_AREA_STYLE('',(#633));
#633=FILL_AREA_STYLE_COLOUR('',#634);
#634=COLOUR_RGB('',0.972549019607843,0.529411764705882,0.00392156862745098);
#635=MANIFOLD_SOLID_BREP('Servo rod 3',#626);
#636=SHAPE_DEFINITION_REPRESENTATION(#1018,#637);
#637=SHAPE_REPRESENTATION('Servo rod 3',(#638),#1013);
#638=AXIS2_PLACEMENT_3D('',#839,#681,#682);
#639=AXIS2_PLACEMENT_3D('',#840,#683,#684);
#640=AXIS2_PLACEMENT_3D('',#849,#689,#690);
#641=AXIS2_PLACEMENT_3D('',#858,#695,#696);
#642=AXIS2_PLACEMENT_3D('',#867,#701,#702);
#643=AXIS2_PLACEMENT_3D('',#873,#706,#707);
#644=AXIS2_PLACEMENT_3D('',#879,#711,#712);
#645=AXIS2_PLACEMENT_3D('',#885,#716,#717);
#646=AXIS2_PLACEMENT_3D('',#891,#721,#722);
#647=AXIS2_PLACEMENT_3D('',#897,#726,#727);
#648=AXIS2_PLACEMENT_3D('',#903,#731,#732);
#649=AXIS2_PLACEMENT_3D('',#927,#746,#747);
#650=AXIS2_PLACEMENT_3D('',#951,#761,#762);
#651=AXIS2_PLACEMENT_3D('',#952,#763,#764);
#652=AXIS2_PLACEMENT_3D('',#954,#765,#766);
#653=AXIS2_PLACEMENT_3D('',#956,#767,#768);
#654=AXIS2_PLACEMENT_3D('',#962,#772,#773);
#655=AXIS2_PLACEMENT_3D('',#968,#777,#778);
#656=AXIS2_PLACEMENT_3D('',#971,#781,#782);
#657=AXIS2_PLACEMENT_3D('',#972,#783,#784);
#658=AXIS2_PLACEMENT_3D('',#976,#787,#788);
#659=AXIS2_PLACEMENT_3D('',#977,#789,#790);
#660=AXIS2_PLACEMENT_3D('',#979,#791,#792);
#661=AXIS2_PLACEMENT_3D('',#981,#793,#794);
#662=AXIS2_PLACEMENT_3D('',#982,#795,#796);
#663=AXIS2_PLACEMENT_3D('',#983,#797,#798);
#664=AXIS2_PLACEMENT_3D('',#986,#801,#802);
#665=AXIS2_PLACEMENT_3D('',#987,#803,#804);
#666=AXIS2_PLACEMENT_3D('',#989,#805,#806);
#667=AXIS2_PLACEMENT_3D('',#990,#807,#808);
#668=AXIS2_PLACEMENT_3D('',#991,#809,#810);
#669=AXIS2_PLACEMENT_3D('',#993,#811,#812);
#670=AXIS2_PLACEMENT_3D('',#996,#815,#816);
#671=AXIS2_PLACEMENT_3D('',#997,#817,#818);
#672=AXIS2_PLACEMENT_3D('',#999,#819,#820);
#673=AXIS2_PLACEMENT_3D('',#1000,#821,#822);
#674=AXIS2_PLACEMENT_3D('',#1001,#823,#824);
#675=AXIS2_PLACEMENT_3D('',#1003,#825,#826);
#676=AXIS2_PLACEMENT_3D('',#1006,#829,#830);
#677=AXIS2_PLACEMENT_3D('',#1007,#831,#832);
#678=AXIS2_PLACEMENT_3D('',#1008,#833,#834);
#679=AXIS2_PLACEMENT_3D('',#1009,#835,#836);
#680=AXIS2_PLACEMENT_3D('',#1011,#837,#838);
#681=DIRECTION('',(0.,0.,1.));
#682=DIRECTION('',(1.,0.,0.));
#683=DIRECTION('',(0.799408065031786,0.384615384615394,0.46153846153846));
#684=DIRECTION('',(0.333086693763254,-0.923076923076919,0.192307692307697));
#685=DIRECTION('',(-0.5,0.,0.866025403784439));
#686=DIRECTION('',(-0.333086693763254,0.923076923076919,-0.192307692307697));
#687=DIRECTION('',(-0.5,0.,0.866025403784439));
#688=DIRECTION('',(-0.333086693763254,0.923076923076919,-0.192307692307697));
#689=DIRECTION('',(0.799408065031786,0.384615384615394,0.46153846153846));
#690=DIRECTION('',(0.333086693763254,-0.923076923076919,0.192307692307697));
#691=DIRECTION('',(-0.333086693763254,0.923076923076919,-0.192307692307697));
#692=DIRECTION('',(-0.5,0.,0.866025403784439));
#693=DIRECTION('',(-0.333086693763254,0.923076923076919,-0.192307692307697));
#694=DIRECTION('',(-0.5,0.,0.866025403784439));
#695=DIRECTION('',(0.799408065031786,0.384615384615394,0.46153846153846));
#696=DIRECTION('',(0.333086693763254,-0.923076923076919,0.192307692307697));
#697=DIRECTION('',(-0.333086693763254,0.923076923076919,-0.192307692307697));
#698=DIRECTION('',(-0.5,0.,0.866025403784439));
#699=DIRECTION('',(-0.333086693763254,0.923076923076919,-0.192307692307697));
#700=DIRECTION('',(-0.5,0.,0.866025403784439));
#701=DIRECTION('',(0.,-1.,0.));
#702=DIRECTION('',(-0.866025403784439,0.,-0.5));
#703=DIRECTION('',(0.866025403784439,0.,0.5));
#704=DIRECTION('',(-0.5,0.,0.866025403784439));
#705=DIRECTION('',(0.866025403784439,0.,0.5));
#706=DIRECTION('',(0.,-1.,0.));
#707=DIRECTION('',(-0.866025403784439,0.,-0.5));
#708=DIRECTION('',(-0.5,0.,0.866025403784439));
#709=DIRECTION('',(0.866025403784439,0.,0.5));
#710=DIRECTION('',(0.866025403784439,0.,0.5));
#711=DIRECTION('',(0.,-1.,0.));
#712=DIRECTION('',(-0.866025403784439,0.,-0.5));
#713=DIRECTION('',(-0.5,0.,0.866025403784439));
#714=DIRECTION('',(0.866025403784439,0.,0.5));
#715=DIRECTION('',(0.866025403784439,0.,0.5));
#716=DIRECTION('',(0.799408065031786,-0.384615384615393,0.46153846153846));
#717=DIRECTION('',(-0.333086693763253,-0.92307692307692,-0.192307692307697));
#718=DIRECTION('',(0.333086693763253,0.92307692307692,0.192307692307697));
#719=DIRECTION('',(-0.5,0.,0.866025403784439));
#720=DIRECTION('',(0.333086693763253,0.92307692307692,0.192307692307697));
#721=DIRECTION('',(0.799408065031786,-0.384615384615393,0.46153846153846));
#722=DIRECTION('',(-0.333086693763253,-0.92307692307692,-0.192307692307697));
#723=DIRECTION('',(-0.5,0.,0.866025403784439));
#724=DIRECTION('',(0.333086693763253,0.92307692307692,0.192307692307697));
#725=DIRECTION('',(0.333086693763253,0.92307692307692,0.192307692307697));
#726=DIRECTION('',(0.799408065031786,-0.384615384615393,0.46153846153846));
#727=DIRECTION('',(-0.333086693763253,-0.92307692307692,-0.192307692307697));
#728=DIRECTION('',(-0.5,0.,0.866025403784439));
#729=DIRECTION('',(0.333086693763253,0.92307692307692,0.192307692307697));
#730=DIRECTION('',(0.333086693763253,0.92307692307692,0.192307692307697));
#731=DIRECTION('',(-0.866025403784439,-3.13268347806193E-16,-0.5));
#732=DIRECTION('',(-2.71298347401742E-16,1.,-1.56634173903096E-16));
#733=DIRECTION('',(2.71298347401742E-16,-1.,1.56634173903096E-16));
#734=DIRECTION('',(2.71298347401742E-16,-1.,1.56634173903096E-16));
#735=DIRECTION('',(0.5,1.91821539707517E-32,-0.866025403784439));
#736=DIRECTION('',(2.71298347401742E-16,-1.,1.56634173903096E-16));
#737=DIRECTION('',(2.71298347401742E-16,-1.,1.56634173903096E-16));
#738=DIRECTION('',(-0.5,-1.91821539707517E-32,0.866025403784439));
#739=DIRECTION('',(2.71298347401742E-16,-1.,1.56634173903096E-16));
#740=DIRECTION('',(-0.5,0.,0.866025403784439));
#741=DIRECTION('',(2.71298347401742E-16,-1.,1.56634173903096E-16));
#742=DIRECTION('',(-0.5,0.,0.866025403784439));
#743=DIRECTION('',(2.71298347401742E-16,-1.,1.56634173903096E-16));
#744=DIRECTION('',(2.71298347401742E-16,-1.,1.56634173903096E-16));
#745=DIRECTION('',(0.5,1.91821539707517E-32,-0.866025403784439));
#746=DIRECTION('',(-0.866025403784439,-3.13268347806194E-16,-0.5));
#747=DIRECTION('',(-2.71298347401742E-16,1.,-1.56634173903096E-16));
#748=DIRECTION('',(2.71298347401742E-16,-1.,1.56634173903096E-16));
#749=DIRECTION('',(0.5,1.91821539707517E-32,-0.866025403784439));
#750=DIRECTION('',(2.71298347401742E-16,-1.,1.56634173903096E-16));
#751=DIRECTION('',(2.71298347401742E-16,-1.,1.56634173903096E-16));
#752=DIRECTION('',(-0.5,0.,0.866025403784439));
#753=DIRECTION('',(2.71298347401742E-16,-1.,1.56634173903096E-16));
#754=DIRECTION('',(-0.5,0.,0.866025403784439));
#755=DIRECTION('',(2.71298347401742E-16,-1.,1.56634173903096E-16));
#756=DIRECTION('',(-0.5,-1.91821539707517E-32,0.866025403784439));
#757=DIRECTION('',(2.71298347401742E-16,-1.,1.56634173903096E-16));
#758=DIRECTION('',(2.71298347401742E-16,-1.,1.56634173903096E-16));
#759=DIRECTION('',(0.5,1.91821539707517E-32,-0.866025403784439));
#760=DIRECTION('',(2.71298347401742E-16,-1.,1.56634173903096E-16));
#761=DIRECTION('',(-0.5,0.,0.866025403784439));
#762=DIRECTION('',(0.866025403784439,0.,0.5));
#763=DIRECTION('',(-0.5,0.,0.866025403784439));
#764=DIRECTION('',(0.866025403784439,0.,0.5));
#765=DIRECTION('',(0.5,0.,-0.866025403784439));
#766=DIRECTION('',(-0.866025403784439,0.,-0.5));
#767=DIRECTION('',(0.799408065031786,0.384615384615394,0.46153846153846));
#768=DIRECTION('',(0.333086693763254,-0.923076923076919,0.192307692307697));
#769=DIRECTION('',(-0.333086693763254,0.923076923076919,-0.192307692307697));
#770=DIRECTION('',(-0.333086693763254,0.923076923076919,-0.192307692307697));
#771=DIRECTION('',(-0.5,0.,0.866025403784439));
#772=DIRECTION('',(0.,-1.,0.));
#773=DIRECTION('',(-0.866025403784439,0.,-0.5));
#774=DIRECTION('',(-0.5,0.,0.866025403784439));
#775=DIRECTION('',(0.866025403784439,0.,0.5));
#776=DIRECTION('',(0.866025403784439,0.,0.5));
#777=DIRECTION('',(0.799408065031786,-0.384615384615393,0.46153846153846));
#778=DIRECTION('',(-0.333086693763253,-0.92307692307692,-0.192307692307697));
#779=DIRECTION('',(0.333086693763253,0.92307692307692,0.192307692307697));
#780=DIRECTION('',(0.333086693763253,0.92307692307692,0.192307692307697));
#781=DIRECTION('',(0.,-1.,0.));
#782=DIRECTION('',(-0.866025403784439,0.,-0.5));
#783=DIRECTION('',(0.,-1.,0.));
#784=DIRECTION('',(-0.866025403784439,0.,-0.5));
#785=DIRECTION('',(0.866025403784439,0.,0.5));
#786=DIRECTION('',(0.866025403784439,0.,0.5));
#787=DIRECTION('',(-0.5,0.,0.866025403784439));
#788=DIRECTION('',(0.866025403784439,0.,0.5));
#789=DIRECTION('',(0.5,0.,-0.866025403784439));
#790=DIRECTION('',(-0.866025403784439,0.,-0.5));
#791=DIRECTION('',(-0.5,0.,0.866025403784439));
#792=DIRECTION('',(0.866025403784439,0.,0.5));
#793=DIRECTION('',(-0.5,0.,0.866025403784439));
#794=DIRECTION('',(0.,-1.,0.));
#795=DIRECTION('',(-0.5,0.,0.866025403784439));
#796=DIRECTION('',(0.,-1.,0.));
#797=DIRECTION('',(2.71298347401742E-16,-1.,1.56634173903096E-16));
#798=DIRECTION('',(-0.866025403784439,-3.13268347806193E-16,-0.5));
#799=DIRECTION('',(-0.866025403784439,-3.13268347806193E-16,-0.5));
#800=DIRECTION('',(-0.866025403784439,-3.13268347806193E-16,-0.5));
#801=DIRECTION('',(0.5,0.,-0.866025403784439));
#802=DIRECTION('',(-0.866025403784439,0.,-0.5));
#803=DIRECTION('',(0.5,0.,-0.866025403784439));
#804=DIRECTION('',(-0.866025403784439,0.,-0.5));
#805=DIRECTION('',(0.5,0.,-0.866025403784439));
#806=DIRECTION('',(-0.866025403784439,0.,-0.5));
#807=DIRECTION('',(-0.5,0.,0.866025403784439));
#808=DIRECTION('',(0.866025403784439,0.,0.5));
#809=DIRECTION('',(0.5,0.,-0.866025403784439));
#810=DIRECTION('',(-0.866025403784439,0.,-0.5));
#811=DIRECTION('',(-2.71298347401742E-16,1.,-1.56634173903096E-16));
#812=DIRECTION('',(0.866025403784439,3.13268347806193E-16,0.5));
#813=DIRECTION('',(-0.866025403784439,-3.13268347806193E-16,-0.5));
#814=DIRECTION('',(-0.866025403784439,-3.13268347806193E-16,-0.5));
#815=DIRECTION('',(0.5,0.,-0.866025403784439));
#816=DIRECTION('',(-0.866025403784439,0.,-0.5));
#817=DIRECTION('',(0.5,0.,-0.866025403784439));
#818=DIRECTION('',(-0.866025403784439,0.,-0.5));
#819=DIRECTION('',(0.5,0.,-0.866025403784439));
#820=DIRECTION('',(-0.866025403784439,0.,-0.5));
#821=DIRECTION('',(-0.5,0.,0.866025403784439));
#822=DIRECTION('',(0.866025403784439,0.,0.5));
#823=DIRECTION('',(0.5,0.,-0.866025403784439));
#824=DIRECTION('',(-0.866025403784439,0.,-0.5));
#825=DIRECTION('',(-2.71298347401742E-16,1.,-1.56634173903096E-16));
#826=DIRECTION('',(0.866025403784439,3.13268347806193E-16,0.5));
#827=DIRECTION('',(-0.866025403784439,-3.13268347806193E-16,-0.5));
#828=DIRECTION('',(-0.866025403784439,-3.13268347806193E-16,-0.5));
#829=DIRECTION('',(0.5,0.,-0.866025403784439));
#830=DIRECTION('',(-0.866025403784439,0.,-0.5));
#831=DIRECTION('',(0.5,0.,-0.866025403784439));
#832=DIRECTION('',(-0.866025403784439,0.,-0.5));
#833=DIRECTION('',(0.,-1.,0.));
#834=DIRECTION('',(-0.866025403784439,0.,-0.5));
#835=DIRECTION('',(0.,-1.,0.));
#836=DIRECTION('',(-0.866025403784439,0.,-0.5));
#837=DIRECTION('',(0.,-1.,0.));
#838=DIRECTION('',(0.5,0.,-0.866025403784439));
#839=CARTESIAN_POINT('',(0.,0.,0.));
#840=CARTESIAN_POINT('',(-0.0231456024146398,-0.03385,-0.0152106406460551));
#841=CARTESIAN_POINT('',(-0.0220630706599092,-0.03685,-0.0145856406460551));
#842=CARTESIAN_POINT('',(-0.0258630706599092,-0.03685,-0.00800384757729336));
#843=CARTESIAN_POINT('',(-0.0266630706599092,-0.03685,-0.00661820693123826));
#844=CARTESIAN_POINT('',(-0.0269456024146398,-0.03385,-0.00862884757729337));
#845=CARTESIAN_POINT('',(-0.0280281341693703,-0.03085,-0.00925384757729338));
#846=CARTESIAN_POINT('',(-0.0242281341693703,-0.03085,-0.0158356406460551));
#847=CARTESIAN_POINT('',(-0.0288281341693703,-0.03085,-0.00786820693123827));
#848=CARTESIAN_POINT('',(-0.0277456024146398,-0.03385,-0.00724320693123827));
#849=CARTESIAN_POINT('',(-0.0231456024146398,-0.03385,-0.0152106406460551));
#850=CARTESIAN_POINT('',(-0.0263122690813064,-0.03385,-0.00972581308875366));
#851=CARTESIAN_POINT('',(-0.0252297373265758,-0.03685,-0.00910081308875365));
#852=CARTESIAN_POINT('',(-0.027394800836037,-0.03085,-0.0103508130887537));
#853=CARTESIAN_POINT('',(-0.0220630706599092,-0.03685,-0.0145856406460551));
#854=CARTESIAN_POINT('',(-0.0246797373265758,-0.03685,-0.0100534410329165));
#855=CARTESIAN_POINT('',(-0.0257622690813064,-0.03385,-0.0106784410329165));
#856=CARTESIAN_POINT('',(-0.0268448008360369,-0.03085,-0.0113034410329165));
#857=CARTESIAN_POINT('',(-0.0242281341693703,-0.03085,-0.0158356406460551));
#858=CARTESIAN_POINT('',(-0.0231456024146398,-0.03385,-0.0152106406460551));
#859=CARTESIAN_POINT('',(-0.025128935747973,-0.03385,-0.0117754065443768));
#860=CARTESIAN_POINT('',(-0.0240464039932425,-0.03685,-0.0111504065443768));
#861=CARTESIAN_POINT('',(-0.0262114675027036,-0.03085,-0.0124004065443768));
#862=CARTESIAN_POINT('',(-0.0220630706599092,-0.03685,-0.0145856406460551));
#863=CARTESIAN_POINT('',(-0.0234964039932425,-0.03685,-0.0121030344885397));
#864=CARTESIAN_POINT('',(-0.024578935747973,-0.03385,-0.0127280344885397));
#865=CARTESIAN_POINT('',(-0.0256614675027036,-0.03085,-0.0133530344885397));
#866=CARTESIAN_POINT('',(-0.0242281341693703,-0.03085,-0.0158356406460551));
#867=CARTESIAN_POINT('',(-0.0260467875173176,-0.03085,-0.0168856406460551));
#868=CARTESIAN_POINT('',(-0.0298467875173176,-0.03085,-0.0103038475772934));
#869=CARTESIAN_POINT('',(-0.0316654408652649,-0.03085,-0.0113538475772934));
#870=CARTESIAN_POINT('',(-0.0278654408652649,-0.03085,-0.0179356406460551));
#871=CARTESIAN_POINT('',(-0.0324654408652649,-0.03085,-0.00996820693123826));
#872=CARTESIAN_POINT('',(-0.0306467875173176,-0.03085,-0.00891820693123827));
#873=CARTESIAN_POINT('',(-0.0260467875173176,-0.03085,-0.0168856406460551));
#874=CARTESIAN_POINT('',(-0.0278654408652649,-0.03085,-0.0179356406460551));
#875=CARTESIAN_POINT('',(-0.0304821075319316,-0.03085,-0.0134034410329165));
#876=CARTESIAN_POINT('',(-0.0310321075319316,-0.03085,-0.0124508130887536));
#877=CARTESIAN_POINT('',(-0.0292134541839843,-0.03085,-0.0114008130887537));
#878=CARTESIAN_POINT('',(-0.0286634541839842,-0.03085,-0.0123534410329165));
#879=CARTESIAN_POINT('',(-0.0260467875173176,-0.03085,-0.0168856406460551));
#880=CARTESIAN_POINT('',(-0.0278654408652649,-0.03085,-0.0179356406460551));
#881=CARTESIAN_POINT('',(-0.0292987741985983,-0.03085,-0.0154530344885397));
#882=CARTESIAN_POINT('',(-0.0298487741985983,-0.03085,-0.0145004065443768));
#883=CARTESIAN_POINT('',(-0.0280301208506509,-0.03085,-0.0134504065443768));
#884=CARTESIAN_POINT('',(-0.0274801208506509,-0.03085,-0.0144030344885397));
#885=CARTESIAN_POINT('',(-0.0289479726199954,-0.03385,-0.0185606406460551));
#886=CARTESIAN_POINT('',(-0.0327479726199955,-0.03385,-0.0119788475772934));
#887=CARTESIAN_POINT('',(-0.033830504374726,-0.03685,-0.0126038475772934));
#888=CARTESIAN_POINT('',(-0.030030504374726,-0.03685,-0.0191856406460551));
#889=CARTESIAN_POINT('',(-0.034630504374726,-0.03685,-0.0112182069312383));
#890=CARTESIAN_POINT('',(-0.0335479726199955,-0.03385,-0.0105932069312383));
#891=CARTESIAN_POINT('',(-0.0289479726199954,-0.03385,-0.0185606406460551));
#892=CARTESIAN_POINT('',(-0.030030504374726,-0.03685,-0.0191856406460551));
#893=CARTESIAN_POINT('',(-0.0326471710413927,-0.03685,-0.0146534410329165));
#894=CARTESIAN_POINT('',(-0.0331971710413927,-0.03685,-0.0137008130887536));
#895=CARTESIAN_POINT('',(-0.0321146392866622,-0.03385,-0.0130758130887537));
#896=CARTESIAN_POINT('',(-0.0315646392866622,-0.03385,-0.0140284410329165));
#897=CARTESIAN_POINT('',(-0.0289479726199954,-0.03385,-0.0185606406460551));
#898=CARTESIAN_POINT('',(-0.030030504374726,-0.03685,-0.0191856406460551));
#899=CARTESIAN_POINT('',(-0.0314638377080593,-0.03685,-0.0167030344885397));
#900=CARTESIAN_POINT('',(-0.0320138377080594,-0.03685,-0.0157504065443769));
#901=CARTESIAN_POINT('',(-0.0309313059533288,-0.03385,-0.0151254065443769));
#902=CARTESIAN_POINT('',(-0.0303813059533288,-0.03385,-0.0160780344885397));
#903=CARTESIAN_POINT('',(-0.030030504374726,-0.047925,-0.0191856406460551));
#904=CARTESIAN_POINT('',(-0.0331971710413927,-0.047925,-0.0137008130887536));
#905=CARTESIAN_POINT('',(-0.0331971710413927,-0.038,-0.0137008130887536));
#906=CARTESIAN_POINT('',(-0.0326471710413927,-0.047925,-0.0146534410329165));
#907=CARTESIAN_POINT('',(-0.0326471710413927,-0.038,-0.0146534410329165));
#908=CARTESIAN_POINT('',(-0.030030504374726,-0.038,-0.0191856406460551));
#909=CARTESIAN_POINT('',(-0.0320138377080593,-0.038,-0.0157504065443768));
#910=CARTESIAN_POINT('',(-0.0320138377080594,-0.047925,-0.0157504065443768));
#911=CARTESIAN_POINT('',(-0.0314638377080593,-0.047925,-0.0167030344885397));
#912=CARTESIAN_POINT('',(-0.0314638377080593,-0.038,-0.0167030344885397));
#913=CARTESIAN_POINT('',(-0.030030504374726,-0.038,-0.0191856406460551));
#914=CARTESIAN_POINT('',(-0.030830504374726,-0.038,-0.0178));
#915=CARTESIAN_POINT('',(-0.030830504374726,-0.047925,-0.0178));
#916=CARTESIAN_POINT('',(-0.030830504374726,-0.03685,-0.0178));
#917=CARTESIAN_POINT('',(-0.030030504374726,-0.03685,-0.0191856406460551));
#918=CARTESIAN_POINT('',(-0.030030504374726,-0.03685,-0.0191856406460551));
#919=CARTESIAN_POINT('',(-0.030030504374726,-0.047925,-0.0191856406460551));
#920=CARTESIAN_POINT('',(-0.030030504374726,-0.059,-0.0191856406460551));
#921=CARTESIAN_POINT('',(-0.030030504374726,-0.059,-0.0191856406460551));
#922=CARTESIAN_POINT('',(-0.034630504374726,-0.059,-0.0112182069312383));
#923=CARTESIAN_POINT('',(-0.034630504374726,-0.047925,-0.0112182069312383));
#924=CARTESIAN_POINT('',(-0.033830504374726,-0.047925,-0.0126038475772934));
#925=CARTESIAN_POINT('',(-0.033830504374726,-0.038,-0.0126038475772933));
#926=CARTESIAN_POINT('',(-0.030030504374726,-0.038,-0.0191856406460551));
#927=CARTESIAN_POINT('',(-0.0220630706599092,-0.047925,-0.0145856406460551));
#928=CARTESIAN_POINT('',(-0.0252297373265758,-0.047925,-0.00910081308875365));
#929=CARTESIAN_POINT('',(-0.0252297373265758,-0.038,-0.00910081308875365));
#930=CARTESIAN_POINT('',(-0.0220630706599092,-0.038,-0.0145856406460551));
#931=CARTESIAN_POINT('',(-0.0258630706599092,-0.038,-0.00800384757729336));
#932=CARTESIAN_POINT('',(-0.0258630706599092,-0.047925,-0.00800384757729336));
#933=CARTESIAN_POINT('',(-0.0266630706599092,-0.047925,-0.00661820693123826));
#934=CARTESIAN_POINT('',(-0.0266630706599092,-0.059,-0.00661820693123826));
#935=CARTESIAN_POINT('',(-0.0220630706599092,-0.059,-0.0145856406460551));
#936=CARTESIAN_POINT('',(-0.0220630706599092,-0.059,-0.0145856406460551));
#937=CARTESIAN_POINT('',(-0.0220630706599092,-0.047925,-0.0145856406460551));
#938=CARTESIAN_POINT('',(-0.0220630706599092,-0.03685,-0.0145856406460551));
#939=CARTESIAN_POINT('',(-0.0220630706599092,-0.03685,-0.0145856406460551));
#940=CARTESIAN_POINT('',(-0.0228630706599092,-0.03685,-0.0132));
#941=CARTESIAN_POINT('',(-0.0228630706599092,-0.047925,-0.0132));
#942=CARTESIAN_POINT('',(-0.0228630706599092,-0.038,-0.0132));
#943=CARTESIAN_POINT('',(-0.0220630706599092,-0.038,-0.0145856406460551));
#944=CARTESIAN_POINT('',(-0.0234964039932425,-0.038,-0.0121030344885397));
#945=CARTESIAN_POINT('',(-0.0234964039932425,-0.047925,-0.0121030344885397));
#946=CARTESIAN_POINT('',(-0.0240464039932425,-0.047925,-0.0111504065443768));
#947=CARTESIAN_POINT('',(-0.0240464039932425,-0.038,-0.0111504065443768));
#948=CARTESIAN_POINT('',(-0.0220630706599092,-0.038,-0.0145856406460551));
#949=CARTESIAN_POINT('',(-0.0246797373265758,-0.038,-0.0100534410329165));
#950=CARTESIAN_POINT('',(-0.0246797373265758,-0.047925,-0.0100534410329165));
#951=CARTESIAN_POINT('',(-0.0260467875173176,-0.034,-0.0168856406460551));
#952=CARTESIAN_POINT('',(-0.0306467875173176,-0.034,-0.00891820693123826));
#953=CARTESIAN_POINT('',(-0.0293044481414517,-0.034,-0.00814320693123826));
#954=CARTESIAN_POINT('',(-0.0298467875173176,-0.034,-0.0103038475772934));
#955=CARTESIAN_POINT('',(-0.0311891268931835,-0.034,-0.0110788475772934));
#956=CARTESIAN_POINT('',(-0.0231456024146398,-0.03385,-0.0152106406460551));
#957=CARTESIAN_POINT('',(-0.0239456024146398,-0.03385,-0.013825));
#958=CARTESIAN_POINT('',(-0.0250281341693703,-0.03085,-0.01445));
#959=CARTESIAN_POINT('',(-0.0231456024146398,-0.03385,-0.0152106406460551));
#960=CARTESIAN_POINT('',(-0.0242281341693703,-0.03085,-0.0158356406460551));
#961=CARTESIAN_POINT('',(-0.0242281341693703,-0.03085,-0.0158356406460551));
#962=CARTESIAN_POINT('',(-0.0260467875173176,-0.03085,-0.0168856406460551));
#963=CARTESIAN_POINT('',(-0.0278654408652649,-0.03085,-0.0179356406460551));
#964=CARTESIAN_POINT('',(-0.0278654408652649,-0.03085,-0.0179356406460551));
#965=CARTESIAN_POINT('',(-0.0286654408652649,-0.03085,-0.01655));
#966=CARTESIAN_POINT('',(-0.0268467875173176,-0.03085,-0.0155));
#967=CARTESIAN_POINT('',(-0.0260467875173176,-0.03085,-0.0168856406460551));
#968=CARTESIAN_POINT('',(-0.0289479726199954,-0.03385,-0.0185606406460551));
#969=CARTESIAN_POINT('',(-0.0297479726199954,-0.03385,-0.017175));
#970=CARTESIAN_POINT('',(-0.0289479726199954,-0.03385,-0.0185606406460551));
#971=CARTESIAN_POINT('',(-0.0260467875173176,-0.059,-0.0168856406460551));
#972=CARTESIAN_POINT('',(-0.0283467875173176,-0.059,-0.0129019237886467));
#973=CARTESIAN_POINT('',(-0.0310098156339547,-0.059,-0.0144394237886467));
#974=CARTESIAN_POINT('',(-0.0306467875173176,-0.059,-0.00891820693123826));
#975=CARTESIAN_POINT('',(-0.0260467875173176,-0.059,-0.0168856406460551));
#976=CARTESIAN_POINT('',(-0.0260467875173176,-0.034,-0.0168856406460551));
#977=CARTESIAN_POINT('',(-0.0268467875173176,-0.034,-0.0155));
#978=CARTESIAN_POINT('',(-0.0281891268931835,-0.034,-0.016275));
#979=CARTESIAN_POINT('',(-0.0260467875173176,-0.034,-0.0168856406460551));
#980=CARTESIAN_POINT('',(-0.0247044481414517,-0.034,-0.0161106406460551));
#981=CARTESIAN_POINT('',(-0.0260467875173176,-0.037032125,-0.0168856406460551));
#982=CARTESIAN_POINT('',(-0.0306467875173176,-0.037032125,-0.00891820693123826));
#983=CARTESIAN_POINT('',(0.14453965283198,-0.038,0.0841524502986327));
#984=CARTESIAN_POINT('',(0.144210486165313,-0.038,0.0847225836894575));
#985=CARTESIAN_POINT('',(0.144843819498647,-0.038,0.0836256181779972));
#986=CARTESIAN_POINT('',(0.144210486165313,-0.037975,0.0847225836894575));
#987=CARTESIAN_POINT('',(-0.0274801208506509,-0.034,-0.0144030344885397));
#988=CARTESIAN_POINT('',(-0.0288224602265168,-0.034,-0.0151780344885397));
#989=CARTESIAN_POINT('',(0.144843819498647,-0.034025,0.0836256181779972));
#990=CARTESIAN_POINT('',(-0.0260467875173176,-0.034,-0.0168856406460551));
#991=CARTESIAN_POINT('',(-0.0280301208506509,-0.034,-0.0134504065443768));
#992=CARTESIAN_POINT('',(-0.0293724602265168,-0.034,-0.0142254065443768));
#993=CARTESIAN_POINT('',(0.143343819498647,-0.038,0.0862236943893505));
#994=CARTESIAN_POINT('',(0.14302715283198,-0.038,0.0867721771450807));
#995=CARTESIAN_POINT('',(0.143660486165313,-0.038,0.0856752116336204));
#996=CARTESIAN_POINT('',(0.14302715283198,-0.037975,0.0867721771450807));
#997=CARTESIAN_POINT('',(-0.0286634541839842,-0.034,-0.0123534410329165));
#998=CARTESIAN_POINT('',(-0.0300057935598501,-0.034,-0.0131284410329165));
#999=CARTESIAN_POINT('',(0.143660486165313,-0.034,0.0856752116336204));
#1000=CARTESIAN_POINT('',(-0.0260467875173176,-0.034,-0.0168856406460551));
#1001=CARTESIAN_POINT('',(-0.0292134541839843,-0.034,-0.0114008130887537));
#1002=CARTESIAN_POINT('',(-0.0305557935598501,-0.034,-0.0121758130887537));
#1003=CARTESIAN_POINT('',(0.142147986165313,-0.038,0.0882949384800683));
#1004=CARTESIAN_POINT('',(0.141843819498647,-0.038,0.0888217706007038));
#1005=CARTESIAN_POINT('',(0.14247715283198,-0.038,0.0877248050892435));
#1006=CARTESIAN_POINT('',(0.14247715283198,-0.034,0.0877248050892435));
#1007=CARTESIAN_POINT('',(0.141843819498647,-0.034025,0.0888217706007038));
#1008=CARTESIAN_POINT('',(-0.0283467875173176,-0.049,-0.0129019237886467));
#1009=CARTESIAN_POINT('',(-0.0283467875173176,-0.049,-0.0129019237886467));
#1010=CARTESIAN_POINT('',(-0.0310098156339547,-0.049,-0.0144394237886467));
#1011=CARTESIAN_POINT('',(-0.0283467875173176,-0.049,-0.0129019237886467));
#1012=MECHANICAL_DESIGN_GEOMETRIC_PRESENTATION_REPRESENTATION('',(#627),
#1013);
#1013=(
GEOMETRIC_REPRESENTATION_CONTEXT(3)
GLOBAL_UNCERTAINTY_ASSIGNED_CONTEXT((#1014))
GLOBAL_UNIT_ASSIGNED_CONTEXT((#1017,#1016,#1015))
REPRESENTATION_CONTEXT('Servo rod 3','TOP_LEVEL_ASSEMBLY_PART')
);
#1014=UNCERTAINTY_MEASURE_WITH_UNIT(LENGTH_MEASURE(1.E-8),#1017,
'DISTANCE_ACCURACY_VALUE','Maximum Tolerance applied to model');
#1015=(
NAMED_UNIT(*)
SI_UNIT($,.STERADIAN.)
SOLID_ANGLE_UNIT()
);
#1016=(
NAMED_UNIT(*)
PLANE_ANGLE_UNIT()
SI_UNIT($,.RADIAN.)
);
#1017=(
LENGTH_UNIT()
NAMED_UNIT(*)
SI_UNIT($,.METRE.)
);
#1018=PRODUCT_DEFINITION_SHAPE('','',#1019);
#1019=PRODUCT_DEFINITION('','',#1021,#1020);
#1020=PRODUCT_DEFINITION_CONTEXT('',#1027,'design');
#1021=PRODUCT_DEFINITION_FORMATION_WITH_SPECIFIED_SOURCE('','',#1023,
 .NOT_KNOWN.);
#1022=PRODUCT_RELATED_PRODUCT_CATEGORY('','',(#1023));
#1023=PRODUCT('Servo rod 3','Servo rod 3','Servo rod 3',(#1025));
#1024=PRODUCT_CATEGORY('','');
#1025=PRODUCT_CONTEXT('',#1027,'mechanical');
#1026=APPLICATION_PROTOCOL_DEFINITION('international standard',
'ap242_managed_model_based_3d_engineering',2020,#1027);
#1027=APPLICATION_CONTEXT('managed model based 3d engineering');
ENDSEC;
END-ISO-10303-21;
