ISO-10303-21;
HEADER;
/* Generated by software containing ST-Developer
 * from STEP Tools, Inc. (www.steptools.com) 
 */
/* OPTION: using custom renumber hook */

FILE_DESCRIPTION(
/* description */ ('STEP AP242 Edition 2',
'CAx-IF Rec.Pracs.---Representation and Presentation of Product Manufa
cturing Information (PMI)---4.0---2014-10-13',
'CAx-IF Rec.Pracs.---3D Tessellated Geometry---0.4---2014-09-14','2;1',
'CAx-IF Rec.Pracs.---User Defined Attributes---1.5---2016-08-15'),
/* implementation_level */ '2;1');

FILE_NAME(
/* name */ 'Candy launcher - Weight',
/* time_stamp */ '2026-08-31T07:11:55Z',
/* author */ (''),
/* organization */ (''),
/* preprocessor_version */ 'ST-DEVELOPER v20',
/* originating_system */ 'ONSHAPE BY PTC INC, 1.220',
/* authorisation */ '  ');

FILE_SCHEMA (('AP242_MANAGED_MODEL_BASED_3D_ENGINEERING_MIM_LF { 1 0 10303 442 3 1 4 }'));
ENDSEC;

DATA;
#10=SHAPE_REPRESENTATION_RELATIONSHIP('','',#244,#11);
#11=ADVANCED_BREP_SHAPE_REPRESENTATION('',(#242),#432);
#12=PLANE('',#252);
#13=PLANE('',#256);
#14=PLANE('',#263);
#15=PLANE('',#264);
#16=PLANE('',#265);
#17=PLANE('',#267);
#18=PLANE('',#273);
#19=LINE('',#361,#31);
#20=LINE('',#365,#32);
#21=LINE('',#369,#33);
#22=LINE('',#373,#34);
#23=LINE('',#375,#35);
#24=LINE('',#377,#36);
#25=LINE('',#381,#37);
#26=LINE('',#385,#38);
#27=LINE('',#387,#39);
#28=LINE('',#389,#40);
#29=LINE('',#394,#41);
#30=LINE('',#405,#42);
#31=VECTOR('',#280,1.);
#32=VECTOR('',#283,1.);
#33=VECTOR('',#288,1.);
#34=VECTOR('',#293,1.);
#35=VECTOR('',#294,1.);
#36=VECTOR('',#295,1.);
#37=VECTOR('',#300,1.);
#38=VECTOR('',#305,1.);
#39=VECTOR('',#306,1.);
#40=VECTOR('',#307,1.);
#41=VECTOR('',#316,1.);
#42=VECTOR('',#317,1.);
#43=CIRCLE('',#247,0.01455);
#44=CIRCLE('',#248,0.01455);
#45=CIRCLE('',#250,0.003);
#46=CIRCLE('',#251,0.003);
#47=CIRCLE('',#254,0.003);
#48=CIRCLE('',#255,0.003);
#49=CIRCLE('',#258,0.003);
#50=CIRCLE('',#259,0.003);
#51=CIRCLE('',#261,0.001);
#52=CIRCLE('',#262,0.001);
#53=CIRCLE('',#266,0.0015);
#54=CIRCLE('',#268,0.0015);
#55=CIRCLE('',#270,0.0015);
#56=CIRCLE('',#272,0.00265);
#57=ORIENTED_EDGE('',*,*,#115,.T.);
#58=ORIENTED_EDGE('',*,*,#116,.T.);
#59=ORIENTED_EDGE('',*,*,#117,.F.);
#60=ORIENTED_EDGE('',*,*,#118,.F.);
#61=ORIENTED_EDGE('',*,*,#119,.T.);
#62=ORIENTED_EDGE('',*,*,#120,.T.);
#63=ORIENTED_EDGE('',*,*,#121,.F.);
#64=ORIENTED_EDGE('',*,*,#122,.F.);
#65=ORIENTED_EDGE('',*,*,#117,.T.);
#66=ORIENTED_EDGE('',*,*,#123,.F.);
#67=ORIENTED_EDGE('',*,*,#124,.F.);
#68=ORIENTED_EDGE('',*,*,#125,.T.);
#69=ORIENTED_EDGE('',*,*,#121,.T.);
#70=ORIENTED_EDGE('',*,*,#126,.T.);
#71=ORIENTED_EDGE('',*,*,#127,.F.);
#72=ORIENTED_EDGE('',*,*,#128,.F.);
#73=ORIENTED_EDGE('',*,*,#124,.T.);
#74=ORIENTED_EDGE('',*,*,#129,.F.);
#75=ORIENTED_EDGE('',*,*,#130,.F.);
#76=ORIENTED_EDGE('',*,*,#131,.T.);
#77=ORIENTED_EDGE('',*,*,#127,.T.);
#78=ORIENTED_EDGE('',*,*,#132,.T.);
#79=ORIENTED_EDGE('',*,*,#119,.F.);
#80=ORIENTED_EDGE('',*,*,#133,.F.);
#81=ORIENTED_EDGE('',*,*,#130,.T.);
#82=ORIENTED_EDGE('',*,*,#134,.F.);
#83=ORIENTED_EDGE('',*,*,#135,.F.);
#84=ORIENTED_EDGE('',*,*,#136,.F.);
#85=ORIENTED_EDGE('',*,*,#137,.F.);
#86=ORIENTED_EDGE('',*,*,#138,.T.);
#87=ORIENTED_EDGE('',*,*,#139,.F.);
#88=ORIENTED_EDGE('',*,*,#118,.T.);
#89=ORIENTED_EDGE('',*,*,#122,.T.);
#90=ORIENTED_EDGE('',*,*,#125,.F.);
#91=ORIENTED_EDGE('',*,*,#128,.T.);
#92=ORIENTED_EDGE('',*,*,#131,.F.);
#93=ORIENTED_EDGE('',*,*,#133,.T.);
#94=ORIENTED_EDGE('',*,*,#138,.F.);
#95=ORIENTED_EDGE('',*,*,#116,.F.);
#96=ORIENTED_EDGE('',*,*,#132,.F.);
#97=ORIENTED_EDGE('',*,*,#129,.T.);
#98=ORIENTED_EDGE('',*,*,#126,.F.);
#99=ORIENTED_EDGE('',*,*,#123,.T.);
#100=ORIENTED_EDGE('',*,*,#120,.F.);
#101=ORIENTED_EDGE('',*,*,#139,.T.);
#102=ORIENTED_EDGE('',*,*,#134,.T.);
#103=ORIENTED_EDGE('',*,*,#140,.F.);
#104=ORIENTED_EDGE('',*,*,#136,.T.);
#105=ORIENTED_EDGE('',*,*,#141,.F.);
#106=ORIENTED_EDGE('',*,*,#142,.F.);
#107=ORIENTED_EDGE('',*,*,#135,.T.);
#108=ORIENTED_EDGE('',*,*,#140,.T.);
#109=ORIENTED_EDGE('',*,*,#137,.T.);
#110=ORIENTED_EDGE('',*,*,#141,.T.);
#111=ORIENTED_EDGE('',*,*,#143,.T.);
#112=ORIENTED_EDGE('',*,*,#115,.F.);
#113=ORIENTED_EDGE('',*,*,#142,.T.);
#114=ORIENTED_EDGE('',*,*,#143,.F.);
#115=EDGE_CURVE('',#144,#144,#165,.T.);
#116=EDGE_CURVE('',#145,#146,#43,.T.);
#117=EDGE_CURVE('',#147,#146,#19,.T.);
#118=EDGE_CURVE('',#148,#147,#44,.T.);
#119=EDGE_CURVE('',#148,#145,#20,.T.);
#120=EDGE_CURVE('',#146,#149,#45,.T.);
#121=EDGE_CURVE('',#150,#149,#21,.T.);
#122=EDGE_CURVE('',#147,#150,#46,.T.);
#123=EDGE_CURVE('',#151,#149,#22,.T.);
#124=EDGE_CURVE('',#152,#151,#23,.T.);
#125=EDGE_CURVE('',#152,#150,#24,.T.);
#126=EDGE_CURVE('',#151,#153,#47,.T.);
#127=EDGE_CURVE('',#154,#153,#25,.T.);
#128=EDGE_CURVE('',#152,#154,#48,.T.);
#129=EDGE_CURVE('',#155,#153,#26,.T.);
#130=EDGE_CURVE('',#156,#155,#27,.T.);
#131=EDGE_CURVE('',#156,#154,#28,.T.);
#132=EDGE_CURVE('',#155,#145,#49,.T.);
#133=EDGE_CURVE('',#156,#148,#50,.T.);
#134=EDGE_CURVE('',#157,#158,#29,.T.);
#135=EDGE_CURVE('',#159,#157,#166,.T.);
#136=EDGE_CURVE('',#160,#159,#30,.F.);
#137=EDGE_CURVE('',#158,#160,#167,.T.);
#138=EDGE_CURVE('',#161,#161,#51,.T.);
#139=EDGE_CURVE('',#162,#162,#52,.T.);
#140=EDGE_CURVE('',#157,#158,#53,.T.);
#141=EDGE_CURVE('',#160,#159,#54,.T.);
#142=EDGE_CURVE('',#163,#163,#55,.T.);
#143=EDGE_CURVE('',#164,#164,#56,.T.);
#144=VERTEX_POINT('',#357);
#145=VERTEX_POINT('',#359);
#146=VERTEX_POINT('',#360);
#147=VERTEX_POINT('',#362);
#148=VERTEX_POINT('',#364);
#149=VERTEX_POINT('',#368);
#150=VERTEX_POINT('',#370);
#151=VERTEX_POINT('',#374);
#152=VERTEX_POINT('',#376);
#153=VERTEX_POINT('',#380);
#154=VERTEX_POINT('',#382);
#155=VERTEX_POINT('',#386);
#156=VERTEX_POINT('',#388);
#157=VERTEX_POINT('',#395);
#158=VERTEX_POINT('',#396);
#159=VERTEX_POINT('',#404);
#160=VERTEX_POINT('',#406);
#161=VERTEX_POINT('',#415);
#162=VERTEX_POINT('',#417);
#163=VERTEX_POINT('',#426);
#164=VERTEX_POINT('',#429);
#165=B_SPLINE_CURVE_WITH_KNOTS('',3,(#346,#347,#348,#349,#350,#351,#352,
#353,#354,#355,#356),.UNSPECIFIED.,.T.,.F.,(1,1,1,1,1,1,1,1,1,1,1,1,1,1,
1),(-0.00622689152859797,-0.00415126101906531,-0.00207563050953266,0.,0.00207563050953266,
0.00415126101906531,0.00622689152859797,0.00830252203813062,0.0103781525476633,
0.0124537830571959,0.0145294135667286,0.0166050440762612,0.0186806745857939,
0.0207563050953266,0.0228319356048592),.UNSPECIFIED.);
#166=B_SPLINE_CURVE_WITH_KNOTS('',3,(#397,#398,#399,#400,#401,#402,#403),
 .UNSPECIFIED.,.F.,.F.,(4,1,1,1,4),(0.,0.00080738942506352,0.00161477885012704,
0.00242216827519056,0.00322955770025408),.UNSPECIFIED.);
#167=B_SPLINE_CURVE_WITH_KNOTS('',3,(#407,#408,#409,#410,#411,#412,#413),
 .UNSPECIFIED.,.F.,.F.,(4,1,1,1,4),(1.86355731254713E-18,0.000807389425063484,
0.00161477885012697,0.00242216827519045,0.00322955770025393),
 .UNSPECIFIED.);
#168=EDGE_LOOP('',(#57));
#169=EDGE_LOOP('',(#58,#59,#60,#61));
#170=EDGE_LOOP('',(#62,#63,#64,#65));
#171=EDGE_LOOP('',(#66,#67,#68,#69));
#172=EDGE_LOOP('',(#70,#71,#72,#73));
#173=EDGE_LOOP('',(#74,#75,#76,#77));
#174=EDGE_LOOP('',(#78,#79,#80,#81));
#175=EDGE_LOOP('',(#82,#83,#84,#85));
#176=EDGE_LOOP('',(#86));
#177=EDGE_LOOP('',(#87));
#178=EDGE_LOOP('',(#88,#89,#90,#91,#92,#93));
#179=EDGE_LOOP('',(#94));
#180=EDGE_LOOP('',(#95,#96,#97,#98,#99,#100));
#181=EDGE_LOOP('',(#101));
#182=EDGE_LOOP('',(#102,#103));
#183=EDGE_LOOP('',(#104,#105));
#184=EDGE_LOOP('',(#106));
#185=EDGE_LOOP('',(#107,#108,#109,#110));
#186=EDGE_LOOP('',(#111));
#187=EDGE_LOOP('',(#112));
#188=EDGE_LOOP('',(#113));
#189=EDGE_LOOP('',(#114));
#190=FACE_BOUND('',#168,.T.);
#191=FACE_BOUND('',#169,.T.);
#192=FACE_BOUND('',#170,.T.);
#193=FACE_BOUND('',#171,.T.);
#194=FACE_BOUND('',#172,.T.);
#195=FACE_BOUND('',#173,.T.);
#196=FACE_BOUND('',#174,.T.);
#197=FACE_BOUND('',#175,.T.);
#198=FACE_BOUND('',#176,.T.);
#199=FACE_BOUND('',#177,.T.);
#200=FACE_BOUND('',#178,.T.);
#201=FACE_BOUND('',#179,.T.);
#202=FACE_BOUND('',#180,.T.);
#203=FACE_BOUND('',#181,.T.);
#204=FACE_BOUND('',#182,.T.);
#205=FACE_BOUND('',#183,.T.);
#206=FACE_BOUND('',#184,.T.);
#207=FACE_BOUND('',#185,.T.);
#208=FACE_BOUND('',#186,.T.);
#209=FACE_BOUND('',#187,.T.);
#210=FACE_BOUND('',#188,.T.);
#211=FACE_BOUND('',#189,.T.);
#212=CYLINDRICAL_SURFACE('',#246,0.01455);
#213=CYLINDRICAL_SURFACE('',#249,0.003);
#214=CYLINDRICAL_SURFACE('',#253,0.003);
#215=CYLINDRICAL_SURFACE('',#257,0.003);
#216=CYLINDRICAL_SURFACE('',#260,0.001);
#217=CYLINDRICAL_SURFACE('',#269,0.0015);
#218=CYLINDRICAL_SURFACE('',#271,0.00265);
#219=ADVANCED_FACE('',(#190,#191),#212,.T.);
#220=ADVANCED_FACE('',(#192),#213,.T.);
#221=ADVANCED_FACE('',(#193),#12,.T.);
#222=ADVANCED_FACE('',(#194),#214,.T.);
#223=ADVANCED_FACE('',(#195),#13,.T.);
#224=ADVANCED_FACE('',(#196),#215,.T.);
#225=ADVANCED_FACE('',(#197,#198,#199),#216,.F.);
#226=ADVANCED_FACE('',(#200,#201),#14,.T.);
#227=ADVANCED_FACE('',(#202,#203),#15,.F.);
#228=ADVANCED_FACE('',(#204),#16,.F.);
#229=ADVANCED_FACE('',(#205),#17,.F.);
#230=ADVANCED_FACE('',(#206,#207),#217,.F.);
#231=ADVANCED_FACE('',(#208,#209),#218,.F.);
#232=ADVANCED_FACE('',(#210,#211),#18,.F.);
#233=CLOSED_SHELL('',(#219,#220,#221,#222,#223,#224,#225,#226,#227,#228,
#229,#230,#231,#232));
#234=STYLED_ITEM('',(#235),#242);
#235=PRESENTATION_STYLE_ASSIGNMENT((#236));
#236=SURFACE_STYLE_USAGE(.BOTH.,#237);
#237=SURFACE_SIDE_STYLE('',(#238));
#238=SURFACE_STYLE_FILL_AREA(#239);
#239=FILL_AREA_STYLE('',(#240));
#240=FILL_AREA_STYLE_COLOUR('',#241);
#241=COLOUR_RGB('',0.647058823529412,0.647058823529412,0.647058823529412);
#242=MANIFOLD_SOLID_BREP('Weight',#233);
#243=SHAPE_DEFINITION_REPRESENTATION(#437,#244);
#244=SHAPE_REPRESENTATION('Weight',(#245),#432);
#245=AXIS2_PLACEMENT_3D('',#344,#274,#275);
#246=AXIS2_PLACEMENT_3D('',#345,#276,#277);
#247=AXIS2_PLACEMENT_3D('',#358,#278,#279);
#248=AXIS2_PLACEMENT_3D('',#363,#281,#282);
#249=AXIS2_PLACEMENT_3D('',#366,#284,#285);
#250=AXIS2_PLACEMENT_3D('',#367,#286,#287);
#251=AXIS2_PLACEMENT_3D('',#371,#289,#290);
#252=AXIS2_PLACEMENT_3D('',#372,#291,#292);
#253=AXIS2_PLACEMENT_3D('',#378,#296,#297);
#254=AXIS2_PLACEMENT_3D('',#379,#298,#299);
#255=AXIS2_PLACEMENT_3D('',#383,#301,#302);
#256=AXIS2_PLACEMENT_3D('',#384,#303,#304);
#257=AXIS2_PLACEMENT_3D('',#390,#308,#309);
#258=AXIS2_PLACEMENT_3D('',#391,#310,#311);
#259=AXIS2_PLACEMENT_3D('',#392,#312,#313);
#260=AXIS2_PLACEMENT_3D('',#393,#314,#315);
#261=AXIS2_PLACEMENT_3D('',#414,#318,#319);
#262=AXIS2_PLACEMENT_3D('',#416,#320,#321);
#263=AXIS2_PLACEMENT_3D('',#418,#322,#323);
#264=AXIS2_PLACEMENT_3D('',#419,#324,#325);
#265=AXIS2_PLACEMENT_3D('',#420,#326,#327);
#266=AXIS2_PLACEMENT_3D('',#421,#328,#329);
#267=AXIS2_PLACEMENT_3D('',#422,#330,#331);
#268=AXIS2_PLACEMENT_3D('',#423,#332,#333);
#269=AXIS2_PLACEMENT_3D('',#424,#334,#335);
#270=AXIS2_PLACEMENT_3D('',#425,#336,#337);
#271=AXIS2_PLACEMENT_3D('',#427,#338,#339);
#272=AXIS2_PLACEMENT_3D('',#428,#340,#341);
#273=AXIS2_PLACEMENT_3D('',#430,#342,#343);
#274=DIRECTION('',(0.,0.,1.));
#275=DIRECTION('',(1.,0.,0.));
#276=DIRECTION('',(-1.5001530015072E-14,-0.422618261740699,0.90630778703665));
#277=DIRECTION('',(0.,-0.90630778703665,-0.422618261740699));
#278=DIRECTION('',(1.5001530015072E-14,0.422618261740699,-0.90630778703665));
#279=DIRECTION('',(0.,0.90630778703665,0.422618261740699));
#280=DIRECTION('',(-1.5001530015072E-14,-0.422618261740699,0.90630778703665));
#281=DIRECTION('',(1.5001530015072E-14,0.422618261740699,-0.90630778703665));
#282=DIRECTION('',(0.,0.90630778703665,0.422618261740699));
#283=DIRECTION('',(-1.5001530015072E-14,-0.422618261740699,0.90630778703665));
#284=DIRECTION('',(-1.5001530015072E-14,-0.422618261740699,0.90630778703665));
#285=DIRECTION('',(0.,-0.90630778703665,-0.422618261740699));
#286=DIRECTION('',(1.5001530015072E-14,0.422618261740699,-0.90630778703665));
#287=DIRECTION('',(0.,0.90630778703665,0.422618261740699));
#288=DIRECTION('',(-1.5001530015072E-14,-0.422618261740699,0.90630778703665));
#289=DIRECTION('',(1.5001530015072E-14,0.422618261740699,-0.90630778703665));
#290=DIRECTION('',(0.,0.90630778703665,0.422618261740699));
#291=DIRECTION('',(0.38268343236509,0.837319214598757,0.390448362087735));
#292=DIRECTION('',(0.,-0.422618261740705,0.906307787036647));
#293=DIRECTION('',(-0.923879532511287,0.346828974722399,0.161729006983086));
#294=DIRECTION('',(-1.5001530015072E-14,-0.422618261740699,0.90630778703665));
#295=DIRECTION('',(-0.923879532511287,0.346828974722399,0.161729006983086));
#296=DIRECTION('',(-1.5001530015072E-14,-0.422618261740699,0.90630778703665));
#297=DIRECTION('',(0.,-0.90630778703665,-0.422618261740699));
#298=DIRECTION('',(1.5001530015072E-14,0.422618261740699,-0.90630778703665));
#299=DIRECTION('',(0.,0.90630778703665,0.422618261740699));
#300=DIRECTION('',(-1.5001530015072E-14,-0.422618261740699,0.90630778703665));
#301=DIRECTION('',(1.5001530015072E-14,0.422618261740699,-0.90630778703665));
#302=DIRECTION('',(0.,0.90630778703665,0.422618261740699));
#303=DIRECTION('',(0.382683432365091,-0.837319214598761,-0.390448362087724));
#304=DIRECTION('',(0.,0.422618261740694,-0.906307787036652));
#305=DIRECTION('',(0.923879532511287,0.346828974722389,0.161729006983111));
#306=DIRECTION('',(-1.5001530015072E-14,-0.422618261740699,0.90630778703665));
#307=DIRECTION('',(0.923879532511287,0.346828974722389,0.161729006983111));
#308=DIRECTION('',(-1.5001530015072E-14,-0.422618261740699,0.90630778703665));
#309=DIRECTION('',(0.,-0.90630778703665,-0.422618261740699));
#310=DIRECTION('',(1.5001530015072E-14,0.422618261740699,-0.90630778703665));
#311=DIRECTION('',(0.,0.90630778703665,0.422618261740699));
#312=DIRECTION('',(1.5001530015072E-14,0.422618261740699,-0.90630778703665));
#313=DIRECTION('',(0.,0.90630778703665,0.422618261740699));
#314=DIRECTION('',(-1.5001530015072E-14,-0.422618261740699,0.90630778703665));
#315=DIRECTION('',(0.,-0.90630778703665,-0.422618261740699));
#316=DIRECTION('',(-1.5001530015072E-14,-0.422618261740699,0.90630778703665));
#317=DIRECTION('',(-1.5001530015072E-14,-0.422618261740699,0.90630778703665));
#318=DIRECTION('',(1.5001530015072E-14,0.422618261740699,-0.90630778703665));
#319=DIRECTION('',(0.,0.90630778703665,0.422618261740699));
#320=DIRECTION('',(1.5001530015072E-14,0.422618261740699,-0.90630778703665));
#321=DIRECTION('',(0.,0.90630778703665,0.422618261740699));
#322=DIRECTION('',(1.5001530015072E-14,0.422618261740699,-0.90630778703665));
#323=DIRECTION('',(1.,-6.33992053842065E-15,1.35960034701238E-14));
#324=DIRECTION('',(1.5001530015072E-14,0.422618261740699,-0.90630778703665));
#325=DIRECTION('',(1.,-6.33992053842065E-15,1.35960034701238E-14));
#326=DIRECTION('',(1.,0.,0.));
#327=DIRECTION('',(0.,1.,0.));
#328=DIRECTION('',(1.,0.,0.));
#329=DIRECTION('',(0.,0.,-1.));
#330=DIRECTION('',(1.,0.,0.));
#331=DIRECTION('',(0.,1.,0.));
#332=DIRECTION('',(1.,0.,0.));
#333=DIRECTION('',(0.,0.,-1.));
#334=DIRECTION('',(1.,0.,0.));
#335=DIRECTION('',(0.,0.,-1.));
#336=DIRECTION('',(1.,0.,0.));
#337=DIRECTION('',(0.,0.,-1.));
#338=DIRECTION('',(1.,0.,0.));
#339=DIRECTION('',(0.,0.,-1.));
#340=DIRECTION('',(1.,0.,0.));
#341=DIRECTION('',(0.,0.,-1.));
#342=DIRECTION('',(1.,0.,0.));
#343=DIRECTION('',(0.,1.,0.));
#344=CARTESIAN_POINT('',(0.,0.,0.));
#345=CARTESIAN_POINT('',(-8.95313754264396E-16,-0.00905636369332983,0.118636636001078));
#346=CARTESIAN_POINT('',(-0.0142886086142288,-0.0123999594343265,0.119277965211416));
#347=CARTESIAN_POINT('',(-0.0145461177559485,-0.0103253181580601,0.118418005955242));
#348=CARTESIAN_POINT('',(-0.0145679254561474,-0.00824407880474427,0.119283367140747));
#349=CARTESIAN_POINT('',(-0.0143115648443714,-0.00738775194242414,0.121351826447057));
#350=CARTESIAN_POINT('',(-0.0142887941421087,-0.00825022599560771,0.123435333424699));
#351=CARTESIAN_POINT('',(-0.014545906581988,-0.0103221254798417,0.124291655828732));
#352=CARTESIAN_POINT('',(-0.0145682293507963,-0.0124015066456452,0.123431398623159));
#353=CARTESIAN_POINT('',(-0.0143115681122912,-0.0132609605314833,0.121358299713415));
#354=CARTESIAN_POINT('',(-0.0142886086142288,-0.0123999594343265,0.119277965211416));
#355=CARTESIAN_POINT('',(-0.0145461177559485,-0.0103253181580601,0.118418005955242));
#356=CARTESIAN_POINT('',(-0.0145679254561474,-0.00824407880474427,0.119283367140747));
#357=CARTESIAN_POINT('',(-0.0145068341823617,-0.0103242184785519,0.118705559362188));
#358=CARTESIAN_POINT('',(-9.85322934354828E-16,-0.011592073263774,0.124074482723298));
#359=CARTESIAN_POINT('',(-0.0134424471980405,-0.0166384348459841,0.121721325671694));
#360=CARTESIAN_POINT('',(-0.0134424471980397,-0.00654571168156191,0.126427639774903));
#361=CARTESIAN_POINT('',(-0.0134424471980396,-0.00401000211111771,0.120989793052683));
#362=CARTESIAN_POINT('',(-0.0134424471980396,-0.00401000211111771,0.120989793052683));
#363=CARTESIAN_POINT('',(-8.95313754264396E-16,-0.00905636369332983,0.118636636001078));
#364=CARTESIAN_POINT('',(-0.0134424471980404,-0.0141027252755398,0.116283478949474));
#365=CARTESIAN_POINT('',(-0.0134424471980404,-0.0141027252755398,0.116283478949474));
#366=CARTESIAN_POINT('',(-0.0106708086005058,-0.00505048903528519,0.120504606031733));
#367=CARTESIAN_POINT('',(-0.0106708086005059,-0.00758619860572938,0.125942452753953));
#368=CARTESIAN_POINT('',(-0.00952275830341076,-0.00507424096193306,0.127113797840216));
#369=CARTESIAN_POINT('',(-0.00952275830341067,-0.00253853139148886,0.121675951117996));
#370=CARTESIAN_POINT('',(-0.00952275830341067,-0.00253853139148886,0.121675951117996));
#371=CARTESIAN_POINT('',(-0.0106708086005058,-0.00505048903528519,0.120504606031733));
#372=CARTESIAN_POINT('',(-0.00418735400315798,-0.00454146872051072,0.120741966102669));
#373=CARTESIAN_POINT('',(-0.00418735400315807,-0.00707717829095492,0.126179812824889));
#374=CARTESIAN_POINT('',(0.00114805029709429,-0.00908011561997775,0.125245827809561));
#375=CARTESIAN_POINT('',(0.00114805029709438,-0.00654440604953355,0.119807981087341));
#376=CARTESIAN_POINT('',(0.00114805029709438,-0.00654440604953355,0.119807981087341));
#377=CARTESIAN_POINT('',(-0.00418735400315798,-0.00454146872051072,0.120741966102669));
#378=CARTESIAN_POINT('',(-8.89242222098476E-16,-0.00905636369332982,0.118636636001078));
#379=CARTESIAN_POINT('',(-9.79251402188908E-16,-0.011592073263774,0.124074482723298));
#380=CARTESIAN_POINT('',(0.00114805029709472,-0.0141040309075712,0.122903137637034));
#381=CARTESIAN_POINT('',(0.00114805029709481,-0.011568321337127,0.117465290914815));
#382=CARTESIAN_POINT('',(0.00114805029709481,-0.011568321337127,0.117465290914815));
#383=CARTESIAN_POINT('',(-8.89242222098476E-16,-0.00905636369332982,0.118636636001078));
#384=CARTESIAN_POINT('',(-0.00418735400315787,-0.0135712586661488,0.116531305899487));
#385=CARTESIAN_POINT('',(-0.00418735400315797,-0.016106968236593,0.121969152621707));
#386=CARTESIAN_POINT('',(-0.00952275830341064,-0.0181099055656148,0.12103516760638));
#387=CARTESIAN_POINT('',(-0.00952275830341055,-0.0155741959951706,0.11559732088416));
#388=CARTESIAN_POINT('',(-0.00952275830341055,-0.0155741959951706,0.11559732088416));
#389=CARTESIAN_POINT('',(-0.00418735400315787,-0.0135712586661488,0.116531305899487));
#390=CARTESIAN_POINT('',(-0.0106708086005058,-0.0130622383513743,0.116768665970423));
#391=CARTESIAN_POINT('',(-0.0106708086005059,-0.0155979479218186,0.122206512692643));
#392=CARTESIAN_POINT('',(-0.0106708086005058,-0.0130622383513743,0.116768665970423));
#393=CARTESIAN_POINT('',(-1.63387227416152E-15,-0.00905636369332977,0.118636636001078));
#394=CARTESIAN_POINT('',(0.,-0.00815005590629312,0.119059254262819));
#395=CARTESIAN_POINT('',(1.67722204401022E-17,-0.00894540911062271,0.120764894713753));
#396=CARTESIAN_POINT('',(-1.67722204401022E-17,-0.00989041227240772,0.122791460534104));
#397=CARTESIAN_POINT('',(1.67722204401022E-17,-0.010758024684696,0.119919658190272));
#398=CARTESIAN_POINT('',(-0.000274094389203827,-0.0107580246846966,0.119919658190272));
#399=CARTESIAN_POINT('',(-0.00077237903259171,-0.0104732696441355,0.11981394117647));
#400=CARTESIAN_POINT('',(-0.00111336558781382,-0.00965925355021928,0.119919390520572));
#401=CARTESIAN_POINT('',(-0.000774135446129604,-0.00904658145269548,0.1204780498707));
#402=CARTESIAN_POINT('',(-0.000274621647884102,-0.00894540911062205,0.120764894713753));
#403=CARTESIAN_POINT('',(6.52671458422503E-17,-0.0089454091106223,0.120764894713752));
#404=CARTESIAN_POINT('',(1.67722204401022E-17,-0.010758024684696,0.119919658190272));
#405=CARTESIAN_POINT('',(0.,-0.00996267148036642,0.118214017739337));
#406=CARTESIAN_POINT('',(-1.67722204401022E-17,-0.011703027846481,0.121946224010623));
#407=CARTESIAN_POINT('',(-1.67722204401022E-17,-0.00989041227240771,0.122791460534104));
#408=CARTESIAN_POINT('',(-0.000274094389203849,-0.00989041227240712,0.122791460534104));
#409=CARTESIAN_POINT('',(-0.000772379032591629,-0.0101751673129683,0.122897177547907));
#410=CARTESIAN_POINT('',(-0.0011133655878139,-0.0109891834068844,0.122791728203804));
#411=CARTESIAN_POINT('',(-0.000774135446129598,-0.0116018555044083,0.122233068853676));
#412=CARTESIAN_POINT('',(-0.000274621647884155,-0.0117030278464817,0.121946224010623));
#413=CARTESIAN_POINT('',(3.23393524286607E-17,-0.0117030278464814,0.121946224010624));
#414=CARTESIAN_POINT('',(-1.63387227416152E-15,-0.00905636369332977,0.118636636001078));
#415=CARTESIAN_POINT('',(-1.63387227416152E-15,-0.00815005590629312,0.119059254262819));
#416=CARTESIAN_POINT('',(-1.72388145425195E-15,-0.011592073263774,0.124074482723298));
#417=CARTESIAN_POINT('',(-1.72388145425195E-15,-0.0106857654767373,0.124497100985039));
#418=CARTESIAN_POINT('',(-0.00120000000000125,-0.00905636369332978,0.118636636001078));
#419=CARTESIAN_POINT('',(-0.00120000000000134,-0.011592073263774,0.124074482723298));
#420=CARTESIAN_POINT('',(0.,-0.0103242184785519,0.121355559362188));
#421=CARTESIAN_POINT('',(0.,-0.0103242184785519,0.121355559362188));
#422=CARTESIAN_POINT('',(0.,-0.0103242184785519,0.121355559362188));
#423=CARTESIAN_POINT('',(0.,-0.0103242184785519,0.121355559362188));
#424=CARTESIAN_POINT('',(-0.0145520000000009,-0.0103242184785519,0.121355559362188));
#425=CARTESIAN_POINT('',(-0.009,-0.0103242184785519,0.121355559362188));
#426=CARTESIAN_POINT('',(-0.009,-0.0103242184785519,0.119855559362188));
#427=CARTESIAN_POINT('',(-0.034,-0.0103242184785519,0.121355559362188));
#428=CARTESIAN_POINT('',(-0.009,-0.0103242184785519,0.121355559362188));
#429=CARTESIAN_POINT('',(-0.009,-0.0103242184785519,0.118705559362188));
#430=CARTESIAN_POINT('',(-0.009,-0.0103242184785519,0.121355559362188));
#431=MECHANICAL_DESIGN_GEOMETRIC_PRESENTATION_REPRESENTATION('',(#234),
#432);
#432=(
GEOMETRIC_REPRESENTATION_CONTEXT(3)
GLOBAL_UNCERTAINTY_ASSIGNED_CONTEXT((#433))
GLOBAL_UNIT_ASSIGNED_CONTEXT((#436,#435,#434))
REPRESENTATION_CONTEXT('Weight','TOP_LEVEL_ASSEMBLY_PART')
);
#433=UNCERTAINTY_MEASURE_WITH_UNIT(LENGTH_MEASURE(2.E-5),#436,
'DISTANCE_ACCURACY_VALUE','Maximum Tolerance applied to model');
#434=(
NAMED_UNIT(*)
SI_UNIT($,.STERADIAN.)
SOLID_ANGLE_UNIT()
);
#435=(
NAMED_UNIT(*)
PLANE_ANGLE_UNIT()
SI_UNIT($,.RADIAN.)
);
#436=(
LENGTH_UNIT()
NAMED_UNIT(*)
SI_UNIT($,.METRE.)
);
#437=PRODUCT_DEFINITION_SHAPE('','',#438);
#438=PRODUCT_DEFINITION('','',#440,#439);
#439=PRODUCT_DEFINITION_CONTEXT('',#446,'design');
#440=PRODUCT_DEFINITION_FORMATION_WITH_SPECIFIED_SOURCE('','',#442,
 .NOT_KNOWN.);
#441=PRODUCT_RELATED_PRODUCT_CATEGORY('','',(#442));
#442=PRODUCT('Weight','Weight','Weight',(#444));
#443=PRODUCT_CATEGORY('','');
#444=PRODUCT_CONTEXT('',#446,'mechanical');
#445=APPLICATION_PROTOCOL_DEFINITION('international standard',
'ap242_managed_model_based_3d_engineering',2020,#446);
#446=APPLICATION_CONTEXT('managed model based 3d engineering');
ENDSEC;
END-ISO-10303-21;
